<svg xmlns="http://www.w3.org/2000/svg" width="22.575" height="22.575" viewBox="0 0 22.575 22.575">
  <g id="Double_left" data-name="Double left" transform="translate(29.575 29.575) rotate(180)">
    <path id="Path_1157" data-name="Path 1157" d="M18.287,29.575a2.257,2.257,0,0,1-1.6-.661L7.661,19.884a2.258,2.258,0,0,1,0-3.192l9.03-9.03a2.257,2.257,0,1,1,3.192,3.192l-7.434,7.434,7.434,7.434a2.258,2.258,0,0,1-1.6,3.854Z" transform="translate(0 0)" fill="#565956"/>
    <path id="Path_1158" data-name="Path 1158" d="M22.287,29.575a2.257,2.257,0,0,1-1.6-.661l-9.031-9.031a2.258,2.258,0,0,1,0-3.192l9.03-9.03a2.257,2.257,0,1,1,3.192,3.192l-7.434,7.434,7.434,7.434a2.258,2.258,0,0,1-1.6,3.854Z" transform="translate(5.03 0)" fill="#565956"/>
  </g>
</svg>
