<svg id="bikeNav" xmlns="http://www.w3.org/2000/svg" width="52.395" height="33.507" viewBox="0 0 52.395 33.507">
  <path id="Path_593" data-name="Path 593" d="M123.386,236.09a10.064,10.064,0,1,0,7.115,2.948,10.064,10.064,0,0,0-7.115-2.948Zm-5.959,4.109a8.426,8.426,0,1,1-2.467,5.958A8.426,8.426,0,0,1,117.426,240.2Z" transform="translate(-81.053 -222.712)" fill="#c2c2c2"/>
  <path id="Path_594" data-name="Path 594" d="M350.416,236.09a10.064,10.064,0,1,0,7.115,2.948,10.064,10.064,0,0,0-7.115-2.948Zm-5.958,4.109a8.424,8.424,0,1,1-2.469,5.958A8.424,8.424,0,0,1,344.458,240.2Z" transform="translate(-340.349 -222.712)" fill="#c2c2c2"/>
  <path id="Path_595" data-name="Path 595" d="M241.28,197.141H220.443a.819.819,0,0,0-.78.568l-6.4,14.771h0a.819.819,0,0,0,.426,1.076.827.827,0,0,0,.341.068h14.481a.816.816,0,0,0,.657-.331l12.733-14.8h0a.817.817,0,0,0-.621-1.352Zm-20.311,1.637h18.537l-11.37,13.206H215.256l5.715-13.206Z" transform="translate(-203.905 -189.297)" fill="#c2c2c2"/>
  <path id="Path_596" data-name="Path 596" d="M186.978,165.208a.815.815,0,1,1-1.548.512l-7-20.99h0a.821.821,0,0,1,.294-.921c2.025-1.775,3.506-2.132,4.625-1.663s1.735,1.738,2.119,3.206c.9,3.5-2.9,3.5-2.908,3.5a.816.816,0,1,1-.013-1.63s1.718,0,1.34-1.471c-.262-1.019-.617-1.869-1.168-2.1-.507-.212-1.31.044-2.568,1.079l6.822,20.473Z" transform="translate(-143.872 -141.958)" fill="#c2c2c2"/>
  <path id="Path_597" data-name="Path 597" d="M317.867,196.815a.816.816,0,0,1-1.528.576l-6.6-17.447a.816.816,0,1,1,1.528-.576Z" transform="translate(-293.434 -173.598)" fill="#c2c2c2"/>
  <path id="Path_598" data-name="Path 598" d="M177.577,301.432a1.086,1.086,0,1,1,1.084-1.086A1.086,1.086,0,0,1,177.577,301.432Z" transform="translate(-135.245 -276.904)" fill="#c2c2c2" fill-rule="evenodd"/>
  <path id="Path_599" data-name="Path 599" d="M404.607,301.432a1.086,1.086,0,1,1,1.084-1.086A1.086,1.086,0,0,1,404.607,301.432Z" transform="translate(-394.541 -276.904)" fill="#c2c2c2" fill-rule="evenodd"/>
  <path id="Path_600" data-name="Path 600" d="M300.69,296.739a2.01,2.01,0,1,1,2.01-2.01A2.01,2.01,0,0,1,300.69,296.739Z" transform="translate(-276.648 -271.293)" fill="#c2c2c2" fill-rule="evenodd"/>
  <path id="Path_601" data-name="Path 601" d="M186.232,121.25l-.712,4.406,1.612.256.712-4.406-1.612-.256Z" transform="translate(-161.816 -104.016)" fill="#c2c2c2"/>
  <path id="Path_602" data-name="Path 602" d="M293.812,258.26a.819.819,0,1,1,0,1.637h-2.344a.819.819,0,1,1,0-1.637Z" transform="translate(-267.439 -241.731)" fill="#c2c2c2"/>
  <path id="Path_603" data-name="Path 603" d="M184.805,175.356l-.713-4.406-1.612.256.713,4.406,1.612-.256Z" transform="translate(-158.345 -146.652)" fill="#c2c2c2"/>
  <path id="Path_604" data-name="Path 604" d="M290.781,339.16a.819.819,0,0,1,0,1.637h-2.342a.819.819,0,0,1,0-1.637Z" transform="translate(-263.977 -311.133)" fill="#c2c2c2"/>
  <path id="Path_605" data-name="Path 605" d="M343.609,175.52a.819.819,0,1,1,0,1.637H338.4a.819.819,0,0,1,0-1.637Z" transform="translate(-323.905 -170.75)" fill="#c2c2c2"/>
</svg>
