<svg id="Laag_1" data-name="Laag 1" xmlns="http://www.w3.org/2000/svg" viewBox="0 0 595.28 154.12"><defs><style>.cls-1{fill:#f0f2f2;}.cls-2{fill:#dae2e5;}.cls-3{fill:#ebeff2;}.cls-4{fill:#f6aa74;}.cls-5{fill:#ce804a;}.cls-6{fill:#161f34;}.cls-7{fill:#f0a0ad;}.cls-8{fill:#1a2744;}.cls-9{fill:#e7e2e1;}.cls-10{fill:#231511;}.cls-11{fill:#af2926;}.cls-12{fill:#6ca1d7;}.cls-13{fill:#0f1823;}.cls-14{fill:#f2f2f2;}.cls-15{fill:#1a3053;}.cls-16{fill:#77a1c6;}.cls-17{fill:#b7c4e5;}.cls-18{fill:#415d8d;}.cls-19{fill:#c64139;}.cls-20{fill:#4da5b4;}.cls-21{fill:#63b0c1;}.cls-22{fill:#f8eee5;}.cls-23{fill:#f9c6a0;}.cls-24{fill:#fefefe;}.cls-25{fill:#efd8a4;}</style></defs><g id="svg"><path id="Path_837" data-name="Path 837" class="cls-1" d="M357.87,276.12a2.31,2.31,0,0,0-1.84-1.54c-3-.64-7.16,1.32-9.86,2.76a33.64,33.64,0,0,0-8.2,6.27c-5,5.06-8.61,11.37-11.54,17.79-.92,2-1.78,4.14-2.61,6.21a50.63,50.63,0,0,1,5.94-20.18c2.57-4.46,6.53-8,10.24-11.55s8.16-7.57,7.94-12.88a3.16,3.16,0,0,0-.72-2,3.29,3.29,0,0,0-2.89-1c-3.89.38-8,4-10.62,6.47a36.29,36.29,0,0,0-7.06,9.66c-3.68,7.22-5.29,15.29-6,23.24-.23,2.72-.32,5.47-.38,8.2,0,1.8-.15,3.9-.09,5.95,0-.12-.07-.23-.1-.3-2.15-7.09-2.93-14.78-2-21,.68-4.31,2.67-8.12,4.45-12s4-8.16,2.35-12.58a3.16,3.16,0,0,0-1.09-1.48,2.47,2.47,0,0,0-2.45-.19c-2.81,1.18-4.9,5.1-6.15,7.79a30.55,30.55,0,0,0-2.59,9.66c-.75,6.87.3,14,2,20.78.59,2.3,1.28,4.65,2,6.95.87,2.8,1.88,6.53,3.43,9,.71,1.12,1.48.67,1.6-.38,0-.37,1.08-1.24,1.28-1.7a11.68,11.68,0,0,0,.34-2.16,33,33,0,0,1,1.72-4.26,51.75,51.75,0,0,1,11.74-17.94c3.27-3.07,7.28-5,11.13-7.06s8.37-4.27,9.85-8.74a3,3,0,0,0,.07-1.81Z" transform="translate(0 -231.8)"/><path id="Path_838" data-name="Path 838" class="cls-2" d="M594.72,346.74c-1.57-4.14-6-7.63-12.13-9.48-7-2.09-14.43-1.7-21.92-1.61-2.76,0-5.77-.17-7.72-1.33-3.59-2.14-2.17-6.16-2.14-8.85,0-3.51,0-7.05-1.63-10.45-2.5-4.88-8.08-8.89-15.43-11.11a48.75,48.75,0,0,0-34.87,2.92c-2.56,1.27-4.92,2.68-7.65,3.81-8.1,3.35-16.8.7-25.52,2.4-6.91,1.3-13,3.95-17.33,7.56-7,6-8.06,13.67-15.05,19.67-6.83,5.87-19.27,4.55-26.92,9.2-4.64,2.82-4.75,7.69.38,10.3,6,3.06,14.51,3.59,22,4.37,8.24.87,16.11,2.5,24.38,3.27,22.36,2.08,44.39-.12,66.8.27,20.5.36,45.07,2.36,63-4.82,8.9-3.57,14.22-9.77,11.72-16.15Z" transform="translate(0 -231.8)"/><path id="Path_839" data-name="Path 839" class="cls-3" d="M433.7,346.86c-17.43-8.68-49.55-10.54-75.52-15.75-30.95-6.2-38.67-17.27-58.66-26.22-16.88-7.56-40.7-12.48-70.19-13.77-38.85-1.69-68.23,3.12-95.62,12-17.12,5.56-25.62,12.42-37.91,18.9-19.84,9-34.47,9.45-57.55,15.89-12,3.36-36.17,11.32-37.69,16.56-1.26,4.2-1.85,11.92,15.2,12.42,70.18,2,131.17,1.63,201.59,1.49q92.39-.16,184.82-.87c7.92,0,16-.1,23.51-.85,29.81-2.94,23.27-12.25,8-19.83Z" transform="translate(0 -231.8)"/><path id="Path_840" data-name="Path 840" class="cls-4" d="M384.56,321.68H370.41a3.58,3.58,0,0,1-3.68-3.47h0v-8.86a3.56,3.56,0,0,1,3.66-3.47h14.17a3.55,3.55,0,0,1,3.68,3.44h0v8.87a3.57,3.57,0,0,1-3.68,3.47Z" transform="translate(0 -231.8)"/><path id="Path_841" data-name="Path 841" class="cls-5" d="M375.55,310.37a8.52,8.52,0,0,0,2-.86,13.68,13.68,0,0,0,1.52-.66c.31-.2.58-.46.92-.66.13-.08.27-.15.41-.22v-2.09h-5.83v4.78a8,8,0,0,1,1-.3Z" transform="translate(0 -231.8)"/><path id="Path_842" data-name="Path 842" class="cls-5" d="M380.39,319h-5.81v2.7h5.81V319Z" transform="translate(0 -231.8)"/><path id="Path_843" data-name="Path 843" class="cls-6" d="M446.46,236.83a4.53,4.53,0,0,1-4.31,4.74h0a4.61,4.61,0,0,1-5-4.11,4.53,4.53,0,0,1,4.31-4.74h0a4.59,4.59,0,0,1,5,4.11Z" transform="translate(0 -231.8)"/><path id="Path_844" data-name="Path 844" class="cls-7" d="M436.72,246.43a.54.54,0,0,1,.16.35,9.57,9.57,0,0,0,1.84,4.08,1,1,0,0,0,1.16.32,25.37,25.37,0,0,0,3.31-.92,23.4,23.4,0,0,1,1.38,4.06,10.13,10.13,0,0,1,.38,3.05,21.84,21.84,0,0,0,2.37-.77,18.85,18.85,0,0,0,5.48-3,6.3,6.3,0,0,1-.92-1.69,8.1,8.1,0,0,1-.39-4.14c.28-1.6,1.24-3,1.5-4.6a8.19,8.19,0,0,0-5.11-8.74,10.5,10.5,0,0,0-6.17-.46,11.26,11.26,0,0,0-1.38.48c-.42.2-.49.46-.69.84a19.21,19.21,0,0,0-.92,1.88A13.93,13.93,0,0,0,438,239a14,14,0,0,1-1.45,4c-.49.81-1.13,1.53-1.67,2.3-.16.25-.32.58-.13.81a.82.82,0,0,0,.6.19l1,.06a.58.58,0,0,1,.29.06Z" transform="translate(0 -231.8)"/><path id="Path_845" data-name="Path 845" class="cls-8" d="M509.4,243.46A14.86,14.86,0,0,0,508,239.3a11.8,11.8,0,0,0-3-3.8,10,10,0,0,0-9.06-1.95c-2.09.66-3.78,2.08-5.65,3.19s-4.18,1.91-6.24,1.17c-1.62-.58-2.88-2.06-4.6-2.18-2.3-.15-3.86,2.12-5.86,3.2a6.31,6.31,0,0,1-5.12.33c-1.56-.6-2.76-1.81-4.21-2.65a10.3,10.3,0,0,0-10,.1,9.82,9.82,0,0,0-5.53-4.37,11.67,11.67,0,0,0-8.36.52c-2.3,1.08-2,3.26-.72,5.06a9.78,9.78,0,0,0,4.55,3.18,12,12,0,0,1,2.33.76c-.32-.84,1-1.62,1.81-1.19a2,2,0,0,1,.84,2.37,2.51,2.51,0,0,1-.86,1.33,2.11,2.11,0,0,1-.79.33c-.21,0-.67-.07-.8.13-.29.43.28,1.5.46,1.89a5.94,5.94,0,0,0,1.72,1.91,8.75,8.75,0,0,0,1.27,1c1,.51,1.68-.87,2.19-1.51a20.67,20.67,0,0,0,2-2.86,8.69,8.69,0,0,0,1.07-4.81A5.16,5.16,0,0,1,458,242a10.09,10.09,0,0,1,2,5.13,17.16,17.16,0,0,0,1.42,5.35,8.48,8.48,0,0,0,5.22,4,10.13,10.13,0,0,0,6.73-.59c1.69-.77,3.22-2,5.06-2.3a5.42,5.42,0,0,1,4.8,1.61c1.68,1.84,1.73,4.64,3.39,6.5,1.87,2.1,5.22,2.37,8.06,1.84a18.87,18.87,0,0,0,11.66-7.22,17,17,0,0,0,3-12.85Z" transform="translate(0 -231.8)"/><path id="Path_846" data-name="Path 846" class="cls-9" d="M442.74,367.64c0,.8.1,1.58.16,2.37l-11.93.77v-.33a55.36,55.36,0,0,0,5.07-2.34c.4-.2.79-.41,1.18-.62h0a.57.57,0,0,0,.13-.08,1.29,1.29,0,0,0,.41-.8c.1-.58.26-1.14.39-1.7s.24-1.09.35-1.63c1.19,0,2.39,0,3.59,0,.37,0,.73,0,1.1-.06a18.36,18.36,0,0,0-.31,2.21c-.07.52-.13,1.05-.16,1.58v.7Z" transform="translate(0 -231.8)"/><path id="Path_847" data-name="Path 847" class="cls-10" d="M442.89,370l-11.93.77v-.33a51.54,51.54,0,0,0,5.06-2.34l1.19-.62.16.08a2.33,2.33,0,0,0,.73.16,9.09,9.09,0,0,0,4.63-.72v.63c0,.8.1,1.58.16,2.37Z" transform="translate(0 -231.8)"/><path id="Path_848" data-name="Path 848" class="cls-11" d="M461.75,293.3a8.3,8.3,0,0,0-.85-1.19c-.13-.15-.27-.29-.41-.43l-12.79,2.67s-.25,3.51-.28,3.76c-.52,4.94-2.38,9.66-3.65,14.45a125.42,125.42,0,0,0-3.59,17c-.78,6.11-1.12,12.26-1.42,18.4-.09,2-.18,3.95-.28,5.93,0,.76-.2,6.54-.39,10.12,1.76-.05,3.52-.18,5.27-.26.19-1,.31-2,.38-2.26,1.34-5.66,3.15-11.26,3.36-17.12a25.31,25.31,0,0,0-.51-6.26c-.43-1.9-1.15-4.08-.19-5.94,1.38-2.69,3.49-5.06,5.16-7.6a114.18,114.18,0,0,0,9.9-18.83C463.1,301.81,464.07,297.26,461.75,293.3Z" transform="translate(0 -231.8)"/><path id="Path_849" data-name="Path 849" class="cls-12" d="M444.78,371.38l-7.62.46a.77.77,0,0,1-.82-.69h0a.75.75,0,0,1,.71-.78h0l7.62-.46a.76.76,0,0,1,.82.68h0a.76.76,0,0,1-.72.78Z" transform="translate(0 -231.8)"/><path id="Path_850" data-name="Path 850" class="cls-13" d="M441.05,371.27h0a.84.84,0,0,1-1-.55l-3.44-12.25a.78.78,0,0,1,.56-1h0a.84.84,0,0,1,1,.56l3.44,12.24a.78.78,0,0,1-.56.95Z" transform="translate(0 -231.8)"/><path id="Path_851" data-name="Path 851" class="cls-14" d="M500.85,377.36c-4.36.13-8.74.31-13.08.07a160.48,160.48,0,0,0-16.56-.22c-12,.51-24,.68-36,.59q-9.11-.07-18.21-.33c-5.59-.15-11.16-.87-16.82-.92H398c-7.62.05-15.21.66-22.78,1.32-3.79.33-7.57.67-11.36,1-2.3.17-7.41-.07-8.28,2.11s7.73,3.18,9.62,3.48a107,107,0,0,0,10.78,1.2,189.09,189.09,0,0,0,21.82,0c14-.72,27.82-1.57,41.86-1.21,12.23.31,24.44.89,36.67,1,8.55.1,17.55.43,25.91-1.44,2.55-.56,9.93-2.3,10.36-4.69.38-2-4.43-2-6.13-2h-2.09c-1.17,0-2.35.05-3.52.08Z" transform="translate(0 -231.8)"/><path id="Path_852" data-name="Path 852" class="cls-15" d="M498.66,333.15A27.65,27.65,0,0,1,509,347.56a.35.35,0,0,0,.32.22h1.28a.32.32,0,0,0,.33-.31h0v-.09a29.26,29.26,0,0,0-10.26-15l0,0-.14-.1-.28-.21-.82-.6-.37-.25-.77-.51-.41-.26-.78-.46-.46-.25-.8-.43-.43-.21-.92-.43-.36-.17c-.42-.18-.83-.36-1.24-.52h-.05l-1.34-.5-.32-.1-1-.32-.47-.13c-.3-.09-.6-.17-.92-.24l-.51-.13-.89-.19-.55-.1-.89-.15-.55-.08-.92-.11-.54-.06-1-.07-.46,0c-.49,0-1,0-1.49,0h0c-.51,0-1,0-1.49,0l-.46,0c-.34,0-.69,0-1,.07l-.54.06-.92.11-.56.08-.88.15-.56.1-.88.19-.52.13c-.31.07-.61.15-.92.24l-.46.13-1,.32-.31.1c-.46.16-.92.32-1.34.5H469c-.41.16-.83.34-1.23.52l-.36.17-.93.43-.42.21-.81.43-.46.25-.77.46-.42.26-.77.51-.37.25-.82.6-.28.21-.14.1,0,0A28.77,28.77,0,0,0,449.86,354a.84.84,0,0,0,.83.84h.2a.84.84,0,0,0,.86-.8,27.1,27.1,0,0,1,11.47-20.84h0a29.18,29.18,0,0,1,5.87-3.3l.21-.09.86-.34.33-.12.82-.29.41-.13.79-.24.46-.13,1.25-.3c.24-.05.46-.11.72-.15l.57-.1c.25-.05.51-.1.76-.13l.55-.08.82-.1.52-.05.92-.06.46,0,1.38,0c.46,0,.92,0,1.38,0a3.11,3.11,0,0,1,.43,0c.31,0,.61,0,.92.06l.52.05.81.1.55.08.77.13.57.1.72.15,1.24.3.46.13.8.24.4.13.82.29.33.12.87.34.21.09a29.38,29.38,0,0,1,5.86,3.3Z" transform="translate(0 -231.8)"/><path id="Path_853" data-name="Path 853" class="cls-15" d="M381.54,325.7a32,32,0,0,0-19.69,6.66.5.5,0,0,0,.34.89h1.38a.51.51,0,0,0,.32-.1,30.12,30.12,0,0,1,17.66-5.65c15.81,0,28.73,12,29.15,26.82a.51.51,0,0,0,.53.49h.84a.53.53,0,0,0,.54-.51h0c-.46-15.85-14.17-28.58-31.05-28.58Z" transform="translate(0 -231.8)"/><path id="Path_854" data-name="Path 854" class="cls-16" d="M381.66,328.13c-15.73,0-28.49,12.06-28.49,26.93S365.93,382,381.66,382s28.49-12.06,28.49-26.93S397.4,328.13,381.66,328.13Zm0,2.68c14.15,0,25.66,10.88,25.66,24.25s-11.5,24.25-25.66,24.25S356,368.45,356,355.06s11.5-24.25,25.65-24.25" transform="translate(0 -231.8)"/><path id="Path_855" data-name="Path 855" class="cls-17" d="M381.66,330.81c-14.16,0-25.65,10.86-25.65,24.25s11.5,24.25,25.65,24.25,25.66-10.86,25.66-24.25S395.82,330.81,381.66,330.81Zm0,1.78c13.11,0,23.77,10.08,23.77,22.47s-10.66,22.46-23.77,22.46-23.77-10.07-23.77-22.46,10.67-22.47,23.77-22.47" transform="translate(0 -231.8)"/><path id="Path_856" data-name="Path 856" class="cls-18" d="M387.12,355.06a5.46,5.46,0,1,1-5.46-5.16A5.31,5.31,0,0,1,387.12,355.06Z" transform="translate(0 -231.8)"/><path id="Path_857" data-name="Path 857" class="cls-13" d="M480.29,356.94l12.49-36.08-1.3-.07-12.29,35.56-28.66-37.44-1-1.22,2.08-7.63H449l-2.12,7.82-.49,1.8L442,336c-8.71-1.14-16.78-4.79-24.19-9.15A59.38,59.38,0,0,1,400.12,311c-.92-1.21-2.71.34-1.82,1.54a61.72,61.72,0,0,0,18.91,16.65c7.47,4.29,15.48,7.83,24.17,9l-4.45,16.37-38.4-38.35-2-2-.82,2.64,2,2,38.49,38.4,2.05,2,.73-2.72,9.43-34.72.49-1.81.12-.46.83,1.09L479.23,359l1.31-.89-.62-.82a.62.62,0,0,0,.38-.36Z" transform="translate(0 -231.8)"/><path id="Path_858" data-name="Path 858" class="cls-12" d="M499.05,319.6H461.71a1,1,0,0,0-.69.21l-7.48,5.7a.92.92,0,0,0-.21,1.28l.06.07a1.07,1.07,0,0,0,1.43.15l6.84-5.21h37.39a1.11,1.11,0,0,0,.17-2.21h-.17Z" transform="translate(0 -231.8)"/><path id="Path_859" data-name="Path 859" class="cls-16" d="M480.78,328.13c-15.74,0-28.5,12.06-28.5,26.93S465,382,480.78,382s28.49-12.06,28.49-26.93S496.51,328.13,480.78,328.13Zm0,2.68c14.15,0,25.65,10.88,25.65,24.25s-11.5,24.25-25.65,24.25-25.66-10.86-25.66-24.25,11.5-24.25,25.66-24.25" transform="translate(0 -231.8)"/><path id="Path_860" data-name="Path 860" class="cls-17" d="M480.78,330.81c-14.18,0-25.66,10.86-25.66,24.25s11.5,24.25,25.66,24.25,25.65-10.86,25.65-24.25S494.93,330.81,480.78,330.81Zm0,1.78c13.11,0,23.76,10.08,23.76,22.47s-10.65,22.46-23.76,22.46S457,367.45,457,355.06s10.66-22.47,23.77-22.47" transform="translate(0 -231.8)"/><path id="Path_861" data-name="Path 861" class="cls-18" d="M498.79,330.41a33.12,33.12,0,0,0-17.48-5c-14.9,0-27.4,9.62-31,22.64H480.1l18.71-17.68Z" transform="translate(0 -231.8)"/><path id="Path_862" data-name="Path 862" class="cls-18" d="M480.78,349.89H437.25a9,9,0,0,0-9,8.69,8.56,8.56,0,0,0,4,7.14c2.68,1.7,5.41,1.5,8.43,1l11.22-1.84L472,361.62l5.58-.92c2-.33,4.44-.24,6.23-1.38a5.11,5.11,0,0,0,2.46-4.31,5.31,5.31,0,0,0-5.45-5.16Z" transform="translate(0 -231.8)"/><path id="Path_863" data-name="Path 863" class="cls-13" d="M482.24,354.82a1.75,1.75,0,1,1-1.85-1.65h.11A1.71,1.71,0,0,1,482.24,354.82Z" transform="translate(0 -231.8)"/><path id="Path_864" data-name="Path 864" class="cls-16" d="M437.52,351.78a6.73,6.73,0,1,0,7.1,6.73,6.91,6.91,0,0,0-7.1-6.73Zm0,1.12a5.6,5.6,0,1,1-5.92,5.59,5.76,5.76,0,0,1,5.92-5.59" transform="translate(0 -231.8)"/><path id="Path_865" data-name="Path 865" class="cls-12" d="M457.49,305.16h-.05a19.78,19.78,0,0,0-4.74-.08l-5.22.24c-3.45.15-6.9.27-10.34.18a4.46,4.46,0,0,0-2.84.67c-1.38,1.1-.18,2.3,1.07,2.6s2.45.07,3.65.29a18.23,18.23,0,0,1,4.51,1.26c3,1.44,6.16,2.91,9.56,3.06,2.87.14,6.7-.72,7.44-3.87.51-2.18-.92-3.87-3-4.33Z" transform="translate(0 -231.8)"/><path id="Path_866" data-name="Path 866" class="cls-13" d="M415.16,289.32a1.57,1.57,0,0,0-.37-.05c-.63,0-1.25.07-1.84.09s-1.31,0-1.95,0a28.76,28.76,0,0,1-3.82-.4,16.62,16.62,0,0,0-3-.36,4,4,0,0,0-2.83,1,3.21,3.21,0,0,0-1,2.51,4.06,4.06,0,0,0,2.15,3.12L399,306.46h-2.9v2.07h2.26l-1.77,5.67-.83,2.64-.32,1h-3.24v2.07h2.6l-9.29,29.63-4.79,4.53a1.11,1.11,0,0,0-.08,1.57h0l.07.07a1.29,1.29,0,0,0,1.74,0l1.58-1.5,3.52-3.33a1.08,1.08,0,0,0,.3-.46v0l9.89-31.54.82-2.65,6.7-21.36v-.07A.81.81,0,0,0,405,294a2.94,2.94,0,0,0-.92-.36l-.19-.07a3.59,3.59,0,0,1-.75-.46,1.51,1.51,0,0,1-.59-1.82c.35-.77,1.49-.76,2.24-.71,1.26.1,2.5.43,3.75.57a29.52,29.52,0,0,0,3.87.2c.63,0,1.27,0,1.9-.09a2.25,2.25,0,0,0,.81-.16,1.06,1.06,0,0,0,.65-.8.94.94,0,0,0-.61-1Z" transform="translate(0 -231.8)"/><path id="Path_867" data-name="Path 867" class="cls-12" d="M396,305.67l-.7,2.23h-5.12l.58-3.44h4.29a1,1,0,0,1,.79.39.87.87,0,0,1,.16.82Zm-5.06,16h-3.09l.55-3.22H392Zm-25.43-3.22h3.58l.55,3.22h-3.11Zm-3.88-13.61a1,1,0,0,1,.8-.39h4.29l.58,3.44h-5.11l-.7-2.23a.9.9,0,0,1,.15-.82Zm22.92,3,.25-3.44h5l-.58,3.44Zm3.87,4.85h-4.23l.29-4h4.61l-.69,4Zm.92,0,.68-4h5l-1.27,4Zm-.14.83h4.29l-1.25,4H388.6l.68-4Zm-5.37,4,.3-4h4.14l-.68,4Zm-.06.83h3.68l-.55,3.22h-3.39l.24-3.22Zm-4.6,0h3.68l-.24,3.22h-3.44Zm-4.6,0h3.68v3.22h-3.44Zm-.92,0,.24,3.22h-3.39l-.55-3.22Zm-4.52-4.86h4.14l.3,4h-3.77l-.68-4Zm-1.05-.83h-4.36l-1.28-4h5l.68,4Zm4.84-4,.31,4H369l-.68-4Zm-.06-.82h-4.69l-.58-3.44h5Zm5.37,0h-4.39l-.26-3.44h4.72v3.44Zm.92,0v-3.44h4.72l-.25,3.44Zm0,4.85v-4h4.41l-.3,4Zm0,.83h4l-.29,4h-3.75Zm-5-.83-.31-4h4.41v4Zm4.1.83v4h-3.74l-.3-4Zm-14.31,0h4.3l.68,4h-3.68l-1.28-4Zm32.61-9.27a2,2,0,0,0-1.55-.74H362.48a2,2,0,0,0-1.55.74,1.7,1.7,0,0,0-.3,1.62l5.24,16.64h25.82l5.25-16.64a1.76,1.76,0,0,0-.31-1.62Z" transform="translate(0 -231.8)"/><path id="Path_868" data-name="Path 868" class="cls-12" d="M414.79,288.81a27.4,27.4,0,0,1-5.28.1c-1.84-.14-1.81,2.54,0,2.68a27.39,27.39,0,0,0,5.28-.09,1.45,1.45,0,0,0,1.41-1.34,1.39,1.39,0,0,0-1.41-1.35Z" transform="translate(0 -231.8)"/><path id="Path_869" data-name="Path 869" class="cls-13" d="M437.71,359.46h0a.84.84,0,0,1-1-.56L433,345.56a.78.78,0,0,1,.55-.95h0a.84.84,0,0,1,1,.56l3.75,13.34a.79.79,0,0,1-.57.95h0Z" transform="translate(0 -231.8)"/><path id="Path_870" data-name="Path 870" class="cls-12" d="M437.54,344.66l-7.13,2.59a.79.79,0,0,1-1-.42h0a.73.73,0,0,1,.41-.92h.05l7.12-2.59a.81.81,0,0,1,1,.42h0a.72.72,0,0,1-.42.92Z" transform="translate(0 -231.8)"/><path id="Path_871" data-name="Path 871" class="cls-9" d="M435.9,343.6a15.58,15.58,0,0,1-.85-1.47l-.22-.41c-.11-.21-.2-.43-.29-.64-.2-.46-.37-.92-.53-1.4,0-.11-.56-1.55-.54-1.55-1.22.48-2.47.94-3.73,1.38-1.9.64,1.27,3.09,1.15,3.44l0,.12c-.16.27-.52.46-.74.69a44.71,44.71,0,0,1-3.4,3.06l.09.27c0,.13,8.08-3,9.14-3.4l0-.08Z" transform="translate(0 -231.8)"/><path id="Path_872" data-name="Path 872" class="cls-19" d="M462.28,294.54a30.25,30.25,0,0,0-.82-3.38H448.69a4.11,4.11,0,0,1-.33,2.16c-.86,1.9-3.22,2.68-5.35,3.19-8.54,2.06-17.53,3.22-25.4,7.19-3.17,1.6-5.26,4.35-5,7.87.19,2.72,1.56,5.23,3.06,7.56,4.5,7,10.42,13.34,13.86,20.88.08.16,4.47-.62,4.36-1.28a26,26,0,0,0-.64-3.68,35.74,35.74,0,0,0-.79-3.57q-.94-3.72-2.25-7.36c-1.23-3.47-2.76-7-5.63-9.55-.63-.57-2.14-1.38-1.4-2.41a129.77,129.77,0,0,0,21.23-.62c5.06-.46,10.63-.87,14.31-4.2,3-2.76,4.1-7,3.79-10.93a16.83,16.83,0,0,0-.24-1.89Z" transform="translate(0 -231.8)"/><path id="Path_873" data-name="Path 873" class="cls-20" d="M467.27,292.12l.35-.32a7.44,7.44,0,0,0,1.84-3.34,23.63,23.63,0,0,0,.88-8.77,27.06,27.06,0,0,0-.4-2.68,37,37,0,0,0-6.62-14.3l-.92-1.25a38.59,38.59,0,0,0-5.62-5.88c-.54-.46-3.56-3.37-4.38-3.13-2.47.71-4.95,1.38-7.41,2.15-.42.12-.7,2-.84,2.42a44.47,44.47,0,0,1-3.59,7.17c-.92,1.65-1.75,3.41-.74,5.2.88,1.57,2.61,2.47,3.94,3.65,3.54,3.14,4.72,7.91,5,12.32a37.11,37.11,0,0,1,.13,3.8c0,1.17-.64,2.49-.58,3.59,2,.05,4-.2,6,0a42.39,42.39,0,0,1,6,1.22,24.15,24.15,0,0,0,2.52.57c.3.05.62-.23.85-.38a9.79,9.79,0,0,1,1-.54,11.86,11.86,0,0,0,2.52-1.55Z" transform="translate(0 -231.8)"/><path id="Path_874" data-name="Path 874" class="cls-10" d="M435.9,343.6a15.58,15.58,0,0,1-.85-1.47l-.22-.41c-.11-.21-.2-.43-.29-.64a5.05,5.05,0,0,1-.92.87,7.09,7.09,0,0,1-1.24.6,9,9,0,0,1-1.52.5h0c-.15.27-.51.46-.73.7a43,43,0,0,1-3.41,3.06c0,.09.07.18.1.26s8.08-3,9.14-3.4l-.05-.08Z" transform="translate(0 -231.8)"/><path id="Path_875" data-name="Path 875" class="cls-21" d="M448.31,291.89c.26-.38,1-.33,1.42-.35.69,0,1.38-.05,2.06,0a46.3,46.3,0,0,1,5.52.43,12.41,12.41,0,0,1,3.62,1A9.77,9.77,0,0,1,463,294.2c.72.58.39,2,0,2.7a10.64,10.64,0,0,0-1.17-.7,13.44,13.44,0,0,0-3.18-.84c-1.09-.23-2.23-.46-3.35-.65a34.39,34.39,0,0,0-3.79-.46c-.66-.05-1.32-.08-2-.1a6.49,6.49,0,0,1-1.76-.1,4.27,4.27,0,0,1,.25-1.27,3.31,3.31,0,0,1,.3-.92Z" transform="translate(0 -231.8)"/><path id="Path_876" data-name="Path 876" class="cls-4" d="M464.91,266.32a17.13,17.13,0,0,0-1.57-3.84,12.87,12.87,0,0,0-1.18-1.73c0-.06-.09-.11-.13-.16a15.55,15.55,0,0,0-1.18-1.25l-.62-.6-.29-.28a1.37,1.37,0,0,0-.29-.25l-.16-.06a35.89,35.89,0,0,1,2.82,6.18c.07.24.15.46.22.71a5.4,5.4,0,0,0,.64,1.66,1.53,1.53,0,0,0,.86.64.79.79,0,0,0,.92-.46,1.08,1.08,0,0,0,0-.59Z" transform="translate(0 -231.8)"/><path id="Path_877" data-name="Path 877" class="cls-22" d="M468.65,270.49a9.78,9.78,0,0,0-2.47-5.33,8.53,8.53,0,0,0-2.94-2.1,1,1,0,0,0-.63-.11c-.4.08-.53.52-.61.87-1,4.53-5.13,8.07-10.07,9.43a17.3,17.3,0,0,1-3.51.6c-.64,0-1.79,0-1.57.89a6.52,6.52,0,0,0,.92,1.8,11.42,11.42,0,0,0,11.88,4.91,11.76,11.76,0,0,0,7.25-4.14,9.23,9.23,0,0,0,1.75-6.82Z" transform="translate(0 -231.8)"/><path id="Path_878" data-name="Path 878" class="cls-23" d="M465.5,269.92a7.2,7.2,0,0,0-1.84-3.95,6.22,6.22,0,0,0-2.18-1.55.74.74,0,0,0-.46-.09c-.3.06-.4.39-.46.65-.71,3.35-3.8,6-7.46,7a12.74,12.74,0,0,1-2.61.46c-.46,0-1.33,0-1.16.66a4.67,4.67,0,0,0,.69,1.33,8.48,8.48,0,0,0,8.81,3.65,8.82,8.82,0,0,0,5.38-3.08,7,7,0,0,0,1.28-5.07Z" transform="translate(0 -231.8)"/><path id="Path_879" data-name="Path 879" class="cls-4" d="M462.67,280.83h0a.45.45,0,0,0,.23,0c1.73-.16,3.81-1.18,4.06-2.86.08-.51-.59-.92-1-1.23a16.68,16.68,0,0,0-1.9-1.34,3.78,3.78,0,0,0-2.26-.86c-.58.07-1.79.72-1.66,1.33,0,.23.31.35.46.54a10.86,10.86,0,0,1,1.45,2.76c.11.3.22.6.32.92s.05.62.27.73Z" transform="translate(0 -231.8)"/><path id="Path_880" data-name="Path 880" class="cls-24" d="M464.9,277.7a1,1,0,1,1-1.16-.88h.14A1,1,0,0,1,464.9,277.7Z" transform="translate(0 -231.8)"/><path id="Path_881" data-name="Path 881" class="cls-7" d="M454.67,258a11.94,11.94,0,0,1-.38,2.79c-.06.25-.13.5-.2.75-.75,2.61-1.8,5.1-2.76,7.65-.56,1.5-1.16,3-1.75,4.46l-.92,2.27-.46,1.18c-.07.2-.46.81-.4,1-.71,1.79-1.43,3.72-3.1,4.94a11.09,11.09,0,0,1-4.36,1.58l-5.42,1.16-17.53,3.73c-1.12.24-2.76.23-3.4,1.31-.39.69-.37,1.84-1.13,2.28a5.38,5.38,0,0,1-1.88.32,2.54,2.54,0,0,1-.87,0,.77.77,0,0,1-.65-.87h0a13,13,0,0,1,.15-2.64,5.23,5.23,0,0,1,3.46-3.73,18.19,18.19,0,0,1,4.63-.81c4.63-.59,8.88-2.8,13.19-4.6a26.73,26.73,0,0,1,10-2.48q1.82-7.16,3.6-14.31a29.22,29.22,0,0,1,1.79-5.55c.83-1.72,2.14-3.68,4.07-4.43a3.32,3.32,0,0,1,2.87.11c1.26.78,1.45,2.55,1.43,3.85Z" transform="translate(0 -231.8)"/><path id="Path_882" data-name="Path 882" class="cls-21" d="M454.67,258a11.94,11.94,0,0,1-.38,2.79c-.06.25-.13.5-.2.75-.75,2.61-1.8,5.1-2.76,7.65-.56,1.5-1.16,3-1.75,4.46l-.92,2.27-.46,1.18c-.07.2-.46.81-.4,1-.71,1.8-1.43,3.72-3.1,4.94a11.09,11.09,0,0,1-4.36,1.58l-5.42,1.16c-.17-.36-.35-.72-.55-1.07a12.32,12.32,0,0,0-2.48-3.22,9.86,9.86,0,0,0-1-.69,26.54,26.54,0,0,1,10-2.48l3.6-14.31a27.65,27.65,0,0,1,1.79-5.55c.83-1.73,2.14-3.68,4.06-4.43a3.32,3.32,0,0,1,2.87.11c1.26.78,1.45,2.55,1.43,3.85Z" transform="translate(0 -231.8)"/><path id="Path_883" data-name="Path 883" class="cls-21" d="M452.3,249.69c-.24-.61-.83-.49-1.38-.37a29.3,29.3,0,0,0-4,1.22c-.65.24-1.3.5-1.94.76a5.85,5.85,0,0,0-1.72.78c-.34.33.12.85.29,1.15a5.62,5.62,0,0,1,.55,1.5.63.63,0,0,0,.1.29c.24.38,1.46,0,1.84-.13.67-.17,1.33-.38,2-.61s1.53-.55,2.3-.8,1.56-.41,2.36-.59c.21,0,.43-.06.41-.3a9.76,9.76,0,0,0-.79-2.9Z" transform="translate(0 -231.8)"/><path id="Path_884" data-name="Path 884" class="cls-4" d="M456.08,240.45a1.8,1.8,0,0,0,.28-.67,3.39,3.39,0,0,0-.58-2.6,1.67,1.67,0,0,0-.68-.61.92.92,0,0,0-.76,0c-.27.14,0,.41,0,.62a18.36,18.36,0,0,1,1,3.65.89.89,0,0,0,.71-.31l0,0Z" transform="translate(0 -231.8)"/><path id="Path_885" data-name="Path 885" class="cls-4" d="M499,319.6H468a2.21,2.21,0,0,1-2.28-2.15V295.63a2.21,2.21,0,0,1,2.28-2.15h31a2.2,2.2,0,0,1,2.3,2.11h0v21.85A2.21,2.21,0,0,1,499,319.6h0Z" transform="translate(0 -231.8)"/><path id="Path_886" data-name="Path 886" class="cls-25" d="M490.62,293.46H477.14a3.09,3.09,0,0,1-3.18-3V281.9a3.1,3.1,0,0,1,3.18-3H490.6a3.11,3.11,0,0,1,3.19,3h0v8.57a3.1,3.1,0,0,1-3.19,3h0Z" transform="translate(0 -231.8)"/><path id="Path_887" data-name="Path 887" class="cls-8" d="M482.05,322.48h0a.53.53,0,0,1-.56-.52h0v-43a.54.54,0,0,1,.55-.53h0a.55.55,0,0,1,.56.53v43a.54.54,0,0,1-.56.53Z" transform="translate(0 -231.8)"/><path id="Path_888" data-name="Path 888" class="cls-8" d="M486,322.48h0a.53.53,0,0,1-.56-.52h0v-43a.55.55,0,0,1,.56-.53h0a.54.54,0,0,1,.57.53h0v43A.55.55,0,0,1,486,322.48Z" transform="translate(0 -231.8)"/></g></svg>