<svg id="bikeHuur" xmlns="http://www.w3.org/2000/svg" width="275.955" height="163.435" viewBox="0 0 275.955 163.435">
  <path id="Path_760" data-name="Path 760" d="M65.422,188.321l.665-.074-3.682-44.354L66.087,98.5l-.665-.074L61.74,143.893Z" transform="translate(168.383 -32.284)" fill="#333857"/>
  <path id="Path_761" data-name="Path 761" d="M86.618,188.321,90.3,142.865,86.618,98.43l-.658.074,3.682,44.361L85.96,188.247Z" transform="translate(127.895 -32.284)" fill="#333857"/>
  <path id="Path_762" data-name="Path 762" d="M55.619,154.327l44.428-3.682-.074-.665-44.354,3.682L10.23,149.98l-.04.665Z" transform="translate(169.061 -49.196)" fill="#333857"/>
  <path id="Path_763" data-name="Path 763" d="M99.973,178.541l.074-.659L54.584,174.2,10.19,177.882l.04.659,44.354-3.682Z" transform="translate(169.061 -57.142)" fill="#333857"/>
  <path id="Path_764" data-name="Path 764" d="M82.548,171.231l.4-.517-33.98-28.752L19.487,107.25l-.477.443,29.525,34.746Z" transform="translate(180.231 -35.178)" fill="#333857"/>
  <path id="Path_765" data-name="Path 765" d="M103.4,192.155l.511-.4L74.39,157,40.377,128.18l-.437.511,33.973,28.752Z" transform="translate(145.204 -42.044)" fill="#333857"/>
  <path id="Path_766" data-name="Path 766" d="M40.377,171.231l34.752-29.565,28.786-33.973-.511-.443L74.652,141.23,39.94,170.714Z" transform="translate(145.204 -35.178)" fill="#333857"/>
  <path id="Path_767" data-name="Path 767" d="M19.487,192.155l28.752-33.973,34.712-29.491-.4-.511L47.8,157.738,19.01,191.751Z" transform="translate(180.231 -42.044)" fill="#333857"/>
  <path id="Path_768" data-name="Path 768" d="M326.032,188.4l.625-.074-3.682-44.361,3.682-45.389-.625-.034-3.682,45.423Z" transform="translate(-267.299 -32.32)" fill="#333857"/>
  <path id="Path_769" data-name="Path 769" d="M347.195,188.4l3.682-45.463L347.195,98.54l-.625.034,3.682,44.361-3.682,45.389Z" transform="translate(-307.793 -32.32)" fill="#333857"/>
  <path id="Path_770" data-name="Path 770" d="M316.263,154.381l44.394-3.682-.04-.658-44.354,3.675L270.84,150.04l-.04.658Z" transform="translate(-266.661 -49.216)" fill="#333857"/>
  <path id="Path_771" data-name="Path 771" d="M360.617,178.6l.04-.665-45.463-3.682L270.8,177.932l.04.665,44.354-3.682Z" transform="translate(-266.661 -57.158)" fill="#333857"/>
  <path id="Path_772" data-name="Path 772" d="M343.158,171.285l.4-.517-33.939-28.745L280.1,107.31l-.477.437L309.145,142.5Z" transform="translate(-255.491 -35.197)" fill="#333857"/>
  <path id="Path_773" data-name="Path 773" d="M364.014,192.211l.477-.4-29.525-34.752L300.953,128.23l-.4.517L334.489,157.5Z" transform="translate(-290.484 -42.06)" fill="#333857"/>
  <path id="Path_774" data-name="Path 774" d="M300.953,171.285l34.752-29.525,28.785-34.013-.477-.437-28.785,33.973L300.55,170.767Z" transform="translate(-290.484 -35.197)" fill="#333857"/>
  <path id="Path_775" data-name="Path 775" d="M280.1,192.211l28.785-33.98,34.678-29.484-.4-.517-34.752,29.558-28.786,34.02Z" transform="translate(-255.491 -42.06)" fill="#333857"/>
  <ellipse id="Ellipse_99" data-name="Ellipse 99" cx="9.978" cy="9.978" rx="9.978" ry="9.978" transform="translate(214.185 101.631)" fill="#4e4d4d"/>
  <ellipse id="Ellipse_100" data-name="Ellipse 100" cx="6.296" cy="6.296" rx="6.296" ry="6.296" transform="translate(217.867 105.313)" fill="#333857"/>
  <path id="Path_776" data-name="Path 776" d="M290.376,429.393,306.5,443.9a20.643,20.643,0,0,0,2.426-1.66C308.739,442.2,292.9,426,292.9,426Z" transform="translate(-166.068 -307.04)" fill="#35393c"/>
  <path id="Path_777" data-name="Path 777" d="M293.707,454.039l-15.058-.222a2.782,2.782,0,0,1,.114-5.557l15.051.215a2.775,2.775,0,0,1,2.728,2.836,2.822,2.822,0,0,1-2.836,2.728Z" transform="translate(-144.048 -314.343)" fill="#26382d"/>
  <ellipse id="Ellipse_101" data-name="Ellipse 101" cx="2.506" cy="2.506" rx="2.506" ry="2.506" transform="translate(139.896 134.32)" fill="#4e4d4d"/>
  <path id="Path_778" data-name="Path 778" d="M144.1,441.615A51.792,51.792,0,1,0,92.31,389.789,51.792,51.792,0,0,0,144.1,441.615Zm0-98.4a46.572,46.572,0,1,1-46.565,46.569A46.573,46.573,0,0,1,144.1,343.217Z" transform="translate(80.06 -278.18)"/>
  <path id="Path_779" data-name="Path 779" d="M146.474,439.052a46.9,46.9,0,1,0-46.894-46.9A46.9,46.9,0,0,0,146.474,439.052Zm0-91.181a44.287,44.287,0,1,1-44.28,44.285A44.288,44.288,0,0,1,146.474,347.871Z" transform="translate(77.689 -280.549)" fill="#fff"/>
  <path id="Path_780" data-name="Path 780" d="M400.653,441.615a51.792,51.792,0,1,0-51.813-51.8A51.792,51.792,0,0,0,400.653,441.615Zm0-98.4a46.572,46.572,0,1,1-46.565,46.569A46.573,46.573,0,0,1,400.653,343.217Z" transform="translate(-348.84 -278.18)"/>
  <path id="Path_781" data-name="Path 781" d="M402.974,439.052a46.9,46.9,0,1,0-46.894-46.9A46.9,46.9,0,0,0,402.974,439.052Zm0-91.181a44.287,44.287,0,1,1-44.28,44.285A44.288,44.288,0,0,1,402.974,347.871Z" transform="translate(-351.162 -280.549)" fill="#fff"/>
  <path id="Path_782" data-name="Path 782" d="M246.245,268.795a1.949,1.949,0,0,0,1.949-1.881c.04-.477.477-11.369-5.187-15.938-2.432-2.016-5.557-2.5-9.205-1.545-9.971,2.614-17.08,5.375-17.376,5.449a1.97,1.97,0,0,0,1.4,3.682c.074-.04,7.21-2.762,16.966-5.342,2.432-.625,4.307-.363,5.745.773,3.42,2.762,3.864,10.126,3.716,12.706a2.016,2.016,0,0,0,1.875,2.056.276.276,0,0,0,.114.04Z" transform="translate(-54.805 -248.958)" fill="#e83d3e"/>
  <path id="Path_783" data-name="Path 783" d="M283.456,380.455a2.016,2.016,0,0,0,1.142-.37h0a1.192,1.192,0,0,1,.148-.107h0l.148-.148,73.845-81.3a1.942,1.942,0,0,0,.329-2.1,2.016,2.016,0,0,0-1.807-1.176l-95.266-.276-4.784-17.081a2.016,2.016,0,0,0-2.432-1.344,1.962,1.962,0,0,0-1.344,2.426l5.006,17.779-54.426,74.4a2.016,2.016,0,0,0-.181,2.016,1.962,1.962,0,0,0,1.619,1.142l77.823,6.148ZM259.783,301.49l21.025,74.786-71.561-5.7Zm93.062-2.352-68.47,75.424L263.1,298.842l43.574.144Z" transform="translate(-158.093 -257.988)" fill="#e83d3e"/>
  <ellipse id="Ellipse_102" data-name="Ellipse 102" cx="9.978" cy="9.978" rx="9.978" ry="9.978" transform="translate(39.106 104.466)" fill="#4e4d4d"/>
  <ellipse id="Ellipse_103" data-name="Ellipse 103" cx="6.296" cy="6.296" rx="6.296" ry="6.296" transform="translate(42.789 108.148)" fill="#333857"/>
  <path id="Path_785" data-name="Path 785" d="M308.362,404.43a15.643,15.643,0,1,1-15.643,15.643A15.643,15.643,0,0,1,308.362,404.43Zm-10.3,14.494h5.6a4.771,4.771,0,0,1,3.46-3.534v-5.664A10.435,10.435,0,0,0,298.062,418.924Zm11.376-9.192v5.631a4.865,4.865,0,0,1,3.628,3.561h5.644a10.368,10.368,0,0,0-9.273-9.192Zm9.273,11.483h-5.644a4.831,4.831,0,0,1-3.608,3.534v5.631A10.375,10.375,0,0,0,318.71,421.215Zm-11.557,9.165v-5.671a4.7,4.7,0,0,1-3.42-3.494H298.1a10.341,10.341,0,0,0,9.058,9.165Z" transform="translate(-182.712 -299.964)" fill="#4e4d4d"/>
  <path id="Path_786" data-name="Path 786" d="M302.263,403h76.6a16.6,16.6,0,1,1,0,33.2c-1.472,0-58.9-8.617-76.459-11.265l-.3-.034c-7.176-1.142-10.818-4.824-10.818-10.939A11.02,11.02,0,0,1,302.263,403Zm76.6,31.258a14.653,14.653,0,1,0,0-29.306l-76.6,0a8.99,8.99,0,0,0-8.977,8.977c0,5.154,2.9,8.063,9.125,9.024C338.339,428.365,377.519,434.184,378.863,434.258Z" transform="translate(-253.212 -299.495)" fill="#010101"/>
  <path id="Path_787" data-name="Path 787" d="M201.081,370.363a2.09,2.09,0,0,0,.672-.108,2.016,2.016,0,0,0,1.216-2.506l-32.736-93.714a1.969,1.969,0,0,0-3.716,1.29l32.723,93.694A1.969,1.969,0,0,0,201.081,370.363Z" transform="translate(23.082 -256.779)" fill="#e83d3e"/>
  <ellipse id="Ellipse_104" data-name="Ellipse 104" cx="2.137" cy="2.137" rx="2.137" ry="2.137" transform="translate(123.373 118.194)" fill="#35393c"/>
  <path id="Path_788" data-name="Path 788" d="M333.191,418.631,316.662,404.52a18.011,18.011,0,0,0-2.358,1.727c.222.034,16.4,15.844,16.4,15.844Z" transform="translate(-206.392 -299.993)" fill="#35393c"/>
  <path id="Path_789" data-name="Path 789" d="M331.371,395.851l13.439,6.813a2.789,2.789,0,0,1-2.54,4.966l-13.439-6.807a2.792,2.792,0,0,1,2.54-4.972Z" transform="translate(-228.277 -297.049)" fill="#26382d"/>
  <ellipse id="Ellipse_105" data-name="Ellipse 105" cx="2.506" cy="2.506" rx="2.506" ry="2.506" transform="translate(105.802 102.034)" fill="#4e4d4d"/>
  <path id="Path_790" data-name="Path 790" d="M284.958,281.231a3.076,3.076,0,0,1,2.733-2.174c2.331-.156,7.045-.156,14.893,1.229,12.131,2.107,15.966.253,18.7,2.107s-3.463,5.808-9.9,4.967-13.508,6.7-19.2,5.957C287.133,292.587,283.409,286.332,284.958,281.231Z" transform="translate(-199.689 -262.97)" fill="#222535"/>
</svg>
