<svg id="Laag_1" data-name="Laag 1" xmlns="http://www.w3.org/2000/svg" viewBox="0 0 276.19 163.57"><defs><style>.cls-1{fill:#333857;}.cls-2{fill:#4e4d4d;}.cls-3{fill:#35393c;}.cls-4{fill:#26382c;}.cls-5{fill:#4e4c4c;}.cls-6{fill:#828383;}.cls-7{fill:#e83b3e;}.cls-8{fill:#010101;}.cls-9{fill:#212535;}</style></defs><path id="Path_797" data-name="Path 797" class="cls-1" d="M234,156.17l.67-.07L231,111.7l3.69-45.43L234,66.2l-3.68,45.5Z" transform="translate(0 0)"/><path id="Path_798" data-name="Path 798" class="cls-1" d="M214.7,156.17l3.68-45.5L214.7,66.2l-.66.07,3.68,44.4L214,156.09Z" transform="translate(0 0)"/><path id="Path_799" data-name="Path 799" class="cls-1" d="M224.87,105.22l44.47-3.69-.08-.66-44.39,3.68-45.43-3.68,0,.66Z" transform="translate(0 0)"/><path id="Path_800" data-name="Path 800" class="cls-1" d="M269.26,121.5l.08-.66-45.5-3.68-44.44,3.68,0,.66,44.39-3.68Z" transform="translate(0 0)"/><path id="Path_801" data-name="Path 801" class="cls-1" d="M263,136.17l.4-.52-34-28.78L199.89,72.13l-.48.45L229,107.35Z" transform="translate(0 0)"/><path id="Path_802" data-name="Path 802" class="cls-1" d="M248.82,150.24l.51-.4-29.55-34.79-34-28.84-.44.51,34,28.77Z" transform="translate(0 0)"/><path id="Path_803" data-name="Path 803" class="cls-1" d="M185.74,136.17l34.78-29.59,28.81-34-.51-.44-28.78,34L185.3,135.65Z" transform="translate(0 0)"/><path id="Path_804" data-name="Path 804" class="cls-1" d="M199.89,150.24l28.77-34L263.4,86.72l-.4-.51-34.78,29.58-28.81,34Z" transform="translate(0 0)"/><path id="Path_805" data-name="Path 805" class="cls-1" d="M58.78,156.21l.63-.08-3.69-44.4,3.69-45.42-.63,0L55.1,111.73Z" transform="translate(0 0)"/><path id="Path_806" data-name="Path 806" class="cls-1" d="M39.44,156.21l3.69-45.5L39.44,66.27l-.62,0,3.68,44.4-3.69,45.42Z" transform="translate(0 0)"/><path id="Path_807" data-name="Path 807" class="cls-1" d="M49.64,105.25l44.43-3.68,0-.66-44.39,3.68L4.18,100.91l0,.66Z" transform="translate(0 0)"/><path id="Path_808" data-name="Path 808" class="cls-1" d="M94,121.54l0-.67-45.5-3.68L4.14,120.87l0,.67,44.39-3.68Z" transform="translate(0 0)"/><path id="Path_809" data-name="Path 809" class="cls-1" d="M87.74,136.2l.4-.52-34-28.77L24.63,72.17l-.48.44L53.7,107.39Z" transform="translate(0 0)"/><path id="Path_810" data-name="Path 810" class="cls-1" d="M73.59,150.28l.48-.4L44.52,115.09l-34-28.85-.4.52,34,28.78Z" transform="translate(0 0)"/><path id="Path_811" data-name="Path 811" class="cls-1" d="M10.48,136.2l34.78-29.55,28.81-34-.48-.44-28.81,34L10.07,135.68Z" transform="translate(0 0)"/><path id="Path_812" data-name="Path 812" class="cls-1" d="M24.63,150.28l28.81-34L88.15,86.76l-.4-.52L53,115.82,24.15,149.87Z" transform="translate(0 0)"/><circle id="Ellipse_106" data-name="Ellipse 106" class="cls-2" cx="224.35" cy="111.7" r="9.99"/><circle id="Ellipse_107" data-name="Ellipse 107" class="cls-1" cx="224.35" cy="111.7" r="6.3"/><path id="Path_813" data-name="Path 813" class="cls-3" d="M124.41,122.46,140.55,137a21.26,21.26,0,0,0,2.43-1.66c-.19,0-16-16.26-16-16.26Z" transform="translate(0 0)"/><path id="Path_814" data-name="Path 814" class="cls-4" d="M149.79,139.81l-15.08-.22a2.78,2.78,0,0,1,.12-5.56l15.06.21a2.77,2.77,0,0,1,2.73,2.83h0A2.81,2.81,0,0,1,149.79,139.81Z" transform="translate(0 0)"/><circle id="Ellipse_108" data-name="Ellipse 108" class="cls-2" cx="142.52" cy="136.94" r="2.51"/><path id="Path_815" data-name="Path 815" class="cls-5" d="M224.35,163.57a51.84,51.84,0,1,0-51.83-51.87,51.84,51.84,0,0,0,51.83,51.87Zm0-98.48a46.61,46.61,0,1,1-46.6,46.62h0a46.62,46.62,0,0,1,46.6-46.61Z" transform="translate(0 0)"/><path id="Path_816" data-name="Path 816" class="cls-6" d="M224.35,158.64a46.95,46.95,0,1,0-46.93-46.95h0A47,47,0,0,0,224.35,158.64Zm0-91.26A44.33,44.33,0,1,1,180,111.71h0a44.32,44.32,0,0,1,44.31-44.32Z" transform="translate(0 0)"/><path id="Path_817" data-name="Path 817" class="cls-5" d="M51.86,163.57A51.84,51.84,0,1,0,0,111.73a51.83,51.83,0,0,0,51.86,51.84Zm0-98.48a46.61,46.61,0,1,1-46.6,46.62h0a46.61,46.61,0,0,1,46.6-46.61Z" transform="translate(0 0)"/><path id="Path_818" data-name="Path 818" class="cls-6" d="M51.86,158.64A46.95,46.95,0,1,0,4.92,111.69h0A47,47,0,0,0,51.86,158.64Zm0-91.26A44.33,44.33,0,1,1,7.54,111.71h0A44.32,44.32,0,0,1,51.86,67.38Z" transform="translate(0 0)"/><path id="Path_819" data-name="Path 819" class="cls-7" d="M191.6,19.85a2,2,0,0,0,2-1.88c0-.48.48-11.38-5.19-15.95-2.43-2-5.56-2.5-9.21-1.55-10,2.62-17.1,5.38-17.39,5.45a2,2,0,0,0,1.4,3.69c.08,0,7.22-2.76,17-5.35,2.44-.62,4.31-.36,5.75.78,3.43,2.76,3.87,10.13,3.72,12.71a2,2,0,0,0,1.88,2.06A.21.21,0,0,0,191.6,19.85Z" transform="translate(0 0)"/><path id="Path_820" data-name="Path 820" class="cls-7" d="M125.47,122.57a1.94,1.94,0,0,0,1.14-.37h0l.15-.11h0l.15-.15,73.91-81.37a2,2,0,0,0,.33-2.1,2,2,0,0,0-1.81-1.18L104,37,99.2,19.92a2,2,0,0,0-2.43-1.34A2,2,0,0,0,95.42,21l5,17.79L46,113.26a2,2,0,0,0-.18,2,2,2,0,0,0,1.62,1.14l77.89,6.15Zm-23.69-79,21,74.85L51.2,112.68Zm93.14-2.36-68.53,75.49L105.1,40.89Z" transform="translate(0 0)"/><circle id="Ellipse_109" data-name="Ellipse 109" class="cls-2" cx="49.13" cy="114.54" r="9.99"/><circle id="Ellipse_110" data-name="Ellipse 110" class="cls-1" cx="49.13" cy="114.54" r="6.3"/><path id="Path_821" data-name="Path 821" class="cls-2" d="M125.76,104.55a15.66,15.66,0,1,1-15.66,15.66,15.66,15.66,0,0,1,15.66-15.66Zm-10.31,14.51h5.6a4.77,4.77,0,0,1,3.46-3.54v-5.67a10.45,10.45,0,0,0-9.06,9.21Zm11.38-9.2v5.64a4.87,4.87,0,0,1,3.64,3.56h5.65a10.4,10.4,0,0,0-9.29-9.2Zm9.29,11.49h-5.65a4.85,4.85,0,0,1-3.61,3.54v5.63a10.37,10.37,0,0,0,9.26-9.17Zm-11.57,9.17v-5.67a4.73,4.73,0,0,1-3.43-3.5h-5.64a10.36,10.36,0,0,0,9.07,9.17Z" transform="translate(0 0)"/><path id="Path_822" data-name="Path 822" class="cls-8" d="M49.09,103.59h76.67a16.62,16.62,0,0,1,0,33.23h0c-1.47,0-58.95-8.62-76.53-11.27l-.3,0c-7.18-1.15-10.82-4.83-10.82-11A11,11,0,0,1,49.09,103.59Zm76.67,31.29a14.67,14.67,0,1,0,.24-29.33H49.09a9,9,0,0,0-9,9c0,5.16,2.9,8.07,9.13,9C85.2,129,124.41,134.8,125.76,134.88Z" transform="translate(0 0)"/><path id="Path_823" data-name="Path 823" class="cls-7" d="M224.35,113.68a2.25,2.25,0,0,0,.68-.11,2,2,0,0,0,1.21-2.51L193.48,17.27a2,2,0,0,0-3.72,1.29l32.75,93.77A2,2,0,0,0,224.35,113.68Z" transform="translate(0 0)"/><circle id="Ellipse_111" data-name="Ellipse 111" class="cls-3" cx="125.62" cy="120.43" r="2.14"/><path id="Path_824" data-name="Path 824" class="cls-3" d="M126.91,118.74l-16.55-14.13a19.06,19.06,0,0,0-2.36,1.73c.23,0,16.41,15.86,16.41,15.86Z" transform="translate(0 0)"/><path id="Path_825" data-name="Path 825" class="cls-4" d="M103.18,98.88l13.45,6.82a2.79,2.79,0,1,1-2.54,5h0l-13.45-6.81a2.8,2.8,0,1,1,2.54-5Z" transform="translate(0 0)"/><circle id="Ellipse_112" data-name="Ellipse 112" class="cls-2" cx="108.4" cy="104.63" r="2.51"/><path id="Path_790" data-name="Path 790" class="cls-9" d="M91,26.81c5.55.73,12.45-6.63,18.72-5.81s12.33-3,9.66-4.84-6.4,0-18.24-2.06a63.22,63.22,0,0,0-14.53-1.2A3,3,0,0,0,83.89,15C82.41,20,86,26.1,91,26.81Z" transform="translate(0 0)"/><path id="Path_826" data-name="Path 826" class="cls-7" d="M197.28,40.1h-9.73L152.87,77.16s-14,14.69-15.54,27.47c.78,2.12,5.65-6.06,5.65-6.06l56.43-57.68Z" transform="translate(0 0)"/><path id="Path_827" data-name="Path 827" class="cls-7" d="M105.89,40.1l17.59,63.46H120L103.69,40.1Z" transform="translate(0 0)"/></svg>