<svg id="Laag_1" data-name="Laag 1" xmlns="http://www.w3.org/2000/svg" viewBox="0 0 228.82 265.3"><defs><style>.cls-1{fill:#9dd6e8;}.cls-2{fill:#3caa36;}.cls-3{fill:#fff;}.cls-4{fill:#f3bc80;}</style></defs><path id="Path_494" data-name="Path 494" class="cls-1" d="M385.28,372.59a83.56,83.56,0,0,1-166.9,6c-.13-2-.2-4-.2-6a83.55,83.55,0,1,1,167.1-1.16Z" transform="translate(-183.36 -288.46)"/><path id="Path_496" data-name="Path 496" class="cls-2" d="M295.5,337c-1.28,2.76-4.07,4.46-5.21,7.29s-.73,6.32-.69,9.44a17.36,17.36,0,0,1-20.32,17.86c-1.61-.3-3.14-.92-4.73-1.28a6.77,6.77,0,0,0-4.82.55,44.24,44.24,0,0,0-4.14,2.6q-2.26,1.45-4.59,2.83-4.59,2.7-9.37,5.05c-3,1.49-6.28,2.84-9.75,2.7a21.56,21.56,0,0,1-9.06-2.87c-1.51-.81-3-1.68-4.43-2.56-.14-2-.21-4-.21-6a83.56,83.56,0,0,1,69-82.29,15.3,15.3,0,0,1,4.64,4.7,8.26,8.26,0,0,1,.72,7.92,31.7,31.7,0,0,1-2.76,3.67,7.54,7.54,0,0,0-1.23,4c-.08,3.09,1.23,6.1,2.67,8.78,2.79,5.23,7.13,11.43,4.27,17.57Z" transform="translate(-183.36 -288.46)"/><path id="Path_498" data-name="Path 498" class="cls-2" d="M330.41,451.06a83.68,83.68,0,0,1-88.57-20.22q5.82-5.56,11.81-10.94a111,111,0,0,1,12.24-10.13c3.56-2.38,8.91-5.51,13.21-3.19,1.89,1,2.91,2.94,3.79,4.82a13.06,13.06,0,0,0,3.49,5c3.19,2.6,7.51,3.41,11.37,4.51a46.84,46.84,0,0,1,13.73,6.38,21.38,21.38,0,0,1,5.39,5,26,26,0,0,1,3,6.39,30.42,30.42,0,0,0,2.9,6.36,16.19,16.19,0,0,0,4.87,4.6,22,22,0,0,0,2.76,1.46Z" transform="translate(-183.36 -288.46)"/><path id="Path_500" data-name="Path 500" class="cls-2" d="M385.28,372.59a83.31,83.31,0,0,1-22.56,57.11,19.93,19.93,0,0,1-2.27-1.46A21,21,0,0,1,356.1,424a51.48,51.48,0,0,1-3.45-5.4,24.24,24.24,0,0,0-3.67-5.05c-1.5-1.48-3.44-2.24-5-3.56a5.59,5.59,0,0,1-1.82-5.78c.49-2.29,1.71-4.37,1.74-6.75.08-4.71-3-8.75-6.41-11.71-3.56-3.15-7.71-5.62-10.95-9.13-3-3.28-5.23-7.47-4.75-12s3.07-8.47,6.2-11.59a38.36,38.36,0,0,1,10.55-7.23c7.92-3.73,16.74-5.09,25.43-5.3,4.43-.1,8.83.24,13.26.4.61,0,1.23,0,1.86,0a83.5,83.5,0,0,1,6.2,31.64Z" transform="translate(-183.36 -288.46)"/><path id="Path_502" data-name="Path 502" class="cls-3" d="M386.14,337.45a9.6,9.6,0,0,0-9.11-9.58,7.39,7.39,0,0,0-13.87-4.72A9.71,9.71,0,0,0,346,327.81h-.63a10.41,10.41,0,0,0,0,20.82h.36a11.56,11.56,0,0,0,20.54,3.3,7.37,7.37,0,0,0,12.3-5,9.57,9.57,0,0,0,7.57-9.38Z" transform="translate(-183.36 -288.46)"/><path id="Path_503" data-name="Path 503" class="cls-3" d="M262,378.44a9.61,9.61,0,0,0-9.12-9.58A7.38,7.38,0,0,0,239,364.14a9.71,9.71,0,0,0-17.18,4.6h-.63a10.41,10.41,0,0,0-.21,20.82h.57a11.56,11.56,0,0,0,20.54,3.3,7.38,7.38,0,0,0,12.3-5,9.59,9.59,0,0,0,7.57-9.38Z" transform="translate(-183.36 -288.46)"/><path id="Path_504" data-name="Path 504" class="cls-4" d="M276.79,523.09c-.2-5.39.31-11.75-1-17V506c-.45-7.36-7.58-15.44-12.51-20.3-7.43-7.3-16.8-12.72-26.5-16.77-10-4.14-17-12.55-24.54-19.92a21.42,21.42,0,0,0-7.9-5.23V386c0-5.43-4.78-10.64-10.38-10.39A10.59,10.59,0,0,0,183.62,386v48.15c0,5.25-.69,11.22.17,16.37.8,4.7,2.47,9.47,3.7,14.09,1.3,4.89,2.68,9.76,4.25,14.57A131.82,131.82,0,0,0,204,506.8c2.53,4.2,5.63,7.9,8.4,11.89a13.59,13.59,0,0,1,2.62,7.69c.1,2.66.13,5.32.38,8,.21,2.44.53,15.69.94,19.4h60.56c.48-10.2.32-20.47-.05-30.67Z" transform="translate(-183.36 -288.46)"/><path id="Path_507" data-name="Path 507" class="cls-4" d="M318.74,523.09c.19-5.39-.32-11.75.94-17V506c.45-7.36,7.58-15.44,12.51-20.3,7.43-7.3,16.8-12.72,26.5-16.77,10-4.14,17-12.55,24.54-19.92a21.42,21.42,0,0,1,7.9-5.23V386c0-5.43,4.78-10.64,10.39-10.39A10.58,10.58,0,0,1,411.9,386v48.15c0,5.25.72,11.22-.17,16.37-.8,4.7-2.47,9.47-3.7,14.09-1.3,4.89-2.68,9.76-4.25,14.57a131.82,131.82,0,0,1-12.23,27.65c-2.53,4.2-5.62,7.9-8.4,11.89a13.59,13.59,0,0,0-2.62,7.69c-.1,2.66-.12,5.32-.37,8-.22,2.44-.53,15.69-1,19.4H318.69c-.48-10.2-.31-20.47.06-30.67Z" transform="translate(-183.36 -288.46)"/></svg>