<svg id="Laag_1" data-name="Laag 1" xmlns="http://www.w3.org/2000/svg" viewBox="0 0 959 770"><defs><style>.cls-1{fill:#f4e7df;}.cls-2{fill:#95b296;}.cls-3{fill:#4c918f;}.cls-4{fill:#90c7c7;}.cls-5{fill:#edccb3;}.cls-6{fill:#f2f2f2;}.cls-7{fill:#e5889d;}.cls-8{fill:#f8aa0a;}.cls-9{fill:#acb1b6;}.cls-10{fill:#252628;}.cls-11{fill:#1a2744;}.cls-12{fill:#efa0ad;}.cls-13{fill:#63b0c1;}.cls-14{fill:#020202;}.cls-15{fill:#d8dce5;}.cls-16{fill:#e83f59;}.cls-17{fill:#d62647;}.cls-18{fill:#ebeced;}.cls-19{fill:#0f1823;}.cls-20{fill:#afb4bb;}.cls-21{fill:#eeb3c3;}</style></defs><rect class="cls-1" width="959" height="770"/><path class="cls-2" d="M370.77,407.43c-11.44,8.8-26,12.33-40.23,12.75-16.3.48-40.13.21-53.34-10.65-8.09-6.65-14.37-17-11.32-27.8,2-7.08,9.77-13,17.28-11.14,4.2,1,6.73,4.23,9.28,7.43,1.88,2.36,2.15,3.55,5.49,3.48,3.13-.07,3.42-.24,3.71-3.56.36-4.05-1.76-7.92-4.7-10.53-5.71-5.06-14.28-7.1-16.54-15.35a13.54,13.54,0,0,1,7.88-15.94,13.73,13.73,0,0,1,10,.06,13.89,13.89,0,0,1,3.77,2.38c1.28,1.07,3.61,5.19,5.24,5.68,6.64,2,3.07-13,3-15.91a35.43,35.43,0,0,1,2.07-14.25c2.52-6.39,8.78-13.36,16.32-10.43s8.71,11.69,7.48,18.76c-.7,4-4.52,13.39-1.07,16.46,2.37,2.11,5.53-2,7.5-4.25,1.53-1.72,2.74-3.75,4.36-5.39,5-5.08,12.6-4.92,17.14.74,4.83,6,3.46,15.36-.11,21.64-4.79,8.42-13.11,10.92-21.37,14.75-2.59,1.2-6.59,2.9-7.71,5.7-1.84,4.6,4.72,6.09,8.42,5.59,6.35-.85,11.26-4.57,16.9-7.23,6.82-3.2,14.8-3.76,20.29,2.28,10.55,11.63.42,26.93-9.73,34.73Z" transform="translate(0 -2)"/><path class="cls-3" d="M270.41,403.37c-5.86,1.32-12.37,2.13-17.3,5.74-.5-5.79-.9-11.6-1.14-17.41-.08-2.11-.12-4.21-.17-6.31,4.45-3.66,10.79-3.47,15.71-6.32a1.24,1.24,0,0,0-1.25-2.14c-4.58,2.66-10.06,2.82-14.54,5.54q-.16-9.59.15-19.15c5.19-2.46,10.74-4.09,15.53-7.34,1.31-.88.07-3-1.25-2.13-4.38,3-9.4,4.59-14.19,6.72.12-3.06.26-6.12.46-9.17.15-2.54.36-5.07.57-7.59,2.38-1.2,4.8-2.3,7.28-3.28a20.3,20.3,0,0,0,5.34-2.64c1.24-1-.52-2.73-1.75-1.75-1.81,1.42-4.32,2-6.42,2.89-1.43.61-2.82,1.28-4.21,2,.39-4.38.8-8.75,1.17-13.13a1.46,1.46,0,0,0,.45-.28c2-1.84,4.54-2.88,6.8-4.33,1.33-.86.09-3-1.25-2.14-1.89,1.22-3.91,2.19-5.74,3.48.39-5.14.67-10.29.68-15.46a1.24,1.24,0,0,0-2.47,0c0,6.31-.42,12.58-1,18.85a24,24,0,0,0-1.91-3.61c-.86-1.33-3-.09-2.14,1.25a22.33,22.33,0,0,1,3,7.24,1.09,1.09,0,0,0,.5.72c-.36,4-.73,8-1.06,12.05l-.92-1.05c-1.6-1.83-3.26-3.6-5-5.34-1.11-1.14-2.86.61-1.74,1.75,1.37,1.41,2.73,2.84,4,4.3s2.83,2.8,3.21,4.7c0,0,0,.07.05.12,0,.43-.06.86-.09,1.3q-.57,9.23-.69,18.48a54.76,54.76,0,0,0-7.54-6.89c-1.27-1-2.5,1.18-1.25,2.13a52.08,52.08,0,0,1,8.75,8.49c0,6.4.07,12.79.35,19.18a28.39,28.39,0,0,0-7.38-4.84c-1.41-.71-2.67,1.43-1.24,2.14,3.44,1.73,7,3.55,8.85,7.07.34,6.17.8,12.33,1.43,18.48a21.54,21.54,0,0,0-6.94-.81c-1.58.1-1.59,2.58,0,2.47a21.93,21.93,0,0,1,7.24,1c.64,5.82,1.44,11.61,2.33,17.39a1,1,0,0,0,.12.73c.28,1.82.61,3.64.92,5.46a29.07,29.07,0,0,0-3.15-2.33c-2.12-1.29-4.85-1.68-7.21-2.34a1.24,1.24,0,0,0-.66,2.38c2.12.59,4.71,1,6.63,2.1a48.77,48.77,0,0,1,4.78,3.7,2.12,2.12,0,0,0,.21.11c1.77,10,3.89,19.87,6.43,29.68a1.24,1.24,0,0,0,2.38-.66c-1.32-5.14-2.51-10.31-3.63-15.5,1.41-3.26,2.93-6.17,6.31-7.72,1.45-.66.2-2.79-1.24-2.14a12.8,12.8,0,0,0-5.91,5.92q-1.89-9.3-3.37-18.7a42.19,42.19,0,0,1,9.68-6.25c1.44-.68.19-2.81-1.25-2.14a44,44,0,0,0-8.89,5.58c-.78-5.22-1.48-10.44-2.05-15.68a1.27,1.27,0,0,0-.13-1.3c-.16-1.5-.33-3-.47-4.49,4.64-4.28,11.8-5,17.71-6.32,1.56-.35.9-2.73-.65-2.38Z" transform="translate(0 -2)"/><path class="cls-4" d="M262.55,269.49c-5.51.46-7.14,8.94-8.18,13a74.54,74.54,0,0,0-2.75,20.46c.07,2.54-.67,8,2,9.54,4.36,2.58,10.86-20.58,11.61-23,1.32-4.25,6.69-20.73-2.65-20Z" transform="translate(0 -2)"/><path class="cls-4" d="M286.74,299.18c-4.94-2.77-11.68,3.41-14.89,6.38-4.34,4-8.92,7.89-12.5,12.63-1.13,1.5-3.78,4.62-2.81,6.73,2.8,6.1,12.88-4.37,15.33-6.08,4.42-3.09,8.91-6.11,13.07-9.56,2.7-2.24,6.21-7.63,1.8-10.1Z" transform="translate(0 -2)"/><path class="cls-4" d="M251.12,324.54l-.21-.46q-6.91-14.9-13.85-29.78c-1.18-2.54-2.51-5.24-5-6.59-4.71-2.59-7.11,1.81-7.07,5.82.06,5.8,3,11.17,6.58,15.57,4.33,5.33,9.71,9.84,13.37,15.65a9.06,9.06,0,0,0,2.69,3.21c1.2.73,3.07.59,3.69-.68a3.33,3.33,0,0,0-.24-2.74Z" transform="translate(0 -2)"/><path class="cls-4" d="M301.46,320.83c-3.12-4.9-11.56-1.42-15.32.13A110.14,110.14,0,0,0,258.58,338c-2.25,1.85.45,4.87,2.81,3.91.07,0,.14,0,.21,0,5.3-1.54,47.23-9.51,39.86-21.08Z" transform="translate(0 -2)"/><path class="cls-4" d="M246.89,340.15c-.37-.36-.76-.7-1.14-1-9.36-8-18.78-16-29.41-22.18a13.32,13.32,0,0,0-5.59-2.15c-9.13-.68-3.58,10.62-.41,13.95a35.19,35.19,0,0,0,10.4,7c5,2.42,10.2,4.37,15.4,6.32l8.45,3.16a3.82,3.82,0,0,0,2.31.35c1.3-.37,1.82-2.07,1.39-3.36a5.59,5.59,0,0,0-1.4-2.08Z" transform="translate(0 -2)"/><path class="cls-4" d="M298.5,340.36c-3.12-4.9-11.56-1.43-15.32.13a110.14,110.14,0,0,0-27.56,17.06c-2.25,1.85.45,4.87,2.81,3.9a1.48,1.48,0,0,0,.21,0c5.3-1.54,47.23-9.51,39.86-21.08Z" transform="translate(0 -2)"/><path class="cls-4" d="M245.44,364.56c-.36-.36-.75-.69-1.13-1-9.36-8-18.78-16-29.41-22.19a13.5,13.5,0,0,0-5.6-2.15c-9.13-.68-3.57,10.62-.4,14a35.44,35.44,0,0,0,10.4,7c5,2.41,10.2,4.36,15.4,6.31l8.45,3.16a3.79,3.79,0,0,0,2.3.35c1.31-.37,1.82-2.07,1.39-3.35a5.43,5.43,0,0,0-1.4-2.09Z" transform="translate(0 -2)"/><path class="cls-4" d="M304.38,366.48c-2.78-5.84-12.59-3.14-17-1.93a122.87,122.87,0,0,0-32.77,15.12c-2.74,1.75-.16,5.45,2.58,4.7.08,0,.15,0,.23,0,6.07-1,53.5-4.11,46.92-17.9Z" transform="translate(0 -2)"/><path class="cls-4" d="M304.78,395c-2.47-5.78-12.1-3.54-16.38-2.54A119.23,119.23,0,0,0,256,405.83c-2.72,1.58-.36,5.27,2.33,4.66a1.55,1.55,0,0,0,.22,0c5.93-.7,52.09-1.86,46.25-15.51Z" transform="translate(0 -2)"/><path class="cls-4" d="M244.32,387.9c-.4-.32-.82-.62-1.24-.91-10.1-7-20.27-14.06-31.47-19.15a13.34,13.34,0,0,0-5.78-1.58c-9.15.22-2.5,10.92,1,13.92a35.17,35.17,0,0,0,11.05,5.95c5.21,1.91,10.58,3.33,15.95,4.75l8.72,2.31a3.73,3.73,0,0,0,2.33.12c1.26-.5,1.6-2.24,1-3.48a5.51,5.51,0,0,0-1.6-1.93Z" transform="translate(0 -2)"/><path class="cls-4" d="M245.05,412.49c-.51-.22-1-.41-1.55-.58-12.55-4.33-25.18-8.68-38.3-10.7a14.56,14.56,0,0,0-6.47.05c-9.45,2.91.59,12.08,5.09,14.18a38.07,38.07,0,0,0,13.23,2.95c6,.46,12,.36,18,.27l9.74-.15a4.09,4.09,0,0,0,2.45-.57c1.17-.88,1-2.79.08-3.91a5.81,5.81,0,0,0-2.23-1.54Z" transform="translate(0 -2)"/><path class="cls-4" d="M315.21,410.53a6.11,6.11,0,0,0-1.15-1.2,8.19,8.19,0,0,0-6.07-1.41,34.83,34.83,0,0,0-7.5,2l-12.14,4.22c-3.81,1.32-7.8,2.41-11.47,4.08-4.09,1.86-8.36,3.73-11.72,6.79-1.38,1.26-3.22,2.89-3.68,4.79a1.63,1.63,0,0,0,.27,1.44,2.33,2.33,0,0,0,2.13.43c6.09-.91,12-2.81,17.95-4.26,6.72-1.63,13.48-3.17,20.18-4.92a32,32,0,0,0,10.11-4.28c2.3-1.6,5.09-4.78,3.09-7.65Z" transform="translate(0 -2)"/><path class="cls-4" d="M323.69,437.07a11.8,11.8,0,0,0-3-2.63c-4.66-2.94-10.13-2.5-15.35-1.93A106.4,106.4,0,0,0,288,435.76a78.57,78.57,0,0,0-12.7,4.76c-3.79,1.83-8.59,3.9-10.8,7.67-.85,1.44-.93,4,1.25,4.25,7.06.82,13.78-2,20.64-3.14,8-1.27,16.24-1.44,24.32-2.36,3.86-.44,13-.43,14.16-5.35a5.31,5.31,0,0,0-1.22-4.52Z" transform="translate(0 -2)"/><path class="cls-4" d="M246.7,438a5.33,5.33,0,0,0-1-1.59,19.77,19.77,0,0,0-4.71-3.73c-5.61-3.32-12.17-4.62-18.64-5.39-6.92-.82-14.05-1.07-20.76.84-3,.86-6.17,2.32-8.07,4.92-1.74,2.38-1.81,6.37.75,8.25,1.49,1.09,3.48,1.13,5.32,1,5-.3,10-1.4,15-1.93a82.1,82.1,0,0,1,23.82,1.19,18.49,18.49,0,0,0,4,.47,5.42,5.42,0,0,0,3.66-1.43,2.6,2.6,0,0,0,.78-1.43,2.3,2.3,0,0,0-.14-1.19Z" transform="translate(0 -2)"/><path class="cls-5" d="M773.24,445.24c-3.15-5.18-6.94-10.1-10.47-15.13-8.81-12.5-10.14-26.36-15.06-40.36-12.47-35.56-40.86-63.51-78.57-70.48-39.89-7.38-83.78,11-104.44,43.9-10.41,16.58-15.06,35.77-23.9,53.13-5.59,11-13.24,21.58-24.46,27.67s-26.57,6.59-36.39-1.36c-11-8.87-11.79-24.44-19-36.25-8.21-13.45-29.43-21.51-43.16-10.71-8.78,6.91-13.4,7.13-23.17,1.36-22.26-13.16-51.56-15-75.94-6.15-12.25,4.45-23.42,11.74-31.34,21.67a58.06,58.06,0,0,0-9.18,16.4c-2.77,7.69-2.24,16.41-6,23.68-2.46,4.76-7.39,8.77-13,8.75-8.6,0-17.72-9.82-24.62-13.9-9.25-5.47-20.05-10.18-31.18-7.42-12.58,3.1-20.87,15.19-22.52,27.33-2,14.33-.23,27.88,9.28,39.26,29.9,35.73,79.28,31.56,121.2,28.49,46.28-3.4,92.92-1.23,139-7.38,47.3-6.3,90.7-4.23,138.12.9,49.45,5.34,109.32,14.65,155.24-8.39,19.19-9.64,36.61-29.71,36.77-52.14.06-8.65-3-16-7.21-22.87Z" transform="translate(0 -2)"/><path class="cls-6" d="M651.59,605.51c-11,.34-21.93.82-32.87.17a397.26,397.26,0,0,0-41.56-.56c-30.15,1.36-60.37,1.8-90.57,1.55q-22.89-.18-45.76-.86c-14-.4-28-2.32-42.25-2.43H393.2c-19.17.13-38.24,1.76-57.26,3.5-9.51.88-19,1.79-28.55,2.56-5.74.46-18.61-.19-20.83,5.61-2.35,6.12,19.43,8.44,24.17,9.26a268.16,268.16,0,0,0,27.08,3.19,450,450,0,0,0,54.84-.1c35.14-1.9,69.9-4.16,105.18-3.21,30.72.82,61.41,2.37,92.14,2.75,21.48.26,44.1,1.13,65.08-3.83,6.41-1.51,25-6.16,26-12.47.95-5.4-11.13-5.33-15.4-5.39-1.75,0-3.5,0-5.25,0-3,0-5.9.12-8.85.22Z" transform="translate(0 -2)"/><path class="cls-7" d="M543.26,272.23a8.14,8.14,0,0,0-4.14-4.74,5.63,5.63,0,0,0-.75-.27c-5.51-1.54-8.44,5.38-9.6,9.42-1.66,5.78-1.7,11.9-1.7,17.88q0,11.72,0,23.43a14,14,0,0,1-.87,5.9,17.34,17.34,0,0,1-3.39,4.22c-7.72,8.14-11.23,19.28-16.66,29.09-1.62,2.93-3.52,5.85-6.34,7.63-2.17,1.37-4.74,2-6.92,3.31-3.21,2-5.33,5.08-4.45,8.95.63,2.76,4.14,6.16,6.35,2.77.49-.75.8-1.61,1.32-2.34,1.76-2.49,5.11-2.76,7.48-4.41a25.69,25.69,0,0,0,6-6.46c.82-1.14,1.6-2.31,2.41-3.46,7.63-10.81,18.14-19.66,23.88-31.59,4.44-9.21,5.69-19.58,6.77-29.75a223.72,223.72,0,0,0,1.55-22.39,20.46,20.46,0,0,0-.89-7.19Z" transform="translate(0 -2)"/><path class="cls-8" d="M590.79,574.75c.26-5.89.51-11.78.39-17.68-.23-10.8-1-21.59-.85-32.39.24-20.72,1.33-41.38,2.42-62.06,1.06-20.25,1.88-40.68-.85-60.84-.3-2.21-.69-4.39-1-6.59a208.15,208.15,0,0,0-14.74-47.38,1.87,1.87,0,0,0-.5-.75,2,2,0,0,0-.83-.27c-6.15-.92-12.45-.71-18.67-1-1.94-.09-18.93-2.28-19.39-1.38C523,371,521.21,402,520.57,431.88c-.87,40.34-.67,81.78,6.9,121.71.11.59.23,1.19.34,1.79.64,3.23,1.43,6.39,2.21,9.59,1.92,7.76,4.62,15.3,7.05,22.91l13.63.66,0-8.72c0-7.58-.08-15.08-.51-22.65-1.35-23.65-.16-47.33.38-71,.58-25.39.23-50.38,4.57-75.51,4.15,42.92,7.39,85.93,12.75,128.72q1.62,12.9,3.43,25.77c.29,2.08,2.27,21.11,3.41,24.53,5,.24,10.14.68,15.22.8.1-1.19.24-2.38.41-3.56.09-4.07.27-8.12.46-12.18Z" transform="translate(0 -2)"/><path class="cls-9" d="M592.19,574.74c-.61-1.37-2-1.14-3.21-1a31.74,31.74,0,0,1-5.6.1c-1.85-.06-3.7-.15-5.54-.31a29.61,29.61,0,0,1-3-.34c-.82-.16-1.87-.83-2.71-.63-1.28.3-1.45,1.67-1.25,2.82a45.46,45.46,0,0,0,1.68,6.44,7.34,7.34,0,0,0,.95,2.43c.71.85,2,.92,3,1.22a19.73,19.73,0,0,0,4.13.93,29.38,29.38,0,0,0,6.55-.61c.6-.08,1.19-.16,1.79-.22a2.06,2.06,0,0,0,2.05-1.41,24.41,24.41,0,0,0,.83-3.5c.41-1.83,1.07-4.13.27-6Z" transform="translate(0 -2)"/><path class="cls-9" d="M551.64,574.62c-1-.13-2.06.7-2.93,1.12a15.46,15.46,0,0,1-3.42,1.27,25.54,25.54,0,0,1-8.62.51c-1.06-.15-2.87-.76-3.7.24a2.16,2.16,0,0,0,0,2c.5,1.37,1,2.73,1.62,4.06.38.89.87,1.71,1.18,2.61a1.85,1.85,0,0,0,2,1.25c.54,0,1.08,0,1.62,0a26.45,26.45,0,0,0,5.9,0,17.7,17.7,0,0,0,3.6-1.2c.85-.35,2-.54,2.58-1.36a6.55,6.55,0,0,0,.63-2.25A40.11,40.11,0,0,0,553,577c.08-1-.2-2.26-1.36-2.41Z" transform="translate(0 -2)"/><path class="cls-10" d="M614.61,605.06c-.56-2.46-3.33-2.73-5.42-2.7-2.46,0-4.88.22-7.25-.55a36.58,36.58,0,0,1-7.62-4c-1.79-1.11-3.75-2.76-4-5a9.72,9.72,0,0,1,.15-2.28,14.67,14.67,0,0,1,1-4.09,5.17,5.17,0,0,0,.61-1.64A1.25,1.25,0,0,0,591,583.4c-.75-.07-1.62.62-2.33.84a17.06,17.06,0,0,1-5.65.48,41.41,41.41,0,0,1-5.1-.41c-1.46-.25-4.1-2.12-5.47-.95a1.26,1.26,0,0,0-.38,1,3.91,3.91,0,0,0,.27,1.07l2.55,7,.12.32a21.12,21.12,0,0,1,1.34,7.08c0,.54-.34,6.69-.43,6.69,6,.36,11.89.67,17.84,1l9,.47a78.14,78.14,0,0,0,8.65.3c1.89-.12,3.68-1.1,3.19-3.25Z" transform="translate(0 -2)"/><path class="cls-10" d="M551.76,589a10.28,10.28,0,0,0,1-2.78,1.71,1.71,0,0,0,0-1.14,1.27,1.27,0,0,0-1.15-.61,3.7,3.7,0,0,0-1.33.35,28.45,28.45,0,0,1-4.18,1.48c-2.53.58-5.23,0-7.75-.48-1.17-.22-3.12-.22-3.27,1.35a2.93,2.93,0,0,0,.44,1.58l2.34,4.69a10.32,10.32,0,0,1,.74,1.75c.91,3.13-2.21,6-4.16,8s-3.78,4.35-3.42,7a6.14,6.14,0,0,0,3.33,4.4,12.27,12.27,0,0,0,5.55,1.19,15.7,15.7,0,0,0,8.62-2.06,9,9,0,0,0,4.42-7.39,11.21,11.21,0,0,0-.58-3.23c-.38-1.27-.85-2.52-1.11-3.81-.81-4.11.58-8.27,1.33-12.39.12-.65.1-1.52-.53-1.73a1.45,1.45,0,0,0-.87.07,29.78,29.78,0,0,1-6.48,1.23,16.56,16.56,0,0,1-3-.11" transform="translate(0 -2)"/><path class="cls-11" d="M626.88,300.3A55.55,55.55,0,0,1,607,285.24c-5.84-6.89-9.79-15.29-13.07-23.63-2.37-6-4.51-12.18-7.85-17.76-5.34-9-14-15.58-24.4-17.18a9.42,9.42,0,0,1,7.06-3.91,16.59,16.59,0,0,1,8.79,1.86c4.44,2.26,8,6,11.65,9.32,7.29,6.64,16,12.32,25.85,13.3a35.16,35.16,0,0,0,20.77-4.76c5.21-3,9.68-7,14.55-10.54s10.38-6.5,16.37-6.82c8-.42,15.69,4.17,20.23,10.73s6.18,14.8,5.87,22.77a50.32,50.32,0,0,1-9.67,27.89c-9.7,13.08-26.36,19.2-42.32,17.54a46.81,46.81,0,0,1-14-3.75Z" transform="translate(0 -2)"/><path class="cls-7" d="M580.9,259.33c-3.45-7.26-.42-15.13,1.45-22.47l-.56,0-15-1.83c-.32,0-3.2-.68-3.4-.41-1.12,1.49-1.06,3.48-1.26,5.52a63.41,63.41,0,0,1-1.19,9.32c-.76,3-2.72,5.33-4.68,7.63-2.23,2.6-4.44,5.12-6.87,7.56-2,6.07,2.72,15,6,19.7A19.69,19.69,0,0,0,572,293.11c7.41-.2,12.75-5,15.77-11.93a45.34,45.34,0,0,0,2.78-8.93c.28-1.35.7-2.71.93-4.07-4.44-1.72-8.47-4.42-10.58-8.85Z" transform="translate(0 -2)"/><path class="cls-12" d="M590.54,221.9a4.86,4.86,0,0,0-2.28-.29,13,13,0,0,0-1.77-6.13,29.15,29.15,0,0,0-7.79-8.17,30.62,30.62,0,0,0-9.35-4.14c-3-.8-6.28-1.64-9.16-.14s-4.64,4.58-5.84,7.48a34.79,34.79,0,0,0-2,20.16,39.45,39.45,0,0,0,3.38,9.83c1.33,2.69,3,6.67,5.94,7.92,3.49,1.5,8.42-.37,11.69-1.75a25.79,25.79,0,0,0,10.86-8.18l.09-.14a15.81,15.81,0,0,0,9.06-7.68c1.57-3.26.8-7.39-2.83-8.77Z" transform="translate(0 -2)"/><path class="cls-11" d="M585,199.63a18.53,18.53,0,0,0-11.92-4.53A20.57,20.57,0,0,0,557,202.61c-.46.6-2.36,2.61-1.85,3.47.1.16.19.33.3.5a37.4,37.4,0,0,0,14.93,13.13A30.56,30.56,0,0,0,590,222a1.12,1.12,0,0,0,.53-.24,1.07,1.07,0,0,0,.25-.68c.72-5.75.48-12-2.37-17.23a16.2,16.2,0,0,0-3.41-4.25Z" transform="translate(0 -2)"/><path class="cls-13" d="M602.33,275.16l-.71-.64a63.61,63.61,0,0,0-7.54-5.72c-2.84-1.83-6-3.16-8.74-5.08a7.46,7.46,0,0,1-1.63-1.2.53.53,0,0,0-.19-.15.28.28,0,0,0-.29.18.87.87,0,0,0,0,.36c.36,3.26-2.24,7-4.3,9.38a18.62,18.62,0,0,1-11.32,6.28,13.41,13.41,0,0,1-6.64-.64c-2.4-1-3.92-2.94-5.19-5.13a16.89,16.89,0,0,1-2.21-6.58,15.68,15.68,0,0,1,.16-4.16c.11-.67.24-1.34.35-2,0-.22.28-1-.13-1a.67.67,0,0,0-.35.12,56,56,0,0,1-8.41,3.43c-3.38,1.27-6.7,2.86-10.14,4,.32,2.39.36,4.86.49,7.34,1.1,19.5,5.44,40.29-.8,59.36-.74,2.25-1.42,4.52-2.07,6.8-.31,1.09-.61,2.18-.9,3.28-.19.71-1.15,2.82-.9,3.48.45,1.19,4.37,2.17,5.52,2.59,1.86.67,3.75,1.25,5.63,1.87,6.15,2,12.22,2.51,18.67,2.7,4.16.12,8.32.34,12.48.19a52.08,52.08,0,0,0,6.23-.58,16,16,0,0,0,3-.62c1.4-.55.86-1,.58-2.28a33.55,33.55,0,0,1-.46-4c-.17-2.27-.18-4.55-.35-6.81-.61-7.66.34-15,1.86-22.52.18-.93.37-1.86.56-2.78A58.69,58.69,0,0,1,588,303.29q3.27-7.67,6.8-15.22c1.19-2.55,2.42-5.09,3.65-7.63a9.55,9.55,0,0,1,1.1-2.3c.67-.74,2-1,2.84-1.41a1.05,1.05,0,0,0,.39-.27c.31-.4-.09-1-.46-1.3Z" transform="translate(0 -2)"/><path class="cls-14" d="M615.72,453.13a78.43,78.43,0,1,0,78.42,78.42,78.43,78.43,0,0,0-78.42-78.42Zm0,7.8a70.63,70.63,0,1,1-70.63,70.62,70.71,70.71,0,0,1,70.63-70.62" transform="translate(0 -2)"/><path class="cls-15" d="M615.72,460.93a70.63,70.63,0,1,0,70.63,70.62,70.63,70.63,0,0,0-70.63-70.62Zm0,5.19a65.43,65.43,0,1,1-65.43,65.43,65.5,65.5,0,0,1,65.43-65.43" transform="translate(0 -2)"/><path class="cls-14" d="M344.24,453.13a78.43,78.43,0,1,0,78.43,78.42,78.42,78.42,0,0,0-78.43-78.42Zm0,7.8a70.63,70.63,0,1,1-70.62,70.62,70.7,70.7,0,0,1,70.62-70.62" transform="translate(0 -2)"/><path class="cls-15" d="M344.24,460.93a70.63,70.63,0,1,0,70.63,70.62,70.62,70.62,0,0,0-70.63-70.62Zm0,5.19a65.43,65.43,0,1,1-65.42,65.43,65.5,65.5,0,0,1,65.42-65.43" transform="translate(0 -2)"/><path class="cls-14" d="M359.26,531.55a15,15,0,1,1-15-15,15,15,0,0,1,15,15Z" transform="translate(0 -2)"/><path class="cls-16" d="M543,376.5h-7.17s-2.28,8.83-4,15.49c-.12.52-.26,1-.38,1.53-.83,3.2-1.45,5.61-1.47,5.72-.08.32-.18.65-.26,1,0,0,0,.06,0,.08-1.34,5.18-2.67,10.33-4,15.5-.45,1.74-.88,3.48-1.31,5.21-.33,1.29-.54,2.12-.56,2.18-.08.33-.17.66-.25,1,0,0,0,.06,0,.08-.81,3.11-1.6,6.22-2.4,9.33-.14.52-.28,1.05-.43,1.57-.52,1.81-1,3.65-1.38,5.49-1.56,6.17-3,12.35-4.73,18.46-.47,1.64-.88,3.3-1.26,5-1.21,4.48-2.37,9-3.52,13.47l-5.75,22.37q-3,12-6.11,24c-.52,2-1.06,4.1-1.58,6.15l-.37-.39V534h6.48q2.34-9.1,4.67-18.2,5.31-20.66,10.63-41.32l8.76-34.15c.83-3.27,1.68-6.52,2.52-9.78.2-.76.39-1.54.59-2.3.51-2,1-3.94,1.51-5.91q2.84-11,5.64-21.93h0c.17-.67.35-1.35.51-2q2.84-11,5.65-21.93Z" transform="translate(0 -2)"/><path class="cls-16" d="M622.38,529,621.87,539l0-.06L529.09,430.59l-5.44-6.35-.08-.08-1.93-2.26-3.78-4.44h7.44c.12-.49.25-1,.37-1.52l1.32,1.52,2.89,3.38,1.31,1.54L622.38,529Z" transform="translate(0 -2)"/><path class="cls-16" d="M489.69,533.38V534h-9l-90.53-92.65-4.78-4.89-1.08-1.09-.08-.08-2.07-2.13-2.29-2.36c.12-.39.25-.76.37-1.15s.18-.55.26-.83l5-.32c.08-.51.19-1,.27-1.56l1.4,1.44.45.45,2.68,2.74,1.4,1.44,98,100.34Z" transform="translate(0 -2)"/><path class="cls-14" d="M558.19,368.8l-.13,0c-4.24-.88-8.77-.34-13-.08-4.79.29-9.58.61-14.37.9-9.47.56-18.95,1-28.44.91-2.66,0-5.66.19-7.79,2-3.77,3.25-.42,6.74,3.05,7.52,3.31.74,6.73.13,10,.72,4,.71,8.77,1.67,12.46,3.51,8.2,4.11,17.1,8.25,26.46,8.58,7.89.28,18.4-2.36,20.31-11.57,1.33-6.37-2.64-11.22-8.55-12.5Z" transform="translate(0 -2)"/><path class="cls-16" d="M395.28,402.63h-7.17c-.79,2.64-1.57,5.29-2.35,7.93l-.57,1.95-2.27,7.69c-1.86,6.25-3.69,12.51-5.56,18.75q-1.16,3.9-2.3,7.8-1.41,4.72-2.8,9.43c-1,3.5-2.08,7-3.11,10.47s-2.13,7.22-3.2,10.82l-3.13,10.58q-1.45,4.84-2.87,9.69l-2.43,8.15c-.59,2-1.18,4-1.77,6-.32,1.06-.64,2.13-.95,3.2,0,.12-.06.23-.1.35l-8.16,8.16-5,5a3.39,3.39,0,1,0,4.8,4.8l14.05-14.06a3.32,3.32,0,0,0,.82-1.36s0-.07,0-.11l24.12-81.4,2.25-7.63.84-2.84,2.26-7.7q2.31-7.85,4.65-15.69Z" transform="translate(0 -2)"/><polygon class="cls-16" points="529.88 415.46 529.88 422.24 384.89 422.24 384.89 415.46 529.88 415.46 529.88 415.46"/><path class="cls-17" d="M518.47,579l-22,1.44a1.64,1.64,0,0,1-1.74-1.53l-.07-1a1.65,1.65,0,0,1,1.53-1.75l22-1.44a1.65,1.65,0,0,1,1.75,1.53l.06,1a1.64,1.64,0,0,1-1.53,1.74Z" transform="translate(0 -2)"/><path class="cls-14" d="M508.17,578.64l-1,.27a1.76,1.76,0,0,1-2.15-1.25L495.25,541a1.76,1.76,0,0,1,1.25-2.15l1-.27a1.76,1.76,0,0,1,2.15,1.25l9.75,36.68a1.77,1.77,0,0,1-1.25,2.15Z" transform="translate(0 -2)"/><path class="cls-18" d="M617.06,516.52H497.26a25.21,25.21,0,0,0-13.76,46.11c7.36,4.94,14.89,4.35,23.2,2.92l30.88-5.32,55.2-9.5,15.36-2.65c5.62-1,12.23-.73,17.16-4a15,15,0,0,0-8.24-27.59Z" transform="translate(0 -2)"/><path class="cls-19" d="M622.85,530.86a6.57,6.57,0,1,1-6.57-6.57,6.57,6.57,0,0,1,6.57,6.57Z" transform="translate(0 -2)"/><path class="cls-20" d="M498,527.31a14.23,14.23,0,1,0,14.23,14.23A14.23,14.23,0,0,0,498,527.31Zm0,2.39a11.84,11.84,0,1,1-11.84,11.84A11.85,11.85,0,0,1,498,529.7" transform="translate(0 -2)"/><path class="cls-14" d="M499,544.24l-1,.27a1.77,1.77,0,0,1-2.15-1.25L485.26,503.4a1.76,1.76,0,0,1,1.25-2.15l1-.27a1.75,1.75,0,0,1,2.15,1.24l10.6,39.86a1.78,1.78,0,0,1-1.25,2.16Z" transform="translate(0 -2)"/><path class="cls-17" d="M498.51,501.1,478,509a1.64,1.64,0,0,1-2.12-.95l-.36-.92a1.65,1.65,0,0,1,.94-2.12L497,497.11a1.66,1.66,0,0,1,2.13.94l.35.92a1.66,1.66,0,0,1-.94,2.13Z" transform="translate(0 -2)"/><path class="cls-16" d="M392.69,397.27H366.46a3.75,3.75,0,0,0-.69.07c-13.73-.22-30.47-.68-38.19,12.43a16,16,0,0,0,.86,17.37c4.22,5.82,10.83,6.92,17.6,6.87,4.31,0,4.32-6.73,0-6.69-5.13,0-12.19-1.09-13.68-7a11,11,0,0,1,4.7-11.41c5.78-3.71,12.34-5.08,19.13-5.19,9.15-.14,18.3.18,27.45.22l6.55,0h2.5c4.31,0,4.32-6.7,0-6.7Z" transform="translate(0 -2)"/><path class="cls-14" d="M356.38,427l-14.46-.79c-5.32-.3-5.77,7.73-.44,8l14.46.8c5.32.29,5.77-7.73.44-8Z" transform="translate(0 -2)"/><path class="cls-21" d="M603.68,275.43a6,6,0,0,0-.67-.56c-5-3.7-10.7,2.24-13.44,5.92-3.92,5.28-6.32,11.52-8.63,17.62q-4.52,12-9.05,23.94a14.94,14.94,0,0,1-3.16,5.69,18.2,18.2,0,0,1-5.09,3c-11,5.35-18.89,15.38-28.23,23.31-2.78,2.37-5.85,4.62-9.42,5.36-2.74.56-5.6.19-8.35.71C511.4,361.61,507,367,503.09,372c-.49.65-.89,1.77-.15,2.11a1.36,1.36,0,0,0,1-.12c2.07-.86,4-2,6.06-2.89s3.73-1.54,5.89-1.09c1.34.28,2.63.78,4,1a12.09,12.09,0,0,0,6.21-1,50.93,50.93,0,0,0,6.52-3c2.23-1.26,4.29-2.82,6.41-4.26,12-8.11,26.11-13.11,36.58-23.08,8.08-7.7,13.36-17.82,18.38-27.8a243.47,243.47,0,0,0,10.21-22.29,22.17,22.17,0,0,0,1.86-7.68,8.87,8.87,0,0,0-2.4-6.45Z" transform="translate(0 -2)"/><path class="cls-7" d="M495.75,374c0,1,.28,2.17,1.22,2.46a1.82,1.82,0,0,0,1.62-.41,6.43,6.43,0,0,0,1.11-1.33A20.69,20.69,0,0,1,502,372a18.13,18.13,0,0,0,2.2-2.27,1.55,1.55,0,0,0,.37-1.51c-.29-.61-1.13-.67-1.8-.57a10.15,10.15,0,0,0-4.83,2.1,5,5,0,0,0-2.23,4.23Z" transform="translate(0 -2)"/></svg>