<svg xmlns="http://www.w3.org/2000/svg" viewBox="0 0 1920 1434.32"><defs><style>.cls-1{fill:#e6f5fb;}.cls-2{fill:#fff;stroke:#ccc;stroke-width:5px;}.cls-2,.cls-27,.cls-28,.cls-33{stroke-linecap:round;}.cls-11,.cls-14,.cls-16,.cls-17,.cls-19,.cls-2,.cls-22,.cls-25,.cls-26,.cls-27,.cls-28,.cls-29,.cls-31,.cls-33,.cls-34,.cls-36,.cls-7{stroke-miterlimit:10;}.cls-3{fill:#41a35b;}.cls-4{fill:#c6c199;}.cls-5{fill:#f3efcc;}.cls-6{fill:#e8e4c8;}.cls-11,.cls-16,.cls-22,.cls-26,.cls-31,.cls-36,.cls-7{fill:none;}.cls-11,.cls-7{stroke:#474a54;}.cls-7{stroke-width:17px;}.cls-8{fill:#3a683a;}.cls-9{fill:#407740;}.cls-10{fill:#273027;}.cls-11{stroke-width:19px;}.cls-12{fill:#474a54;}.cls-13{fill:#4b4c48;}.cls-14{fill:#365b75;}.cls-14,.cls-16{stroke:#294556;}.cls-15{fill:#305266;}.cls-17,.cls-27{fill:#ffb19c;}.cls-17,.cls-19,.cls-22,.cls-27{stroke:#c17b69;}.cls-18{fill:#e09b8c;}.cls-19{fill:#efa695;}.cls-20{fill:#142b33;}.cls-21{fill:#131719;}.cls-23{fill:#2e7d4b;}.cls-24{fill:#247244;}.cls-25{fill:#31844d;}.cls-25,.cls-26{stroke:#20603a;stroke-width:2px;}.cls-28,.cls-34,.cls-37{fill:#f7c466;}.cls-28,.cls-34,.cls-36{stroke:#e08435;}.cls-29,.cls-32,.cls-33{fill:#5ac8b5;}.cls-29,.cls-31,.cls-33{stroke:#468376;}.cls-30{fill:#56baa7;}.cls-35{fill:#efb76c;}.cls-38{fill:#c43a0c;}.cls-39{fill:#3a8e4e;}</style></defs><g id="Laag_17" data-name="Laag 17"><path class="cls-1" d="M922,201s36.31-39.94,77.79-23a19.32,19.32,0,0,0,13.07.53c15.43-4.79,53.24-12.73,75.14,15.43,4,7-8,15.77-83,13.38S922,201,922,201Z" transform="translate(0 -135.95)"/><path class="cls-1" d="M635,483s37.34-47.12,87.72-29a20.24,20.24,0,0,0,17.88-2c10.33-6.74,28.18-16.59,43.4-15.93,19.17.83,41.11,18.33,47.89,24.14A28,28,0,0,0,843,466c7.24,1.89,18.41,2.11,31.88-6.54,15.81-10.14,29-3.34,36.19,2.56a28.52,28.52,0,0,0,26.36,5.23A73.53,73.53,0,0,0,946,464c15-6.77,29.51,6.25,35.77,13.13A2.34,2.34,0,0,1,980,481l-345,2" transform="translate(0 -135.95)"/><path class="cls-2" d="M1867.69,608.12" transform="translate(0 -135.95)"/><path class="cls-3" d="M1770.5,607C1078.79,607,452.69,679.9,0,797.71V1080H1920V608.14Q1845.81,607,1770.5,607Z" transform="translate(0 -135.95)"/></g><g id="scene"><g id="road"><path class="cls-4" d="M0,968.93V1570.2C330.42,1410,1427.41,885.41,1920,741.77V608.25C1715.75,609,1003.92,638.22,0,968.93Z" transform="translate(0 -135.95)"/><path class="cls-5" d="M1139.61,683.92c-169.07,28.28-360.46,67-571.17,119.94C628.2,818.82,1034.86,921,1268,988.55c167.08-70.89,327-135.25,464.26-184.64C1609.74,776.23,1381.47,726.61,1139.61,683.92Z" transform="translate(0 -135.95)"/><path class="cls-5" d="M1920,608.33c-39.39.15-97.66,1.35-173.25,5.58,53.83,9.29,113.07,19.63,173.25,30.37Z" transform="translate(0 -135.95)"/><path class="cls-5" d="M1920,649.77c-60.52-11.08-126.91-22.82-196.63-34.5-138.19,8.48-328.85,26.77-563.72,65.33,112.94,21.83,383.31,74.71,584.91,118.9,64.19-22.91,123.21-42.42,175.44-57.65Z" transform="translate(0 -135.95)"/><path class="cls-5" d="M0,1050.28v520c130.59-63.34,380.92-183.57,666.36-314.71C492.51,1198.84,254.28,1123.52,0,1050.28Z" transform="translate(0 -135.95)"/><path class="cls-5" d="M553,808l-.51-.12C380.51,851.47,195.8,904.51,0,969v71.15c157.6,47.42,432.94,131,679.24,209.49,186.08-85.38,386.43-175.08,577.86-256.47C1191,973.71,880.26,883.38,553,808Z" transform="translate(0 -135.95)"/><ellipse class="cls-6" cx="1344" cy="661.94" rx="109" ry="37.89"/><ellipse class="cls-6" cx="1475" cy="671.84" rx="94" ry="31.99"/></g><path class="cls-1" d="M1920,167.12a38.2,38.2,0,0,0-8.06,3.06c-11.9,6.67-30.08-11.55-30.08-11.55s-25.07-26.86-52.14,0c-18.37,18.23-40.92,4.92-53.51-5.52-17.23-14.28-40-20.28-61.85-15.48-21.06,4.62-47.28,18-76.36,49.68l282-3.79Z" transform="translate(0 -135.95)"/><path class="cls-6" d="M1398,737c2.65,5.77-60.94,41-174.08,93S1075.65,889.77,1073,884s28.16-22.82,141.31-74.87S1395.35,731.23,1398,737Z" transform="translate(0 -135.95)"/><g id="bike"><ellipse class="cls-7" cx="1347.87" cy="629.13" rx="126.23" ry="55.2" transform="translate(570.59 1761.41) rotate(-83.52)"/><path class="cls-8" d="M1204.82,469.23S1252,619,1265,641.63c1.82,4.09,4.41-8.81,4.41-8.81l33.27-182.68,22,1-33.26,204.71c22.53,33,3.14,63.9-21.3,61.95s-26.42-47.09-17-56.67l-60.85-159.91Z" transform="translate(0 -135.95)"/><path class="cls-9" d="M1215.64,427.19,1195,507.34c14.85,3.67,10.45,12.48,3,45.18-8.84,40.64-35.18,158.57-35.18,158.57s-.32,7-6.27,5.73-4.67-7.22-4.67-7.22L1189.67,530c.17-.78.33-1.56.52-2.33.52-2.1,2-10.57-7.58-11.88-10.94-1.5-12.34,7.45-12.34,7.45L1116.06,704s-1.31,6.95-8.26,5.63-4.63-8.21-4.63-8.21l56.24-181.65s4.85-18.8,21.75-16l21.33-77.12,1.48-6.94,13.11.6Z" transform="translate(0 -135.95)"/><path class="cls-10" d="M1153,704l-39.77-4.16s-5-1.23-5.18,3.77c-.13,3,1.78,4.14,3,4.22s2.28.12,3.42.25l37.45,4.36a10.83,10.83,0,0,1-.09-1.85C1151.85,709.6,1153,704,1153,704Z" transform="translate(0 -135.95)"/><ellipse class="cls-11" cx="1127.98" cy="706.02" rx="150.39" ry="76.24" transform="translate(270.49 1587.67) rotate(-81.92)"/><path class="cls-9" d="M1198.29,508.28l-13.14,44.49-33,156.84s-1.27,5.95,4.68,7.22,6.26-5.72,6.26-5.72,26.35-117.94,35.19-158.58C1205.16,522.29,1209.43,512.49,1198.29,508.28Z" transform="translate(0 -135.95)"/><path class="cls-8" d="M1296.46,677.08l70-41.88s17.39-8.23,7-21.71-63.68-75-65.32-83-4.3,28.83-4.3,28.83l43.42,58-58.88,40.39Z" transform="translate(0 -135.95)"/><path class="cls-12" d="M1345.14,451.56a134,134,0,0,0-23.23,2.09c-15,2.59-34.67,6.39-41.53,9.53-11.67,5.33-18.4.93-18.4.93s-15.81-7.85,14.77-17.2c15.42-4.71,28.78-9.12,38.23-12.34a112.64,112.64,0,0,0,21.62-9.83c7.28-4.35,19.17-9.59,29.58-5.54,16.34,6.37,12.41,19.76,12.41,19.76s-.11,7.22-18.53,10.76A81.82,81.82,0,0,1,1345.14,451.56Z" transform="translate(0 -135.95)"/><path class="cls-12" d="M1158.88,419.38a13.59,13.59,0,0,0,7.41,2.61l79.41,4.55s7,.32,8.44-9.63,5.13-24.79,5.13-24.79l20.93,1.94s8,1.36,8.26-5.63c.37-8.05-8.67-7.4-8.67-7.4L1255.86,379s-8,.64-9.35,7.59-4,21.84-6.22,26.74l-71-2.2-2.75-27.77s.63-6.36-11.53-6.91-17.52.21-17.52.21-5.67-.25-5.9,4.74c-.27,6,7.72,6.36,7.72,6.36l14-.37s3.22,17.16,2.86,25.15C1156.1,415.7,1156.89,417.9,1158.88,419.38Z" transform="translate(0 -135.95)"/></g><g id="schoenen"><path class="cls-13" d="M1272.16,745s1,11.69-15.5,23.37-26.87,21.25-14.47,26.56,19.64,2.12,19.64,2.12l15.5-11.68s6.64-7.51,14.6-8.3a6.94,6.94,0,0,0,6.07-7V753.59Z" transform="translate(0 -135.95)"/><path class="cls-13" d="M1406,717.68s3,17.52,1,27.37a83.32,83.32,0,0,1-5,16.43s-8,17.52,11,15.33,19-10.81,19-12c0-3.76-2-11.76-2-20.76s1-29.17,2-33.22S1406,717.68,1406,717.68Z" transform="translate(0 -135.95)"/></g><g id="broek"><path class="cls-14" d="M1362.75,454s-27.43,51.5-31.17,83c-.69,5.75-10.4,42-10.4,42s-2.83,7-2.83,20-5.67,69-9.45,79-10.39,41-9.44,57,.94,19,.94,19-25.51,5-29.28-7c1.89-6,4.72-30,4.72-30V644l.94-43s32.42-162.5,42.1-204.5c27.39-34,93.94,2.5,93.94,2.5a422.25,422.25,0,0,1,1.8,64.5c-1.89,33,3.26,72.39,3.26,72.39s-1.55,30.64,0,36.37S1439.27,603,1432.65,682c-.94,22-.94,29-.94,29s2.83,8-25.51,7c-1.89-1-2.83-19-2.83-19l-5.67-49s-4.72-42-6.61-48-10.39-26-11.34-41C1367.23,519.5,1362.75,454,1362.75,454Z" transform="translate(0 -135.95)"/><path class="cls-15" d="M1361.75,455l-11.11,22.79L1343,495.56l-7.52,20.93L1333,527l-1,10-3.31,13-9,34.24L1318,594v12l-2,24-4,29-2,14-2,8-4,11.89-.47,2.61s7-64,5-89,13.86-76.2,13.86-76.2,20.14-58.8,40.14-76.8" transform="translate(0 -135.95)"/><path class="cls-15" d="M1377.5,403.5l35-2s3.57,36.83,2.29,47.42c-.29-.42-4.38-22.93-15.83-31.18A94.55,94.55,0,0,0,1377.5,406Z" transform="translate(0 -135.95)"/><path class="cls-16" d="M1362.41,454.27s-27.43,51.5-31.17,83c-.69,5.75-10.4,42-10.4,42s-2.83,7-2.83,20-5.67,69-9.45,79-10.39,41-9.44,57,.94,19,.94,19-25.5,5-29.28-7c1.89-6,4.72-30,4.72-30v-73l.94-43s32.43-162.5,42.1-204.5c27.39-34,93.94,2.5,93.94,2.5a422.25,422.25,0,0,1,1.8,64.5c-1.89,33,3.26,72.39,3.26,72.39s-1.55,30.64,0,36.37,21.39,30.74,14.78,109.74c-1,22-1,29-1,29s2.83,8-25.51,7c-1.88-1-2.83-19-2.83-19l-5.67-49s-4.72-42-6.61-48-10.39-26-11.34-41C1366.89,519.77,1362.41,454.27,1362.41,454.27Z" transform="translate(0 -135.95)"/></g><g id="Laag_10" data-name="Laag 10"><path class="cls-17" d="M1379.39,240.73S1368,235,1365,230s-32-7-32-7v13.64s-8.16,5.3-13.58,4.83S1322,263,1322,263l16,20,48.27-31.32Z" transform="translate(0 -135.95)"/><path class="cls-18" d="M1333,225.12v8.77s6,12.11,20,12.11,17.38-10.76,17.38-10.76a15.94,15.94,0,0,1-4.16-3.62c-2.22-2.62-7.21-5.07-7.21-5.07Z" transform="translate(0 -135.95)"/><line class="cls-17" x1="1333" y1="99.69" x2="1333" y2="86.05"/><path class="cls-17" d="M1371.32,235.91s-5.08-3.23-6-5.32" transform="translate(0 -135.95)"/><path class="cls-17" d="M1323.5,189.5s-2,29,16.55,43,27.27-4,27.27-4,4.54-5,11.45-20c4-8.63,3.16-39,3.16-39l-23.85-14.37-22.9,8.37-10.71,14A86.19,86.19,0,0,0,1323.5,189.5Z" transform="translate(0 -135.95)"/><path class="cls-19" d="M1323.44,194.77s-3.94-10.27-7.94-5.27,4,15,4,15l7.9,10S1323.38,201,1323.44,194.77Z" transform="translate(0 -135.95)"/><path class="cls-18" d="M1323,193c1.61-6.08,7-17.21,19.91-17.21A21.25,21.25,0,0,1,1352,178s-.09-4.21-6.09-6.21c0,0,8.09-6.79,28.09,5.21,3.21,1.92,6.35,1,9,1,9.17-.09,11.06-8.31,14-15,2.2-5,6.09-7.93,3.86-12.94a14.89,14.89,0,0,0-1.95-3.27s2.15,12.26-10.93,12.63c-9.13.26-17.25-7-21.32-11.37a23.1,23.1,0,0,0-15.81-7.56c-5.5-.24-12,1.5-17.94,8.3a14.94,14.94,0,0,0-8,2" transform="translate(0 -135.95)"/><path class="cls-20" d="M1346.5,167.5s8-4,28,8c14.3,8.58,23-5.34,26.76-14a19.52,19.52,0,0,0,.19-15.76,14.89,14.89,0,0,0-2-3.27s2.15,12.26-10.93,12.63c-9.13.26-17.25-7-21.32-11.38a23.13,23.13,0,0,0-15.81-7.55c-5.5-.24-12,1.5-17.94,8.3a14.94,14.94,0,0,0-8,2c-5.5,3.5-20.12,24.85-2.06,46.93.06.07,3.06-21.93,20.06-21.93,5,0,11,8,11,8S1352.5,169.5,1346.5,167.5Z" transform="translate(0 -135.95)"/><path class="cls-21" d="M1352.7,136.18S1340,140,1339,144s1,7,10,5c0,0-6,4-5,7s14,1,14,1-10,3-10,6,10.86,5.24,10.86,5.24-6.86-2.24-12.36-.74c0,0,6.5,2.5,8,12-.5-.5-7.77-13.26-20.14-5.38C1334,174,1337,169,1335,166s-10,8-10,8,3-10,5-12-1.2-3.68-2.6-2.34,4.6-7.66.6-8.66-9,3.39-9,3.39,5-12.39,14.5-9.89C1333,144,1341.4,134.36,1352.7,136.18Z" transform="translate(0 -135.95)"/></g><g id="Laag_12" data-name="Laag 12"><path class="cls-17" d="M1249.34,290s-16.84,14.5-25.84,16.5-50,43-50,43l-30.56,26.76s-5.44,2.24-6.44,6.24-4.88,11.73-4.88,11.73-2.12,6.27,3.88,5.27c0,0,0,3,6,3,0,0,0,1.69,2.53,2.11a6.15,6.15,0,0,0,4.85-1.34,50.29,50.29,0,0,1,7.62-4.77s10.89-3.49,12,3.76,5,5.24,5,5.24a4.32,4.32,0,0,0,2.9-6.13c-1.9-4.87-2.9-21.87-2.9-21.87s-1-10,2-12,16-15.25,29.5-18.62,44.34-26.38,44.34-26.38l15.49-9.53Z" transform="translate(0 -135.95)"/><path class="cls-18" d="M1263.63,309.89s-13,3.55-17.06,3.08c-1.07.53,1.93,3.53,1.93,3.53s-20.85,19.34-55.93,32.17c-6.07,1.83-16.42,11.42-17.25,18.62l8.86-6.94,12.21-8.1,11.19-4.45,10.42-4.68,15.5-9.54,33-22.08Z" transform="translate(0 -135.95)"/><path class="cls-22" d="M1249.16,289.79s-16.84,14.5-25.84,16.5-50,43-50,43l-30.56,26.76s-5.44,2.24-6.44,6.24-4.88,11.74-4.88,11.74-2.12,6.26,3.88,5.26c0,0,0,3,6,3,0,0,0,1.69,2.53,2.11a6.17,6.17,0,0,0,4.86-1.34,50.82,50.82,0,0,1,7.61-4.77s10.9-3.49,12,3.76,5,5.24,5,5.24,4.81-1.25,2.91-6.12-2.91-21.88-2.91-21.88-1-10,2-12,16-15.24,29.5-18.62,44.34-26.38,44.34-26.38l15.49-9.53Z" transform="translate(0 -135.95)"/></g><g id="trui"><path class="cls-23" d="M1319,239s-3,1-7,2c-2.91.73-19,5-26,15s-27,24-27,24l-3,2,18,32s12-11,15-13,17-11,17-16,1,31,11,51c3,7,3,29,3,29l-8,41,101-9s-12-42-12-53,12-26,12-26-2-18,0-27,4-42-26-47c-7-1-7-3-7-3s6,18-37,33C1322.21,281.25,1319,239,1319,239Z" transform="translate(0 -135.95)"/><path class="cls-24" d="M1374,274s-1,39-12,48c0,0,6-3,8,7s-2,15-2,15,16,7,1,25c0,0,16,15-17,24s62,0,62,0-17-34-12-44-24-27-24-27,2.42-20,.71-26S1374,274,1374,274Z" transform="translate(0 -135.95)"/><path class="cls-25" d="M1365,393s42.63-1,47.27-2,3.7,13,3.7,13-.92,3-11.12,3-37.07,1-37.07,1L1313,407s-2.78-2-1.85-5a28.26,28.26,0,0,0,.93-7s-1.64-5.1,8.91-4.05S1365,393,1365,393Z" transform="translate(0 -135.95)"/><path class="cls-25" d="M1312.06,241.47,1319,239s3,23,17,35a14.39,14.39,0,0,1,2,3l-3,4S1311.12,258.94,1312.06,241.47Z" transform="translate(0 -135.95)"/><path class="cls-25" d="M1379.28,241.12a1.36,1.36,0,0,1,2.32-.77,31.77,31.77,0,0,0,4.53,3.5C1387.64,245,1377,275,1341,279c-2,0-5,29-5,29a2,2,0,0,1-4,0s-2-31,5.5-34C1344.62,271.15,1376.47,260.19,1379.28,241.12Z" transform="translate(0 -135.95)"/><circle class="cls-26" cx="1345" cy="150.05" r="1"/><circle class="cls-26" cx="1344" cy="157.05" r="1"/><circle class="cls-26" cx="1343" cy="164.05" r="1"/><path class="cls-26" d="M1378,320s2-13,1-22-5-10.6-4-25" transform="translate(0 -135.95)"/><path class="cls-24" d="M1306,266s-2,13-12,20a106.06,106.06,0,0,1-17,10s-9.78,2-12.89-3,9.94,20,9.94,20,11.72-11,18.34-14,12.5-11.05,12.5-11.05S1307,281,1306,266Z" transform="translate(0 -135.95)"/><path class="cls-26" d="M1306,265s3,19-1.39,23.27c0,0-7.6,8.73-14.1,11.73S1272,315,1272,315" transform="translate(0 -135.95)"/><path class="cls-25" d="M1259,284s-3-5-6-4-7,5-7,5-2,2,1,7,2,8,17,28c2,2,5-2,5-2l4-4s3-1,1-4S1259,284,1259,284Z" transform="translate(0 -135.95)"/></g><g id="arm_rechts" data-name="arm rechts"><path class="cls-17" d="M1377.15,345.67s-69.61,20.26-79.09,22.93c-7.62,2.15-19.35-.38-29.08,5.72-3.26,2.05-3.16,8.08,1.68,7.63s7.88,7.5,2.84,9.55a10.3,10.3,0,0,1-4.53.18l-.38-.06a4.15,4.15,0,0,0-4.48,2.61c-.85,2.27-.61,4.27.39,5.27a8,8,0,0,0,5,2,6.33,6.33,0,0,1,5,2.51,3.7,3.7,0,0,0,.71.72,4.85,4.85,0,0,0,3.7,1,4.52,4.52,0,0,1,3.88,1.18c1,1,2.89,1.81,6.57.83C1296,406,1302.81,397.6,1304,396a4,4,0,0,1,.49-.52c2-1.85,14.75-12.89,25.89-13.13A234,234,0,0,0,1398.75,371a23.49,23.49,0,0,0,12.64-11.87,3.94,3.94,0,0,0,.35-1.26l.93-8.12,2.52-27.83c.2-2.26-1.43-4.26-4.68,5.48L1386,324.64c-1.35-10.27-4.45,1.47-4.62,3.83l-.74,13.18a4.15,4.15,0,0,1-1.56,3A6.35,6.35,0,0,1,1377.15,345.67Z" transform="translate(0 -135.95)"/><path class="cls-27" d="M1267.35,400.93a44.39,44.39,0,0,0,6.94-2.74" transform="translate(0 -135.95)"/><path class="cls-25" d="M1375,321s33-7,42-4a7.64,7.64,0,0,1,2,5v9s1,2-6,2-24,0-34,4c0,0-4,1-4-2Z" transform="translate(0 -135.95)"/></g><g id="Laag_16" data-name="Laag 16"><path class="cls-17" d="M1446.48,746.23S1431,789,1420,803s19,3,19,3l21-17s-1.34-23.17,1.33-38.09S1451,741,1451,741l-4.52,5.23" transform="translate(0 -135.95)"/><path class="cls-28" d="M1422,799s-10,9-10,15,9,6,9,6,12,1,18-5a64.15,64.15,0,0,0,9-11s6-6,11-9,.72-13.83.72-13.83S1457,788,1452,791a58.73,58.73,0,0,0-8.25,6.4,26.06,26.06,0,0,1-8,5C1429.68,804.75,1420.66,807.06,1422,799Z" transform="translate(0 -135.95)"/><path class="cls-17" d="M1458.5,392s-23,47-28,69a152.66,152.66,0,0,1-13.68,29.5c-5.32,8.5-11.32,16.5-11.32,16.5s-2,6.34,0,10.17a40.22,40.22,0,0,1,3,9.83s7,8,12,7,0-4,0-4,6.38,3.61,6.19-.7c1.81-.3,3.81-2.8,2.81-13.8s27.5-16,27.5-16L1443.5,488l15-68.53Z" transform="translate(0 -135.95)"/></g><g id="woman"><path class="cls-17" d="M1487.08,693.56s1.77,17.11,4.6,23.53.82,15.41.82,15.41l-.82,13.88-1.55,12.71-12.63,6.41-11-7s9.47-15.49,5.73-33.25,12.27-34.75,12.27-34.75Z" transform="translate(0 -135.95)"/><path class="cls-28" d="M1489.79,710.81a40.71,40.71,0,0,1,0,23.13c-.52,1.37-.35,6.74-.17,10.18a20.72,20.72,0,0,1-1.53,9.08c-1.52,3.59-4.27,7.34-9.09,6.8-9-1-10.06-6.46-10.06-6.46S1466,754,1466,760s4,13,12,13,16-5,16-18c0-7.75.36-14.43.64-18.57a19.89,19.89,0,0,1,1.95-7.28c1.83-3.81,3.93-10.39-1.59-13.15-2-1-5.21-5.19-5.21-5.19" transform="translate(0 -135.95)"/><path class="cls-29" d="M1452.5,424.5s-25,47.19-18.5,97.1,23.5,104.9,23.5,104.9l9,13,65-113-22-81Z" transform="translate(0 -135.95)"/><path class="cls-30" d="M1442.53,568.94s11.12,55.57,23.3,1.31S1470,626,1470,626l-10.51,3.13-2.83-5.43Z" transform="translate(0 -135.95)"/><path class="cls-31" d="M1452.9,424.39s-25,47.19-18.5,97.09,23.5,104.91,23.5,104.91l9,13,65-113-22-81Z" transform="translate(0 -135.95)"/><path class="cls-29" d="M1482.21,499.81S1459.5,585.5,1459.5,613.5s0,58-1,61-2.27,43.79-12.64,67.89c-1.36,3.11,2.64,7.11,7.64,8.11s8.8,1.64,10.4-2.18,13.6-41.82,24.6-56.82c5.78-7.52,5.21-26.41,3.7-41a72.6,72.6,0,0,1,6.51-38.5l30.63-64.86s10.16-28.63,8.16-39.63-10-30-10-30l-19.74-8S1488.92,495.12,1482.21,499.81Z" transform="translate(0 -135.95)"/><polygon class="cls-32" points="1488.5 332.55 1496.5 339.55 1495.5 354.55 1510.5 352.55 1518.15 342.03 1502.5 327.55 1488.5 332.55"/><path class="cls-17" d="M1489.5,291.5s2,6,1,17a24,24,0,0,1-16,6c-10,0-15,9-15,9s-5,12-3,24,64,34,64,34l8-7s3.11-5.77,3-7.88-2,31.88,8,41.88c0,0-12,3-17,7s-22-4-22-4-13.57-6.76-21.29,5.12c-.71.88.29,1.88.29,1.88s-1,1,0,3c0,0-3,2-1,5,0,0-6,3,2,7,0,0,4,9,13,9,5,0,15-8,15-8s6-2,17-2h20c2,0,14-4,14-13s-7-83-7-83-1-18-18-18-23-24-22-45S1489.5,291.5,1489.5,291.5Z" transform="translate(0 -135.95)"/><path class="cls-17" d="M1467,225s-7,18-1,37c1,4-.72,9.94-.72,9.94S1468,288,1478,295c0,0,35-1,41-27s4-33,4-33l-33-17Z" transform="translate(0 -135.95)"/><path class="cls-19" d="M1532.5,258.5s-.38-3.9-11.69,1.05c-1.31,4.95-2.45,10.79-2.45,10.79V274l9.06-5.29a10.44,10.44,0,0,0,4.87-6.06A8.67,8.67,0,0,0,1532.5,258.5Z" transform="translate(0 -135.95)"/><path class="cls-17" d="M1479.48,418.5s10-4,16-4" transform="translate(0 -135.95)"/><line class="cls-17" x1="1479.34" y1="285.77" x2="1495.5" y2="285.55"/><path class="cls-17" d="M1478.34,426.27s13.16,1.23,19.16,1.23" transform="translate(0 -135.95)"/><path class="cls-17" d="M1495.5,435.5s-12-1.57-15.52-2.29" transform="translate(0 -135.95)"/><path class="cls-30" d="M1443,450c5.23.6,82.54,10.17,80.8,108.86a79.33,79.33,0,0,0,3.67-8V512.45L1504,448l-45.5-14.38-9.5.38" transform="translate(0 -135.95)"/><path class="cls-30" d="M1492.77,632.41S1488,652,1488,660s2.15,28.12-.92,33.56,6.29-5.5,6.11-18-1-27.64-1-27.64Z" transform="translate(0 -135.95)"/><path class="cls-33" d="M1456,481s15,18,26,19" transform="translate(0 -135.95)"/><path class="cls-31" d="M1482.47,499.4s-22.71,85.69-22.71,113.69,0,58-1,61-2.28,43.78-12.64,67.89c-1.36,3.11,2.64,7.11,7.64,8.11s8.8,1.63,10.4-2.18,13.6-41.82,24.6-56.82c5.78-7.52,5.21-26.42,3.7-41a72.63,72.63,0,0,1,6.51-38.51l30.63-64.86s10.16-28.62,8.16-39.62-10-30-10-30l-19.74-8S1489.18,494.7,1482.47,499.4Z" transform="translate(0 -135.95)"/><path class="cls-34" d="M1473.5,313.5s4-3,6.48,0c.52,1-6.48,19,7.52,29s38-29,38-29,5-2,9,4c1,2-5,10-5,10s-20,28-1,47c0,0-27,34-8,60s31,74,5,120c0,0,12-90-79-117,0,0,14-40,7-57V344.63a3.36,3.36,0,0,1,1.8-3C1460.22,339.09,1473.5,330.61,1473.5,313.5Z" transform="translate(0 -135.95)"/><path class="cls-35" d="M1521.46,362.34s-10.43,39.71-13.7,47.94-12.26,18.21-12.26,18.21-19.32,12.84-6.16,20.43,37.19-5.5,37.19-5.5l-10-15.92-3-12,.75-9.5,3-11,5-11.3,6.24-9.67S1521.43,367.18,1521.46,362.34Z" transform="translate(0 -135.95)"/><path class="cls-36" d="M1473.5,313s4-3,6.48,0c.52,1-6.48,19,7.52,29s38-29,38-29,5-2,9,4c1,2-5,10-5,10s-20,28-1,47c0,0-27,34-8,60s31,74,5,120c0,0,12-90-79-117,0,0,14-40,7-57V344.11a3.36,3.36,0,0,1,1.8-3C1460.22,338.57,1473.5,330.09,1473.5,313Z" transform="translate(0 -135.95)"/><path class="cls-17" d="M1539.48,408.5s-12,3-17,7-22-4-22-4-13.57-6.76-21.28,5.12c-.72.88.28,1.88.28,1.88s-1,1,0,3c0,0-3,2-1,5,0,0-6,3,2,7,0,0,9,6,14,7s14-6,14-6,6-2,17-2h20c2,0,14-4,14-13s-7-83-7-83" transform="translate(0 -135.95)"/><path class="cls-34" d="M1457.5,340.5s-19,8-18,25c.29,5,5,21,29,8" transform="translate(0 -135.95)"/><polygon class="cls-37" points="1462 202.05 1456 206.05 1456.03 206.57 1461.5 206.55 1462 202.05"/><path class="cls-34" d="M1477.5,368.5s2,17,20,15,20.4-15.86,20.4-15.86" transform="translate(0 -135.95)"/></g><g id="Laag_15" data-name="Laag 15"><path class="cls-38" d="M1523.32,203.13s13.18-30.63,44.18-9.63,23,70,23,70-2,16-5,21-11,25-11,25-7,17,4,30c0,0-13-7-16-18a149.09,149.09,0,0,1-3.4-19.08,100.64,100.64,0,0,1-.43-20.53c.38-4.56.92-10.26,1.69-16.16a134.11,134.11,0,0,1,3.72-17.36c5.52-20.64-23-40.56-28.58-35.87C1529.5,217.5,1523.32,203.13,1523.32,203.13Z" transform="translate(0 -135.95)"/><path class="cls-34" d="M1524.8,202.12a3.23,3.23,0,0,0-3.65.12c-2.29,1.66-5.75,4.69-4.69,7.16C1518,213,1532,221,1532,221s7-6,4-10C1533.8,208.06,1527.82,204.05,1524.8,202.12Z" transform="translate(0 -135.95)"/><path class="cls-38" d="M1480.72,227.78c2,5.78,8.39,13.69,26.78,20.72,7,3,10,13,7,22a29.25,29.25,0,0,0-1.14,12.24,12.81,12.81,0,0,0,16.81,10.88l.33-.12c7-3,4-15-2-15l.26.35c2.1,2.8,3.49,5.63,1.74,8.65s-8,2-10-1c-3-3,1-15,1-15s1-12,1.5-12.5c1,0,4.71-3.49,8-2,.29.49,18.5-25.5-4.5-41.5s-34-11-41-8c0,0-4-2-9,2s-22,20-18,38a7.27,7.27,0,0,0,5,5v-8s13-8,17-16Z" transform="translate(0 -135.95)"/></g></g><g id="Laag_6" data-name="Laag 6"><path class="cls-39" d="M664,639.83c-72.17,11.63-97.36,31.89-97.36,31.89s-37,22.52-88,24.31-108.35-18.41-108.35-18.41-77-32.44-155.51,12.27S93.34,703.12,93.34,703.12,57.8,669.09,0,677.55V798c45-12,844.82-143.78,844.82-143.78S736.19,628.2,664,639.83Z" transform="translate(0 -135.95)"/><path class="cls-39" d="M1920,657.63c-7.55,11.9-10.23,20.88-10.23,20.88s-21.78,48.62-112.11,48.56-141.23,66.23-141.23,66.23-39.89,45.93-85.08,69.58-88.52,22.39-88.52,22.39-31.92-5.15-100.39,20.42-150,101.91-150,101.91S1692,833,1920,755.82Z" transform="translate(0 -135.95)"/><path class="cls-39" d="M1920,590.26c-30,9.72-51.15,18.6-51.15,18.6s18.92-.14,51.15-.32Z" transform="translate(0 -135.95)"/></g></svg>