<svg id="Laag_1" data-name="Laag 1" xmlns="http://www.w3.org/2000/svg" xmlns:xlink="http://www.w3.org/1999/xlink" viewBox="0 0 454.15 421.05"><defs><style>.cls-1{fill:none;}.cls-2{clip-path:url(#clip-path);}.cls-3{fill:#fff;}.cls-4{fill:#e6def0;}.cls-5{fill:#eeeaf5;}.cls-6{fill:#ea4d7c;}.cls-7{fill:#1d3f8e;}.cls-8{fill:#f9b613;}.cls-9{fill:#ae9dcc;}.cls-10{fill:#26336b;}.cls-11{fill:#f298af;}.cls-12{fill:#cbbdde;}.cls-13{fill:#9694c8;}.cls-14{fill:#7070b3;}.cls-15{fill:#ef82a4;}.cls-16{fill:#d9417c;}</style><clipPath id="clip-path" transform="translate(-87.22 -289.54)"><rect class="cls-1" x="109.33" y="289.58" width="413.25" height="413.23"/></clipPath></defs><g class="cls-2"><polygon class="cls-3" points="435.36 331.61 22.08 331.61 22.08 0 435.36 0 435.36 331.61 435.36 331.61"/><path class="cls-4" d="M109.3,545.71c21.93-18.22,78-61.61,96.92-65.33s81.79,87.9,98.9,89.47,69.92-84.06,87.64-86.3S522.57,581,522.57,581v55.18H109.3V545.71Z" transform="translate(-87.22 -289.54)"/></g><path class="cls-5" d="M240.52,601.14c12.42-27.47,41-17,52.69-22.73,1.24-.62,1.86-2.27,2.89-3.3a48,48,0,0,1,6.54-6c-19.75-8.53-76.82-90.16-95.7-88.85-6.75,11.4-14.47,22.44-14.16,35.93.42,9.71,6.82,17.77,13.43,24.79,7.65,8.27,12,18.81,7.24,29.55-8.23,18.52-14.21,38.47-8.14,58,9.89-2.6,19.19-6.26,27.15-13.38,3.92-3.72,5.78-9.09,8.06-14.05Z" transform="translate(-87.22 -289.54)"/><g class="cls-2"><path class="cls-5" d="M522.57,581s-112.08-99.69-129.81-97.45a8.13,8.13,0,0,0-1.35.31c-7.61,15.92-13.9,24.16,12.14,52.81,39.45,43.5,21.36,31.68,26.24,74.6,1,9.19,5.39,17.17,10.64,24.91h82.14V581Z" transform="translate(-87.22 -289.54)"/><path class="cls-6" d="M118.07,448.33c21.56-2.39,5.77,23.84,17.64,35.21,21.21,20.32-10.87,38.59,9.17,50.79s25.47,35.73-26.81,55.86c-35.75-21.72-36.58-43.5-21.9-56.27s-12.2-35,.41-45.07,4-38.59,21.49-40.52Z" transform="translate(-87.22 -289.54)"/></g><path class="cls-7" d="M118.66,626.15a.62.62,0,0,1-.62-.62V487.2a.62.62,0,0,1,1.24,0V625.53a.62.62,0,0,1-.62.62Z" transform="translate(-87.22 -289.54)"/><g class="cls-2"><path class="cls-7" d="M118.66,568.47a.65.65,0,0,1-.41-.15.64.64,0,0,1-.06-.88l10-11.48a.62.62,0,1,1,.93.81l-10,11.49a.62.62,0,0,1-.47.21Z" transform="translate(-87.22 -289.54)"/><path class="cls-7" d="M118.66,547.12a.61.61,0,0,1-.43-.18l-12.58-12.12a.63.63,0,0,1,0-.88.62.62,0,0,1,.87,0l12.58,12.12a.62.62,0,0,1-.43,1.07Z" transform="translate(-87.22 -289.54)"/></g><path class="cls-7" d="M118.66,513.92a.62.62,0,0,1-.43-1.06l10-9.92a.62.62,0,0,1,.88,0,.61.61,0,0,1,0,.87l-10,9.92a.62.62,0,0,1-.44.18Z" transform="translate(-87.22 -289.54)"/><path class="cls-8" d="M451.49,516.41c13.78-1.52,3.69,15.25,11.27,22.51,13.56,13-6.95,24.67,5.86,32.47s16.28,22.83-17.13,35.7c-22.85-13.88-23.38-27.81-14-36s-7.8-22.38.26-28.81,2.57-24.66,13.74-25.9Z" transform="translate(-87.22 -289.54)"/><path class="cls-7" d="M451.87,630.3a.62.62,0,0,1-.62-.62V541.26a.62.62,0,0,1,.62-.62.62.62,0,0,1,.62.62v88.42a.62.62,0,0,1-.62.62Z" transform="translate(-87.22 -289.54)"/><path class="cls-7" d="M451.87,593.43a.63.63,0,0,1-.41-.15.62.62,0,0,1-.06-.88l6.4-7.34a.63.63,0,0,1,.87-.06.62.62,0,0,1,.06.88l-6.4,7.34a.6.6,0,0,1-.46.21Z" transform="translate(-87.22 -289.54)"/><path class="cls-7" d="M451.87,579.78a.63.63,0,0,1-.43-.17l-8-7.75a.62.62,0,0,1,0-.88.63.63,0,0,1,.88,0l8,7.75a.62.62,0,0,1,0,.87.59.59,0,0,1-.44.19Z" transform="translate(-87.22 -289.54)"/><path class="cls-7" d="M451.87,558.56a.62.62,0,0,1-.44-1.06l6.4-6.34a.62.62,0,0,1,.88,0,.61.61,0,0,1,0,.87l-6.4,6.34a.61.61,0,0,1-.43.18Z" transform="translate(-87.22 -289.54)"/><path class="cls-8" d="M153.86,513.33c-13.55-.8-1.32,15.61-11.43,19.12s2.86,27.92-5.72,30.35-9.53,23.4,17.3,29.56c19.78-8.9,23.2-22,13.72-28.41s7.89-26.22-1.78-28.86-.88-21.1-12.09-21.76Z" transform="translate(-87.22 -289.54)"/><path class="cls-7" d="M152.75,617.85a.62.62,0,0,1-.62-.62V534.38a.62.62,0,0,1,.62-.62.61.61,0,0,1,.62.62v82.85a.61.61,0,0,1-.62.62Z" transform="translate(-87.22 -289.54)"/><path class="cls-7" d="M152.75,584.82a.64.64,0,0,1-.53-.3l-6.8-11.2a.62.62,0,1,1,1.06-.64l6.8,11.2a.62.62,0,0,1-.2.85.66.66,0,0,1-.33.09Z" transform="translate(-87.22 -289.54)"/><path class="cls-7" d="M152.75,566.84a.62.62,0,0,1-.39-1.1l6.63-5.37a.61.61,0,0,1,.87.09.62.62,0,0,1-.09.87l-6.63,5.37a.57.57,0,0,1-.39.14Z" transform="translate(-87.22 -289.54)"/><path class="cls-7" d="M152.75,543.08a.61.61,0,0,1-.47-.23l-3.41-4.13a.61.61,0,0,1,.09-.87.62.62,0,0,1,.87.08l3.4,4.13a.63.63,0,0,1-.08.88.67.67,0,0,1-.4.14Z" transform="translate(-87.22 -289.54)"/><path class="cls-9" d="M199.5,459.11c-20.25-2.24-5.42,22.4-16.57,33.07-19.91,19.09,10.21,36.24-8.61,47.7s-23.92,33.55,25.18,52.46c33.57-20.4,34.35-40.85,20.57-52.85s11.45-32.88-.39-42.32-3.78-36.25-20.18-38.06Z" transform="translate(-87.22 -289.54)"/><path class="cls-7" d="M198.94,626.15a.62.62,0,0,1-.62-.62V495.62a.62.62,0,0,1,1.24,0V625.53a.62.62,0,0,1-.62.62Z" transform="translate(-87.22 -289.54)"/><path class="cls-7" d="M198.94,572a.64.64,0,0,1-.47-.21L189.07,561a.62.62,0,0,1,.93-.81L199.41,571a.62.62,0,0,1-.47,1Z" transform="translate(-87.22 -289.54)"/><path class="cls-7" d="M198.94,551.93a.63.63,0,0,1-.44-.19.62.62,0,0,1,0-.88l11.81-11.38a.63.63,0,0,1,.88,0,.62.62,0,0,1,0,.88l-11.81,11.38a.6.6,0,0,1-.43.18Z" transform="translate(-87.22 -289.54)"/><g class="cls-2"><path class="cls-7" d="M198.94,520.75a.6.6,0,0,1-.43-.18l-9.41-9.32a.62.62,0,0,1,.87-.88l9.41,9.32a.63.63,0,0,1,0,.88.62.62,0,0,1-.44.18Z" transform="translate(-87.22 -289.54)"/><path class="cls-9" d="M499,454.92c-21-2.32-5.62,23.22-17.17,34.29-20.65,19.79,10.58,37.57-8.93,49.44S448.06,573.44,499,593c34.81-21.14,35.61-42.35,21.33-54.78s11.87-34.1-.4-43.89S516,456.8,499,454.92Z" transform="translate(-87.22 -289.54)"/></g><path class="cls-7" d="M498.38,628.07a.62.62,0,0,1-.62-.62V492.77a.62.62,0,0,1,.62-.62.62.62,0,0,1,.62.62V627.45a.62.62,0,0,1-.62.62Z" transform="translate(-87.22 -289.54)"/><path class="cls-7" d="M498.38,571.91a.6.6,0,0,1-.46-.21l-9.75-11.18a.62.62,0,1,1,.93-.82l9.75,11.19a.61.61,0,0,1-.06.87.63.63,0,0,1-.41.15Z" transform="translate(-87.22 -289.54)"/><path class="cls-7" d="M498.38,551.12a.59.59,0,0,1-.44-.19.62.62,0,0,1,0-.87l12.25-11.81a.62.62,0,0,1,.86.9L498.82,551a.67.67,0,0,1-.44.17Z" transform="translate(-87.22 -289.54)"/><g class="cls-2"><path class="cls-7" d="M498.38,518.8a.61.61,0,0,1-.43-.18L488.2,509a.61.61,0,0,1,0-.87.62.62,0,0,1,.88,0l9.75,9.66a.63.63,0,0,1,0,.88.66.66,0,0,1-.45.18Z" transform="translate(-87.22 -289.54)"/><polygon class="cls-3" points="435.36 413.27 22.08 413.27 22.08 322.38 435.36 322.38 435.36 413.27 435.36 413.27"/><path class="cls-9" d="M97.27,625c-9,.45,9.37,24.36,3.72,32.87s7.43,10.51,15.71,19c7.85-12,7.52-17.64.84-23.15S115.73,624.1,97.27,625Z" transform="translate(-87.22 -289.54)"/><path class="cls-7" d="M116.69,677.49a.6.6,0,0,1-.58-.43c-.77-2.35-1.67-6.2-2.71-10.65-2.38-10.2-5.64-24.16-10.21-33a.64.64,0,0,1,.27-.84.62.62,0,0,1,.84.27c4.63,9,7.91,23.07,10.31,33.33,1,4.42,1.93,8.24,2.67,10.55a.61.61,0,0,1-.39.78.69.69,0,0,1-.2,0Z" transform="translate(-87.22 -289.54)"/><path class="cls-6" d="M184.1,684c5.69,7-24.33,9.43-26.84,19.34s-12.78,1.56-24.6,1.11c3.65-13.91,8-17.43,16.58-16.19S172.39,669.7,184.1,684Z" transform="translate(-87.22 -289.54)"/><path class="cls-7" d="M132.66,705.07a.62.62,0,0,1-.25-1.19c2.21-1,5.64-2.9,9.61-5.11,9.21-5.12,21.82-12.13,31.61-14.76a.62.62,0,0,1,.32,1.2c-9.64,2.59-22.18,9.56-31.33,14.65-4,2.22-7.45,4.14-9.7,5.15a.62.62,0,0,1-.26.06Z" transform="translate(-87.22 -289.54)"/></g><path class="cls-6" d="M117.14,670.81c-4.53-18.89,1.26-44.73,14.9-50.62,10.61,20.43-7.13,53.11-7.13,53.11l-7.77-2.49Z" transform="translate(-87.22 -289.54)"/><path class="cls-7" d="M121,672.66h-.12a.62.62,0,0,1-.49-.73l7.77-39.68a.62.62,0,1,1,1.21.24l-7.76,39.68a.63.63,0,0,1-.61.5Z" transform="translate(-87.22 -289.54)"/><path class="cls-7" d="M123.89,657.77a.62.62,0,0,1-.62-.58l-.53-8.12a.62.62,0,0,1,.58-.66.61.61,0,0,1,.66.58l.53,8.12a.63.63,0,0,1-.58.66Z" transform="translate(-87.22 -289.54)"/><g class="cls-2"><path class="cls-9" d="M185.1,635.31c-4.88-1.91-11.58-2.52-17.32,2.67l-.15,0a33.19,33.19,0,0,0-7.33,5.43,16.73,16.73,0,0,0,.53-13.7c-1.55,1.21-8.9,6.38-4.47,17.56a118,118,0,0,0-8.07,9.37,16.8,16.8,0,0,0-2-13.25c-1.3,1.45-7.54,7.76-1.43,17.86-1.74,2.46-3.46,5.07-5.1,7.79a17.1,17.1,0,0,0-2.25-12.32c-1.33,1.48-7.73,8-1.15,18.31-1.55,2.92-3,5.94-4.28,9a.62.62,0,0,0,.34.81.59.59,0,0,0,.23.05.63.63,0,0,0,.58-.39c1.33-3.22,2.81-6.3,4.35-9.2,11.41,2.42,15.33-5.46,16.28-7.16-4.24-.84-9.54-.59-13.93,3,2-3.38,4-6.47,6-9.23,11.76,2.72,15.77-5.34,16.73-7.06a16.77,16.77,0,0,0-13.35,2.51c.91-1.17,1.79-2.26,2.62-3.25,1.91-2.3,3.76-4.35,5.5-6.15,10.94,4.57,16.25-2.57,17.49-4.09a16.93,16.93,0,0,0-13.2-.06,33.94,33.94,0,0,1,5.92-4.45c10.93,4.55,16.24-2.59,17.48-4.1Z" transform="translate(-87.22 -289.54)"/><path class="cls-8" d="M109.49,671.28c-3.26-23.48,30.43-15.53,25.26,1.87,19,0,16.62,22.63,4.34,31.18S115,710,115,710c-29.56-9.4-32.74-47.25-5.51-38.69Z" transform="translate(-87.22 -289.54)"/><path class="cls-7" d="M115,710.59h-.11a.63.63,0,0,1-.51-.72l7.2-40.94a.62.62,0,1,1,1.22.22l-7.19,40.94a.63.63,0,0,1-.61.51Z" transform="translate(-87.22 -289.54)"/><path class="cls-7" d="M116.74,700.66a.66.66,0,0,1-.48-.22l-12.55-15a.62.62,0,1,1,1-.8l12.23,14.6,19.4-10.58a.62.62,0,0,1,.84.25.61.61,0,0,1-.24.84L117,700.59a.66.66,0,0,1-.3.07Z" transform="translate(-87.22 -289.54)"/><path class="cls-9" d="M534.6,625c9,.45-9.36,24.36-3.71,32.87s-7.43,10.51-15.71,19c-7.85-12-7.52-17.64-.84-23.15S516.15,624.1,534.6,625Z" transform="translate(-87.22 -289.54)"/><path class="cls-7" d="M515.18,677.49a.63.63,0,0,1-.19,0,.62.62,0,0,1-.4-.78c.75-2.31,1.64-6.13,2.68-10.55,2.39-10.26,5.68-24.31,10.31-33.33a.61.61,0,0,1,.83-.27.62.62,0,0,1,.27.84c-4.56,8.88-7.82,22.84-10.21,33-1,4.45-1.94,8.3-2.7,10.65a.61.61,0,0,1-.59.43Z" transform="translate(-87.22 -289.54)"/><path class="cls-6" d="M447.78,684c-5.69,7,24.33,9.43,26.84,19.34s12.77,1.56,24.6,1.11c-3.65-13.91-8-17.43-16.59-16.19S459.49,669.7,447.78,684Z" transform="translate(-87.22 -289.54)"/><path class="cls-7" d="M499.21,705.07A.57.57,0,0,1,499,705c-2.26-1-5.71-2.93-9.7-5.15-9.16-5.09-21.69-12.06-31.34-14.65a.62.62,0,0,1-.43-.76.61.61,0,0,1,.75-.44c9.8,2.63,22.41,9.64,31.62,14.76,4,2.21,7.4,4.12,9.61,5.11a.62.62,0,0,1-.26,1.19Z" transform="translate(-87.22 -289.54)"/></g><path class="cls-6" d="M514.74,670.81c4.52-18.89-1.26-44.73-14.9-50.62C489.23,640.62,507,673.3,507,673.3l7.77-2.49Z" transform="translate(-87.22 -289.54)"/><path class="cls-7" d="M510.9,672.66a.63.63,0,0,1-.61-.5l-7.77-39.68a.63.63,0,0,1,.49-.73.61.61,0,0,1,.73.49l7.77,39.68a.64.64,0,0,1-.49.73Z" transform="translate(-87.22 -289.54)"/><path class="cls-7" d="M508,657.77h-.05a.62.62,0,0,1-.57-.66l.53-8.12a.62.62,0,1,1,1.23.08l-.53,8.12a.61.61,0,0,1-.61.58Z" transform="translate(-87.22 -289.54)"/><g class="cls-2"><path class="cls-9" d="M446.78,635.31c4.87-1.91,11.58-2.52,17.32,2.67l.15,0a33.42,33.42,0,0,1,7.32,5.43,16.73,16.73,0,0,1-.52-13.7c1.55,1.21,8.89,6.38,4.46,17.56a118,118,0,0,1,8.08,9.37,16.84,16.84,0,0,1,2-13.25c1.31,1.45,7.55,7.76,1.43,17.86,1.75,2.46,3.46,5.07,5.11,7.79a17.1,17.1,0,0,1,2.25-12.32c1.32,1.48,7.72,8,1.15,18.31,1.55,2.92,3,5.94,4.27,9a.61.61,0,0,1-.33.81.69.69,0,0,1-.24.05.63.63,0,0,1-.57-.39c-1.34-3.22-2.81-6.3-4.35-9.2-11.42,2.42-15.34-5.46-16.28-7.16,4.23-.84,9.54-.59,13.93,3-2-3.38-4-6.47-6-9.23-11.76,2.72-15.78-5.34-16.74-7.06a16.79,16.79,0,0,1,13.36,2.51c-.92-1.17-1.79-2.26-2.62-3.25-1.91-2.3-3.76-4.35-5.5-6.15-10.94,4.57-16.25-2.57-17.49-4.09a16.93,16.93,0,0,1,13.2-.06,33.93,33.93,0,0,0-5.93-4.45c-10.93,4.55-16.23-2.59-17.47-4.1Z" transform="translate(-87.22 -289.54)"/><path class="cls-8" d="M522.39,671.28c3.26-23.48-30.43-15.53-25.26,1.87-19,0-16.62,22.63-4.34,31.18S516.88,710,516.88,710c29.56-9.4,32.74-47.25,5.51-38.69Z" transform="translate(-87.22 -289.54)"/><path class="cls-7" d="M516.88,710.59a.61.61,0,0,1-.61-.51l-7.2-40.94a.62.62,0,0,1,.51-.72.62.62,0,0,1,.72.5l7.19,40.94a.62.62,0,0,1-.5.72Z" transform="translate(-87.22 -289.54)"/><path class="cls-7" d="M515.14,700.66a.6.6,0,0,1-.3-.07L495,689.77a.62.62,0,1,1,.59-1.09L515,699.26l12.23-14.6a.62.62,0,1,1,.95.8l-12.56,15a.62.62,0,0,1-.47.22Z" transform="translate(-87.22 -289.54)"/><path class="cls-5" d="M88.05,370.2H218.7c-10.71-12.82-31.46-3.31-36.38-14.05s-16.69,5.37-25.89-3.72-31.89-18-29.84-.14c-20.06-6.48-16.32,15-38.54,17.91Z" transform="translate(-87.22 -289.54)"/><path class="cls-5" d="M484.51,466.56H380.64c8.52-10.18,25-2.62,28.92-11.17s13.27,4.27,20.58-2.95,25.36-14.34,23.73-.11c15.95-5.15,13,11.93,30.64,14.23Z" transform="translate(-87.22 -289.54)"/><path class="cls-5" d="M541.37,355H443.21c4.83-11.58,18.47.52,25.16-6.69s4-26.25,18.86-14.16c7.4-18.79,37.77-7.2,29.53,13.13,14.68-3.86,17.3,4.89,24.61,7.72Z" transform="translate(-87.22 -289.54)"/></g><path class="cls-5" d="M159.38,439h66.89c-3.29-7.9-12.59.35-17.15-4.57s-2.72-17.89-12.85-9.64c-5-12.81-25.74-4.91-20.12,8.94-10-2.63-11.79,3.34-16.77,5.27Z" transform="translate(-87.22 -289.54)"/><path class="cls-5" d="M297.82,368.5h99.5c-10.51-14.7-21.6-.72-20.42-7.79,2.41-14.5-27.83-27.74-30.68-4.13-13.2-7.46-15-3.67-19.1,4.13s-16-8.92-29.3,7.79Z" transform="translate(-87.22 -289.54)"/><path class="cls-4" d="M454.78,667.18c0,4.49-62.17,8.13-138.84,8.13s-138.84-3.64-138.84-8.13,62.16-8.12,138.84-8.12,138.84,3.64,138.84,8.12Z" transform="translate(-87.22 -289.54)"/><path class="cls-8" d="M371.16,544.92c0-.09-1.43-8.89-2.68-11-.66-1.15-7.36-1.18-28,6.9-6.38,2.49-9.53,0-10.85-1.72-2.59-3.37-2.49-9.32.22-13a6.66,6.66,0,0,1,8.13-2.34c5,1.86,13.1.36,20.92-1.09,10.58-2,21.52-4,25.16,2.43l-1,.54c-3.25-5.72-13.8-3.77-24-1.88-8,1.48-16.2,3-21.5,1a5.56,5.56,0,0,0-6.86,2c-2.4,3.25-2.51,8.7-.23,11.67,2,2.57,5.28,3,9.57,1.36a155,155,0,0,1,20.16-6.64c7.19-1.66,8.7-.67,9.21.22,1.35,2.32,2.76,11,2.81,11.42l-1.09.17Z" transform="translate(-87.22 -289.54)"/><path class="cls-10" d="M395.17,534.84,386.65,550a2.59,2.59,0,0,1-3.53,1l-10.62-6,11.07-19.67,10.62,6a2.58,2.58,0,0,1,1,3.53Z" transform="translate(-87.22 -289.54)"/><path class="cls-8" d="M374.78,546.63l9.82-4.92a4.44,4.44,0,0,0,2.44-4.34l-.9-10.94c-.13-1.53-3.46-3.43-4.6-1.41l-10.36,18.41c-1.17,2.09,2.26,3.87,3.6,3.2Z" transform="translate(-87.22 -289.54)"/><path class="cls-10" d="M251.63,474.35c16.73,3.58,44.51-4.18,48.53-15.58s-9.24-16.07-9.24-16.07l-39.29,31.65Z" transform="translate(-87.22 -289.54)"/><path class="cls-6" d="M369.2,544.17l-3.55-6.3a2,2,0,0,0-1.68-1h-2.91v-.66H364a2.59,2.59,0,0,1,2.26,1.32l3.55,6.29-.58.33Z" transform="translate(-87.22 -289.54)"/><path class="cls-11" d="M291.85,615.7l6.06-10.22-8.61-7-8.88,14s7,6.11,11.43,3.22Z" transform="translate(-87.22 -289.54)"/><path class="cls-7" d="M292.41,615.39c1.08,3.72,7.28,9,5.3,13.39-1.5,3.31-16.12-8.52-19.64-10.9-1.67-1.12,1.42-5.15,3.78-8,3,4.43,5,6,10.56,5.49Z" transform="translate(-87.22 -289.54)"/><polygon class="cls-12" points="121.67 360.28 121.24 359.72 156.44 333.02 156.86 333.58 121.67 360.28 121.67 360.28"/><polygon class="cls-12" points="134.92 369.65 134.25 369.42 148.77 327.7 149.44 327.93 134.92 369.65 134.92 369.65"/><polygon class="cls-12" points="156.98 333.41 156.32 333.18 170.84 291.46 171.5 291.69 156.98 333.41 156.98 333.41"/><polygon class="cls-12" points="149.32 328.1 148.89 327.54 184.09 300.84 184.51 301.4 149.32 328.1 149.32 328.1"/><polygon class="cls-12" points="110.16 336.26 110.14 335.55 154.31 334.64 154.32 335.34 110.16 336.26 110.16 336.26"/><polygon class="cls-12" points="115.37 351.63 114.97 351.05 151.23 325.83 151.64 326.41 115.37 351.63 115.37 351.63"/><polygon class="cls-12" points="154.52 335.28 154.12 334.7 190.38 309.48 190.79 310.06 154.52 335.28 154.52 335.28"/><polygon class="cls-12" points="151.44 326.47 151.43 325.77 195.59 324.86 195.61 325.56 151.44 326.47 151.44 326.47"/><polygon class="cls-12" points="151.23 335.28 114.97 310.06 115.37 309.48 151.64 334.7 151.23 335.28 151.23 335.28"/><polygon class="cls-12" points="154.31 326.47 110.14 325.56 110.16 324.86 154.32 325.77 154.31 326.47 154.31 326.47"/><polygon class="cls-12" points="195.59 336.26 151.43 335.34 151.44 334.64 195.61 335.55 195.59 336.26 195.59 336.26"/><polygon class="cls-12" points="190.38 351.63 154.12 326.41 154.52 325.83 190.79 351.05 190.38 351.63 190.38 351.63"/><polygon class="cls-12" points="148.77 333.41 134.25 291.69 134.92 291.46 149.44 333.18 148.77 333.41 148.77 333.41"/><polygon class="cls-12" points="156.44 328.1 121.24 301.4 121.67 300.84 156.86 327.54 156.44 328.1 156.44 328.1"/><polygon class="cls-12" points="184.09 360.28 148.89 333.58 149.32 333.02 184.51 359.72 184.09 360.28 184.09 360.28"/><polygon class="cls-12" points="170.84 369.65 156.32 327.93 156.98 327.7 171.5 369.42 170.84 369.65 170.84 369.65"/><polygon class="cls-12" points="148.55 330.66 147.88 330.45 160.66 288.17 161.33 288.37 148.55 330.66 148.55 330.66"/><polygon class="cls-12" points="157.2 330.66 144.43 288.37 145.1 288.17 157.88 330.45 157.2 330.66 157.2 330.66"/><polygon class="cls-12" points="160.66 372.94 147.88 330.66 148.55 330.45 161.33 372.74 160.66 372.94 160.66 372.94"/><polygon class="cls-12" points="145.1 372.94 144.43 372.74 157.2 330.45 157.88 330.66 145.1 372.94 145.1 372.94"/><path class="cls-10" d="M240.1,661.94a41.85,41.85,0,1,1,41.84-41.85,41.85,41.85,0,0,1-41.84,41.85Zm0-85.37a43.52,43.52,0,1,0,43.51,43.52,43.52,43.52,0,0,0-43.51-43.52Z" transform="translate(-87.22 -289.54)"/><path class="cls-10" d="M240.1,662.84a42.75,42.75,0,1,1,42.74-42.75,42.75,42.75,0,0,1-42.74,42.75Zm0-89.84a47.09,47.09,0,1,0,47.09,47.09A47.09,47.09,0,0,0,240.1,573Z" transform="translate(-87.22 -289.54)"/><path class="cls-13" d="M240.1,661.94a41.85,41.85,0,1,1,41.84-41.85,41.85,41.85,0,0,1-41.84,41.85Zm0-85.37a43.52,43.52,0,1,0,43.51,43.52,43.52,43.52,0,0,0-43.51-43.52Z" transform="translate(-87.22 -289.54)"/><path class="cls-12" d="M357.89,540.26l-2.61-6a7.44,7.44,0,0,1,1.83-8.49l7.51-6.79a1,1,0,0,0,.3-.68.93.93,0,0,0-.92-.93H353.78v-2.81H364a3.74,3.74,0,0,1,2.51,6.51L359,527.87a4.62,4.62,0,0,0-1.14,5.28l2.61,6-2.58,1.12Z" transform="translate(-87.22 -289.54)"/><path class="cls-10" d="M290.61,501.19c-15.6,14-7.26,29.77-4.62,33.59s15.45,35.53,15.45,35.53a390.06,390.06,0,0,0-19.32,35.17c2.16,4.5,13.37,9.26,13.37,9.26,15.71-26.83,26.94-37.37,28.61-50.43,1-7.87-12-43.23-12-43.23l-21.53-19.89Z" transform="translate(-87.22 -289.54)"/><path class="cls-8" d="M300.32,627.81c-5.11,0-58.23-4.27-60.49-4.45l.53-6.54c19,1.53,56.08,4.42,60,4.42,17.55,0,24.4-2.43,64.8-57.16l5.28,3.9c-21.09,28.57-32.92,42.7-42.19,50.37-10.58,8.76-18.56,9.46-27.89,9.46Z" transform="translate(-87.22 -289.54)"/><polygon class="cls-12" points="276.24 360.28 275.81 359.72 311.01 333.02 311.43 333.58 276.24 360.28 276.24 360.28"/><polygon class="cls-12" points="289.49 369.65 288.82 369.42 303.34 327.7 304 327.93 289.49 369.65 289.49 369.65"/><polygon class="cls-12" points="311.55 333.41 310.89 333.18 325.4 291.46 326.07 291.69 311.55 333.41 311.55 333.41"/><polygon class="cls-12" points="303.88 328.1 303.46 327.54 338.65 300.84 339.08 301.4 303.88 328.1 303.88 328.1"/><polygon class="cls-12" points="264.73 336.26 264.71 335.55 308.88 334.64 308.89 335.34 264.73 336.26 264.73 336.26"/><polygon class="cls-12" points="269.94 351.63 269.54 351.05 305.8 325.83 306.2 326.41 269.94 351.63 269.94 351.63"/><polygon class="cls-12" points="309.09 335.28 308.69 334.7 344.95 309.48 345.36 310.06 309.09 335.28 309.09 335.28"/><polygon class="cls-12" points="306.01 326.47 306 325.77 350.16 324.86 350.18 325.56 306.01 326.47 306.01 326.47"/><polygon class="cls-12" points="305.8 335.28 269.54 310.06 269.94 309.48 306.2 334.7 305.8 335.28 305.8 335.28"/><polygon class="cls-12" points="308.88 326.47 264.71 325.56 264.73 324.86 308.89 325.77 308.88 326.47 308.88 326.47"/><polygon class="cls-12" points="350.16 336.26 306 335.34 306.01 334.64 350.18 335.55 350.16 336.26 350.16 336.26"/><polygon class="cls-12" points="344.95 351.63 308.69 326.41 309.09 325.83 345.36 351.05 344.95 351.63 344.95 351.63"/><polygon class="cls-12" points="303.34 333.41 288.82 291.69 289.49 291.46 304 333.18 303.34 333.41 303.34 333.41"/><polygon class="cls-12" points="311.01 328.1 275.81 301.4 276.24 300.84 311.43 327.54 311.01 328.1 311.01 328.1"/><polygon class="cls-12" points="338.65 360.28 303.46 333.58 303.88 333.02 339.08 359.72 338.65 360.28 338.65 360.28"/><polygon class="cls-12" points="325.4 369.65 310.89 327.93 311.55 327.7 326.07 369.42 325.4 369.65 325.4 369.65"/><polygon class="cls-12" points="303.12 330.66 302.44 330.45 315.22 288.17 315.9 288.37 303.12 330.66 303.12 330.66"/><polygon class="cls-12" points="311.77 330.66 298.99 288.37 299.67 288.17 312.45 330.45 311.77 330.66 311.77 330.66"/><polygon class="cls-12" points="315.22 372.94 302.44 330.66 303.12 330.45 315.9 372.74 315.22 372.94 315.22 372.94"/><polygon class="cls-12" points="299.67 372.94 298.99 372.74 311.77 330.45 312.45 330.66 299.67 372.94 299.67 372.94"/><path class="cls-10" d="M394.66,661.94a41.85,41.85,0,1,1,41.85-41.85,41.85,41.85,0,0,1-41.85,41.85Zm0-85.37a43.52,43.52,0,1,0,43.52,43.52,43.52,43.52,0,0,0-43.52-43.52Z" transform="translate(-87.22 -289.54)"/><path class="cls-10" d="M394.66,662.84a42.75,42.75,0,1,1,42.75-42.75,42.74,42.74,0,0,1-42.75,42.75Zm0-89.84a47.09,47.09,0,1,0,47.1,47.09A47.09,47.09,0,0,0,394.66,573Z" transform="translate(-87.22 -289.54)"/><path class="cls-13" d="M394.66,661.94a41.85,41.85,0,1,1,41.85-41.85,41.85,41.85,0,0,1-41.85,41.85Zm0-85.37a43.52,43.52,0,1,0,43.52,43.52,43.52,43.52,0,0,0-43.52-43.52Z" transform="translate(-87.22 -289.54)"/><path class="cls-6" d="M394.66,569.85A50.18,50.18,0,0,1,411,572.54l-1,4.57a45.63,45.63,0,0,0-60.6,37.76h-4.66a50.24,50.24,0,0,1,50-45Z" transform="translate(-87.22 -289.54)"/><path class="cls-6" d="M240.1,569.85a50.25,50.25,0,0,1,47,32.45l-4.24,1.91a45.62,45.62,0,0,0-88.08,10.66h-4.66a50.24,50.24,0,0,1,50-45Z" transform="translate(-87.22 -289.54)"/><path class="cls-14" d="M400.84,620.09a6.18,6.18,0,1,1-6.18-6.17,6.18,6.18,0,0,1,6.18,6.17Z" transform="translate(-87.22 -289.54)"/><path class="cls-8" d="M360.42,536.91a1.09,1.09,0,0,1,1.39.7l1.41,4.38,1.74,5.43,3.43,10.87,3.38,10.89,1.69,5.45,1.67,5.45,3.35,10.9,1.69,5.43c.28.9.56,1.83.84,2.67a5.44,5.44,0,0,0,.19.55l0,.09.06.12c0,.09.08.16.13.25.19.36.41.73.64,1.11.48.76,1,1.53,1.53,2.29s1.08,1.53,1.64,2.28c1.11,1.52,2.26,3,3.4,4.53,2,2.66,4.12,5.31,6.21,7.93a1.36,1.36,0,0,1-.17,1.86h0a1.35,1.35,0,0,1-1.87-.11c-2.29-2.49-4.53-5-6.76-7.57-1.26-1.44-2.49-2.9-3.71-4.38-.62-.74-1.22-1.49-1.82-2.26s-1.19-1.54-1.77-2.36c-.29-.41-.58-.84-.86-1.3l-.22-.38-.1-.19-.12-.24c-.17-.35-.22-.53-.32-.77-.37-.95-.69-1.82-1-2.73l-2-5.36-3.87-10.74-1.93-5.37-1.9-5.38-3.79-10.75-3.73-10.78-1.84-5.4c-.5-1.45-1-2.9-1.48-4.35a1.11,1.11,0,0,1,.7-1.4l4.13-1.36Z" transform="translate(-87.22 -289.54)"/><polygon class="cls-8" points="210.65 335.21 203.62 257.3 208.52 256.86 215.56 334.77 210.65 335.21 210.65 335.21"/><polygon class="cls-10" points="152.63 325.21 212.29 322.73 212.27 322.03 152.6 324.5 152.63 325.21 152.63 325.21"/><polygon class="cls-10" points="212.21 347.99 212.35 347.3 152.68 335.91 152.55 336.6 212.21 347.99 212.21 347.99"/><path class="cls-14" d="M246.27,620.09a6.18,6.18,0,1,1-6.43-6.17h.26a6.17,6.17,0,0,1,6.17,6.17Z" transform="translate(-87.22 -289.54)"/><path class="cls-8" d="M240.19,617.16l-29.64-42.44a6.11,6.11,0,0,1,5-9.59H282l-41.77,52ZM292.5,552l-7.72,9.62h-69a9.73,9.73,0,0,0-9.8,9.58,9.51,9.51,0,0,0,1.73,5.53l30.18,43.21a2.82,2.82,0,0,0,2.21,1.21h0a2.85,2.85,0,0,0,2.29-1l52.89-65.9L292.5,552Z" transform="translate(-87.22 -289.54)"/><path class="cls-10" d="M360.84,518.5h-13a1.07,1.07,0,0,1-1.07-1.07V514.5a1.07,1.07,0,0,1,1.07-1.06h13a1.07,1.07,0,0,1,1.07,1.06v2.93a1.07,1.07,0,0,1-1.07,1.07Z" transform="translate(-87.22 -289.54)"/><path class="cls-6" d="M273.39,541.46c-3.13,7.91,4.41,11.78,23.53,10.79a59.72,59.72,0,0,0,11.1-1.41c2-.47-.55-6.8-7.82-6.8s-25.17-6.72-26.81-2.58Z" transform="translate(-87.22 -289.54)"/><path class="cls-6" d="M268.9,562.09H204.69a2.5,2.5,0,0,1-2.5-2.5h0a2.5,2.5,0,0,1,2.5-2.5H268.9a2.5,2.5,0,0,1,2.5,2.5h0a2.5,2.5,0,0,1-2.5,2.5Z" transform="translate(-87.22 -289.54)"/><path class="cls-14" d="M301.58,633.91v-5.75a.57.57,0,0,1,.84-.49l5,2.88a.56.56,0,0,1,.14.86,10.17,10.17,0,0,1-5.28,3.06.57.57,0,0,1-.68-.56Zm-8.87-3.36,5-2.88a.57.57,0,0,1,.84.49v5.75a.57.57,0,0,1-.68.56,10.13,10.13,0,0,1-5.28-3.06.56.56,0,0,1,.14-.86Zm5.82-15.37v5.75a.56.56,0,0,1-.84.49l-5-2.87a.57.57,0,0,1-.14-.87,10.18,10.18,0,0,1,5.28-3,.56.56,0,0,1,.68.55Zm8.87,3.37-5,2.87a.56.56,0,0,1-.84-.49v-5.75a.56.56,0,0,1,.68-.55,10.22,10.22,0,0,1,5.28,3,.57.57,0,0,1-.14.87Zm-17.5,6a9.88,9.88,0,0,1,.47-3,.56.56,0,0,1,.81-.32l5,2.88a.56.56,0,0,1,0,1l-5,2.88a.55.55,0,0,1-.81-.31,9.93,9.93,0,0,1-.47-3.05Zm20.31,0a9.93,9.93,0,0,1-.47,3.05.56.56,0,0,1-.81.31l-5-2.88a.56.56,0,0,1,0-1l5-2.88a.57.57,0,0,1,.81.32,9.88,9.88,0,0,1,.47,3Zm-9.73-13.11c-.33,0-.66,0-1,0a13.18,13.18,0,1,0,1,0Z" transform="translate(-87.22 -289.54)"/><path class="cls-10" d="M302.48,624.55a2.43,2.43,0,1,1-2.43-2.43,2.43,2.43,0,0,1,2.43,2.43Z" transform="translate(-87.22 -289.54)"/><path class="cls-9" d="M290.68,461.32c2.79,3.19,6.71,3.72,10,7.22,1.81,1.75,6.59,13.86,14.09,57.11-24.5,6.51-42.51,2.25-48.26-3,1.25-29.5,19.47-61.64,24.13-61.33Z" transform="translate(-87.22 -289.54)"/><path class="cls-15" d="M308.7,479.68c1.94,4.74,5.23,11.59,5.23,11.59,12.65,9.31,34,17.2,34,17.2,3.56-.74,12.56-.57,13.25,6s-8.28,4-11.49,2.76a10.74,10.74,0,0,1-2.34-1.29c-30.41.37-43.71-11.74-48-16.55s-7.44-22.67-7.44-22.67l16.79,2.92Z" transform="translate(-87.22 -289.54)"/><path class="cls-16" d="M297.88,499.23c-6.58-8.7-10.19-16.09-12.18-21.89-4.16-12.16,7.24-15.77,11.92-11.5,6.47,5.9,13.87,16.2,16.68,24.32,6,5.29,25.93,14.67,28.5,15.63a47.83,47.83,0,0,1-1.26,10.6c-10.84-.67-32.86-2.89-43.66-17.16Z" transform="translate(-87.22 -289.54)"/><path class="cls-11" d="M292.05,445.06c-.14-5.11,3-9.68,8.09-10.28a9.24,9.24,0,0,1,10.28,8.09c.79,6.62-.06,19.29-8.64,13.63a113.39,113.39,0,0,0,.14,17.09s-10.32-5.14-13.23-9.08c2.57-3.5,3.61-8.82,3.36-19.45Z" transform="translate(-87.22 -289.54)"/><path class="cls-11" d="M334.17,614.1,333,602.28l-11.09-.54,1.17,16.55s9.23.78,11.1-4.19Z" transform="translate(-87.22 -289.54)"/><path class="cls-7" d="M334.45,613.52c3.07,2.35,11.22,3,12.21,7.63.75,3.56-18,2.71-22.28,2.88-2,.09-1.92-5-1.7-8.66,5.08,1.76,7.63,1.82,11.77-1.85Z" transform="translate(-87.22 -289.54)"/><path class="cls-7" d="M269.15,518.73c-4.85,20.4,11,28.6,15.31,30.25s32.93,20.42,32.93,20.42a389.59,389.59,0,0,0,4.12,39.92c4.34,2.46,16.27,0,16.27,0-2.35-31,.89-46.06-5.17-57.75-3.65-7-34.43-28.74-34.43-28.74l-29-4.1Z" transform="translate(-87.22 -289.54)"/><path class="cls-8" d="M290.68,461.32c2.79,3.19,6.71,3.72,10,7.22,1.81,1.75,6.59,13.86,14.09,57.11-24.5,6.51-42.51,2.25-48.26-3,1.25-29.5,19.47-61.64,24.13-61.33Z" transform="translate(-87.22 -289.54)"/><path class="cls-11" d="M300.11,486.48c1.94,4.73,5.22,11.58,5.22,11.58,15,5.19,41.39,11.87,41.39,11.87,3.56-.74,12.56-.57,13.25,6s-8.29,4-11.49,2.76a10.76,10.76,0,0,1-2.34-1.3c-30.41.38-51.06-6.4-55.38-11.21s-7.44-22.67-7.44-22.67l16.79,2.93Z" transform="translate(-87.22 -289.54)"/><path class="cls-6" d="M280.06,472.45c-.32-12.85,11.64-12.87,14.82-7.4,4.4,7.58,9.46,24.11,10.24,30.09,7.76,5.38,33.56,11.66,36.92,13-.79,3.16-.44,10.59-.44,10.59-11.12-.52-41.15-3.56-49-8.65-8.21-5.31-12.3-29.1-12.52-37.63Z" transform="translate(-87.22 -289.54)"/><path class="cls-7" d="M327.52,625.63h0a1.05,1.05,0,0,1-1.09,1l-25.16-1a1.06,1.06,0,0,1-1-1h0a1.06,1.06,0,0,1,1.1-1.06l25.16,1a1.06,1.06,0,0,1,1,1.1Z" transform="translate(-87.22 -289.54)"/><polygon class="cls-6" points="236.94 337.44 258.1 337.44 258.1 334.38 236.94 334.38 236.94 337.44 236.94 337.44"/><path class="cls-6" d="M397.08,534.38H366.42a.67.67,0,1,1,0-1.33h30.66a.67.67,0,0,1,0,1.33Z" transform="translate(-87.22 -289.54)"/><path class="cls-6" d="M388.46,557.77H374.33a4.44,4.44,0,0,1-4.42-3.95l-2.23-20,1.32-.15,2.23,20a3.13,3.13,0,0,0,3.1,2.78h14.13a3.13,3.13,0,0,0,3.1-2.78l2.22-20,1.32.15-2.22,20a4.44,4.44,0,0,1-4.42,3.95Z" transform="translate(-87.22 -289.54)"/><polygon class="cls-6" points="287.43 267.6 285.83 244.2 286.49 244.16 288.09 267.55 287.43 267.6 287.43 267.6"/><polygon class="cls-6" points="300.92 267.6 300.26 267.55 301.86 244.16 302.52 244.2 300.92 267.6 300.92 267.6"/><polygon class="cls-6" points="291.68 267.58 291.14 244.19 291.81 244.17 292.34 267.57 291.68 267.58 291.68 267.58"/><polygon class="cls-6" points="296.67 267.58 296.01 267.57 296.55 244.17 297.21 244.19 296.67 267.58 296.67 267.58"/><polygon class="cls-6" points="306.41 252.31 281.94 252.31 281.94 251.65 306.41 251.65 306.41 252.31 306.41 252.31"/><polygon class="cls-6" points="305.54 260.11 282.81 260.11 282.81 259.44 305.54 259.44 305.54 260.11 305.54 260.11"/><path class="cls-14" d="M362.38,537.91l-6.91,2.3a1.15,1.15,0,0,1-1.47-.73l-.15-.46a1.15,1.15,0,0,1,.73-1.47l6.91-2.31A1.16,1.16,0,0,1,363,536l.15.46a1.15,1.15,0,0,1-.73,1.47Z" transform="translate(-87.22 -289.54)"/><path class="cls-6" d="M394.7,620.89a.65.65,0,0,1-.66-.59l-6.89-63.12a.66.66,0,0,1,1.32-.14l6.89,63.11a.67.67,0,0,1-.59.74Z" transform="translate(-87.22 -289.54)"/><path class="cls-7" d="M302.77,437.36a10.33,10.33,0,0,1-.63,5.94c2.12,1.8,6.78,1.51,8.27.24,1.94-1.63.58-13.48-12.07-11.25-9,1.59-9.91,10.71-29.07,9s-42.55,14.65-27.16,31.55,29.68-17.19,37.34-14,8.69-4.69,14.6-7.53c3.61-1.74,2.53-4.16,3.56-6.39,3.21.73,3.15-5.12,5.16-7.5Z" transform="translate(-87.22 -289.54)"/><path class="cls-8" d="M287.44,431.36c-1.25-1.3-3.85-1.48-3.85-1.48a1.55,1.55,0,0,0,0,1.48,9.83,9.83,0,0,1,3.4.65l.45-.65Z" transform="translate(-87.22 -289.54)"/><path class="cls-8" d="M308.12,433.94c.69,2.2-17.55,5.51-20.94,4.34-1-.34-3.61-3.47-1.51-5.86,4.88-5.55,20.47-4.78,22.45,1.52Z" transform="translate(-87.22 -289.54)"/><path class="cls-11" d="M299.1,445.21c-2.16-3.2-6.45,1.78-1.45,3a17.63,17.63,0,0,1,1.45-3Z" transform="translate(-87.22 -289.54)"/></svg>