<svg id="Laag_1" data-name="Laag 1" xmlns="http://www.w3.org/2000/svg" viewBox="0 0 937.66 809.83"><defs><style>.cls-1{fill:#e6f5fb;}.cls-2{fill:#fff;stroke:#ccc;stroke-width:5px;}.cls-2,.cls-27,.cls-28,.cls-33{stroke-linecap:round;}.cls-14,.cls-16,.cls-17,.cls-19,.cls-2,.cls-20,.cls-25,.cls-26,.cls-27,.cls-28,.cls-29,.cls-31,.cls-33,.cls-34,.cls-36{stroke-miterlimit:10;}.cls-3{fill:#41a35b;}.cls-4{fill:#c6c199;}.cls-5{fill:#f3efcc;}.cls-6{fill:#e8e4c8;}.cls-11,.cls-16,.cls-19,.cls-26,.cls-31,.cls-36,.cls-7{fill:none;}.cls-11,.cls-7{stroke:#474a54;}.cls-7{stroke-miterlimit:10;stroke-width:17px;}.cls-8{fill:#3a683a;}.cls-9{fill:#407740;}.cls-10{fill:#273027;}.cls-11{stroke-miterlimit:10;stroke-width:19px;}.cls-12{fill:#474a54;}.cls-13{fill:#4b4c48;}.cls-14{fill:#365b75;}.cls-14,.cls-16{stroke:#294556;}.cls-15{fill:#305266;}.cls-17,.cls-27{fill:#ffb19c;}.cls-17,.cls-19,.cls-20,.cls-27{stroke:#c17b69;}.cls-18{fill:#e09b8c;}.cls-20{fill:#efa695;}.cls-21{fill:#142b33;}.cls-22{fill:#131719;}.cls-23{fill:#2e7d4b;}.cls-24{fill:#247244;}.cls-25{fill:#31844d;}.cls-25,.cls-26{stroke:#20603a;stroke-width:2px;}.cls-28,.cls-34,.cls-37{fill:#f7c466;}.cls-28,.cls-34,.cls-36{stroke:#e08435;}.cls-29,.cls-32,.cls-33{fill:#5ac8b5;}.cls-29,.cls-31,.cls-33{stroke:#468376;}.cls-30{fill:#56baa7;}.cls-35{fill:#efb76c;}.cls-38{fill:#c43a0c;}.cls-39{fill:#3a8e4e;}</style></defs><g id="Laag_17" data-name="Laag 17"><path class="cls-1" d="M645.5,343.62c-21.9-28.16-59.71-20.22-75.14-15.43a19.32,19.32,0,0,1-13.07-.53,55.51,55.51,0,0,0-17.45-4.06v32.55c6.78.3,14.3.58,22.66.85C637.5,359.39,649.5,350.62,645.5,343.62Z" transform="translate(-539.84 -285.61)"/><path class="cls-2" d="M1425.19,757.78" transform="translate(-539.84 -285.61)"/><path class="cls-3" d="M1477.5,1095.44V757.8q-74.19-1.14-149.5-1.14c-275.39,0-540.37,11.56-788.16,32.9v305.88Z" transform="translate(-539.84 -285.61)"/></g><g id="scene"><g id="road"><path class="cls-4" d="M539.84,861.72v233.72H927.23c212.11-88,406.82-162.18,550.27-204V757.91C1348.72,758.38,1018.16,770.18,539.84,861.72Z" transform="translate(-539.84 -285.61)"/><path class="cls-5" d="M1477.5,758c-39.39.15-97.66,1.35-173.25,5.58,53.83,9.29,113.07,19.63,173.25,30.37Z" transform="translate(-539.84 -285.61)"/><path class="cls-5" d="M1477.5,799.43c-60.52-11.08-126.91-22.82-196.63-34.5C1142.68,773.41,952,791.7,717.15,830.26c112.94,21.83,383.31,74.71,584.91,118.9,64.19-22.91,123.21-42.42,175.44-57.65Z" transform="translate(-539.84 -285.61)"/><ellipse class="cls-6" cx="361.66" cy="661.94" rx="109" ry="37.89"/><ellipse class="cls-6" cx="492.66" cy="671.84" rx="94" ry="31.99"/><path class="cls-5" d="M648.62,1095.44c-32.9-9.15-69.42-19.19-108.78-29.81v29.81Z" transform="translate(-539.84 -285.61)"/><path class="cls-5" d="M927.39,1095.44c129.91-53.92,253.3-102.62,362.37-141.87-122.52-27.68-350.79-77.3-592.65-120q-75.69,12.66-157.27,28.22v198.14c44.63,11.79,89.45,23.77,132.59,35.5Z" transform="translate(-539.84 -285.61)"/></g><path class="cls-1" d="M1477.5,316.78a38.13,38.13,0,0,0-8.06,3.06c-11.9,6.67-30.08-11.55-30.08-11.55s-25.07-26.86-52.14,0c-18.37,18.23-40.92,4.92-53.51-5.52-17.23-14.28-40-20.28-61.85-15.48-21.06,4.62-47.28,18-76.36,49.68l282-3.79Z" transform="translate(-539.84 -285.61)"/><path class="cls-6" d="M955.5,886.66c2.65,5.77-60.94,41-174.08,93s-148.27,59.77-150.92,54,28.16-22.82,141.31-74.87S952.85,880.89,955.5,886.66Z" transform="translate(-539.84 -285.61)"/><g id="bike"><ellipse class="cls-7" cx="905.32" cy="778.76" rx="126.23" ry="55.2" transform="translate(-510.48 1304.8) rotate(-83.52)"/><path class="cls-8" d="M762.32,618.89s47.18,149.77,60.18,172.4c1.82,4.09,4.41-8.81,4.41-8.81L860.18,599.8l22,1L848.92,805.51c22.53,33,3.14,63.9-21.3,62s-26.42-47.09-17-56.67L749.77,650.88Z" transform="translate(-539.84 -285.61)"/><path class="cls-9" d="M773.14,576.85,752.5,657c14.85,3.67,10.45,12.48,3,45.18-8.84,40.64-35.18,158.57-35.18,158.57s-.32,7-6.27,5.73-4.67-7.22-4.67-7.22l37.79-179.6c.17-.78.33-1.56.52-2.33.52-2.1,2-10.57-7.58-11.88-10.94-1.5-12.34,7.45-12.34,7.45L673.56,853.66s-1.31,7-8.26,5.63-4.63-8.21-4.63-8.21l56.24-181.65s4.85-18.8,21.75-16L760,576.31l1.48-6.94,13.11.6Z" transform="translate(-539.84 -285.61)"/><path class="cls-10" d="M710.5,853.66l-39.77-4.16s-5-1.23-5.18,3.77c-.13,3,1.78,4.14,3,4.22s2.28.12,3.42.25l37.45,4.36a11.41,11.41,0,0,1-.09-1.85C709.35,859.26,710.5,853.66,710.5,853.66Z" transform="translate(-539.84 -285.61)"/><ellipse class="cls-11" cx="685.55" cy="855.73" rx="150.39" ry="76.24" transform="translate(-797.89 1128.58) rotate(-81.92)"/><path class="cls-9" d="M755.79,657.94l-13.14,44.49-33,156.84s-1.27,6,4.68,7.22,6.26-5.72,6.26-5.72,26.35-117.94,35.19-158.58C762.66,672,766.93,662.15,755.79,657.94Z" transform="translate(-539.84 -285.61)"/><path class="cls-8" d="M854,826.74l70-41.88s17.39-8.23,7-21.71-63.68-75-65.32-83-4.3,28.83-4.3,28.83l43.42,58-58.88,40.39Z" transform="translate(-539.84 -285.61)"/><path class="cls-12" d="M902.64,601.22a134,134,0,0,0-23.23,2.09c-15,2.59-34.67,6.39-41.53,9.53-11.67,5.33-18.4.93-18.4.93s-15.81-7.85,14.77-17.2c15.42-4.71,28.78-9.12,38.23-12.34a112.34,112.34,0,0,0,21.62-9.83c7.28-4.35,19.17-9.59,29.58-5.54,16.34,6.37,12.41,19.76,12.41,19.76s-.11,7.22-18.53,10.76A81.48,81.48,0,0,1,902.64,601.22Z" transform="translate(-539.84 -285.61)"/><path class="cls-12" d="M716.38,569a13.59,13.59,0,0,0,7.41,2.61l79.41,4.55s7,.32,8.44-9.63,5.13-24.79,5.13-24.79l20.93,1.94s8,1.36,8.26-5.63c.37-8.05-8.67-7.4-8.67-7.4l-23.93-2s-8,.64-9.35,7.59-4,21.84-6.22,26.74l-71-2.2L724,533s.63-6.36-11.53-6.91-17.52.21-17.52.21-5.67-.25-5.9,4.74c-.27,6,7.72,6.36,7.72,6.36l14-.37s3.22,17.16,2.86,25.15C713.6,565.36,714.39,567.56,716.38,569Z" transform="translate(-539.84 -285.61)"/></g><g id="schoenen"><path class="cls-13" d="M829.66,894.66s1,11.69-15.5,23.37-26.87,21.25-14.47,26.56,19.64,2.12,19.64,2.12L834.83,935s6.64-7.51,14.6-8.3a6.94,6.94,0,0,0,6.07-7V903.25Z" transform="translate(-539.84 -285.61)"/><path class="cls-13" d="M963.5,867.34s3,17.52,1,27.37a83.33,83.33,0,0,1-5,16.43s-8,17.52,11,15.33,19-10.81,19-12c0-3.76-2-11.76-2-20.76s1-29.17,2-33.22S963.5,867.34,963.5,867.34Z" transform="translate(-539.84 -285.61)"/></g><g id="broek"><path class="cls-14" d="M920.25,603.66s-27.43,51.5-31.17,83c-.69,5.75-10.4,42-10.4,42s-2.83,7-2.83,20-5.67,69-9.45,79-10.39,41-9.44,57,.94,19,.94,19-25.51,5-29.28-7c1.89-6,4.72-30,4.72-30v-73l.94-43s32.42-162.5,42.1-204.5c27.39-34,93.94,2.5,93.94,2.5a422.29,422.29,0,0,1,1.8,64.5c-1.89,33,3.26,72.39,3.26,72.39s-1.55,30.64,0,36.37,21.39,30.74,14.77,109.74c-.94,22-.94,29-.94,29s2.83,8-25.51,7c-1.89-1-2.83-19-2.83-19l-5.67-49s-4.72-42-6.61-48-10.39-26-11.34-41C924.73,669.16,920.25,603.66,920.25,603.66Z" transform="translate(-539.84 -285.61)"/><path class="cls-15" d="M919.25,604.66l-11.11,22.79-7.64,17.77L893,666.15l-2.48,10.51-1,10-3.31,13-9,34.24-1.69,9.76v12l-2,24-4,29-2,14-2,8-4,11.89-.47,2.61s7-64,5-89S879.89,680,879.89,680,900,621.16,920,603.16" transform="translate(-539.84 -285.61)"/><path class="cls-15" d="M935,553.16l35-2s3.57,36.83,2.29,47.42c-.29-.42-4.38-22.93-15.83-31.18A94.81,94.81,0,0,0,935,555.66Z" transform="translate(-539.84 -285.61)"/><path class="cls-16" d="M919.91,603.93s-27.43,51.5-31.17,83c-.69,5.75-10.4,42-10.4,42s-2.83,7-2.83,20-5.67,69-9.45,79-10.39,41-9.44,57,.94,19,.94,19-25.5,5-29.28-7c1.89-6,4.72-30,4.72-30v-73l.94-43s32.43-162.5,42.1-204.5c27.39-34,93.94,2.5,93.94,2.5a422.29,422.29,0,0,1,1.8,64.5c-1.89,33,3.26,72.39,3.26,72.39s-1.55,30.64,0,36.37,21.39,30.74,14.78,109.74c-1,22-1,29-1,29s2.83,8-25.51,7c-1.88-1-2.83-19-2.83-19l-5.67-49s-4.72-42-6.61-48-10.39-26-11.34-41C924.39,669.43,919.91,603.93,919.91,603.93Z" transform="translate(-539.84 -285.61)"/></g><g id="Laag_10" data-name="Laag 10"><path class="cls-17" d="M936.89,390.39s-11.39-5.73-14.39-10.73-32-7-32-7V386.3s-8.16,5.3-13.58,4.83,2.58,21.53,2.58,21.53l16,20,48.27-31.32Z" transform="translate(-539.84 -285.61)"/><path class="cls-18" d="M890.5,374.78v8.77s6,12.11,20,12.11,17.38-10.76,17.38-10.76a15.83,15.83,0,0,1-4.16-3.62c-2.22-2.62-7.21-5.07-7.21-5.07Z" transform="translate(-539.84 -285.61)"/><line class="cls-19" x1="350.66" y1="99.69" x2="350.66" y2="86.05"/><path class="cls-17" d="M928.82,385.57s-5.08-3.23-6-5.32" transform="translate(-539.84 -285.61)"/><path class="cls-17" d="M881,339.16s-2,29,16.55,43,27.27-4,27.27-4,4.54-5,11.45-20c4-8.63,3.16-39,3.16-39l-23.85-14.37-22.9,8.37-10.71,14A86,86,0,0,0,881,339.16Z" transform="translate(-539.84 -285.61)"/><path class="cls-20" d="M880.94,344.43S877,334.16,873,339.16s4,15,4,15l7.9,10S880.88,350.66,880.94,344.43Z" transform="translate(-539.84 -285.61)"/><path class="cls-18" d="M880.5,342.66c1.61-6.08,7-17.21,19.91-17.21a21.25,21.25,0,0,1,9.09,2.21s-.09-4.21-6.09-6.21c0,0,8.09-6.79,28.09,5.21,3.21,1.92,6.35,1,9,1,9.17-.09,11.06-8.31,14-15,2.2-5,6.09-7.93,3.86-12.94a14.81,14.81,0,0,0-2-3.27s2.15,12.26-10.93,12.63c-9.13.26-17.25-7-21.32-11.37a23.11,23.11,0,0,0-15.81-7.56c-5.5-.24-12,1.5-17.94,8.3a15,15,0,0,0-8,2" transform="translate(-539.84 -285.61)"/><path class="cls-21" d="M904,317.16s8-4,28,8c14.3,8.58,23-5.34,26.76-14A19.52,19.52,0,0,0,959,295.4a15,15,0,0,0-2-3.27s2.15,12.26-10.93,12.63c-9.13.26-17.25-7-21.32-11.38a23.16,23.16,0,0,0-15.81-7.55c-5.5-.24-12,1.5-17.94,8.3a15,15,0,0,0-8,2c-5.5,3.5-20.12,24.85-2.06,46.93.06.07,3.06-21.93,20.06-21.93,5,0,11,8,11,8S910,319.16,904,317.16Z" transform="translate(-539.84 -285.61)"/><path class="cls-22" d="M910.2,285.84s-12.7,3.82-13.7,7.82,1,7,10,5c0,0-6,4-5,7s14,1,14,1-10,3-10,6,10.86,5.24,10.86,5.24-6.86-2.24-12.36-.74c0,0,6.5,2.5,8,12-.5-.5-7.77-13.26-20.14-5.38-.36-.12,2.64-5.12.64-8.12s-10,8-10,8,3-10,5-12-1.2-3.68-2.6-2.34,4.6-7.66.6-8.66-9,3.39-9,3.39,5-12.39,14.5-9.89C890.5,293.66,898.9,284,910.2,285.84Z" transform="translate(-539.84 -285.61)"/></g><g id="Laag_12" data-name="Laag 12"><path class="cls-17" d="M806.84,439.66S790,454.16,781,456.16s-50,43-50,43l-30.56,26.76s-5.44,2.24-6.44,6.24-4.88,11.73-4.88,11.73-2.12,6.27,3.88,5.27c0,0,0,3,6,3,0,0,0,1.69,2.53,2.11a6.13,6.13,0,0,0,4.85-1.34,50.43,50.43,0,0,1,7.62-4.77s10.89-3.49,12,3.76,5,5.24,5,5.24a4.32,4.32,0,0,0,3.24-5.18,4.48,4.48,0,0,0-.34-1c-1.9-4.87-2.9-21.87-2.9-21.87s-1-10,2-12,16-15.25,29.5-18.62,44.34-26.38,44.34-26.38l15.49-9.53Z" transform="translate(-539.84 -285.61)"/><path class="cls-18" d="M821.13,459.55s-13,3.55-17.06,3.08c-1.07.53,1.93,3.53,1.93,3.53s-20.85,19.34-55.93,32.17c-6.07,1.83-16.42,11.42-17.25,18.62l8.86-6.94,12.21-8.1,11.19-4.45,10.42-4.68,15.5-9.54,33-22.08Z" transform="translate(-539.84 -285.61)"/><path class="cls-19" d="M806.66,439.45S789.82,454,780.82,456s-50,43-50,43l-30.56,26.76s-5.44,2.24-6.44,6.24-4.88,11.74-4.88,11.74-2.12,6.26,3.88,5.26c0,0,0,3,6,3,0,0,0,1.69,2.53,2.11a6.15,6.15,0,0,0,4.86-1.34,50.83,50.83,0,0,1,7.61-4.77s10.9-3.49,12,3.76,5,5.24,5,5.24,4.81-1.25,2.91-6.12S730.82,529,730.82,529s-1-10,2-12,16-15.24,29.5-18.62S806.66,472,806.66,472l15.49-9.53Z" transform="translate(-539.84 -285.61)"/></g><g id="trui"><path class="cls-23" d="M876.5,388.66s-3,1-7,2c-2.91.73-19,5-26,15s-27,24-27,24l-3,2,18,32s12-11,15-13,17-11,17-16,1,31,11,51c3,7,3,29,3,29l-8,41,101-9s-12-42-12-53,12-26,12-26-2-18,0-27,4-42-26-47c-7-1-7-3-7-3s6,18-37,33C879.71,430.91,876.5,388.66,876.5,388.66Z" transform="translate(-539.84 -285.61)"/><path class="cls-24" d="M931.5,423.66s-1,39-12,48c0,0,6-3,8,7s-2,15-2,15,16,7,1,25c0,0,16,15-17,24s62,0,62,0-17-34-12-44-24-27-24-27,2.42-20,.71-26S931.5,423.66,931.5,423.66Z" transform="translate(-539.84 -285.61)"/><path class="cls-25" d="M922.5,542.66s42.63-1,47.27-2,3.7,13,3.7,13-.92,3-11.12,3-37.07,1-37.07,1l-54.78-1s-2.78-2-1.85-5a28.5,28.5,0,0,0,.93-7s-1.64-5.1,8.91-4S922.5,542.66,922.5,542.66Z" transform="translate(-539.84 -285.61)"/><path class="cls-25" d="M869.56,391.13l6.94-2.47s3,23,17,35a14.39,14.39,0,0,1,2,3l-3,4S868.62,408.6,869.56,391.13Z" transform="translate(-539.84 -285.61)"/><path class="cls-25" d="M936.78,390.78a1.36,1.36,0,0,1,1.53-1.17,1.34,1.34,0,0,1,.79.4,32,32,0,0,0,4.53,3.5c1.51,1.15-9.13,31.15-45.13,35.15-2,0-5,29-5,29a2,2,0,1,1-4,0s-2-31,5.5-34C902.12,420.81,934,409.85,936.78,390.78Z" transform="translate(-539.84 -285.61)"/><circle class="cls-26" cx="362.66" cy="150.05" r="1"/><circle class="cls-26" cx="361.66" cy="157.05" r="1"/><circle class="cls-26" cx="360.66" cy="164.05" r="1"/><path class="cls-26" d="M935.5,469.66s2-13,1-22-5-10.6-4-25" transform="translate(-539.84 -285.61)"/><path class="cls-24" d="M863.5,415.66s-2,13-12,20a105.82,105.82,0,0,1-17,10s-9.78,2-12.89-3,9.94,20,9.94,20,11.72-11,18.34-14,12.5-11.05,12.5-11.05S864.5,430.66,863.5,415.66Z" transform="translate(-539.84 -285.61)"/><path class="cls-26" d="M863.5,414.66s3,19-1.39,23.27c0,0-7.6,8.73-14.1,11.73s-18.51,15-18.51,15" transform="translate(-539.84 -285.61)"/><path class="cls-25" d="M816.5,433.66s-3-5-6-4-7,5-7,5-2,2,1,7,2,8,17,28c2,2,5-2,5-2l4-4s3-1,1-4S816.5,433.66,816.5,433.66Z" transform="translate(-539.84 -285.61)"/></g><g id="arm_rechts" data-name="arm rechts"><path class="cls-17" d="M934.65,495.33S865,515.59,855.56,518.26c-7.62,2.15-19.35-.38-29.08,5.72-3.26,2-3.16,8.08,1.68,7.63s7.88,7.5,2.84,9.55a10.2,10.2,0,0,1-4.53.18l-.38-.06a4.16,4.16,0,0,0-4.48,2.61c-.85,2.27-.61,4.27.39,5.27a8,8,0,0,0,5,2,6.34,6.34,0,0,1,5,2.51,3.72,3.72,0,0,0,.71.72,4.83,4.83,0,0,0,3.7,1,4.53,4.53,0,0,1,3.88,1.18c1,1,2.89,1.81,6.57.83,6.64-1.74,13.45-10.14,14.64-11.74a4,4,0,0,1,.49-.52c2-1.85,14.75-12.89,25.89-13.13a233.89,233.89,0,0,0,68.37-11.35,23.49,23.49,0,0,0,12.64-11.87,3.94,3.94,0,0,0,.35-1.26l.93-8.12,2.52-27.83c.2-2.26-1.43-4.26-4.68,5.48L943.5,474.3c-1.35-10.27-4.45,1.47-4.62,3.83l-.74,13.18a4.14,4.14,0,0,1-1.56,3A6.17,6.17,0,0,1,934.65,495.33Z" transform="translate(-539.84 -285.61)"/><path class="cls-27" d="M824.85,550.59a44.1,44.1,0,0,0,6.94-2.74" transform="translate(-539.84 -285.61)"/><path class="cls-25" d="M932.5,470.66s33-7,42-4a7.67,7.67,0,0,1,2,5v9s1,2-6,2-24,0-34,4c0,0-4,1-4-2Z" transform="translate(-539.84 -285.61)"/></g><g id="Laag_16" data-name="Laag 16"><path class="cls-17" d="M1004,895.89s-15.48,42.77-26.48,56.77,19,3,19,3l21-17s-1.34-23.17,1.33-38.09-10.33-9.91-10.33-9.91l-4.52,5.23" transform="translate(-539.84 -285.61)"/><path class="cls-28" d="M979.5,948.66s-10,9-10,15,9,6,9,6,12,1,18-5a63.79,63.79,0,0,0,9-11s6-6,11-9,.72-13.83.72-13.83-2.72,6.83-7.72,9.83a59.48,59.48,0,0,0-8.25,6.4,25.92,25.92,0,0,1-8,5C987.18,954.41,978.16,956.72,979.5,948.66Z" transform="translate(-539.84 -285.61)"/><path class="cls-17" d="M1016,541.66s-23,47-28,69a152.8,152.8,0,0,1-13.68,29.5c-5.32,8.5-11.32,16.5-11.32,16.5s-2,6.34,0,10.17a40.34,40.34,0,0,1,3,9.83s7,8,12,7,0-4,0-4,6.38,3.61,6.19-.7c1.81-.3,3.81-2.8,2.81-13.8s27.5-16,27.5-16l-13.5-11.5,15-68.53Z" transform="translate(-539.84 -285.61)"/></g><g id="woman"><path class="cls-17" d="M1044.58,843.22s1.77,17.11,4.6,23.53.82,15.41.82,15.41l-.82,13.88-1.55,12.71L1035,915.16l-11-7s9.47-15.49,5.73-33.25S1042,840.16,1042,840.16Z" transform="translate(-539.84 -285.61)"/><path class="cls-28" d="M1047.29,860.47a40.65,40.65,0,0,1,0,23.13c-.52,1.37-.35,6.74-.17,10.18a20.75,20.75,0,0,1-1.53,9.08c-1.52,3.59-4.27,7.34-9.09,6.8-9-1-10.06-6.46-10.06-6.46s-2.94.46-2.94,6.46,4,13,12,13,16-5,16-18c0-7.75.36-14.43.64-18.57a19.84,19.84,0,0,1,1.95-7.28c1.83-3.81,3.93-10.39-1.59-13.15-2-1-5.21-5.19-5.21-5.19" transform="translate(-539.84 -285.61)"/><path class="cls-29" d="M1010,574.16s-25,47.19-18.5,97.1,23.5,104.9,23.5,104.9l9,13,65-113-22-81Z" transform="translate(-539.84 -285.61)"/><path class="cls-30" d="M1000,718.6s11.12,55.57,23.3,1.31,4.17,55.75,4.17,55.75L1017,778.79l-2.83-5.43Z" transform="translate(-539.84 -285.61)"/><path class="cls-31" d="M1010.4,574.05s-25,47.19-18.5,97.09,23.5,104.91,23.5,104.91l9,13,65-113-22-81Z" transform="translate(-539.84 -285.61)"/><path class="cls-29" d="M1039.71,649.47S1017,735.16,1017,763.16s0,58-1,61-2.27,43.79-12.64,67.89c-1.36,3.11,2.64,7.11,7.64,8.11s8.8,1.64,10.4-2.18,13.6-41.82,24.6-56.82c5.78-7.52,5.21-26.41,3.7-41a72.52,72.52,0,0,1,6.51-38.5l30.63-64.86s10.16-28.63,8.16-39.63-10-30-10-30l-19.74-8S1046.42,644.78,1039.71,649.47Z" transform="translate(-539.84 -285.61)"/><polygon class="cls-32" points="506.16 332.55 514.16 339.55 513.16 354.55 528.16 352.55 535.81 342.03 520.16 327.55 506.16 332.55"/><path class="cls-17" d="M1047,441.16s2,6,1,17a24,24,0,0,1-16,6c-10,0-15,9-15,9s-5,12-3,24,64,34,64,34l8-7s3.11-5.77,3-7.88-2,31.88,8,41.88c0,0-12,3-17,7s-22-4-22-4-13.57-6.76-21.29,5.12c-.71.88.29,1.88.29,1.88s-1,1,0,3c0,0-3,2-1,5,0,0-6,3,2,7,0,0,4,9,13,9,5,0,15-8,15-8s6-2,17-2h20c2,0,14-4,14-13s-7-83-7-83-1-18-18-18-23-24-22-45S1047,441.16,1047,441.16Z" transform="translate(-539.84 -285.61)"/><path class="cls-17" d="M1024.5,374.66s-7,18-1,37c1,4-.72,9.94-.72,9.94s2.72,16.06,12.72,23.06c0,0,35-1,41-27s4-33,4-33l-33-17Z" transform="translate(-539.84 -285.61)"/><path class="cls-20" d="M1090,408.16s-.38-3.9-11.69,1c-1.31,5-2.45,10.79-2.45,10.79v3.66l9.06-5.29a10.45,10.45,0,0,0,4.87-6.06A8.58,8.58,0,0,0,1090,408.16Z" transform="translate(-539.84 -285.61)"/><path class="cls-17" d="M1037,568.16s10-4,16-4" transform="translate(-539.84 -285.61)"/><line class="cls-19" x1="497" y1="285.77" x2="513.16" y2="285.55"/><path class="cls-17" d="M1035.84,575.93s13.16,1.23,19.16,1.23" transform="translate(-539.84 -285.61)"/><path class="cls-17" d="M1053,585.16s-12-1.57-15.52-2.29" transform="translate(-539.84 -285.61)"/><path class="cls-30" d="M1000.5,599.66c5.23.6,82.54,10.17,80.8,108.86a79.06,79.06,0,0,0,3.67-8V662.11l-23.47-64.45L1016,583.28l-9.5.38" transform="translate(-539.84 -285.61)"/><path class="cls-30" d="M1050.27,782.07s-4.77,19.59-4.77,27.59,2.15,28.12-.92,33.56,6.29-5.5,6.11-18-1-27.64-1-27.64Z" transform="translate(-539.84 -285.61)"/><path class="cls-33" d="M1013.5,630.66s15,18,26,19" transform="translate(-539.84 -285.61)"/><path class="cls-31" d="M1040,649.06s-22.71,85.69-22.71,113.69,0,58-1,61-2.28,43.78-12.64,67.89c-1.36,3.11,2.64,7.11,7.64,8.11s8.8,1.63,10.4-2.18,13.6-41.82,24.6-56.82c5.78-7.52,5.21-26.42,3.7-41a72.55,72.55,0,0,1,6.51-38.51l30.63-64.86s10.16-28.62,8.16-39.62-10-30-10-30l-19.74-8S1046.68,644.36,1040,649.06Z" transform="translate(-539.84 -285.61)"/><path class="cls-34" d="M1031,463.16s4-3,6.48,0c.52,1-6.48,19,7.52,29s38-29,38-29,5-2,9,4c1,2-5,10-5,10s-20,28-1,47c0,0-27,34-8,60s31,74,5,120c0,0,12-90-79-117,0,0,14-40,7-57V494.29a3.37,3.37,0,0,1,1.8-3C1017.72,488.75,1031,480.27,1031,463.16Z" transform="translate(-539.84 -285.61)"/><path class="cls-35" d="M1079,512s-10.43,39.71-13.7,47.94S1053,578.15,1053,578.15s-19.32,12.84-6.16,20.43,37.19-5.5,37.19-5.5l-10-15.92-3-12,.75-9.5,3-11,5-11.3,6.24-9.67S1078.93,516.84,1079,512Z" transform="translate(-539.84 -285.61)"/><path class="cls-36" d="M1031,462.66s4-3,6.48,0c.52,1-6.48,19,7.52,29s38-29,38-29,5-2,9,4c1,2-5,10-5,10s-20,28-1,47c0,0-27,34-8,60s31,74,5,120c0,0,12-90-79-117,0,0,14-40,7-57V493.77a3.37,3.37,0,0,1,1.8-3C1017.72,488.23,1031,479.75,1031,462.66Z" transform="translate(-539.84 -285.61)"/><path class="cls-17" d="M1097,558.16s-12,3-17,7-22-4-22-4-13.57-6.76-21.28,5.12c-.72.88.28,1.88.28,1.88s-1,1,0,3c0,0-3,2-1,5,0,0-6,3,2,7,0,0,9,6,14,7s14-6,14-6,6-2,17-2h20c2,0,14-4,14-13s-7-83-7-83" transform="translate(-539.84 -285.61)"/><path class="cls-34" d="M1015,490.16s-19,8-18,25c.29,5,5,21,29,8" transform="translate(-539.84 -285.61)"/><polygon class="cls-37" points="479.66 202.05 473.66 206.05 473.69 206.57 479.16 206.55 479.66 202.05"/><path class="cls-34" d="M1035,518.16s2,17,20,15,20.4-15.86,20.4-15.86" transform="translate(-539.84 -285.61)"/></g><g id="Laag_15" data-name="Laag 15"><path class="cls-38" d="M1080.82,352.79s13.18-30.63,44.18-9.63,23,70,23,70-2,16-5,21-11,25-11,25-7,17,4,30c0,0-13-7-16-18a148.6,148.6,0,0,1-3.4-19.08,100.64,100.64,0,0,1-.43-20.53c.38-4.56.92-10.26,1.69-16.16a135.43,135.43,0,0,1,3.72-17.36c5.52-20.64-23-40.56-28.58-35.87C1087,367.16,1080.82,352.79,1080.82,352.79Z" transform="translate(-539.84 -285.61)"/><path class="cls-34" d="M1082.3,351.78a3.23,3.23,0,0,0-3.65.12c-2.29,1.66-5.75,4.69-4.69,7.16,1.54,3.6,15.54,11.6,15.54,11.6s7-6,4-10C1091.3,357.72,1085.32,353.71,1082.3,351.78Z" transform="translate(-539.84 -285.61)"/><path class="cls-38" d="M1038.22,377.44c2,5.78,8.39,13.69,26.78,20.72,7,3,10,13,7,22a29.32,29.32,0,0,0-1.14,12.24,12.82,12.82,0,0,0,14,11.48,13.35,13.35,0,0,0,2.79-.6l.33-.12c7-3,4-15-2-15l.26.35c2.1,2.8,3.49,5.63,1.74,8.65s-8,2-10-1c-3-3,1-15,1-15s1-12,1.5-12.5c1,0,4.71-3.49,8-2,.29.49,18.5-25.5-4.5-41.5s-34-11-41-8c0,0-4-2-9,2s-22,20-18,38a7.27,7.27,0,0,0,5,5v-8s13-8,17-16Z" transform="translate(-539.84 -285.61)"/></g></g><path class="cls-39" d="M1355.16,876.73c-90.33-.06-141.23,66.23-141.23,66.23s-39.89,45.93-85.08,69.58-88.52,22.39-88.52,22.39-31.92-5.15-100.39,20.42c-24,9-49.56,24.14-72.68,40.09h86.8c154.63-57.89,383-142.41,523.44-190V807.29c-7.55,11.9-10.23,20.88-10.23,20.88S1445.49,876.79,1355.16,876.73Z" transform="translate(-539.84 -285.61)"/></svg>