<svg id="Laag_1" data-name="Laag 1" xmlns="http://www.w3.org/2000/svg" xmlns:xlink="http://www.w3.org/1999/xlink" viewBox="0 0 959 770.33"><defs><style>.cls-1{fill:none;}.cls-2{fill:#e5ddee;}.cls-3{fill:#b3b3b2;}.cls-4{fill:#fdffff;}.cls-5{fill:#f2e8d0;}.cls-6{fill:#f0f0f0;}.cls-7{fill:#d2c7ad;}.cls-8{fill:#fff;}.cls-9{fill:#97c883;}.cls-10{fill:#ffe9ba;}.cls-11{clip-path:url(#clip-path);}.cls-12{fill:#7bc9e9;}.cls-13{fill:#fce5a7;}.cls-14{fill:#8dc47d;}.cls-15{fill:#43b8dc;}.cls-16{fill:#e9565d;}.cls-17{fill:#2d4998;}</style><clipPath id="clip-path" transform="translate(-893.12 -0.67)"><rect class="cls-1" x="893.12" y="0.67" width="959" height="959"/></clipPath></defs><rect id="Rectangle_98" data-name="Rectangle 98" class="cls-2" width="959" height="770.33"/><path id="Path_1000" data-name="Path 1000" class="cls-3" d="M977.27,587.82l217.92-42.38,177.43,42.38,177.44-42.38L1768,587.82,1578.1,367.58,1245,373.35Z" transform="translate(-893.12 -0.67)"/><path id="Path_1001" data-name="Path 1001" class="cls-4" d="M1214.18,185.67l-160.36,77.22L977.27,587.78l217.92-99.9Z" transform="translate(-893.12 -0.67)"/><path id="Path_1002" data-name="Path 1002" class="cls-5" d="M1213,204.36l-16.06,255.39-185.75,85.49L1070.81,275Z" transform="translate(-893.12 -0.67)"/><path id="Path_1003" data-name="Path 1003" class="cls-6" d="M1372.62,274.91l-158.44-89.24-19,302.21,177.43,99.9Z" transform="translate(-893.12 -0.67)"/><path id="Path_1004" data-name="Path 1004" class="cls-6" d="M1768,587.82l-217.9-99.9-19-302.21,160.38,77.22,46.6,197.8,4.16,17.67Z" transform="translate(-893.12 -0.67)"/><path id="Path_1005" data-name="Path 1005" class="cls-4" d="M1372.62,274.91l158.44-89.24,19,302.21-177.44,99.9Z" transform="translate(-893.12 -0.67)"/><path id="Path_1006" data-name="Path 1006" class="cls-7" d="M1372.62,292.67V556.22l-175.68-96.47L1213,204.35Z" transform="translate(-893.12 -0.67)"/><path id="Path_1007" data-name="Path 1007" class="cls-7" d="M1734.05,545.24l-90.16-41.5-16.36-7.53-79.23-36.46-1.47-23.36-1.26-20.16-4.8-76.31-1-16.66-7.48-118.91L1618,246.94l16.61,8.25,39.8,19.77,14.88,67.46,5,22.77,19.86,90,4,18Z" transform="translate(-893.12 -0.67)"/><path id="Path_1008" data-name="Path 1008" class="cls-5" d="M1548.3,459.75l-175.68,96.47V292.67l159.62-88.27Z" transform="translate(-893.12 -0.67)"/><path id="Path_1009" data-name="Path 1009" class="cls-8" d="M1203.54,354.83l-1.32,21L1182,391.92l-9.94,79.3-15.38,7.07,11.14-88.93-40.11-42.69-102,132.69,7.69-34.82,83.77-109-48.37-51.45,2-9.06,7.17-3.57,98.57,104.87Z" transform="translate(-893.12 -0.67)"/><path id="Path_1010" data-name="Path 1010" class="cls-9" d="M1033.45,444.52l83.77-109-48.37-51.46Z" transform="translate(-893.12 -0.67)"/><path id="Path_1011" data-name="Path 1011" class="cls-9" d="M1011.19,545.24l145.48-67,11.14-88.94-40.13-42.63-102,132.69Z" transform="translate(-893.12 -0.67)"/><path id="Path_1012" data-name="Path 1012" class="cls-7" d="M1202.22,375.82l-5.28,83.93,63.35,34.78,70.16-136.86-34.58-17.08Z" transform="translate(-893.12 -0.67)"/><path id="Path_1013" data-name="Path 1013" class="cls-5" d="M1182,391.91l20.23-16.09-5.28,83.93L1172,471.2Z" transform="translate(-893.12 -0.67)"/><path id="Path_1014" data-name="Path 1014" class="cls-7" d="M1273.27,501.67l99.35,54.56V473.87l-65.17-38.79Z" transform="translate(-893.12 -0.67)"/><path id="Path_1015" data-name="Path 1015" class="cls-10" d="M1372.62,455.41V378.49l121.63-31.38,8.19,61.88-54.67,61.52Z" transform="translate(-893.12 -0.67)"/><g id="Group_29" data-name="Group 29"><g class="cls-11"><g id="Group_28" data-name="Group 28"><path id="Path_1016" data-name="Path 1016" class="cls-12" d="M1508.23,481.75l-45.72,25.1c-3.08-12-7.08-14.88-10.2-26-3.54-12.61-7-39.38,3.77-55.13,1.85-2.71,5-6.44,4.53-11.19a13.69,13.69,0,0,0-10.57-11.2c-2.4-.4-7.22-.28-21.15,15.5-10.83,12.3-52.35,29.29-56.27,27.4V385.16c6.93,1.6,23.77,3.61,36.64-5.4,16.68-11.68,22.85-11.39,34.49-15.2,13.25-4.35,32.54-2.31,42,10.23,14,18.44-.55,24,8.81,66.42,4.62,21,11,31.58,13.63,40.53" transform="translate(-893.12 -0.67)"/><path id="Path_1017" data-name="Path 1017" class="cls-13" d="M1314.66,420.94l29.08-56.71,28.88,14.26v76.93Z" transform="translate(-893.12 -0.67)"/><path id="Path_1018" data-name="Path 1018" class="cls-8" d="M1546.83,436.39,1512.15,421l-61.36,67.26-78.17-14.43V455.41l75.15,15.1L1502.45,409l-8.19-61.88-121.63,31.36V360.67L1492.12,331,1479,233.83l13.87-7.67L1506.45,329l33.31-5.7,1,16.66-29.87,5.24-2.3.41,7.82,59.36,29.15,11.29Z" transform="translate(-893.12 -0.67)"/><path id="Path_1019" data-name="Path 1019" class="cls-6" d="M1634.62,455.27l9.26,48.47-16.36-7.54-8.39-44.26-72.3-15.55-1.27-20.15,69.89,16.15-19.37-102.18-55.29,9.71-1-16.66,88.1-15.1-9.83-61.22,16.61,8.26,9.16,51.72,45.54,35.52,5,22.77L1638,323l-27.7,4.77L1631,436l83.26,19.25,4,18Z" transform="translate(-893.12 -0.67)"/><path id="Path_1020" data-name="Path 1020" class="cls-9" d="M1492.85,226.14,1506.45,329l33.31-5.71-7.48-118.91Z" transform="translate(-893.12 -0.67)"/><path id="Path_1021" data-name="Path 1021" class="cls-14" d="M1532.24,204.36,1618,247l9.83,61.22-88.11,15.1Z" transform="translate(-893.12 -0.67)"/><path id="Path_1022" data-name="Path 1022" class="cls-14" d="M1610.25,327.76,1638,323l56.39,42.21,19.86,90-83.27-19.26Z" transform="translate(-893.12 -0.67)"/><path id="Path_1023" data-name="Path 1023" class="cls-14" d="M1634.62,455.27l83.55,18,15.88,72-90.17-41.5Z" transform="translate(-893.12 -0.67)"/><path id="Path_1024" data-name="Path 1024" class="cls-14" d="M1540.77,339.93l55.29-9.72,19.39,102.18-69.87-16.15Z" transform="translate(-893.12 -0.67)"/><path id="Path_1025" data-name="Path 1025" class="cls-9" d="M1540.77,339.93l-32.18,5.65,7.83,59.36,29.14,11.29Z" transform="translate(-893.12 -0.67)"/><path id="Path_1026" data-name="Path 1026" class="cls-13" d="M1213,204.36,1286.53,245v80.36l-83,29.46Z" transform="translate(-893.12 -0.67)"/><path id="Path_1027" data-name="Path 1027" class="cls-10" d="M1213,204.36l-135,67.05,98.55,104.86,27-21.44Z" transform="translate(-893.12 -0.67)"/><path id="Path_1028" data-name="Path 1028" class="cls-15" d="M1372.62,385.16v61.08c-6.15-3.18-15.29-8.89-29.06-18.8-22.43-16.13-33.64-24.2-48.33-38.75-18.3-18.13-34.83-34.49-48.34-62.88A205.25,205.25,0,0,1,1231,276.72a210.77,210.77,0,0,1-3-52.54,74.29,74.29,0,0,1,1.28-10.82l41.7,23.06c-2,8.7-7.23,18-5.22,34.28,1.43,11.52,4.35,9.23,12.09,32.72,9,27.29,6.95,36.14,15.86,45.65,3.41,3.64,4.16,2.82,22.65,11.2,25.83,11.69,29,15.38,46.08,21.53,3.57,1.29,7,2.4,10.18,3.37" transform="translate(-893.12 -0.67)"/><path id="Path_1029" data-name="Path 1029" class="cls-6" d="M1372.62,378.48V360.67l-71.73-35.42V253L1286.54,245v80.36l-83,29.45-1.32,21,93.68-35.22,34.55,17.06-70.19,136.85,13,7.12,34.19-66.57,65.21,38.8V455.41l-58-34.48,29.08-56.71Z" transform="translate(-893.12 -0.67)"/><path id="Path_1030" data-name="Path 1030" class="cls-9" d="M1372.62,292.67,1479,233.84,1492.11,331l-119.49,29.7Z" transform="translate(-893.12 -0.67)"/><path id="Path_1031" data-name="Path 1031" class="cls-14" d="M1300.89,253v72.26l71.73,35.45v-68Z" transform="translate(-893.12 -0.67)"/><path id="Path_1032" data-name="Path 1032" class="cls-16" d="M1150.81,135.47a68.9,68.9,0,0,0-68.92,68.9v1c.64,56.11,47.47,66.08,67.33,125.6a1.66,1.66,0,0,0,2.11,1.06h0a1.71,1.71,0,0,0,1.07-1.06c19.85-59.52,66.67-69.49,67.32-125.6v-1a69,69,0,0,0-68.93-68.93m0,103.39a34.46,34.46,0,1,1,34.46-34.46h0a34.46,34.46,0,0,1-34.46,34.46" transform="translate(-893.12 -0.67)"/><path id="Path_1033" data-name="Path 1033" class="cls-4" d="M1185.28,204.39a34.48,34.48,0,1,1-34.48-34.48h0a34.48,34.48,0,0,1,34.47,34.46Z" transform="translate(-893.12 -0.67)"/><path id="Path_1034" data-name="Path 1034" class="cls-17" d="M1649.51,236.51a68.94,68.94,0,0,0-68.93,68.92v1c.65,56.1,47.48,66.08,67.33,125.6a1.68,1.68,0,0,0,2.13,1.05,1.65,1.65,0,0,0,1.06-1.05c19.85-59.52,66.68-69.5,67.33-125.6v-1a68.94,68.94,0,0,0-68.92-68.93h0m0,103.39A34.47,34.47,0,1,1,1684,305.42h0a34.46,34.46,0,0,1-34.46,34.46h0" transform="translate(-893.12 -0.67)"/><path id="Path_1035" data-name="Path 1035" class="cls-6" d="M1684,305.44A34.46,34.46,0,1,1,1649.53,271h0A34.47,34.47,0,0,1,1684,305.44Z" transform="translate(-893.12 -0.67)"/></g></g></g></svg>