<svg id="Laag_1" data-name="Laag 1" xmlns="http://www.w3.org/2000/svg" viewBox="0 0 144.83 200.18"><defs><style>.cls-1{fill:#d3d1cd;}.cls-2{fill:#f4a5ac;}.cls-3{fill:#ef7d8a;}.cls-4{fill:#f8cad1;}.cls-5{fill:#6c5457;}.cls-6{fill:#d95768;}.cls-7{fill:#fee318;}.cls-8{fill:#f8ae53;}</style></defs><ellipse class="cls-1" cx="67.88" cy="194.37" rx="56" ry="5.8"/><path class="cls-2" d="M358.77,216.5c-.7-.5-1.3.5-.8,1.1,0,.2.1.3.2.5,3.3,3.1-.6,7.5-3.7,8.8a5,5,0,0,1-2.4.3,10.91,10.91,0,0,0,.6-1.1c2.9-5.4-.5-15.3-7.6-11a6.9,6.9,0,0,0-2.2,8.8,11.59,11.59,0,0,0,2.8,3.4c-1.8.8-4,1.1-5.3.2-3.6-19.2-19.5-40.3-54.3-39.8a56.38,56.38,0,0,0-21.2,4.2A35.24,35.24,0,0,0,253,181.5c-4.3-2.1-10.9-3.4-15.6-2.3-4.2,1-6.7,4.2-5.3,8.6s4.1,8.1,6.2,12.2a52.73,52.73,0,0,1,2.2,4.9c-6.7,3.3-13,10.5-14.2,18.2-7.7,1.8-9.6,11.7-9.2,19.2-.4,5,.6,9.1,4.3,12.9a2.19,2.19,0,0,0,.5.3,16.31,16.31,0,0,0,7.6,5.4c2.3,4.1,6,7,9.7,10.1a38,38,0,0,0,6.9,5v1.7a29.31,29.31,0,0,0,1.2,8.6h28.6a45.17,45.17,0,0,0,1.3-5.6c3.7-1.6,11.7-2.4,12.2,1.8a34.1,34.1,0,0,0,.8,3.7h28.6a29.31,29.31,0,0,0,1.2-8.6,28.32,28.32,0,0,0-.2-3c0-.1.1-.2.1-.4a45.09,45.09,0,0,0,21-38.3c0-1.2-.1-2.4-.2-3.7a4.53,4.53,0,0,0,1.6.3,9.45,9.45,0,0,0,7.4-3,12.86,12.86,0,0,0,1.9.4c3.9.5,7.7-.7,9.4-4.6A6.66,6.66,0,0,0,358.77,216.5Zm-10.5,9a6.82,6.82,0,0,1-2.2-2.9c-.7-2.1,1.2-5.6,3.1-2.8C350.37,221.6,349.47,223.9,348.27,225.5Z" transform="translate(-216.99 -90.62)"/><path class="cls-3" d="M328.27,246.8a25.7,25.7,0,0,0,6.8-24.1,27.34,27.34,0,0,0-13.6-17.7C341.17,224.6,328.27,246.9,328.27,246.8Z" transform="translate(-216.99 -90.62)"/><path class="cls-3" d="M264.87,192A35.24,35.24,0,0,0,253,181.6c-4.3-2.1-10.9-3.4-15.6-2.3,0,0,14.4,1.7,14.5,19.7C253.17,198.3,271,189.3,264.87,192Z" transform="translate(-216.99 -90.62)"/><circle class="cls-4" cx="38.38" cy="146.98" r="7.6"/><path class="cls-5" d="M224.37,239.8c0-.4-.1-.7-.1-1.1-.2-1.5-1.4-4-3-1.9-.9,1.2-.6,3.6-.6,5s-.2,4.1,1.1,4.9a1.22,1.22,0,0,0,1.3,0c.5,0,.8-.7,1-1.4a9.29,9.29,0,0,0,.4-1.3A14.87,14.87,0,0,0,224.37,239.8Z" transform="translate(-216.99 -90.62)"/><path class="cls-5" d="M219.07,239a2.77,2.77,0,0,0-.1-.9c-.1-1.2-.7-3.2-1.5-1.5-.5,1-.3,2.8-.3,4,0,1-.1,3.3.6,3.9.3.2.5.2.7,0,.2,0,.4-.6.5-1.1a4.4,4.4,0,0,0,.2-1C219.17,241.4,219.17,240.1,219.07,239Z" transform="translate(-216.99 -90.62)"/><ellipse class="cls-5" cx="24.08" cy="128.37" rx="2.8" ry="3.4"/><path class="cls-3" d="M317.37,275.7a323.28,323.28,0,0,1-34.2,1.7,323.28,323.28,0,0,1-34.2-1.7h68.4Z" transform="translate(-216.99 -90.62)"/><path class="cls-6" d="M303.37,195c-8.9-2.8-18.3-3.6-27.2-.8-.6-1.8-1.2-3.4-1.8-5.2,10-3.1,20.6-2.2,30.6.9C304.37,191.7,303.87,193.2,303.37,195Z" transform="translate(-216.99 -90.62)"/><path class="cls-5" d="M286.27,144v3.5a.7.7,0,0,0,1.4,0V144A.7.7,0,0,0,286.27,144Z" transform="translate(-216.99 -90.62)"/><path class="cls-5" d="M291.57,146.1v4.6a.7.7,0,0,0,1.4,0v-4.6A.7.7,0,0,0,291.57,146.1Z" transform="translate(-216.99 -90.62)"/><path class="cls-5" d="M287,91.3v3.5a.7.7,0,0,0,1.4,0V91.3A.7.7,0,0,0,287,91.3Z" transform="translate(-216.99 -90.62)"/><path class="cls-5" d="M315,112.8v4.6a.7.7,0,0,0,1.4,0v-4.6A.7.7,0,0,0,315,112.8Z" transform="translate(-216.99 -90.62)"/><path class="cls-7" d="M306.17,173.4a16.5,16.5,0,1,1-16.5-16.5A16.52,16.52,0,0,1,306.17,173.4Z" transform="translate(-216.99 -90.62)"/><circle class="cls-8" cx="72.68" cy="82.77" r="13.2"/><path class="cls-7" d="M288.87,183.1v-2.4a6.4,6.4,0,0,1-3.6-1l.6-1.6a6,6,0,0,0,3.4,1c1.7,0,2.8-1,2.8-2.3s-.9-2.1-2.7-2.8c-2.4-.9-3.9-2-3.9-4.1s1.4-3.4,3.6-3.8v-2.4h1.5V166a6.07,6.07,0,0,1,3.1.8l-.6,1.6a5.71,5.71,0,0,0-3-.8c-1.8,0-2.5,1.1-2.5,2,0,1.2.9,1.8,2.9,2.7,2.4,1,3.7,2.2,3.7,4.3a4.07,4.07,0,0,1-3.7,4v2.5Z" transform="translate(-216.99 -90.62)"/><path class="cls-7" d="M306.17,122.7a16.5,16.5,0,1,1-16.5-16.5A16.52,16.52,0,0,1,306.17,122.7Z" transform="translate(-216.99 -90.62)"/><circle class="cls-8" cx="72.68" cy="32.07" r="13.2"/><path class="cls-7" d="M288.87,132.4V130a6.4,6.4,0,0,1-3.6-1l.6-1.6a6,6,0,0,0,3.4,1c1.7,0,2.8-1,2.8-2.3s-.9-2.1-2.7-2.8c-2.4-.9-3.9-2-3.9-4.1s1.4-3.4,3.6-3.8V113h1.5v2.3a6.07,6.07,0,0,1,3.1.8l-.6,1.6a5.71,5.71,0,0,0-3-.8c-1.8,0-2.5,1.1-2.5,2,0,1.2.9,1.8,2.9,2.7,2.4,1,3.7,2.2,3.7,4.3a4.07,4.07,0,0,1-3.7,4v2.5Z" transform="translate(-216.99 -90.62)"/><circle class="cls-7" cx="107.28" cy="56.68" r="16.5"/><circle class="cls-8" cx="107.28" cy="56.68" r="13.2"/><path class="cls-7" d="M323.47,157v-2.4a6.4,6.4,0,0,1-3.6-1l.6-1.6a6,6,0,0,0,3.4,1c1.7,0,2.8-1,2.8-2.3s-.9-2.1-2.7-2.8c-2.4-.9-3.9-2-3.9-4.1s1.4-3.4,3.6-3.8v-2.4h1.5v2.3a6.07,6.07,0,0,1,3.1.8l-.6,1.6a5.71,5.71,0,0,0-3-.8c-1.8,0-2.5,1.1-2.5,2,0,1.2.9,1.8,2.9,2.7,2.4,1,3.7,2.2,3.7,4.3a4.07,4.07,0,0,1-3.7,4V157Z" transform="translate(-216.99 -90.62)"/></svg>