<svg id="Laag_1" data-name="Laag 1" xmlns="http://www.w3.org/2000/svg" viewBox="0 0 564.85 166.79"><defs><style>.cls-1{fill:#e6deef;}.cls-2{fill:#eeeaf5;}.cls-3{fill:#ae9ecc;}.cls-4{fill:#1e408c;}.cls-5{fill:#fab717;}.cls-6{fill:#16070e;}.cls-7{fill:#22214b;}.cls-22,.cls-8{fill:none;stroke:#191536;stroke-linecap:round;stroke-miterlimit:10;}.cls-8{stroke-width:0.2px;}.cls-9{fill:#0d0e22;}.cls-10{fill:#f9bb8d;}.cls-11{fill:#4c2683;}.cls-12{fill:#dadada;}.cls-13{fill:#311b63;}.cls-14{fill:#f0a375;}.cls-15{fill:#00040d;}.cls-16{fill:#fff9e0;}.cls-17{fill:#86cdf2;}.cls-18{fill:#e7dfb5;}.cls-19{fill:#f39200;}.cls-20{fill:#ffdf00;}.cls-21{fill:#55afd7;}.cls-22{stroke-width:0.27px;}.cls-23{fill:#0083b1;}.cls-24{fill:#259cc6;}.cls-25{fill:#fff;}.cls-26{fill:#22120b;}.cls-27{fill:#c6c6c6;}.cls-28{fill:#2f363a;}.cls-29{fill:#b2b2b2;}.cls-30{fill:#7e2684;}.cls-31{fill:#ea5b0c;}.cls-32{fill:#f07f00;}.cls-33{fill:#f8aa00;}.cls-34{fill:#f59d16;}</style></defs><path class="cls-1" d="M392.12,340.27c-21.2,1.76-84.36,69-104.82,67.73S191.65,334.87,169,337.79c-16.77,2.16-124.77,108-155.64,123.7l66.83-1.43h498S413.31,338.52,392.12,340.27Z" transform="translate(-13.38 -337.7)"/><path class="cls-2" d="M578.23,460.05s-164.9-121.54-186.1-119.78a14.37,14.37,0,0,0-1.62.24c-9.1,12.5-16.62,19,14.52,41.45,47.18,34.14,25.55,24.86,31.39,58.54,1.19,7.22,6.44,13.48,12.72,19.55H578.23Z" transform="translate(-13.38 -337.7)"/><path class="cls-3" d="M117.14,362.26c-15.89-1.76-4.25,17.58-13,25.95-15.62,15,8,28.44-6.75,37.44S78.61,452,117.14,466.82c26.34-16,27-32.06,16.14-41.48s9-25.8-.3-33.21-3-28.45-15.84-29.87Z" transform="translate(-13.38 -337.7)"/><path class="cls-4" d="M116.7,493.35a.49.49,0,0,1-.49-.49V390.91a.49.49,0,0,1,1,0h0V492.86a.49.49,0,0,1-.49.49Z" transform="translate(-13.38 -337.7)"/><path class="cls-4" d="M116.7,450.85a.51.51,0,0,1-.37-.16L109,442.22a.49.49,0,0,1,.73-.64l7.39,8.49a.49.49,0,0,1-.09.68A.48.48,0,0,1,116.7,450.85Z" transform="translate(-13.38 -337.7)"/><path class="cls-4" d="M116.7,435.1a.47.47,0,0,1-.35-.15.48.48,0,0,1,0-.68h0l9.27-8.93a.49.49,0,0,1,.69,0,.5.5,0,0,1,0,.69h0L117,435a.45.45,0,0,1-.33.14Z" transform="translate(-13.38 -337.7)"/><path class="cls-5" d="M157.83,389c10.82-1.19,2.9,12,8.85,17.67,10.64,10.2-5.46,19.36,4.6,25.48s12.77,17.92-13.45,28c-17.93-10.9-18.34-21.83-11-28.26s-6.12-17.56.2-22.61,2-19.35,10.78-20.32Z" transform="translate(-13.38 -337.7)"/><path class="cls-4" d="M157.9,471.19a.49.49,0,0,1-.48-.49V401.31a.49.49,0,0,1,1,0V470.7A.49.49,0,0,1,157.9,471.19Z" transform="translate(-13.38 -337.7)"/><path class="cls-4" d="M157.9,442.26a.55.55,0,0,1-.32-.12.5.5,0,0,1-.05-.69h0l5-5.76a.49.49,0,1,1,.73.64h0l-5,5.76A.5.5,0,0,1,157.9,442.26Z" transform="translate(-13.38 -337.7)"/><path class="cls-4" d="M157.9,431.54a.51.51,0,0,1-.33-.13l-6.28-6.08a.49.49,0,0,1,0-.69h0a.49.49,0,0,1,.69,0l6.28,6.08a.5.5,0,0,1,0,.68.47.47,0,0,1-.35.15Z" transform="translate(-13.38 -337.7)"/><path class="cls-4" d="M157.9,414.89a.49.49,0,0,1-.48-.48.45.45,0,0,1,.14-.35l5-5a.49.49,0,0,1,.69,0h0a.49.49,0,0,1,0,.68h0l-5,5a.48.48,0,0,1-.34.14Z" transform="translate(-13.38 -337.7)"/><path class="cls-3" d="M511.29,363.14c-11.87-1.49-3.18,14.84-9.71,21.91-11.67,12.65,6,24-5.05,31.6s-14,22.23,14.76,34.76c19.67-13.51,20.13-27.06,12.05-35s6.71-21.78-.23-28-2.21-24-11.82-25.21Z" transform="translate(-13.38 -337.7)"/><path class="cls-4" d="M511,473.81a.39.39,0,0,1-.37-.41V387.33a.39.39,0,0,1,.37-.41.38.38,0,0,1,.36.41h0V473.4a.38.38,0,0,1-.36.41Z" transform="translate(-13.38 -337.7)"/><path class="cls-4" d="M511,437.94a.42.42,0,0,1-.28-.14l-5.51-7.15a.47.47,0,0,1,.09-.58.34.34,0,0,1,.46,0l5.51,7.16a.44.44,0,0,1-.06.58A.43.43,0,0,1,511,437.94Z" transform="translate(-13.38 -337.7)"/><path class="cls-4" d="M511,424.64a.35.35,0,0,1-.26-.13.45.45,0,0,1,0-.58h0l6.92-7.54a.34.34,0,0,1,.52,0,.45.45,0,0,1,0,.58h0l-6.92,7.54a.34.34,0,0,1-.26.12Z" transform="translate(-13.38 -337.7)"/><path class="cls-6" d="M401.48,498.63c-.31,1-4.65-1.2-5.33-2.09s-1.08-3.92-1.53-6.06c.27-1,2.15-.8,2.15-.8l1.85,1a17.65,17.65,0,0,0,.3,4.59c.45,1.53,3,2.13,2.56,3.35Z" transform="translate(-13.38 -337.7)"/><path class="cls-7" d="M426,431.57c6.92,6.64,5.22,31.52,5.22,31.52l-7.81-.51-6-18.17s-.48,17.38-2.06,21-7.65-2.65-7.65-2.65-6.05-21.22-1.35-33.34c3.1,0,17.63.67,19.61,2.15Z" transform="translate(-13.38 -337.7)"/><path class="cls-7" d="M399.11,491l-3-1.61s7.92-19.75,9.36-22.71a18.34,18.34,0,0,1,2.26-3.87l6.38-.71s2-1,1.27,3.36S399.11,491,399.11,491Z" transform="translate(-13.38 -337.7)"/><path class="cls-6" d="M425.09,497.32c.81.76,7.53,2,9.19,2.08,1,0,.59-1.15-.68-1.55-2.66-.83-5.51-3.67-5.51-3.67l-2.69-.1s-1.11,2.47-.31,3.24Z" transform="translate(-13.38 -337.7)"/><path class="cls-7" d="M428.63,494.2l-3.8-.14s-2.17-22.57-2.19-26a15.79,15.79,0,0,1,.78-5.44l3-1.91,4.83,2.42-2.6,31.11Z" transform="translate(-13.38 -337.7)"/><path class="cls-8" d="M397.42,490s12.3-24.38,13-28.09c.27-1.5-1.41-6.25-2.16-11.53-1.1-7.86-1.5-16.3-1.5-16.3m19.09,60.08s-.75-9.87-1-18.64c-.2-6.58.08-12.47,0-13.48-.2-2.35-5.22-16.35-5.22-16.35" transform="translate(-13.38 -337.7)"/><path class="cls-9" d="M424.56,380.34s2.27.13,1.95,3.37c-.13,1.4-2.22,5.84-2.22,5.84l-2.49-8.11,2.76-1.1Z" transform="translate(-13.38 -337.7)"/><path class="cls-10" d="M428.47,414.2l7.72,18.53a12.09,12.09,0,0,1,1.33.73c.34.23,1.35,1.92,1.72,2.28s-1.2,1.42-1.77,1.39-1.11-1.38-1.11-1.38-1.15-.29-1.33-.65a3.38,3.38,0,0,1,0-1.61l-9.66-17.85,3.15-1.44Z" transform="translate(-13.38 -337.7)"/><path class="cls-11" d="M433.36,433.54c-5.42-3.54-15.19-33-15.19-33s4.86-2.65,7-.81c3.54,3,3.51,8.49,5.05,14.73,1,4.19,4.84,13.32,6,17.53-.85,1.21-2.19,2-2.86,1.59Z" transform="translate(-13.38 -337.7)"/><path class="cls-12" d="M405.19,432.62c1,2.55,23,4.77,24.13,2.3s-1.79-13.91-2.12-19.53c-.31-5.06-.14-13.77-2-15.7-.92-.95-4.14-1.35-4.14-1.35l-4.82.29s-4.68.41-5.66,1.75-2.31,9.25-2.62,14.57c-.32,5.58-3.74,15.12-2.75,17.67Z" transform="translate(-13.38 -337.7)"/><path class="cls-13" d="M426.54,437.67a5,5,0,0,0,3.63-1.68c1.15-2.46-2-15.11-2.33-20.73-.3-5.06-.78-13.64-2.66-15.57-.92-.95-4.14-1.35-4.14-1.35a18.5,18.5,0,0,1,2.76,8.93c.3,5.42,1.51,30.17,2.74,30.4Z" transform="translate(-13.38 -337.7)"/><path class="cls-13" d="M405.19,432.62c.49,1.24,6.29,5.05,11.91,5.07,2.77,0,2.12-28.34,2-31.31s-2.91-7.75-2.91-7.75-4.68.41-5.66,1.75-2.31,9.25-2.62,14.57c-.32,5.58-3.74,15.12-2.75,17.67Z" transform="translate(-13.38 -337.7)"/><path class="cls-10" d="M425.52,391.05a12.46,12.46,0,0,1-2.08,4.36.9.9,0,0,1-.38.25,7.13,7.13,0,0,1-2.27.18l.25,2.5s1.69,1.77-.74,2a5.12,5.12,0,0,1-4.08-1.73l.14-4.49a13.34,13.34,0,0,0-.87-4.07c-.86-2.16-1.34-2.59-1.16-5.13.23-3.19,3.85-5.49,3.85-5.49l6,2.08s.3.57.61,1.35a8.23,8.23,0,0,1,.75,2.95c-.11,2.73.22,3.63-.06,5.22Z" transform="translate(-13.38 -337.7)"/><path class="cls-14" d="M420.79,395.84a4.72,4.72,0,0,1-2.39-.45,19.84,19.84,0,0,1-2-3.39,38.23,38.23,0,0,0,2.58,2.95,19.19,19.19,0,0,0,1.85.89Z" transform="translate(-13.38 -337.7)"/><path class="cls-14" d="M425.52,391.05a12.46,12.46,0,0,1-2.08,4.36.9.9,0,0,1-.38.25c0-.13.79-1.26,1.11-2.06a20.37,20.37,0,0,0,1.05-4.05,7.45,7.45,0,0,0-.65-2c-.14-.51.58-1,.29-2.61-.13-.75-1.63-1.3-1.63-1.3l1.6-.76a8.23,8.23,0,0,1,.75,2.95c-.11,2.73.22,3.63-.06,5.22Z" transform="translate(-13.38 -337.7)"/><path class="cls-9" d="M416.07,380.12c-1.51-.11-3,2.51-3.23,3.78s1.49,4.86,1.76,5.65,2.19.79,2.2-.12c0-.58,0-.36.3-1.25.57-1.89-.77-3.16-.29-3.69,2.13-2.37,4.5,2,8.05-1.54.49-.49,1.3-3.88-.8-4.61s-7.12-1-8,1.78Z" transform="translate(-13.38 -337.7)"/><path class="cls-10" d="M416.8,389.43c.93.14-.53,1.33-1.23,1.21a1.64,1.64,0,0,1-1.05-1.7c0-1,.67-1.46,1.17-1.38.87.15.48,1.77,1.11,1.87Z" transform="translate(-13.38 -337.7)"/><path class="cls-10" d="M401,417l17.73,9.44a11.73,11.73,0,0,1,1.49-.28c.4,0,2.26.63,2.77.68s0,1.85-.49,2.19-1.73-.37-1.73-.37-1.08.51-1.44.35a3.39,3.39,0,0,1-1.06-1.21l-18.79-7.68L401,417Z" transform="translate(-13.38 -337.7)"/><path class="cls-11" d="M417,428.82c-3.14.34-16.38-3.16-18.22-7.4-3.45-7.94,10-20.86,11.76-21s1,10,.25,12.06-4.77,5.33-4.47,6.39,8.32,4.42,11.88,6.95c.11,1.47-.42,2.93-1.2,3Z" transform="translate(-13.38 -337.7)"/><polygon class="cls-15" points="405.19 110.1 404.07 106.71 410.42 103.84 405.19 110.1 405.19 110.1"/><path class="cls-16" d="M387.11,389.89c-1.45,3.91-8.67,15.4-5.63,22.5,3.2,7.46,13.09,1.43,12.55.11s-2.81-4.46-2.91-6.29-3-8.6-1.58-10.53-1-9.71-2.43-5.79Z" transform="translate(-13.38 -337.7)"/><path class="cls-16" d="M382.21,414.83c-3.13-3.3-4-8.54-2.73-12.83,1.35-4.61,5.24-7.92,7.77-11.86a11.22,11.22,0,0,0,1.08-2.13s0-.05-.06,0a46.59,46.59,0,0,1-4.08,5.9,34.7,34.7,0,0,0-4,5.72,14.1,14.1,0,0,0,0,12.52,10,10,0,0,0,2,2.72s0,0,0,0Z" transform="translate(-13.38 -337.7)"/><path class="cls-16" d="M380.87,410.1a14.93,14.93,0,0,1-.37-5.07,13.52,13.52,0,0,1,1.3-4.25,40.75,40.75,0,0,1,2.19-3.86,26.41,26.41,0,0,0,2.38-4.33c0-.06-.07-.09-.1,0-.91,1.42-1.69,2.93-2.56,4.37a42.6,42.6,0,0,0-2.25,4.08,13.13,13.13,0,0,0-.67,9.13c0,.05.1,0,.08,0Z" transform="translate(-13.38 -337.7)"/><path class="cls-17" d="M401,432.15c.76,1.29.45,3.79.51,6.27,2.54,4.94,7.71,22.24,7.71,22.24l-6.55,5.21s-18.59-16.37-19.76-27.34c-.37-3.48,0-6.13,1.41-8.59,3,0,14.75.76,16.68,2.21Z" transform="translate(-13.38 -337.7)"/><path class="cls-6" d="M410,501.34c.91.58,7.59.53,9.2.28,1-.15.34-1.21-.94-1.35a18.94,18.94,0,0,1-5.92-2.12l-2.65,0s-.6,2.57.31,3.15Z" transform="translate(-13.38 -337.7)"/><path class="cls-17" d="M412.87,498.28h-3.71s-5.66-21.44-6.44-24.74a18.21,18.21,0,0,1,.26-8.88l-.46-6.09s4.55-2.18,6.71,2.09,3.64,37.62,3.64,37.62Z" transform="translate(-13.38 -337.7)"/><path class="cls-17" d="M397.14,432.83c1.26,10.68-5.63,33.44-7.49,37.31s-8.16-1.85-8.16-1.85-2.51-19.87-1-29.46a19,19,0,0,1,3.81-8.89s14.71,1.3,12.81,2.89Z" transform="translate(-13.38 -337.7)"/><path class="cls-6" d="M358.38,496.17c.1.88,1.91,4.24,3.59,6.12.36.4,2.51.78,3.38.81s.43-1.24-.46-1.6a3.72,3.72,0,0,1-1.58-1,9.81,9.81,0,0,1-1-4.47l-1.69-2s-2.39,1.14-2.27,2.22Z" transform="translate(-13.38 -337.7)"/><path class="cls-17" d="M362.59,496.52l-2.33-2.9s13.19-17.82,15.27-20.5a18.28,18.28,0,0,1,7.1-5.36l4.45-4.16s4.55,2.18,2.57,6.54-27.06,26.38-27.06,26.38Z" transform="translate(-13.38 -337.7)"/><path class="cls-18" d="M400.17,388.21s1.88-1.82,2.12.81c.45,5,2.83,10,2,18.06s-7,9.16-7,9.16l-3.87-13.83,6.73-14.2Z" transform="translate(-13.38 -337.7)"/><path class="cls-10" d="M403.87,425.39c.47,1.85,7.34,11.43,7.34,11.43a13.5,13.5,0,0,1,1.65.48c.43.17,2,1.79,2.45,2.1s-1,1.86-1.61,2-1.56-1.25-1.56-1.25-1.35,0-1.63-.38a3.82,3.82,0,0,1-.45-1.77s-8.95-7-9.63-10,3-4.4,3.44-2.56Z" transform="translate(-13.38 -337.7)"/><path class="cls-19" d="M402,429.26c-9.36-6.07-5-22.71-5-22.71a17.57,17.57,0,0,1,4,3.1c1.91,2,2.2,9.38,4.59,15.88-.07.88-3,3.49-3.59,3.73Z" transform="translate(-13.38 -337.7)"/><path class="cls-20" d="M384.09,429.58c.94,2.51,16.35,4.63,17.29,2.14a21.83,21.83,0,0,0,.74-9.31c-.11-.71,1.77-1.14,1.75-3.72,0-3.36-3.95-8.13-4.51-9.57a5,5,0,0,0-2.41-2.57l-7.68.12a5.59,5.59,0,0,0-3.26,1.82c-2.9,3.05-2.08,9.46-1.6,13.39.66,5.43-1.49,4.58-.32,7.7Z" transform="translate(-13.38 -337.7)"/><path class="cls-10" d="M395.46,403.45l-.09,2.44,1.58.66s2.61,3.64.05,3.87-7.73-3.75-7.73-3.75l1.85-.46.29-3.58a10.35,10.35,0,0,1-2.79-4.3c-.55-2.38,0-3.73.19-6.38.27-3.35,4.1-5.72,4.1-5.72l6,2.12a6,6,0,0,1,1,1.54,5.67,5.67,0,0,1,.46,3.25c-.46,2.84.31,3.92,0,5.59a12.2,12.2,0,0,1-2.58,4.52,1.51,1.51,0,0,1-1.39.45,3,3,0,0,1-.92-.25Z" transform="translate(-13.38 -337.7)"/><path class="cls-10" d="M377.64,424.15c-1.48,8,3.24,18,3.24,18a14.82,14.82,0,0,0-.71,1.71,28.71,28.71,0,0,0-.84,2.94c-.08.62,1.69,1.29,2.2.84a11.3,11.3,0,0,0,1.37-2.42s.87-1.14.77-1.62a4.18,4.18,0,0,0-1.11-1.62s-3.67-10.24-.81-18.38a15.33,15.33,0,0,0-4.11.57Z" transform="translate(-13.38 -337.7)"/><path class="cls-19" d="M376.85,425.18c.77-10.45,7.4-16.93,11-18,2.18-.81,4.78,4.75,2.72,7.89-1.81,2.5-6,3-7.93,9.9-.82.41-5.28.64-5.8.23Z" transform="translate(-13.38 -337.7)"/><path class="cls-14" d="M395.46,403.46a9,9,0,0,1-2-1,13,13,0,0,1-1.65-2.64s1.43,1.73,1.82,2.05c.67.55,1.85,1.64,1.85,1.64Z" transform="translate(-13.38 -337.7)"/><path class="cls-14" d="M400.35,398.73a12.2,12.2,0,0,1-2.58,4.52,1.51,1.51,0,0,1-1.39.45,6.13,6.13,0,0,0,1.32-.71c.43-.36.56-1.82,1.07-2.73a11,11,0,0,0,1.36-2.6c.25-1-.75-2.79-.85-3.35s.25-.71.36-1.78a8.58,8.58,0,0,0-.36-2.64h.61a5.67,5.67,0,0,1,.46,3.25c-.46,2.84.31,3.92,0,5.59Z" transform="translate(-13.38 -337.7)"/><path class="cls-16" d="M392,385.09a6,6,0,0,0-4.33,3.51c-1,2.11-.39,4.89.3,8.27.77,3.83,1.11,5.95,1.48,6.08s1.69,3.26,1.69,3.26a13.31,13.31,0,0,0-.13-5.85,6.36,6.36,0,0,1,0-3.46s.7,1.21,1.24,0a4.56,4.56,0,0,1,1.39-1.88c2.62-.37,6-2.49,6.8-5.09a2.19,2.19,0,0,0-1-3.53,23.33,23.33,0,0,0-7.42-1.31Z" transform="translate(-13.38 -337.7)"/><path class="cls-10" d="M391.4,398c-.06,1-.48.77-1,.74s-.91-.86-.85-1.85.68-1.19,1.21-1.16.72,1.28.65,2.27Z" transform="translate(-13.38 -337.7)"/><polygon class="cls-21" points="380.44 119.38 381.94 120.92 385.02 104.5 380.44 119.38 380.44 119.38"/><path class="cls-6" d="M493.44,498.17c.3.94,4.5-1.16,5.17-2s1-3.8,1.47-5.87c-.26-1-2.08-.77-2.08-.77l-1.79,1a16.88,16.88,0,0,1-.29,4.45c-.43,1.48-2.87,2.07-2.48,3.25Z" transform="translate(-13.38 -337.7)"/><path class="cls-7" d="M469.68,433.19c-6.71,6.44-5.06,30.55-5.06,30.55l7.56-.5L478,445.63s.47,16.85,2,20.35,7.41-2.57,7.41-2.57,5.86-20.55,1.32-32.3c-3,0-17.09.65-19,2.08Z" transform="translate(-13.38 -337.7)"/><path class="cls-7" d="M495.74,490.73l2.88-1.57s-7.67-19.13-9.07-22a17.15,17.15,0,0,0-2.19-3.76l-6.18-.69s-1.95-1-1.23,3.26,15.79,24.75,15.79,24.75Z" transform="translate(-13.38 -337.7)"/><path class="cls-6" d="M470,498.41c-.78.73-6.77.44-8.38.5-1,0-.56-1.12.66-1.5,2.58-.8,5.34-3.56,5.34-3.56l2.61-.09s.55,3.91-.23,4.65Z" transform="translate(-13.38 -337.7)"/><path class="cls-7" d="M467.14,493.87l3.68-.13s2.1-21.87,2.11-25.23a15.09,15.09,0,0,0-.75-5.27l-2.89-1.85-4.67,2.35,2.52,30.13Z" transform="translate(-13.38 -337.7)"/><path class="cls-22" d="M497.37,489.84s-11.91-23.61-12.57-27.21c-.26-1.45,1.37-6.05,2.1-11.17,1.07-7.62,1.45-15.79,1.45-15.79m-18.5,58.2s.74-9.56,1-18.05c.19-6.38-.08-12.09,0-13.07.19-2.28,5.06-15.83,5.06-15.83" transform="translate(-13.38 -337.7)"/><path class="cls-10" d="M462.43,418c-1.15.22-13.05,14.43-13.05,14.43a11.68,11.68,0,0,0-1.46.24c-.38.1-1.85,1.32-2.3,1.53s.64,1.67,1.17,1.83,1.46-.9,1.46-.9,1.14.11,1.42-.16a3.27,3.27,0,0,0,.57-1.45s13.93-11,14.59-13.18-1.26-2.56-2.4-2.34Z" transform="translate(-13.38 -337.7)"/><path class="cls-23" d="M452.09,432.85c2.58-.76,11.66-8,13.62-9.75s11-18.07,11-18.07-3.76-3.82-6.28-2.72c-4.13,1.81-6,9.71-9.16,15.06-2.13,3.6-8.79,10.15-11,13.74.46,1.35,1.07,1.93,1.82,1.74Z" transform="translate(-13.38 -337.7)"/><path class="cls-24" d="M489.84,434.21c-1,2.48-22.26,4.62-23.37,2.23s1.73-13.48,2-18.92c.3-4.9.14-13.34,2-15.21.9-.92,4-1.3,4-1.3l4.67.28s4.53.39,5.48,1.69,2.24,9,2.54,14.11c.32,5.41,3.62,14.65,2.66,17.12Z" transform="translate(-13.38 -337.7)"/><path class="cls-10" d="M470.15,393.94a12.08,12.08,0,0,0,2,4.23.94.94,0,0,0,.37.23,6.77,6.77,0,0,0,2.21.18l-.25,2.43-.15,7.62,4.82-7.34-.13-4.35a12.72,12.72,0,0,1,.84-3.95c.83-2.1,1.3-2.51,1.12-5-.22-3.09-3.73-5.32-3.73-5.32l-5.86,2s-.28.56-.59,1.31a8.14,8.14,0,0,0-.72,2.86c.1,2.65-.21,3.52.06,5.06Z" transform="translate(-13.38 -337.7)"/><path class="cls-25" d="M474.49,401c0,2.18-.15,7.62-.15,7.62l4.82-7.34s-3.32,2-4.67-.28Z" transform="translate(-13.38 -337.7)"/><path class="cls-14" d="M474.74,398.58a4.47,4.47,0,0,0,2.3-.44,18.73,18.73,0,0,0,2-3.28,36.54,36.54,0,0,1-2.51,2.86,18.11,18.11,0,0,1-1.78.86Z" transform="translate(-13.38 -337.7)"/><path class="cls-14" d="M470.15,393.94a12.08,12.08,0,0,0,2,4.23.94.94,0,0,0,.37.23c0-.12-.76-1.22-1.07-2a19.83,19.83,0,0,1-1-3.92,7.62,7.62,0,0,1,.64-1.94c.14-.49-.56-1-.29-2.53.14-.72,1.65-2,1.65-2h-1.62a8.14,8.14,0,0,0-.72,2.86c.1,2.65-.21,3.52.06,5.06Z" transform="translate(-13.38 -337.7)"/><path class="cls-26" d="M479.55,382.43c3,0,3.17,3.2,3.18,4.45,0,2-1.91,4.84-2.18,5.61s-2.11.76-2.13-.12c0-.56,0-.34-.29-1.21-.55-1.83.75-3.06.29-3.58-2.07-2.29-7.87-.19-9.14-2.1s.5-3.26,2.11-3.85,5.2.77,8.16.8Z" transform="translate(-13.38 -337.7)"/><path class="cls-10" d="M478.59,392.37c-.9.13.52,1.29,1.2,1.17a1.58,1.58,0,0,0,1-1.65c0-1-.64-1.41-1.12-1.33-.85.14-.47,1.71-1.09,1.81Z" transform="translate(-13.38 -337.7)"/><path class="cls-10" d="M493.46,419.35c-1.13,1.16-7,18.13-7,18.13a11.52,11.52,0,0,0-1.27.74c-.32.23-1.26,1.89-1.6,2.25s1.19,1.34,1.74,1.3,1-1.36,1-1.36,1.12-.31,1.28-.66a3.26,3.26,0,0,0,0-1.56s9.51-14,8.93-17.52-2-2.49-3.08-1.32Z" transform="translate(-13.38 -337.7)"/><path class="cls-23" d="M488.81,437.48c3,.33,8.73-13.25,8.56-17.73-.17-4.85-11-16.6-12.73-16.77s-1,9.67-.24,11.68,7,4.92,6.68,5.95-2.4,10.5-4.75,15.24c-.1,1.42,1.71,1.53,2.48,1.63Z" transform="translate(-13.38 -337.7)"/><polygon class="cls-15" points="463.5 111.22 464.58 107.93 458.43 105.16 463.5 111.22 463.5 111.22"/><path class="cls-12" d="M475.07,485.23l11.49,5.19a.8.8,0,0,0,.73-1.43l-10.9-6.33a1.45,1.45,0,0,0-1.45,2.5l.13.07Z" transform="translate(-13.38 -337.7)"/><path class="cls-27" d="M491,488.87c-.85.14-6.52,1.56-7,1.21s-.43,2.61.43,2.46l7-1.21c1-.18.42-2.61-.43-2.46Z" transform="translate(-13.38 -337.7)"/><path class="cls-12" d="M482.37,458.21a1,1,0,0,0,1.06-.76l2.46-9.72a1,1,0,0,0-2-.5L481.47,457a1,1,0,0,0,.73,1.23l.17,0Z" transform="translate(-13.38 -337.7)"/><path class="cls-28" d="M418.33,483a17.43,17.43,0,1,1,17.42,17.43A17.42,17.42,0,0,1,418.33,483Zm-4.05,0a21.47,21.47,0,1,0,21.47-21.47A21.47,21.47,0,0,0,414.28,483Z" transform="translate(-13.38 -337.7)"/><path class="cls-28" d="M432.77,483a3,3,0,1,0,3-3,3,3,0,0,0-3,3Z" transform="translate(-13.38 -337.7)"/><path class="cls-28" d="M487.94,483a17.43,17.43,0,1,1,17.42,17.43A17.42,17.42,0,0,1,487.94,483Zm-4.05,0a21.47,21.47,0,1,0,21.47-21.47A21.47,21.47,0,0,0,483.89,483Z" transform="translate(-13.38 -337.7)"/><path class="cls-28" d="M502.38,483a3,3,0,1,0,3-3,3,3,0,0,0-3,3Z" transform="translate(-13.38 -337.7)"/><path class="cls-12" d="M435.75,484.47a1.44,1.44,0,0,0,1.4-1.1l12-47.77a1.45,1.45,0,0,0-2.81-.7l-11.95,47.77a1.44,1.44,0,0,0,1,1.75,1.48,1.48,0,0,0,.35.05Z" transform="translate(-13.38 -337.7)"/><path class="cls-27" d="M468.58,484a7.13,7.13,0,1,0,7.13-7.12,7.13,7.13,0,0,0-7.13,7.12Z" transform="translate(-13.38 -337.7)"/><path class="cls-29" d="M472.09,484a3.61,3.61,0,1,0,3.62-3.61,3.61,3.61,0,0,0-3.62,3.61Z" transform="translate(-13.38 -337.7)"/><polygon class="cls-30" points="463.83 146.7 472.06 113.31 469.3 112.63 461.07 146.02 463.83 146.7 463.83 146.7"/><path class="cls-30" d="M475.59,485.48h0l30-1a1.4,1.4,0,0,0,1.28-1.49,1.37,1.37,0,0,0-1.37-1.4l-30,1a1.45,1.45,0,0,0,0,2.89Z" transform="translate(-13.38 -337.7)"/><path class="cls-30" d="M505.58,484.44a1.17,1.17,0,0,0,.87-.36,1.46,1.46,0,0,0,.06-1.9l-22.43-26.39a1.14,1.14,0,0,0-1.72-.05,1.44,1.44,0,0,0-.06,1.89L504.73,484a1.16,1.16,0,0,0,.85.42Z" transform="translate(-13.38 -337.7)"/><path class="cls-30" d="M476.75,483.09,448,448.45a2.55,2.55,0,0,0-3.92,3.26l.09.09L474.58,485a1.44,1.44,0,0,0,2.17-1.9Z" transform="translate(-13.38 -337.7)"/><path class="cls-30" d="M482.93,454.86l-35.74-11.12a2.35,2.35,0,0,0-2.83,1.34,1.9,1.9,0,0,0,1.21,2.6l.1,0,36.39,9.4a1.34,1.34,0,0,0,1.57-.84,1.07,1.07,0,0,0-.7-1.41Z" transform="translate(-13.38 -337.7)"/><polygon class="cls-30" points="427.06 118.1 430.95 119.04 434.57 104.17 430.69 103.23 427.06 118.1 427.06 118.1"/><path class="cls-12" d="M476.39,482.86l-11.25-5.68a.81.81,0,0,0-.8,1.4L475,485.37a1.44,1.44,0,1,0,1.55-2.43l-.12-.08Z" transform="translate(-13.38 -337.7)"/><path class="cls-31" d="M446.75,435.66c0,.88,2.3,2.47,2.3,2.47l2.18-2.28s-2-1.79-2.88-1.79a1.6,1.6,0,0,0-1.6,1.6Z" transform="translate(-13.38 -337.7)"/><path class="cls-32" d="M448.35,436.81a1.6,1.6,0,1,0,1.6-1.6,1.6,1.6,0,0,0-1.6,1.6Z" transform="translate(-13.38 -337.7)"/><path class="cls-33" d="M449.07,436.81a.88.88,0,1,0,1.75,0,.88.88,0,0,0-1.75,0Z" transform="translate(-13.38 -337.7)"/><path class="cls-34" d="M481,446.55l8.91.71a2,2,0,0,0,2.05-1.83h0a2,2,0,0,0-1.73-2.12s-6.83,1.35-9.4,1.24-2.65,1.78.17,2Z" transform="translate(-13.38 -337.7)"/><path class="cls-27" d="M460.67,478.54c.86-.11,6.58-1.28,7.07-.9s.54-2.59-.32-2.48l-7.07.9c-1.05.14-.54,2.59.32,2.48Z" transform="translate(-13.38 -337.7)"/></svg>