<svg id="Laag_1" data-name="Laag 1" xmlns="http://www.w3.org/2000/svg" xmlns:xlink="http://www.w3.org/1999/xlink" viewBox="0 0 893.56 770.52"><defs><style>.cls-1{fill:none;}.cls-2{fill:#81bae6;}.cls-3{clip-path:url(#clip-path);}.cls-4{fill:#f39519;}.cls-5{fill:#0e0d0c;}.cls-6{clip-path:url(#clip-path-2);}.cls-7{fill:#439a5c;}.cls-8{fill:#227833;}.cls-9{fill:#579640;}.cls-10{fill:#3d844e;}.cls-11,.cls-20{fill:#2359a3;}.cls-12{fill:#fff;}.cls-13{fill:#d7d8d8;}.cls-14{fill:#f4b4b0;}.cls-15{fill:#2f282a;}.cls-16{fill:#693716;}.cls-17{fill:#eeeeef;}.cls-18{fill:#8ab6e2;}.cls-19{fill:#1e5ea8;}.cls-20{font-size:37.73px;font-family:Arial-BoldMT, Arial;font-weight:700;}.cls-21{clip-path:url(#clip-path-4);}.cls-22{fill:#a1cef0;}.cls-23{fill:#247b33;}.cls-24{fill:#9cccef;}.cls-25{fill:#a8c9eb;}.cls-26{fill:#3281c3;}.cls-27{fill:#377cbf;}</style><clipPath id="clip-path" transform="translate(0.05 -0.48)"><rect class="cls-1" x="-0.05" y="0.46" width="893.54" height="893.54"/></clipPath><clipPath id="clip-path-2" transform="translate(0.05 -0.48)"><rect class="cls-1" x="-0.05" y="0.48" width="893.52" height="893.52"/></clipPath><clipPath id="clip-path-4" transform="translate(0.05 -0.48)"><path class="cls-1" d="M686.15,655.19s18.32,13.4,1.09,19.15,0,0,15.45,15.94-86.66,1.09-62.06,19.18c17.07,12.56,66.13,14.46,94.54,14.46,12.51,0,21-.37,21-.37s-44.07-16.67-25-16.9,40.27-1.68,28.27-7.23c-11.74-5.44-42.13-26-13.58-26,.65,0,1.35,0,2.06,0,1.28,0,2.54.05,3.77.05,29.43,0,42.32-11.13-13.6-23.53A182.61,182.61,0,0,0,699.46,645c-24.62,0-27.7,8.8-13.31,10.19"/></clipPath></defs><rect id="Rectangle_100" data-name="Rectangle 100" class="cls-2" width="893.52" height="759.39"/><g id="Group_37" data-name="Group 37"><g class="cls-3"><g id="Group_36" data-name="Group 36"><path id="Path_1040" data-name="Path 1040" class="cls-4" d="M44,463.32s-17.35,23.28-12.8,42.05a23.56,23.56,0,0,0-9.51,17.24c-.84,11.57,10.85,13.12,10.85,13.12s-16.32-3.27-19.53,6.14,10.69,31.22,34.15,24.44,22-25,8-30.42c0,0,16.52-17-1.35-30.36A44,44,0,0,0,44,463.32" transform="translate(0.05 -0.48)"/><path id="Path_1041" data-name="Path 1041" class="cls-5" d="M45.39,479,41.54,581.47h.18L45.58,479" transform="translate(0.05 -0.48)"/><path id="Path_1042" data-name="Path 1042" class="cls-5" d="M25.56,515.4a49.58,49.58,0,0,0,18,14.93l.08-.18a49.66,49.66,0,0,1-13.31-9.54,47.16,47.16,0,0,1-3.42-3.79c-.39-.48-.67-.86-.87-1.12l-.22-.32-.07-.1Z" transform="translate(0.05 -0.48)"/><path id="Path_1043" data-name="Path 1043" class="cls-5" d="M52.21,513l-8.64,7,.12.15,8.64-7" transform="translate(0.05 -0.48)"/><path id="Path_1044" data-name="Path 1044" class="cls-5" d="M39.39,479l5.92,12.14.17-.09L39.56,478.9" transform="translate(0.05 -0.48)"/><path id="Path_1045" data-name="Path 1045" class="cls-5" d="M21.48,547.17s5.4,7.58,18.75,7.58c1,0,2.06,0,3.16-.13v-.19c-1.1.09-2.15.13-3.15.13A26.46,26.46,0,0,1,26,550.81a19.41,19.41,0,0,1-3.28-2.58,9.73,9.73,0,0,1-.78-.85l-.19-.24-.05-.06,0,0Z" transform="translate(0.05 -0.48)"/></g></g></g><g id="Group_39" data-name="Group 39"><g class="cls-6"><g id="Group_38" data-name="Group 38"><path id="Path_1046" data-name="Path 1046" class="cls-5" d="M56.66,542.14l0,.08a14.79,14.79,0,0,1-12.71,7.07h-.49v.19h.49a14.8,14.8,0,0,0,9.86-3.62,14.45,14.45,0,0,0,3.07-3.63Z" transform="translate(0.05 -0.48)"/><path class="cls-7" d="M893.51,771V567.31c-69.61-1.14-123.67-1.09-173.34-1-95,.09-174.08.19-315.61-8.08C194.06,545.89,140.26,559.77,0,564V771Z" transform="translate(0.05 -0.48)"/></g></g></g><g id="Group_41" data-name="Group 41"><g class="cls-3"><g id="Group_40" data-name="Group 40"><path id="Path_1048" data-name="Path 1048" class="cls-8" d="M85,628.82h94.55a84.11,84.11,0,0,0-33.32-7.93c-17.52,0-61.22,7.93-61.22,7.93" transform="translate(0.05 -0.48)"/><path id="Path_1049" data-name="Path 1049" class="cls-8" d="M594,594.42s-13.4-17.75-24.7-20.43c0,0,18.28,1.12,26.09,11.8,0,0-7.86-31.55-27-45.31,0,0,21.48,7.24,33.33,37.52,0,0-2-20,15.69-28.41,0,0-10.8,19.92-7.52,35.57,0,0-.86-13.74,16.55-24.68,0,0-11.8,12.73-7.23,27.07,0,0-.72-10.71,12.48-17.84a27.33,27.33,0,0,0-8.24,23.82Z" transform="translate(0.05 -0.48)"/><path id="Path_1050" data-name="Path 1050" class="cls-9" d="M609.17,593.89s-18.86-25-34.75-28.75c0,0,25.72,1.57,36.72,16.61,0,0-11.07-44.4-37.94-63.75,0,0,30.22,10.17,46.91,52.79,0,0-2.73-28.14,22.09-40,0,0-15.21,28-10.58,50.06,0,0-1.22-19.33,23.28-34.73,0,0-16.6,17.92-10.19,38.09,0,0-1-15.06,17.57-25.1a38.52,38.52,0,0,0-11.6,33.53Z" transform="translate(0.05 -0.48)"/><path class="cls-10" d="M882,659.28c-5.23-15.76-23.72-28.31-56.88-31.12C724.77,619.65,490,574.77,334,579.88s-229.76,81-216.68,125.93a103,103,0,0,0,29.16,47.36A121.93,121.93,0,0,0,171.54,771H407.37c144.51-44,187.49-38.76,257.77-33.53,23.66,1.76,50.46,3.52,85.28,3.4h0C844.72,740.53,893.08,692.68,882,659.28Z" transform="translate(0.05 -0.48)"/><path id="Path_1063" data-name="Path 1063" class="cls-11" d="M277.1,662.3h80.84s-17.82-3.82-25.06-2.12c0,0-19.61-14.83-55.78,2.12" transform="translate(0.05 -0.48)"/><path id="Path_1064" data-name="Path 1064" class="cls-12" d="M183,466.91c13.83,13.4,9.57,78.5,9.57,78.5l54.9,9.36v13.4l-97.86,2.56Z" transform="translate(0.05 -0.48)"/><path id="Path_1065" data-name="Path 1065" class="cls-13" d="M183,466.91,183,467a23.55,23.55,0,0,1,5.17,9.47c4.06,12.32,5,31.92,5,47.08,0,6.21-.15,11.68-.31,15.6-.08,2-.16,3.53-.22,4.61,0,.54,0,.94-.06,1.24s0,.42,0,.42v.1l54.89,9.36v13.21l-97.6,2.55L183.12,467l-.1,0-.08.07.08-.07-.11,0-33.43,104,98.11-2.57V554.68l-55-9.38,0,.11h.11s.63-9.45.63-21.89a247.88,247.88,0,0,0-1.88-32.79,84.89,84.89,0,0,0-3.11-14.36,23.81,23.81,0,0,0-5.23-9.55l-.13-.12,0,.17Z" transform="translate(0.05 -0.48)"/><path id="Path_1066" data-name="Path 1066" class="cls-12" d="M125.74,460.12c5.59-3.74,45.15-3.42,57.28,6.79s-18.51,113-18.51,113L100.06,569s1.89-92.89,25.7-108.87" transform="translate(0.05 -0.48)"/><path id="Path_1067" data-name="Path 1067" class="cls-13" d="M125.74,460.12l.06.1a7.73,7.73,0,0,1,2.3-.91,64.21,64.21,0,0,1,14.37-1.26,124,124,0,0,1,22.66,2.06A41.12,41.12,0,0,1,183,467a7.72,7.72,0,0,1,2.14,4.25,34.21,34.21,0,0,1,.66,7.42c0,14.78-5.34,40.08-10.67,61.68-2.67,10.8-5.34,20.68-7.34,27.85-1,3.59-1.83,6.5-2.41,8.52-.3,1-.52,1.79-.68,2.32l-.24.81.1,0,0-.11-64.45-10.87,0,.1h.11s0-.36,0-1a471.5,471.5,0,0,1,4.57-52.13,201.14,201.14,0,0,1,7.7-33.94c3.43-10,7.8-17.95,13.35-21.67l-.06-.09-.06-.09c-6,4-10.58,12.85-14.11,23.81C101,516.75,100,569,100,569v.09L164.61,580l0-.1S170,562,175.32,540.41,186,493.51,186,478.68a34.05,34.05,0,0,0-.67-7.47,7.88,7.88,0,0,0-2.2-4.37,41.28,41.28,0,0,0-17.92-6.94,122.65,122.65,0,0,0-22.7-2.06,84.17,84.17,0,0,0-10.65.58,30.6,30.6,0,0,0-3.78.69,8.06,8.06,0,0,0-2.36.95Z" transform="translate(0.05 -0.48)"/><path id="Path_1068" data-name="Path 1068" class="cls-14" d="M264.46,613.65l27.77,48.56h20.69l-29.85-69.79Z" transform="translate(0.05 -0.48)"/><path id="Path_1069" data-name="Path 1069" class="cls-1" d="M264.46,613.65l-.1.06,27.8,48.62H313.1l-30-70.12-18.8,21.43.05.07.1-.06.09.08L283,592.65l29.7,69.44H292.3l-27.73-48.5-.11.06.09.08Z" transform="translate(0.05 -0.48)"/><path id="Path_1070" data-name="Path 1070" class="cls-15" d="M105.8,579.87l57.59-8.67s91.39-13.41,106.27-3.73,26.8,49.89,26.8,49.89L263,630.77,252.53,604s-84.88,29.79-119.15,17.87-27.58-42-27.58-42" transform="translate(0.05 -0.48)"/><path id="Path_1071" data-name="Path 1071" class="cls-15" d="M262.56,628.12,295,614.68a5.34,5.34,0,0,1,7,2.88l0,.12,1.46,3.78a5.34,5.34,0,0,1-2.92,6.86l-31.83,13.31a5.35,5.35,0,0,1-6.68-2.25L260,635.75a5.34,5.34,0,0,1,1.93-7.31,4.78,4.78,0,0,1,.64-.32" transform="translate(0.05 -0.48)"/><path id="Path_1072" data-name="Path 1072" class="cls-14" d="M244.56,616.63l31.12,61.8h20.69l-33.2-83Z" transform="translate(0.05 -0.48)"/><path id="Path_1073" data-name="Path 1073" class="cls-1" d="M244.56,616.63l-.11,0,31.15,61.87h20.94l-33.33-83.37-18.79,21.43,0,.07.11,0,.09.08,18.49-21.07,33.05,82.69H275.75l-31.08-61.74-.1,0,.09.08Z" transform="translate(0.05 -0.48)"/><path id="Path_1074" data-name="Path 1074" class="cls-16" d="M100.05,569l63.34,2.2s75.21-10.43,90.1-.75,26.81,49.89,26.81,49.89l-33.51,13.41L236.37,607s-84.89,29.78-119.15,17.87S100,569,100,569" transform="translate(0.05 -0.48)"/><path id="Path_1075" data-name="Path 1075" class="cls-15" d="M245.66,628.93l33.12-13.7a5.09,5.09,0,0,1,6.64,2.75c.05.11.09.22.13.33l2.18,6.49a5.1,5.1,0,0,1-2.86,6.32l-32.19,13.45a5.08,5.08,0,0,1-6.52-2.43l-3.11-6.24a5.09,5.09,0,0,1,2.3-6.82l.31-.15" transform="translate(0.05 -0.48)"/><rect id="Rectangle_105" data-name="Rectangle 105" class="cls-13" x="181.4" y="559.3" width="117.36" height="5.11"/><path id="Path_1076" data-name="Path 1076" class="cls-12" d="M129.41,461.17c-15.57-10.66-55.85,56.48-55.85,80.09S183,568.91,183,568.91l3.53-17.56-77.63-17.43s44.75-56.16,20.5-72.75" transform="translate(0.05 -0.48)"/><path id="Path_1077" data-name="Path 1077" class="cls-13" d="M129.41,461.17l.06-.1a6.64,6.64,0,0,0-3.81-1.15,14.13,14.13,0,0,0-7.31,2.61C109.16,468.38,98,483.26,89,499.07a173.6,173.6,0,0,0-11.13,23.42,58.43,58.43,0,0,0-4.44,18.77,10.53,10.53,0,0,0,4.75,8.06c5.26,4.16,14.44,7.47,25.24,10.09C135.87,567.27,183,569,183,569h.1l3.56-17.76-77.73-17.45,0,.1.08.07a205.33,205.33,0,0,0,13.86-20.26c6.92-11.56,13.87-26,13.87-37.49a17.2,17.2,0,0,0-7.25-15.17l-.06.1-.06.08a17,17,0,0,1,7.15,15c0,11.42-6.91,25.83-13.83,37.38-3.46,5.78-6.91,10.83-9.51,14.46-1.3,1.81-2.38,3.26-3.15,4.25-.38.5-.67.89-.88,1.14l-.31.4-.11.14,77.69,17.44-3.5,17.45.1,0v-.11l-1.23,0a572.29,572.29,0,0,1-58.58-5.69,177.34,177.34,0,0,1-34.36-8.32,39.38,39.38,0,0,1-11-6,9.91,9.91,0,0,1-4.12-7.44,64.75,64.75,0,0,1,5.68-21.89A189.81,189.81,0,0,1,101.6,480a89.88,89.88,0,0,1,12.85-14.29,19.15,19.15,0,0,1,11.21-5.59,6.41,6.41,0,0,1,3.7,1.11Z" transform="translate(0.05 -0.48)"/><path id="Path_1078" data-name="Path 1078" class="cls-14" d="M185.86,554.72s24.58-9.69,34.18,0-11.49,0-11.49,0,10.86,6.86,12.13,9.26-12.77-3.57-12.77-3.57,7.57,3.3,7.94,6.12-13-2.55-13-2.55-12.08,3.88-18.81,0Z" transform="translate(0.05 -0.48)"/><path id="Path_1079" data-name="Path 1079" class="cls-1" d="M185.86,554.72l0,.11.12-.05a66.67,66.67,0,0,1,20.88-4.25,15.78,15.78,0,0,1,15,6.47,2.6,2.6,0,0,1,.57,1.29.6.6,0,0,1-.07.27.59.59,0,0,1-.35.25,2,2,0,0,1-.68.09,13.14,13.14,0,0,1-3.4-.67c-2-.6-4.36-1.5-6.19-2.26l-2.25-1-.66-.3-.23-.1-.11.21.47.3c1,.67,3.68,2.39,6.19,4.19,1.26.9,2.48,1.83,3.46,2.66a9.39,9.39,0,0,1,2,2.06.42.42,0,0,1,.06.21.08.08,0,0,1,0,.07.22.22,0,0,1-.13.08.85.85,0,0,1-.32,0,11.85,11.85,0,0,1-2.94-.62c-1.89-.58-4.21-1.45-6.06-2.18l-2.29-.92-.67-.28-.24-.1-.1.22.32.14a35.77,35.77,0,0,1,4.21,2.3,13.22,13.22,0,0,1,2.24,1.77,3.46,3.46,0,0,1,1.09,1.81v.09a.5.5,0,0,1-.08.26.64.64,0,0,1-.38.24,2.68,2.68,0,0,1-.74.09,14.53,14.53,0,0,1-3.21-.52c-1.88-.47-4-1.19-5.65-1.78-.83-.29-1.54-.56-2-.75L203,564l-.21-.08,0,0h-.05l-.24.07a40.1,40.1,0,0,1-10.66,1.65,15.77,15.77,0,0,1-7.81-1.71L184,564l.12,0,1.86-9.26-.12,0,0,.11,0-.11-.11,0L183.84,564l.07,0a16,16,0,0,0,7.93,1.74,40.92,40.92,0,0,0,11-1.73l0-.11,0,.11s2.1.84,4.62,1.68c1.26.42,2.63.85,3.89,1.17a14.31,14.31,0,0,0,3.26.52,2.34,2.34,0,0,0,1-.17.82.82,0,0,0,.32-.26.77.77,0,0,0,.11-.39v-.12a4.08,4.08,0,0,0-1.43-2.22,21.44,21.44,0,0,0-4.15-2.8c-1.36-.73-2.42-1.19-2.43-1.2l-.09.22s2.43,1,5.18,2.07c1.38.52,2.83,1,4.1,1.42a12.07,12.07,0,0,0,3,.65,1.18,1.18,0,0,0,.49-.08.43.43,0,0,0,.16-.14.36.36,0,0,0,.06-.2.8.8,0,0,0-.09-.31,5.44,5.44,0,0,0-.91-1.12,55.65,55.65,0,0,0-6.74-5.19c-2.44-1.68-4.52-3-4.52-3l-.07.1,0,.11s2.34,1.08,5.11,2.16c1.39.54,2.88,1.07,4.24,1.48a13.6,13.6,0,0,0,3.46.68,2,2,0,0,0,.94-.19.69.69,0,0,0,.29-.27.76.76,0,0,0,.1-.39,2.74,2.74,0,0,0-.61-1.43,17.06,17.06,0,0,0-1.93-2.23,18.16,18.16,0,0,0-13.2-4.34,67.12,67.12,0,0,0-21.1,4.31l-.06,0v.06Z" transform="translate(0.05 -0.48)"/><path id="Path_1080" data-name="Path 1080" class="cls-13" d="M298.39,564.88H224.74l4.68-62h73.65Z" transform="translate(0.05 -0.48)"/><path id="Path_1081" data-name="Path 1081" class="cls-17" d="M301,564.88H228l4.69-62h72.91Z" transform="translate(0.05 -0.48)"/><path id="Path_1082" data-name="Path 1082" class="cls-14" d="M147.28,460.12a116.73,116.73,0,0,0,7-33.74c.32-16.28,13.58-19.21,24.73-13.46s3.36,45.21-11.95,38.67l-4.78,15.32a16.45,16.45,0,0,1-15-6.79" transform="translate(0.05 -0.48)"/><path id="Path_1083" data-name="Path 1083" class="cls-1" d="M147.28,460.12l.11.05a117,117,0,0,0,7-33.79,17.25,17.25,0,0,1,4.34-12.23,13.49,13.49,0,0,1,9.87-3.81A22.78,22.78,0,0,1,179,413a8.83,8.83,0,0,1,3.93,5.1,25.14,25.14,0,0,1,1.26,8.43,41.42,41.42,0,0,1-3.75,17.15,19.88,19.88,0,0,1-4.34,6.13,7.94,7.94,0,0,1-9,1.65l-.12-.05-4.82,15.44.12,0,0-.12h0a13,13,0,0,1-1.53.09,16.69,16.69,0,0,1-6.05-1.13,16.52,16.52,0,0,1-7.29-5.69l-.09.07.11.05-.11-.05-.1.07a16.58,16.58,0,0,0,13.52,6.93,9.49,9.49,0,0,0,1.6-.1h.07l4.81-15.4-.12,0,0,.11a8.15,8.15,0,0,0,9.21-1.7,24,24,0,0,0,6-10.2,43,43,0,0,0,2.17-13.25,25.32,25.32,0,0,0-1.26-8.51,8.92,8.92,0,0,0-4-5.23,23.11,23.11,0,0,0-10.44-2.72,13.74,13.74,0,0,0-10,3.89,17.51,17.51,0,0,0-4.4,12.39,99.58,99.58,0,0,1-3.63,22.95c-.86,3.2-1.7,5.89-2.33,7.78-.32.94-.58,1.69-.77,2.2l-.21.58-.07.2,0,.06,0,.05Z" transform="translate(0.05 -0.48)"/><path id="Path_1084" data-name="Path 1084" class="cls-5" d="M153.06,438.61s-11.32-28.54,1-28.39c0,0-4-10.54,6.6-12.67S179,411,192,410.22s0,14.14-11.92,11.37-16.17.85-17.23,7.66l-4.47-.21s-.21-5.75-3-6Z" transform="translate(0.05 -0.48)"/><path id="Path_1085" data-name="Path 1085" class="cls-14" d="M156.65,423.69s-4.46-4.22-7-.61,5.73,10.43,5.73,10.43" transform="translate(0.05 -0.48)"/><path id="Path_1086" data-name="Path 1086" class="cls-1" d="M156.73,423.62a10.13,10.13,0,0,0-1.39-1.05,6.06,6.06,0,0,0-3.07-1.06,3.24,3.24,0,0,0-2.74,1.51,2.86,2.86,0,0,0-.51,1.67,6.22,6.22,0,0,0,1,3,27,27,0,0,0,5.28,5.91l.15-.18-.07-.06a31.16,31.16,0,0,1-3.32-3.28,16.64,16.64,0,0,1-1.94-2.7,5.61,5.61,0,0,1-.85-2.7,2.62,2.62,0,0,1,.46-1.53,3,3,0,0,1,2.55-1.41,5.87,5.87,0,0,1,2.95,1,9.55,9.55,0,0,1,1,.7l.28.24.07.06,0,0Z" transform="translate(0.05 -0.48)"/><path id="Path_1129" data-name="Path 1129" class="cls-11" d="M235,683.52H329.6a84.16,84.16,0,0,0-33.33-7.93c-17.51,0-61.22,7.93-61.22,7.93" transform="translate(0.05 -0.48)"/><path id="Path_1130" data-name="Path 1130" class="cls-12" d="M792.06,513.1H368.39a12.23,12.23,0,0,1-12.23-12.23V49.1a12.23,12.23,0,0,1,12.22-12.23H792.06A12.23,12.23,0,0,1,804.28,49.1V500.87a12.22,12.22,0,0,1-12.22,12.23" transform="translate(0.05 -0.48)"/><path id="Path_1196" data-name="Path 1196" class="cls-18" d="M447.9,370.3v3.39h-.6V366.4h2.63c1.44,0,2.2.77,2.2,1.92a1.65,1.65,0,0,1-1.35,1.71c.74.17,1.25.66,1.25,1.9v.29a5.27,5.27,0,0,0,.09,1.48h-.59a4.92,4.92,0,0,1-.1-1.53V372c0-1.19-.36-1.69-1.75-1.69Zm0-.54h1.75c1.26,0,1.86-.48,1.86-1.43s-.58-1.4-1.71-1.4h-1.9Z" transform="translate(0.05 -0.48)"/><path id="Path_1197" data-name="Path 1197" class="cls-18" d="M453.83,371.15c0,1.33.68,2.16,1.67,2.16a1.43,1.43,0,0,0,1.49-1h.56a2,2,0,0,1-2.07,1.48c-1.57,0-2.2-1.37-2.2-2.69,0-1.5.74-2.78,2.27-2.78a2.16,2.16,0,0,1,2.14,2.19c0,.06,0,.12,0,.19v.42Zm3.28-.47a1.64,1.64,0,0,0-1.42-1.82h-.15c-1.07,0-1.56.75-1.67,1.83Z" transform="translate(0.05 -0.48)"/><path id="Path_1198" data-name="Path 1198" class="cls-18" d="M458.94,369.82v-1.35h.53c0,.18,0,.63,0,.93a1.63,1.63,0,0,1,1.57-1,1.47,1.47,0,0,1,1.51,1,1.78,1.78,0,0,1,1.7-1c.81,0,1.64.46,1.64,1.91v3.43h-.54v-3.37c0-.69-.25-1.45-1.21-1.45s-1.46.81-1.46,1.82v3h-.53v-3.35c0-.76-.23-1.47-1.18-1.47s-1.49.89-1.49,1.95v2.87H459Z" transform="translate(0.05 -0.48)"/><path id="Path_1199" data-name="Path 1199" class="cls-18" d="M467.72,371.15c0,1.33.69,2.16,1.68,2.16a1.44,1.44,0,0,0,1.49-1h.55a2,2,0,0,1-2.06,1.48c-1.57,0-2.2-1.37-2.2-2.69,0-1.5.74-2.78,2.27-2.78a2.17,2.17,0,0,1,2.14,2.19,1.15,1.15,0,0,0,0,.19v.42Zm3.28-.47a1.63,1.63,0,0,0-1.42-1.82h-.15c-1.07,0-1.55.75-1.67,1.83Z" transform="translate(0.05 -0.48)"/><path id="Path_1200" data-name="Path 1200" class="cls-18" d="M472.83,369.82v-1.35h.53c0,.18,0,.63,0,.93a1.62,1.62,0,0,1,1.57-1,1.48,1.48,0,0,1,1.51,1,1.77,1.77,0,0,1,1.7-1c.81,0,1.64.46,1.64,1.91v3.43h-.55v-3.37c0-.69-.24-1.45-1.21-1.45s-1.45.81-1.45,1.82v3h-.54v-3.35c0-.76-.22-1.47-1.17-1.47s-1.49.89-1.49,1.95v2.87h-.55Z" transform="translate(0.05 -0.48)"/><path id="Path_1201" data-name="Path 1201" class="cls-18" d="M481.48,366H482v3.34a1.77,1.77,0,0,1,1.77-1c1.24,0,2.14,1,2.14,2.62s-.81,2.85-2.27,2.85a1.61,1.61,0,0,1-1.64-.95,5.83,5.83,0,0,1,0,.82h-.53V366Zm3.89,5c0-1.29-.63-2.13-1.63-2.13-1.29,0-1.75.88-1.75,2.24s.41,2.22,1.69,2.22c1.05,0,1.69-.87,1.69-2.33" transform="translate(0.05 -0.48)"/><path id="Path_1202" data-name="Path 1202" class="cls-18" d="M487.36,371.15c0,1.33.69,2.16,1.68,2.16a1.44,1.44,0,0,0,1.49-1h.55a2,2,0,0,1-2.06,1.48c-1.57,0-2.2-1.37-2.2-2.69,0-1.5.74-2.78,2.27-2.78a2.17,2.17,0,0,1,2.14,2.19c0,.06,0,.12,0,.19v.42Zm3.29-.47a1.65,1.65,0,0,0-1.43-1.82h-.15c-1.06,0-1.55.75-1.66,1.83Z" transform="translate(0.05 -0.48)"/><path id="Path_1203" data-name="Path 1203" class="cls-18" d="M492.47,369.89v-1.42H493c0,.17,0,.51,0,1.17a2,2,0,0,1,1.81-1.29v.58a1.89,1.89,0,0,0-1.82,1.95s0,.08,0,.11v2.7h-.55Z" transform="translate(0.05 -0.48)"/><path id="Path_1204" data-name="Path 1204" class="cls-18" d="M498.56,369.82v-1.35h.54c0,.18,0,.63,0,.93a1.63,1.63,0,0,1,1.57-1,1.48,1.48,0,0,1,1.51,1,1.78,1.78,0,0,1,1.7-1c.81,0,1.64.46,1.64,1.91v3.43H505v-3.37c0-.69-.25-1.45-1.21-1.45s-1.46.81-1.46,1.82v3h-.53v-3.35c0-.76-.23-1.47-1.18-1.47s-1.49.89-1.49,1.95v2.87h-.57Z" transform="translate(0.05 -0.48)"/><path id="Path_1205" data-name="Path 1205" class="cls-18" d="M507.37,371.15c0,1.33.68,2.16,1.68,2.16a1.44,1.44,0,0,0,1.49-1h.55a2,2,0,0,1-2.07,1.48c-1.58,0-2.2-1.37-2.2-2.69,0-1.5.75-2.78,2.27-2.78a2.17,2.17,0,0,1,2.14,2.19c0,.06,0,.12,0,.19v.42Zm3.28-.47a1.64,1.64,0,0,0-1.42-1.82h-.15c-1.07,0-1.55.75-1.67,1.83Z" transform="translate(0.05 -0.48)"/><path id="Path_1206" data-name="Path 1206" class="cls-18" d="M474.42,254.05v4.42c0,1.92,1.09,2.42,2.11,2.42,1.22,0,2.12-.51,2.12-2.42v-4.42h.59v4.4c0,2.29-1.21,3-2.73,3a2.53,2.53,0,0,1-2.71-2.36,2,2,0,0,1,0-.54v-4.49Z" transform="translate(0.05 -0.48)"/><path id="Path_1207" data-name="Path 1207" class="cls-18" d="M481.09,259.9a1.37,1.37,0,0,0,1.47,1.08c.92,0,1.29-.43,1.29-1s-.25-.87-1.41-1.15c-1.36-.32-1.69-.74-1.69-1.43s.55-1.39,1.73-1.39a1.67,1.67,0,0,1,1.84,1.46h-.53a1.23,1.23,0,0,0-1.32-1c-.89,0-1.15.44-1.15.86s.25.71,1.27,1c1.48.35,1.84.84,1.84,1.62,0,.94-.77,1.54-1.88,1.54a1.82,1.82,0,0,1-2-1.57Z" transform="translate(0.05 -0.48)"/><path id="Path_1208" data-name="Path 1208" class="cls-18" d="M485.84,258.8c0,1.34.69,2.17,1.68,2.17a1.45,1.45,0,0,0,1.49-1h.55a2,2,0,0,1-2.06,1.48c-1.57,0-2.2-1.37-2.2-2.69,0-1.5.74-2.78,2.27-2.78a2.17,2.17,0,0,1,2.14,2.19c0,.06,0,.12,0,.19v.42Zm3.29-.47a1.62,1.62,0,0,0-1.42-1.81l-.15,0c-1.07,0-1.56.75-1.67,1.83Z" transform="translate(0.05 -0.48)"/><path id="Path_1209" data-name="Path 1209" class="cls-18" d="M491,257.55v-1.43h.53c0,.17,0,.51,0,1.17a2,2,0,0,1,1.81-1.29v.58a1.89,1.89,0,0,0-1.82,2,.34.34,0,0,0,0,.1v2.71H491Z" transform="translate(0.05 -0.48)"/><path id="Path_1210" data-name="Path 1210" class="cls-18" d="M494.35,257.44v-1.31h.53c0,.32,0,.65,0,1a1.71,1.71,0,0,1,1.73-1.11c.94,0,1.76.53,1.76,2v3.38h-.55v-3.3c0-.92-.38-1.52-1.28-1.52-1.23,0-1.66,1-1.66,2.15v2.67h-.54Z" transform="translate(0.05 -0.48)"/><path id="Path_1211" data-name="Path 1211" class="cls-18" d="M503.67,260.35a5.62,5.62,0,0,0,.08,1h-.53a3.63,3.63,0,0,1-.09-.8,1.7,1.7,0,0,1-1.71.92,1.55,1.55,0,0,1-1.72-1.36,1.48,1.48,0,0,1,0-.21c0-1.15.89-1.68,2.45-1.68h1v-.52c0-.52-.15-1.21-1.33-1.21s-1.2.55-1.32,1h-.54a1.63,1.63,0,0,1,1.77-1.48l.1,0c1.19,0,1.86.5,1.86,1.65Zm-.53-1.66h-1c-1.16,0-1.87.31-1.87,1.19a1.08,1.08,0,0,0,1.06,1.1h.13c1.48,0,1.69-1,1.69-2.1Z" transform="translate(0.05 -0.48)"/><path id="Path_1212" data-name="Path 1212" class="cls-18" d="M505.38,257.47v-1.35h.53c0,.18,0,.63,0,.93a1.64,1.64,0,0,1,1.58-1.05,1.48,1.48,0,0,1,1.51,1,1.76,1.76,0,0,1,1.7-1c.8,0,1.63.46,1.63,1.91v3.43h-.54V258c0-.7-.25-1.46-1.21-1.46s-1.45.81-1.45,1.82v3h-.54V258c0-.76-.22-1.47-1.18-1.47s-1.49.89-1.49,2v2.87h-.54Z" transform="translate(0.05 -0.48)"/><path id="Path_1213" data-name="Path 1213" class="cls-18" d="M514.17,258.8c0,1.34.68,2.17,1.68,2.17a1.46,1.46,0,0,0,1.49-1h.55a2,2,0,0,1-2.06,1.48c-1.59,0-2.2-1.37-2.2-2.69,0-1.5.74-2.78,2.27-2.78a2.18,2.18,0,0,1,2.14,2.19,1.15,1.15,0,0,0,0,.19v.42Zm3.28-.47a1.62,1.62,0,0,0-1.41-1.81l-.16,0c-1.07,0-1.56.75-1.67,1.83Z" transform="translate(0.05 -0.48)"/><path id="Path_1214" data-name="Path 1214" class="cls-18" d="M519,261.88l2.94-7.94h.55l-2.94,7.94Z" transform="translate(0.05 -0.48)"/><path id="Path_1215" data-name="Path 1215" class="cls-18" d="M524,258.8c0,1.34.68,2.17,1.68,2.17a1.46,1.46,0,0,0,1.49-1h.55a2,2,0,0,1-2.07,1.48c-1.57,0-2.2-1.37-2.2-2.69,0-1.5.75-2.78,2.28-2.78a2.17,2.17,0,0,1,2.13,2.19,1.28,1.28,0,0,1,0,.19v.42Zm3.28-.47a1.62,1.62,0,0,0-1.41-1.81l-.16,0c-1.07,0-1.56.75-1.67,1.83Z" transform="translate(0.05 -0.48)"/><path id="Path_1216" data-name="Path 1216" class="cls-18" d="M529.06,257.47v-1.35h.53c0,.18,0,.63,0,.93a1.63,1.63,0,0,1,1.57-1.05,1.47,1.47,0,0,1,1.51,1,1.78,1.78,0,0,1,1.7-1c.81,0,1.64.46,1.64,1.91v3.43h-.54V258c0-.7-.25-1.46-1.21-1.46s-1.46.81-1.46,1.82v3h-.53V258c0-.76-.23-1.47-1.18-1.47s-1.49.89-1.49,2v2.87h-.56Z" transform="translate(0.05 -0.48)"/><path id="Path_1217" data-name="Path 1217" class="cls-18" d="M541.32,260.35a6.73,6.73,0,0,0,.07,1h-.52a3.63,3.63,0,0,1-.09-.8,1.7,1.7,0,0,1-1.71.92,1.55,1.55,0,0,1-1.72-1.36,1.48,1.48,0,0,1,0-.21c0-1.15.89-1.68,2.45-1.68h1v-.52c0-.52-.15-1.21-1.33-1.21s-1.2.55-1.32,1h-.54a1.63,1.63,0,0,1,1.77-1.48l.1,0c1.19,0,1.86.5,1.86,1.65Zm-.53-1.66h-1c-1.15,0-1.87.31-1.87,1.19A1.08,1.08,0,0,0,539,261h.13c1.48,0,1.69-1,1.69-2.1Z" transform="translate(0.05 -0.48)"/><path id="Path_1218" data-name="Path 1218" class="cls-18" d="M543,253.66h.54v1H543Zm0,2.46h.54v5.22H543Z" transform="translate(0.05 -0.48)"/><rect id="Rectangle_108" data-name="Rectangle 108" class="cls-18" x="545.31" y="253.18" width="0.54" height="7.69"/><path id="Path_1219" data-name="Path 1219" class="cls-18" d="M473.46,309.5h2.62a2,2,0,0,1,2.24,1.73,1.51,1.51,0,0,1,0,.3,2,2,0,0,1-2,2.11,1.32,1.32,0,0,1-.34,0h-1.94v3.17h-.6Zm.6,3.59h2c1.17,0,1.66-.63,1.66-1.53a1.46,1.46,0,0,0-1.37-1.54H474Z" transform="translate(0.05 -0.48)"/><path id="Path_1220" data-name="Path 1220" class="cls-18" d="M483.28,315.78a6.63,6.63,0,0,0,.07,1h-.5a3,3,0,0,1-.1-.79,1.7,1.7,0,0,1-1.71.92,1.55,1.55,0,0,1-1.72-1.37,1.33,1.33,0,0,1,0-.2c0-1.15.88-1.67,2.45-1.67h1v-.53c0-.52-.16-1.21-1.33-1.21s-1.2.54-1.32,1h-.54a1.63,1.63,0,0,1,1.77-1.48h.1c1.19,0,1.86.51,1.86,1.66Zm-.53-1.65h-1c-1.16,0-1.87.3-1.87,1.19a1.09,1.09,0,0,0,1.06,1.11h.13c1.48,0,1.69-1,1.69-2.1Z" transform="translate(0.05 -0.48)"/><path id="Path_1221" data-name="Path 1221" class="cls-18" d="M485,315.34a1.38,1.38,0,0,0,1.47,1.08c.92,0,1.3-.43,1.3-1s-.25-.87-1.42-1.15c-1.35-.32-1.68-.74-1.68-1.43s.54-1.39,1.73-1.39a1.67,1.67,0,0,1,1.84,1.46h-.55a1.22,1.22,0,0,0-1.31-1c-.9,0-1.16.44-1.16.86s.25.71,1.28,1c1.48.35,1.84.84,1.84,1.62,0,.94-.77,1.54-1.88,1.54a1.83,1.83,0,0,1-2-1.57Z" transform="translate(0.05 -0.48)"/><path id="Path_1222" data-name="Path 1222" class="cls-18" d="M489.66,315.34a1.39,1.39,0,0,0,1.48,1.08c.91,0,1.28-.43,1.28-1s-.24-.87-1.4-1.15c-1.36-.32-1.69-.74-1.69-1.43s.54-1.39,1.73-1.39a1.67,1.67,0,0,1,1.84,1.46h-.54a1.23,1.23,0,0,0-1.32-1c-.9,0-1.16.44-1.16.86s.25.71,1.28,1c1.48.35,1.84.84,1.84,1.62,0,.94-.77,1.54-1.89,1.54a1.83,1.83,0,0,1-2-1.57Z" transform="translate(0.05 -0.48)"/><path id="Path_1223" data-name="Path 1223" class="cls-18" d="M494.32,311.56c.76,2.68,1.21,4.22,1.3,4.68h0c.08-.42.59-2,1.4-4.68h.58c1,3.22,1.26,4.14,1.35,4.55h0c.15-.57.39-1.36,1.34-4.55h.57l-1.65,5.22h-.59c-.56-1.85-1.23-4.09-1.34-4.57h0c-.1.52-.69,2.37-1.36,4.57h-.65l-1.53-5.22Z" transform="translate(0.05 -0.48)"/><path id="Path_1224" data-name="Path 1224" class="cls-18" d="M506.28,314.16a2.45,2.45,0,0,1-2.15,2.73l-.22,0c-1.41,0-2.29-1.16-2.29-2.73a2.43,2.43,0,0,1,2.11-2.72l.24,0c1.39,0,2.31,1.09,2.31,2.72m-4.09,0c0,1.24.66,2.23,1.76,2.23s1.75-.92,1.75-2.23-.63-2.23-1.77-2.23-1.74,1-1.74,2.23" transform="translate(0.05 -0.48)"/><path id="Path_1225" data-name="Path 1225" class="cls-18" d="M507.56,313v-1.42h.53c0,.17,0,.51,0,1.17a2,2,0,0,1,1.81-1.29V312a1.89,1.89,0,0,0-1.82,1.95.37.37,0,0,0,0,.11v2.71h-.55Z" transform="translate(0.05 -0.48)"/><path id="Path_1226" data-name="Path 1226" class="cls-18" d="M515,309.1v7.68h-.52c0-.12,0-.61,0-.87a1.71,1.71,0,0,1-1.75,1c-1.35,0-2.17-1.11-2.17-2.67s.89-2.8,2.31-2.8a1.6,1.6,0,0,1,1.61.78V309.1Zm-3.88,5.11c0,1.42.73,2.2,1.62,2.2,1.37,0,1.74-.94,1.74-2.35s-.31-2.1-1.65-2.1c-1,0-1.71.81-1.71,2.27" transform="translate(0.05 -0.48)"/><path id="Path_1227" data-name="Path 1227" class="cls-11" d="M442.71,312.88c8-9.34,14.89-.19,14.89-.19s-7.26,8.43-14.89.19" transform="translate(0.05 -0.48)"/><path id="Path_1228" data-name="Path 1228" class="cls-12" d="M452,312.59a1.82,1.82,0,1,1-1.82-1.82h0a1.83,1.83,0,0,1,1.82,1.82" transform="translate(0.05 -0.48)"/><path id="Path_1229" data-name="Path 1229" class="cls-11" d="M452.84,254.38a3.15,3.15,0,1,1-3.16-3.14,3.14,3.14,0,0,1,3.16,3.14" transform="translate(0.05 -0.48)"/><path id="Path_1230" data-name="Path 1230" class="cls-11" d="M444.6,262.54a5.09,5.09,0,1,1,10.17-.25v.25Z" transform="translate(0.05 -0.48)"/><path id="Path_1231" data-name="Path 1231" class="cls-18" d="M432.34,377.11a6.75,6.75,0,1,1,6.74-6.75h0a6.75,6.75,0,0,1-6.74,6.75m0-12.74a6,6,0,1,0,6,6,6,6,0,0,0-6-6" transform="translate(0.05 -0.48)"/><path id="Path_1232" data-name="Path 1232" class="cls-18" d="M661.89,364h4.44v.54h-3.85v2.74h3.61v.53h-3.61v3.49h-.59Z" transform="translate(0.05 -0.48)"/><path id="Path_1233" data-name="Path 1233" class="cls-18" d="M671.69,368.66a2.45,2.45,0,0,1-2.15,2.73l-.22,0c-1.41,0-2.29-1.16-2.29-2.74a2.42,2.42,0,0,1,2.11-2.71l.24,0c1.39,0,2.31,1.08,2.31,2.72m-4.09,0c0,1.24.67,2.23,1.76,2.23s1.75-.92,1.75-2.23-.63-2.23-1.77-2.23-1.74,1-1.74,2.23" transform="translate(0.05 -0.48)"/><path id="Path_1234" data-name="Path 1234" class="cls-18" d="M673,367.48v-1.42h.53c0,.17,0,.51,0,1.16a2,2,0,0,1,1.81-1.28v.58a1.89,1.89,0,0,0-1.82,2,.41.41,0,0,0,0,.11v2.7H673Z" transform="translate(0.05 -0.48)"/><path id="Path_1235" data-name="Path 1235" class="cls-18" d="M680.37,370.92c0,1.67-.74,2.55-2.26,2.55a1.83,1.83,0,0,1-2.05-1.57h.56a1.42,1.42,0,0,0,1.51,1.06c1.35,0,1.72-.88,1.72-2.21v-.53a1.62,1.62,0,0,1-1.73,1c-1.23,0-2.16-1-2.16-2.6s1-2.74,2.23-2.74c1.06,0,1.52.5,1.66.91,0-.31,0-.66,0-.78h.51c0,.19,0,1,0,1.51Zm-3.84-2.27c0,1.23.66,2.12,1.65,2.12,1.29,0,1.68-.86,1.68-2.2s-.41-2.12-1.65-2.12-1.68,1-1.68,2.2" transform="translate(0.05 -0.48)"/><path id="Path_1236" data-name="Path 1236" class="cls-18" d="M682.21,368.74c0,1.33.68,2.16,1.68,2.16a1.45,1.45,0,0,0,1.49-1h.55a2,2,0,0,1-2.06,1.48c-1.59,0-2.2-1.37-2.2-2.7,0-1.49.74-2.77,2.27-2.77a2.16,2.16,0,0,1,2.13,2.18,1.15,1.15,0,0,1,0,.19v.43Zm3.28-.47c0-1-.56-1.83-1.58-1.83s-1.55.74-1.67,1.83Z" transform="translate(0.05 -0.48)"/><path id="Path_1237" data-name="Path 1237" class="cls-18" d="M686.54,366.06h1v-1.62h.54v1.62h1.24v.51h-1.24v3.37c0,.58.13.91.63.91a2.48,2.48,0,0,0,.54-.06v.47a1.8,1.8,0,0,1-.65.09c-.68,0-1.06-.33-1.06-1.17v-3.61h-1Z" transform="translate(0.05 -0.48)"/><path id="Path_1238" data-name="Path 1238" class="cls-18" d="M693.61,370.51v2.85h-.55v-7.3h.53a7.64,7.64,0,0,1,0,.94,1.91,1.91,0,0,1,1.82-1.06c1.23,0,2.09,1,2.09,2.6,0,1.89-1,2.88-2.27,2.88a1.68,1.68,0,0,1-1.64-.9m3.34-1.95c0-1.21-.58-2.11-1.61-2.11-1.26,0-1.77.79-1.77,2.2s.41,2.25,1.7,2.25c1.08,0,1.68-.91,1.68-2.34" transform="translate(0.05 -0.48)"/><path id="Path_1239" data-name="Path 1239" class="cls-18" d="M702.41,370.28a6.63,6.63,0,0,0,.07,1H702a3.57,3.57,0,0,1-.09-.8,1.73,1.73,0,0,1-1.71.93,1.57,1.57,0,0,1-1.72-1.37,1.48,1.48,0,0,1,0-.21c0-1.15.88-1.67,2.45-1.67h1v-.53c0-.51-.16-1.21-1.34-1.21s-1.2.55-1.31,1h-.54a1.62,1.62,0,0,1,1.76-1.48h.1c1.2,0,1.87.5,1.87,1.65Zm-.53-1.65h-1c-1.15,0-1.87.31-1.87,1.19a1.08,1.08,0,0,0,1.06,1.1h.13c1.49,0,1.69-1,1.69-2.1Z" transform="translate(0.05 -0.48)"/><path id="Path_1240" data-name="Path 1240" class="cls-18" d="M704.15,369.84a1.36,1.36,0,0,0,1.47,1.07c.92,0,1.29-.42,1.29-1s-.25-.87-1.41-1.16c-1.36-.31-1.69-.73-1.69-1.42s.54-1.39,1.73-1.39a1.67,1.67,0,0,1,1.84,1.46h-.54a1.23,1.23,0,0,0-1.32-1c-.9,0-1.16.44-1.16.85s.26.72,1.28,1c1.48.35,1.84.84,1.84,1.62,0,.94-.77,1.54-1.88,1.54a1.83,1.83,0,0,1-2-1.58Z" transform="translate(0.05 -0.48)"/><path id="Path_1241" data-name="Path 1241" class="cls-18" d="M708.79,369.84a1.37,1.37,0,0,0,1.47,1.07c.93,0,1.29-.42,1.29-1s-.24-.87-1.4-1.16c-1.36-.31-1.69-.73-1.69-1.42s.54-1.39,1.73-1.39A1.67,1.67,0,0,1,712,367.4h-.55a1.22,1.22,0,0,0-1.31-1c-.9,0-1.16.44-1.16.85s.25.72,1.28,1c1.48.35,1.84.84,1.84,1.62,0,.94-.77,1.54-1.89,1.54a1.82,1.82,0,0,1-2-1.58Z" transform="translate(0.05 -0.48)"/><path id="Path_1242" data-name="Path 1242" class="cls-18" d="M713.45,366.06c.77,2.68,1.21,4.22,1.3,4.68h0c.08-.42.6-2,1.41-4.68h.59c1,3.21,1.25,4.14,1.34,4.55h0c.15-.58.39-1.36,1.34-4.55H720l-1.64,5.22h-.6c-.56-1.85-1.23-4.09-1.33-4.57h0c-.11.51-.69,2.37-1.37,4.57h-.65l-1.53-5.22Z" transform="translate(0.05 -0.48)"/><path id="Path_1243" data-name="Path 1243" class="cls-18" d="M725.41,368.66a2.45,2.45,0,0,1-2.15,2.73l-.22,0c-1.41,0-2.29-1.16-2.29-2.74a2.42,2.42,0,0,1,2.11-2.71l.23,0c1.4,0,2.32,1.08,2.32,2.72m-4.09,0c0,1.24.67,2.23,1.76,2.23s1.75-.92,1.75-2.23-.63-2.23-1.77-2.23-1.74,1-1.74,2.23" transform="translate(0.05 -0.48)"/><path id="Path_1244" data-name="Path 1244" class="cls-18" d="M726.69,367.48v-1.42h.53c0,.17,0,.51,0,1.16a2,2,0,0,1,1.82-1.28v.58a1.89,1.89,0,0,0-1.82,2v2.81h-.54Z" transform="translate(0.05 -0.48)"/><path id="Path_1245" data-name="Path 1245" class="cls-18" d="M734.14,363.6v7.68h-.53c0-.12,0-.61,0-.87a1.7,1.7,0,0,1-1.74,1c-1.36,0-2.18-1.11-2.18-2.67s.89-2.8,2.31-2.8c1,0,1.46.44,1.61.77V363.6Zm-3.89,5.11c0,1.43.73,2.21,1.63,2.21,1.36,0,1.73-.95,1.73-2.36s-.31-2.1-1.64-2.1c-1,0-1.72.81-1.72,2.27" transform="translate(0.05 -0.48)"/><path id="Path_1246" data-name="Path 1246" class="cls-11" d="M729.41,460.05H431.06a5.49,5.49,0,0,1-5.49-5.49h0V431.23a5.49,5.49,0,0,1,5.49-5.49H729.41a5.48,5.48,0,0,1,5.48,5.49v23.33a5.48,5.48,0,0,1-5.48,5.49" transform="translate(0.05 -0.48)"/><path id="Path_1247" data-name="Path 1247" class="cls-18" d="M717.74,330.07h-275a17.61,17.61,0,0,1,0-35.21H717.74a17.61,17.61,0,0,1,0,35.21m-275-34.31a16.71,16.71,0,1,0,0,33.41h275a16.71,16.71,0,1,0,0-33.41h-275Z" transform="translate(0.05 -0.48)"/><path id="Path_1248" data-name="Path 1248" class="cls-18" d="M717.74,274.85h-275a17.61,17.61,0,0,1,0-35.21H717.74a17.61,17.61,0,0,1,0,35.21m-275-34.31a16.71,16.71,0,0,0,0,33.41h275a16.71,16.71,0,0,0,0-33.41h-275" transform="translate(0.05 -0.48)"/><path id="Path_1249" data-name="Path 1249" class="cls-12" d="M564.08,437.57h1.74v7.83h4.69l-.2,1.44h-6.23Z" transform="translate(0.05 -0.48)"/><path id="Path_1250" data-name="Path 1250" class="cls-12" d="M577.84,443.38a3.35,3.35,0,1,1-3.28-3.59,3.25,3.25,0,0,1,3.3,3.19,2.68,2.68,0,0,1,0,.4m-5,0c0,1.39.63,2.29,1.66,2.29s1.63-.88,1.63-2.28-.59-2.29-1.66-2.29-1.63.79-1.63,2.28" transform="translate(0.05 -0.48)"/><path id="Path_1251" data-name="Path 1251" class="cls-12" d="M585.31,446.07c0,2.21-.85,3.57-3.34,3.57s-2.92-1.33-3-2.16h1.7a1.25,1.25,0,0,0,1.38.92c1.34,0,1.63-.84,1.63-2.27v-.4a2.07,2.07,0,0,1-2,1,3,3,0,0,1-2.88-3.09c0-.09,0-.19,0-.28a3.23,3.23,0,0,1,2.78-3.6l.22,0c1.23,0,1.75.58,1.87.94a6.8,6.8,0,0,1,.07-.78h1.57c0,.54,0,1.32,0,2Zm-4.78-2.73c0,1.28.65,2.07,1.59,2.07,1.26,0,1.61-.86,1.61-2.14s-.27-2.13-1.57-2.13c-1,0-1.63.79-1.63,2.2" transform="translate(0.05 -0.48)"/><path id="Path_1252" data-name="Path 1252" class="cls-12" d="M587.1,437h1.67v1.62H587.1Zm0,2.91h1.67v6.89H587.1Z" transform="translate(0.05 -0.48)"/><path id="Path_1253" data-name="Path 1253" class="cls-12" d="M590.6,441.69c0-.59,0-1.22,0-1.74h1.61c0,.19.06.75.07,1a2.13,2.13,0,0,1,2.06-1.12c1.35,0,2.28.89,2.28,2.65v4.4H595v-4.2c0-.87-.32-1.48-1.22-1.48s-1.46.63-1.46,1.91v3.77H590.6Z" transform="translate(0.05 -0.48)"/><path id="Path_1257" data-name="Path 1257" class="cls-11" d="M179,668.38h63.54s-32.91-15.32-63.54,0" transform="translate(0.05 -0.48)"/><path id="Path_1258" data-name="Path 1258" class="cls-19" d="M823.93,444.71S802.44,474,808.3,497.43a29.49,29.49,0,0,0-11.75,21.65c-.94,14.49,13.69,16.31,13.69,16.31s-20.43-3.94-24.37,7.86,13.64,39,42.94,30.26,27.35-31.41,9.77-38.12c0,0,20.51-21.35-2-38,0,0,9.76-29.26-12.7-52.72" transform="translate(0.05 -0.48)"/><path id="Path_1259" data-name="Path 1259" class="cls-5" d="M825.76,464.3l-3.9,128.25h.23L826,464.3" transform="translate(0.05 -0.48)"/><path id="Path_1260" data-name="Path 1260" class="cls-5" d="M801.28,510a61.8,61.8,0,0,0,22.59,18.52l.11-.22a62.18,62.18,0,0,1-16.74-11.82,60.12,60.12,0,0,1-4.31-4.72c-.48-.59-.85-1.07-1.09-1.4-.12-.16-.22-.29-.27-.37l-.1-.13Z" transform="translate(0.05 -0.48)"/><path id="Path_1261" data-name="Path 1261" class="cls-5" d="M834.59,506.81l-10.74,8.85.15.18L834.75,507" transform="translate(0.05 -0.48)"/><path id="Path_1262" data-name="Path 1262" class="cls-5" d="M818.25,464.36l7.53,15.12.21-.1-7.53-15.13" transform="translate(0.05 -0.48)"/><path id="Path_1263" data-name="Path 1263" class="cls-5" d="M796.46,549.8s6.74,9.32,23.21,9.31c1.35,0,2.78-.05,4.27-.19l0-.24c-1.49.14-2.9.2-4.25.2A32.85,32.85,0,0,1,802,554.26a23.13,23.13,0,0,1-4.08-3.17c-.44-.43-.76-.79-1-1l-.23-.29-.06-.07,0,0Z" transform="translate(0.05 -0.48)"/><path id="Path_1264" data-name="Path 1264" class="cls-5" d="M840.43,543.2l0,0a17.81,17.81,0,0,1-4,4.72,18.21,18.21,0,0,1-12,4.32h-.45v.24h.45a18.53,18.53,0,0,0,12.43-4.59,17.83,17.83,0,0,0,3.83-4.6Z" transform="translate(0.05 -0.48)"/><text class="cls-20" transform="translate(425.76 143.92)">Login</text><path class="cls-11" d="M428.32,178.31V167.06h4.22a5.2,5.2,0,0,1,2.07.34,2.66,2.66,0,0,1,1.22,1,2.71,2.71,0,0,1,.44,1.48,2.53,2.53,0,0,1-.39,1.36,2.73,2.73,0,0,1-1.18,1,3,3,0,0,1,1.57,1,2.78,2.78,0,0,1,.55,1.71,3.24,3.24,0,0,1-.34,1.47,2.73,2.73,0,0,1-.82,1,3.32,3.32,0,0,1-1.23.56,7.31,7.31,0,0,1-1.82.19Zm1.49-6.53h2.43a5.27,5.27,0,0,0,1.42-.13,1.57,1.57,0,0,0,.86-.56,1.61,1.61,0,0,0,.29-1,1.84,1.84,0,0,0-.27-1,1.41,1.41,0,0,0-.77-.58,6.56,6.56,0,0,0-1.71-.16h-2.25Zm0,5.2h2.8a7.35,7.35,0,0,0,1,0,2.41,2.41,0,0,0,.86-.31,1.6,1.6,0,0,0,.57-.63,1.92,1.92,0,0,0,.22-.94A1.85,1.85,0,0,0,435,174a1.69,1.69,0,0,0-.89-.65,5.72,5.72,0,0,0-1.65-.19h-2.6Z" transform="translate(0.05 -0.48)"/><path class="cls-11" d="M444.27,175.68l1.43.18a3.51,3.51,0,0,1-1.25,1.94,3.78,3.78,0,0,1-2.34.69,3.7,3.7,0,0,1-2.83-1.1,4.28,4.28,0,0,1-1-3.09,4.49,4.49,0,0,1,1.06-3.19A3.58,3.58,0,0,1,442,170a3.46,3.46,0,0,1,2.67,1.12,4.41,4.41,0,0,1,1,3.13v.37h-6.08a3.08,3.08,0,0,0,.76,2,2.24,2.24,0,0,0,1.7.72,2.16,2.16,0,0,0,1.3-.4A2.64,2.64,0,0,0,444.27,175.68Zm-4.54-2.23h4.56a2.77,2.77,0,0,0-.53-1.54,2.12,2.12,0,0,0-1.71-.8,2.18,2.18,0,0,0-1.6.64A2.54,2.54,0,0,0,439.73,173.45Z" transform="translate(0.05 -0.48)"/><path class="cls-11" d="M452.75,175.32l1.36.18a3.53,3.53,0,0,1-1.14,2.2,3.31,3.31,0,0,1-2.25.79A3.49,3.49,0,0,1,448,177.4a4.44,4.44,0,0,1-1-3.14,5.7,5.7,0,0,1,.44-2.31,3,3,0,0,1,1.33-1.48,4,4,0,0,1,2-.5,3.45,3.45,0,0,1,2.17.67,3.12,3.12,0,0,1,1.08,1.91l-1.34.21a2.29,2.29,0,0,0-.68-1.24,1.8,1.8,0,0,0-1.18-.41,2.15,2.15,0,0,0-1.7.75,3.59,3.59,0,0,0-.65,2.37,3.65,3.65,0,0,0,.63,2.38,2,2,0,0,0,1.64.75,1.93,1.93,0,0,0,1.36-.5A2.52,2.52,0,0,0,452.75,175.32Z" transform="translate(0.05 -0.48)"/><path class="cls-11" d="M454.78,174.23a4.19,4.19,0,0,1,1.26-3.35,3.75,3.75,0,0,1,2.56-.91,3.68,3.68,0,0,1,2.75,1.1,4.21,4.21,0,0,1,1.07,3.05,5.29,5.29,0,0,1-.48,2.47,3.3,3.3,0,0,1-1.37,1.4,3.93,3.93,0,0,1-2,.5,3.68,3.68,0,0,1-2.77-1.09A4.43,4.43,0,0,1,454.78,174.23Zm1.42,0a3.51,3.51,0,0,0,.68,2.35,2.2,2.2,0,0,0,1.72.78,2.14,2.14,0,0,0,1.71-.79,3.5,3.5,0,0,0,.69-2.38,3.35,3.35,0,0,0-.69-2.29,2.19,2.19,0,0,0-1.71-.78,2.22,2.22,0,0,0-1.72.77A3.49,3.49,0,0,0,456.2,174.23Z" transform="translate(0.05 -0.48)"/><path class="cls-11" d="M464,178.31v-8.15h1.24v1.14a2.93,2.93,0,0,1,1-1,2.82,2.82,0,0,1,1.45-.37,2.7,2.7,0,0,1,1.49.38,2,2,0,0,1,.81,1.05,3,3,0,0,1,2.52-1.43,2.53,2.53,0,0,1,1.87.67,2.9,2.9,0,0,1,.65,2.07v5.6h-1.37v-5.14a3.7,3.7,0,0,0-.14-1.19,1.17,1.17,0,0,0-.49-.59,1.49,1.49,0,0,0-.83-.22,1.92,1.92,0,0,0-1.42.57,2.51,2.51,0,0,0-.57,1.83v4.74h-1.38V173a2.3,2.3,0,0,0-.34-1.38,1.27,1.27,0,0,0-1.1-.46,2,2,0,0,0-1.08.31,1.72,1.72,0,0,0-.72.9,5,5,0,0,0-.22,1.7v4.23Z" transform="translate(0.05 -0.48)"/><path class="cls-11" d="M482.71,175.68l1.43.18a3.56,3.56,0,0,1-1.25,1.94,3.78,3.78,0,0,1-2.34.69,3.68,3.68,0,0,1-2.83-1.1,4.28,4.28,0,0,1-1.05-3.09,4.49,4.49,0,0,1,1.06-3.19,3.57,3.57,0,0,1,2.75-1.14,3.46,3.46,0,0,1,2.67,1.12,4.41,4.41,0,0,1,1,3.13c0,.08,0,.2,0,.37H478.1a3.08,3.08,0,0,0,.76,2,2.24,2.24,0,0,0,1.7.72,2.16,2.16,0,0,0,1.3-.4A2.64,2.64,0,0,0,482.71,175.68Zm-4.54-2.23h4.55a2.7,2.7,0,0,0-.52-1.54,2.12,2.12,0,0,0-1.71-.8,2.18,2.18,0,0,0-1.6.64A2.54,2.54,0,0,0,478.17,173.45Z" transform="translate(0.05 -0.48)"/><path class="cls-11" d="M490.24,181.43V170.16h1.26v1.06a3.05,3.05,0,0,1,1-.94,2.87,2.87,0,0,1,1.36-.31,3.19,3.19,0,0,1,1.84.54,3.23,3.23,0,0,1,1.21,1.52,5.51,5.51,0,0,1,.41,2.14,5.38,5.38,0,0,1-.45,2.25,3.41,3.41,0,0,1-3.11,2.07,2.55,2.55,0,0,1-1.24-.29,2.84,2.84,0,0,1-.9-.74v4Zm1.25-7.15a3.49,3.49,0,0,0,.64,2.32,1.93,1.93,0,0,0,1.54.76,2,2,0,0,0,1.58-.78,3.76,3.76,0,0,0,.65-2.42,3.58,3.58,0,0,0-.64-2.33,1.92,1.92,0,0,0-1.53-.77,2,2,0,0,0-1.56.82A3.71,3.71,0,0,0,491.49,174.28Z" transform="translate(0.05 -0.48)"/><path class="cls-11" d="M504.3,177.3a5,5,0,0,1-1.48.92,4.23,4.23,0,0,1-1.52.27,3,3,0,0,1-2.07-.65,2.18,2.18,0,0,1-.72-1.68,2.13,2.13,0,0,1,.28-1.09,2.2,2.2,0,0,1,.71-.8,3.2,3.2,0,0,1,1-.45,10.72,10.72,0,0,1,1.23-.21,12.87,12.87,0,0,0,2.47-.47v-.37a1.55,1.55,0,0,0-.39-1.19,2.32,2.32,0,0,0-1.57-.46,2.43,2.43,0,0,0-1.44.34,2.1,2.1,0,0,0-.69,1.21l-1.35-.19a3.34,3.34,0,0,1,.61-1.4,2.69,2.69,0,0,1,1.22-.82,5.48,5.48,0,0,1,1.85-.29,4.94,4.94,0,0,1,1.69.25,2.13,2.13,0,0,1,1,.62,2,2,0,0,1,.43.94,7.25,7.25,0,0,1,.07,1.27v1.84a19.17,19.17,0,0,0,.09,2.44,3.2,3.2,0,0,0,.35,1h-1.44A2.78,2.78,0,0,1,504.3,177.3Zm-.11-3.08a10.44,10.44,0,0,1-2.26.52,4.8,4.8,0,0,0-1.21.28,1.24,1.24,0,0,0-.54.44,1.24,1.24,0,0,0,.22,1.58,1.79,1.79,0,0,0,1.23.37,2.9,2.9,0,0,0,1.42-.35,2.14,2.14,0,0,0,.91-.95,3.36,3.36,0,0,0,.23-1.39Z" transform="translate(0.05 -0.48)"/><path class="cls-11" d="M507.71,178.31v-8.15H509v1.23a3.31,3.31,0,0,1,.88-1.14,1.57,1.57,0,0,1,.89-.28,2.69,2.69,0,0,1,1.42.45l-.48,1.28a2,2,0,0,0-1-.3,1.34,1.34,0,0,0-.82.27,1.47,1.47,0,0,0-.51.76,5.49,5.49,0,0,0-.23,1.61v4.27Z" transform="translate(0.05 -0.48)"/><path class="cls-11" d="M516,177.07l.2,1.22a4.61,4.61,0,0,1-1,.13,2.37,2.37,0,0,1-1.17-.24,1.35,1.35,0,0,1-.58-.63,5,5,0,0,1-.17-1.63v-4.69h-1v-1.07h1v-2l1.37-.83v2.85H516v1.07h-1.39V176a2.3,2.3,0,0,0,.08.76.62.62,0,0,0,.24.27,1,1,0,0,0,.47.1A4,4,0,0,0,516,177.07Z" transform="translate(0.05 -0.48)"/><path class="cls-11" d="M521.18,174.23a4.19,4.19,0,0,1,1.26-3.35A3.75,3.75,0,0,1,525,170a3.68,3.68,0,0,1,2.75,1.1,4.21,4.21,0,0,1,1.07,3.05,5.29,5.29,0,0,1-.48,2.47A3.3,3.3,0,0,1,527,178a3.93,3.93,0,0,1-2,.5,3.68,3.68,0,0,1-2.77-1.09A4.43,4.43,0,0,1,521.18,174.23Zm1.42,0a3.51,3.51,0,0,0,.68,2.35,2.2,2.2,0,0,0,1.72.78,2.14,2.14,0,0,0,1.71-.79,3.5,3.5,0,0,0,.69-2.38,3.35,3.35,0,0,0-.69-2.29,2.19,2.19,0,0,0-1.71-.78,2.22,2.22,0,0,0-1.72.77A3.49,3.49,0,0,0,522.6,174.23Z" transform="translate(0.05 -0.48)"/><path class="cls-11" d="M530.76,178.31v-7.08h-1.22v-1.07h1.22v-.87a3.7,3.7,0,0,1,.15-1.22,1.75,1.75,0,0,1,.7-.87,2.58,2.58,0,0,1,1.41-.34,6.94,6.94,0,0,1,1.29.14l-.21,1.21a4.63,4.63,0,0,0-.81-.08,1.2,1.2,0,0,0-.89.27,1.48,1.48,0,0,0-.26,1v.75h1.59v1.07h-1.59v7.08Z" transform="translate(0.05 -0.48)"/><path class="cls-11" d="M542.19,177.07l.19,1.22a4.54,4.54,0,0,1-1,.13,2.37,2.37,0,0,1-1.17-.24,1.35,1.35,0,0,1-.58-.63,5,5,0,0,1-.17-1.63v-4.69h-1v-1.07h1v-2l1.38-.83v2.85h1.39v1.07H540.8V176a2.4,2.4,0,0,0,.07.76.62.62,0,0,0,.24.27,1,1,0,0,0,.47.1A4.24,4.24,0,0,0,542.19,177.07Z" transform="translate(0.05 -0.48)"/><path class="cls-11" d="M543.54,178.31V167.06h1.38v4a3.1,3.1,0,0,1,2.44-1.12,3.25,3.25,0,0,1,1.57.36,2.09,2.09,0,0,1,1,1,4.53,4.53,0,0,1,.29,1.82v5.17h-1.39v-5.17a2.2,2.2,0,0,0-.44-1.51,1.7,1.7,0,0,0-1.27-.47,2.28,2.28,0,0,0-1.16.32,1.78,1.78,0,0,0-.77.86,4.09,4.09,0,0,0-.23,1.51v4.46Z" transform="translate(0.05 -0.48)"/><path class="cls-11" d="M557.86,175.68l1.43.18A3.56,3.56,0,0,1,558,177.8a3.78,3.78,0,0,1-2.34.69,3.68,3.68,0,0,1-2.83-1.1,4.28,4.28,0,0,1-1-3.09,4.49,4.49,0,0,1,1.06-3.19,3.57,3.57,0,0,1,2.75-1.14,3.46,3.46,0,0,1,2.67,1.12,4.41,4.41,0,0,1,1,3.13c0,.08,0,.2,0,.37h-6.07a3.08,3.08,0,0,0,.76,2,2.24,2.24,0,0,0,1.7.72,2.16,2.16,0,0,0,1.3-.4A2.64,2.64,0,0,0,557.86,175.68Zm-4.54-2.23h4.55a2.7,2.7,0,0,0-.52-1.54,2.12,2.12,0,0,0-1.71-.8,2.18,2.18,0,0,0-1.6.64A2.54,2.54,0,0,0,553.32,173.45Z" transform="translate(0.05 -0.48)"/><path class="cls-11" d="M565.13,179l1.35.2a1.24,1.24,0,0,0,.47.91,2.26,2.26,0,0,0,1.4.38,2.44,2.44,0,0,0,1.48-.38,1.87,1.87,0,0,0,.71-1.08,9.34,9.34,0,0,0,.1-1.77,2.86,2.86,0,0,1-2.26,1.07,3.09,3.09,0,0,1-2.6-1.21,4.7,4.7,0,0,1-.92-2.91,5.47,5.47,0,0,1,.42-2.16,3.43,3.43,0,0,1,1.22-1.52,3.33,3.33,0,0,1,1.89-.54,2.93,2.93,0,0,1,2.38,1.17v-1H572v7a6.88,6.88,0,0,1-.38,2.7,2.87,2.87,0,0,1-1.23,1.26,4.34,4.34,0,0,1-2.07.46A3.9,3.9,0,0,1,566,181,2.23,2.23,0,0,1,565.13,179Zm1.15-4.89a3.5,3.5,0,0,0,.64,2.34,2,2,0,0,0,1.59.74,2,2,0,0,0,1.6-.74,3.42,3.42,0,0,0,.64-2.3,3.34,3.34,0,0,0-.66-2.25,2,2,0,0,0-1.6-.76,2,2,0,0,0-1.57.75A3.29,3.29,0,0,0,566.28,174.09Z" transform="translate(0.05 -0.48)"/><path class="cls-11" d="M574.12,178.31v-8.15h1.24v1.23a3.31,3.31,0,0,1,.88-1.14,1.56,1.56,0,0,1,.88-.28,2.66,2.66,0,0,1,1.42.45l-.47,1.28a2,2,0,0,0-1-.3,1.32,1.32,0,0,0-.81.27,1.47,1.47,0,0,0-.51.76,5.18,5.18,0,0,0-.23,1.61v4.27Z" transform="translate(0.05 -0.48)"/><path class="cls-11" d="M585,175.68l1.42.18a3.46,3.46,0,0,1-1.25,1.94,3.77,3.77,0,0,1-2.33.69,3.72,3.72,0,0,1-2.84-1.1,4.28,4.28,0,0,1-1.05-3.09,4.53,4.53,0,0,1,1.06-3.19,3.6,3.6,0,0,1,2.75-1.14,3.46,3.46,0,0,1,2.67,1.12,4.41,4.41,0,0,1,1,3.13c0,.08,0,.2,0,.37h-6.08a3.13,3.13,0,0,0,.76,2,2.27,2.27,0,0,0,1.71.72,2.15,2.15,0,0,0,1.29-.4A2.65,2.65,0,0,0,585,175.68Zm-4.54-2.23H585a2.7,2.7,0,0,0-.52-1.54,2.12,2.12,0,0,0-1.71-.8,2.16,2.16,0,0,0-1.6.64A2.49,2.49,0,0,0,580.41,173.45Z" transform="translate(0.05 -0.48)"/><path class="cls-11" d="M593.69,175.68l1.43.18a3.52,3.52,0,0,1-1.26,1.94,4.24,4.24,0,0,1-5.17-.41,4.32,4.32,0,0,1-1-3.09,4.49,4.49,0,0,1,1.06-3.19,3.56,3.56,0,0,1,2.74-1.14,3.46,3.46,0,0,1,2.67,1.12,4.37,4.37,0,0,1,1,3.13c0,.08,0,.2,0,.37h-6.08a3.19,3.19,0,0,0,.76,2,2.27,2.27,0,0,0,1.71.72,2.18,2.18,0,0,0,1.3-.4A2.71,2.71,0,0,0,593.69,175.68Zm-4.54-2.23h4.55a2.7,2.7,0,0,0-.52-1.54,2.12,2.12,0,0,0-1.71-.8,2.16,2.16,0,0,0-1.6.64A2.54,2.54,0,0,0,589.15,173.45Z" transform="translate(0.05 -0.48)"/><path class="cls-11" d="M596.85,178.31v-8.15h1.24v1.16a2.94,2.94,0,0,1,2.6-1.35,3.32,3.32,0,0,1,1.35.27,2.19,2.19,0,0,1,.93.69,2.94,2.94,0,0,1,.43,1,8.38,8.38,0,0,1,.07,1.35v5h-1.38v-5a3.66,3.66,0,0,0-.16-1.26,1.37,1.37,0,0,0-.57-.67,1.81,1.81,0,0,0-1-.25,2.27,2.27,0,0,0-1.53.56,2.75,2.75,0,0,0-.64,2.13v4.45Z" transform="translate(0.05 -0.48)"/><path class="cls-11" d="M606.87,178.31h-1.29V167.06H607v4a2.72,2.72,0,0,1,2.23-1.1,3.27,3.27,0,0,1,1.42.31,2.85,2.85,0,0,1,1.11.85,4.22,4.22,0,0,1,.68,1.32,5.6,5.6,0,0,1,.24,1.66,4.65,4.65,0,0,1-1,3.24,3.25,3.25,0,0,1-2.49,1.14,2.58,2.58,0,0,1-2.26-1.2Zm0-4.14a4.2,4.2,0,0,0,.4,2.12,2,2,0,0,0,3.33.28,3.57,3.57,0,0,0,.66-2.34,3.66,3.66,0,0,0-.63-2.36,1.91,1.91,0,0,0-1.53-.76,2,2,0,0,0-1.57.79A3.43,3.43,0,0,0,606.85,174.17Z" transform="translate(0.05 -0.48)"/><path class="cls-11" d="M614.34,168.65v-1.59h1.38v1.59Zm0,9.66v-8.15h1.38v8.15Z" transform="translate(0.05 -0.48)"/><path class="cls-11" d="M617.83,178.31V167.06h1.39v6.41l3.27-3.31h1.78l-3.11,3,3.43,5.13h-1.71l-2.69-4.17-1,.94v3.23Z" transform="translate(0.05 -0.48)"/><path class="cls-11" d="M631.27,175.68l1.42.18a3.46,3.46,0,0,1-1.25,1.94,4.24,4.24,0,0,1-5.17-.41,4.28,4.28,0,0,1-1-3.09,4.53,4.53,0,0,1,1-3.19A3.6,3.6,0,0,1,629,170a3.46,3.46,0,0,1,2.67,1.12,4.41,4.41,0,0,1,1,3.13c0,.08,0,.2,0,.37h-6.08a3.13,3.13,0,0,0,.76,2,2.27,2.27,0,0,0,1.71.72,2.13,2.13,0,0,0,1.29-.4A2.65,2.65,0,0,0,631.27,175.68Zm-4.54-2.23h4.55a2.7,2.7,0,0,0-.52-1.54,2.12,2.12,0,0,0-1.71-.8,2.16,2.16,0,0,0-1.6.64A2.54,2.54,0,0,0,626.73,173.45Z" transform="translate(0.05 -0.48)"/><path class="cls-11" d="M433.53,194.19l1.35.17a3.44,3.44,0,0,1-1.14,2.2,3.31,3.31,0,0,1-2.25.8,3.51,3.51,0,0,1-2.69-1.1,4.42,4.42,0,0,1-1-3.13,5.7,5.7,0,0,1,.44-2.31,3.08,3.08,0,0,1,1.33-1.49,4,4,0,0,1,1.95-.49,3.37,3.37,0,0,1,2.17.67,3.09,3.09,0,0,1,1.08,1.91l-1.34.2a2.2,2.2,0,0,0-.68-1.23,1.74,1.74,0,0,0-1.18-.42,2.13,2.13,0,0,0-1.69.75,3.53,3.53,0,0,0-.66,2.37,3.7,3.7,0,0,0,.63,2.39,2.07,2.07,0,0,0,1.65.74,1.93,1.93,0,0,0,1.35-.5A2.44,2.44,0,0,0,433.53,194.19Z" transform="translate(0.05 -0.48)"/><path class="cls-11" d="M435.55,193.1a4.22,4.22,0,0,1,1.26-3.36,3.81,3.81,0,0,1,2.56-.9,3.64,3.64,0,0,1,2.75,1.1,4.19,4.19,0,0,1,1.07,3,5.47,5.47,0,0,1-.47,2.48,3.44,3.44,0,0,1-1.38,1.4,4,4,0,0,1-2,.5,3.65,3.65,0,0,1-2.76-1.1A4.36,4.36,0,0,1,435.55,193.1Zm1.42,0a3.49,3.49,0,0,0,.68,2.34,2.2,2.2,0,0,0,1.72.78,2.16,2.16,0,0,0,1.71-.78,3.53,3.53,0,0,0,.69-2.39,3.35,3.35,0,0,0-.69-2.29,2.28,2.28,0,0,0-3.43,0A3.46,3.46,0,0,0,437,193.1Z" transform="translate(0.05 -0.48)"/><path class="cls-11" d="M444.81,197.17V189H446v1.14a3,3,0,0,1,1-1,2.93,2.93,0,0,1,1.46-.36,2.69,2.69,0,0,1,1.48.37,2,2,0,0,1,.82,1,2.91,2.91,0,0,1,2.52-1.42,2.47,2.47,0,0,1,1.86.67,2.86,2.86,0,0,1,.65,2.07v5.59h-1.37V192a3.78,3.78,0,0,0-.14-1.2,1.09,1.09,0,0,0-.48-.58A1.52,1.52,0,0,0,453,190a1.91,1.91,0,0,0-1.43.58,2.51,2.51,0,0,0-.57,1.83v4.73h-1.38v-5.29a2.32,2.32,0,0,0-.34-1.39,1.28,1.28,0,0,0-1.1-.46,2.05,2.05,0,0,0-1.08.31,1.76,1.76,0,0,0-.72.9,5,5,0,0,0-.22,1.7v4.23Z" transform="translate(0.05 -0.48)"/><path class="cls-11" d="M457.9,197.17V189h1.24v1.14a2.85,2.85,0,0,1,1-1,2.89,2.89,0,0,1,1.45-.36,2.66,2.66,0,0,1,1.48.37,2,2,0,0,1,.82,1,2.94,2.94,0,0,1,2.52-1.42,2.45,2.45,0,0,1,1.86.67,2.86,2.86,0,0,1,.66,2.07v5.59h-1.38V192a3.84,3.84,0,0,0-.13-1.2,1.11,1.11,0,0,0-.49-.58,1.5,1.5,0,0,0-.83-.23,1.88,1.88,0,0,0-1.42.58,2.51,2.51,0,0,0-.57,1.83v4.73h-1.38v-5.29a2.39,2.39,0,0,0-.34-1.39,1.32,1.32,0,0,0-1.11-.46,2.05,2.05,0,0,0-1.08.31,1.69,1.69,0,0,0-.71.9,5,5,0,0,0-.23,1.7v4.23Z" transform="translate(0.05 -0.48)"/><path class="cls-11" d="M476.34,197.17V196a3,3,0,0,1-2.59,1.39,3.31,3.31,0,0,1-1.34-.28,2.22,2.22,0,0,1-.93-.69,2.53,2.53,0,0,1-.43-1,6.77,6.77,0,0,1-.08-1.29v-5h1.38v4.52a8.9,8.9,0,0,0,.08,1.46,1.49,1.49,0,0,0,.55.86,1.79,1.79,0,0,0,1,.31,2.28,2.28,0,0,0,1.16-.32A1.73,1.73,0,0,0,476,195a4.41,4.41,0,0,0,.22-1.59V189h1.38v8.15Z" transform="translate(0.05 -0.48)"/><path class="cls-11" d="M479.74,197.17V189H481v1.16a2.93,2.93,0,0,1,2.6-1.34,3.32,3.32,0,0,1,1.35.26,2.2,2.2,0,0,1,.93.7,2.78,2.78,0,0,1,.43,1,8.16,8.16,0,0,1,.07,1.34v5H485v-5a3.66,3.66,0,0,0-.16-1.26,1.37,1.37,0,0,0-.57-.67,1.92,1.92,0,0,0-1-.25,2.27,2.27,0,0,0-1.52.56,2.78,2.78,0,0,0-.64,2.13v4.45Z" transform="translate(0.05 -0.48)"/><path class="cls-11" d="M488.49,187.51v-1.59h1.38v1.59Zm0,9.66V189h1.38v8.15Z" transform="translate(0.05 -0.48)"/><path class="cls-11" d="M495,195.94l.2,1.22a5.27,5.27,0,0,1-1,.12A2.32,2.32,0,0,1,493,197a1.33,1.33,0,0,1-.58-.62,4.8,4.8,0,0,1-.17-1.64V190.1h-1V189h1v-2l1.37-.83V189H495v1.08H493.6v4.76a2.36,2.36,0,0,0,.07.76.62.62,0,0,0,.24.27.89.89,0,0,0,.47.1A5.47,5.47,0,0,0,495,195.94Z" transform="translate(0.05 -0.48)"/><path class="cls-11" d="M496.28,200.31l-.15-1.3a2.76,2.76,0,0,0,.79.13,1.41,1.41,0,0,0,.73-.16,1.19,1.19,0,0,0,.46-.43,8,8,0,0,0,.42-1q0-.11.12-.33L495.56,189h1.49l1.69,4.72c.22.6.42,1.23.59,1.89a19.08,19.08,0,0,1,.57-1.86l1.74-4.75H503l-3.11,8.29a16.66,16.66,0,0,1-.77,1.85,2.77,2.77,0,0,1-.84,1,2,2,0,0,1-1.14.32A2.83,2.83,0,0,1,496.28,200.31Z" transform="translate(0.05 -0.48)"/><path class="cls-2" d="M882,659.28c-9.53-6-22.94-10.13-40.42-11.62-100.32-8.5-335.09-53.38-491.14-48.28s-229.75,81-216.68,125.93a104.32,104.32,0,0,0,12.7,27.86A121.93,121.93,0,0,0,171.54,771H407.37c144.51-44,187.49-38.76,257.77-33.53,23.66,1.76,50.46,3.52,85.28,3.4h0C844.73,740.53,893.09,692.68,882,659.28Z" transform="translate(0.05 -0.48)"/></g></g></g><g id="Group_43" data-name="Group 43"><g class="cls-21"><g id="Group_42" data-name="Group 42"><rect id="Rectangle_110" data-name="Rectangle 110" class="cls-22" x="616.08" y="644.52" width="178.01" height="78.93"/></g></g></g><g id="Group_45" data-name="Group 45"><g class="cls-3"><g id="Group_44" data-name="Group 44"><path id="Path_1268" data-name="Path 1268" class="cls-4" d="M888.91,692.5c1.94,4.81,1.43,11.9.17,18.58-1.79,9.49.86,40.32.86,40.32l-58-.49A68.28,68.28,0,0,1,819,745.1a32.73,32.73,0,0,1-10.32-8.91,16.88,16.88,0,0,1-1.67-3.07,13.93,13.93,0,0,1-.63-2c-3-12.62,18.87-9.35,20.84-15,.92-2.65-7-5.69-15.15-10.37-1.37-.79-2.75-1.62-4.09-2.52q-1.19-.78-2.34-1.62l-.23-.16c-.78-.58-1.55-1.19-2.28-1.81s-1.55-1.38-2.26-2.1a21.46,21.46,0,0,1-4.5-6.46,15.55,15.55,0,0,1-1.11-8.67l.06-.43a17.1,17.1,0,0,1,1.22-4.27,8,8,0,0,1,2.36-3.18c6.81-5.35,19.9,6.66,19.8,1.57-.1-6.32-9.65-9.39-2.79-15.79s-5.61-9.43-2-14.53,8.81-18.81.52-30.18c0,0,30.79,21.19,27.39,29.83S854,656.07,851,662.63s-8.62,14.38-3.36,14.6,8.55-7.11,16.67-.71-8.83,18.58-8.86,23.06c0,4,13.62-13.43,25.13-13a10,10,0,0,1,4.4,1.21,8.93,8.93,0,0,1,3.91,4.67" transform="translate(0.05 -0.48)"/><path id="Path_1269" data-name="Path 1269" class="cls-5" d="M856.86,740.5l-.28-.47a276.4,276.4,0,0,1-13.67-25.8c-6-13-11.7-28.42-11.95-40.53-.26-12.5-.31-22.37-1.33-30.28a33.32,33.32,0,0,0-7.1-18.6l-.08.08a33.22,33.22,0,0,1,7.06,18.55c1,7.91,1.08,17.76,1.34,30.26.28,13,6.76,29.67,13.17,43.14s12.75,23.72,12.75,23.72Z" transform="translate(0.05 -0.48)"/><path id="Path_1270" data-name="Path 1270" class="cls-5" d="M804.33,682.67,836.83,698l0-.1-32.5-15.31" transform="translate(0.05 -0.48)"/><path id="Path_1271" data-name="Path 1271" class="cls-5" d="M851.93,682.73l-13.59,21.13.1.06L852,682.8" transform="translate(0.05 -0.48)"/><path id="Path_1272" data-name="Path 1272" class="cls-5" d="M878.14,694.86l-28.39,33.27.09.08,28.39-33.28" transform="translate(0.05 -0.48)"/><path id="Path_1273" data-name="Path 1273" class="cls-5" d="M814.34,728.67l41,9.49,0-.11-41-9.48" transform="translate(0.05 -0.48)"/><path id="Path_1274" data-name="Path 1274" class="cls-5" d="M818.33,663.64l12.46,6.09.05-.1-12.46-6.1" transform="translate(0.05 -0.48)"/><path id="Path_1275" data-name="Path 1275" class="cls-5" d="M836.5,642.48l-6.35,7.8.09.07,6.35-7.8" transform="translate(0.05 -0.48)"/><path id="Path_1276" data-name="Path 1276" class="cls-5" d="M831.27,678.27l9.85-14.6-.1-.06-9.85,14.6" transform="translate(0.05 -0.48)"/><path id="Path_1277" data-name="Path 1277" class="cls-5" d="M819.66,646.54l10.75,8.69.07-.09-10.74-8.69" transform="translate(0.05 -0.48)"/><path id="Path_1288" data-name="Path 1288" class="cls-23" d="M509.46,745.32s-20.67-39.93-34.73-47.11c0,0,23.78,7.36,30.68,24,0,0-.27-44.2-21.07-68.5,0,0,26.05,16.45,32,60.26,0,0,3.86-27,29.87-32.49,0,0-20.67,22.83-21.35,44.56,0,0,3.26-18.41,29.77-27.28,0,0-19.66,13-18.25,33.43,0,0,2.48-14.37,22.21-19.55a30.06,30.06,0,0,0-18.21,26.07Z" transform="translate(0.05 -0.48)"/><path id="Path_1303" data-name="Path 1303" class="cls-18" d="M375.07,431.74s18.28,24.52,13.48,44.31a24.84,24.84,0,0,1,10,18.16c.89,12.2-11.43,13.84-11.43,13.84s17.19-3.46,20.57,6.47-11.25,32.89-36,25.75-23.22-26.3-8.46-32c0,0-17.4-17.87,1.42-32a46.33,46.33,0,0,1,10.37-44.48" transform="translate(0.05 -0.48)"/><path id="Path_1304" data-name="Path 1304" class="cls-5" d="M373.44,448.26l4.06,108h.21l-4.07-108" transform="translate(0.05 -0.48)"/><path id="Path_1305" data-name="Path 1305" class="cls-5" d="M394.38,486.5l-.07.11a52.16,52.16,0,0,1-18.78,15.54l.09.19a52.2,52.2,0,0,0,18.92-15.72Z" transform="translate(0.05 -0.48)"/><path id="Path_1306" data-name="Path 1306" class="cls-5" d="M366.34,484.27l9.1,7.38.13-.15-9.12-7.39" transform="translate(0.05 -0.48)"/><path id="Path_1307" data-name="Path 1307" class="cls-5" d="M379.79,448.17,373.55,461l.18.09L380,448.25" transform="translate(0.05 -0.48)"/><path id="Path_1308" data-name="Path 1308" class="cls-5" d="M398.68,520v0c-.34.45-6,7.88-19.58,7.88-1.06,0-2.16,0-3.32-.14v.2c1.16.1,2.27.14,3.33.14,14.07,0,19.75-8,19.76-8Z" transform="translate(0.05 -0.48)"/><path id="Path_1309" data-name="Path 1309" class="cls-5" d="M361.6,514.88a15,15,0,0,0,3.22,3.83,15.55,15.55,0,0,0,10.39,3.81h.52v-.19h-.51A15.34,15.34,0,0,1,365,518.55a15.56,15.56,0,0,1-2.41-2.59c-.26-.36-.45-.65-.58-.85l-.15-.24,0-.08Z" transform="translate(0.05 -0.48)"/><path id="Path_1310" data-name="Path 1310" class="cls-24" d="M97.27,188.58a34.25,34.25,0,0,1-23.71-10.16c-24.15-21.65,2-57.51,46.12-57.51a85.51,85.51,0,0,1,12.58,1,48.34,48.34,0,0,0,7.12.53c20.35,0,36.43-13.24,52.78-26.48s32.94-26.48,54.33-26.48a58.74,58.74,0,0,1,20,3.68c38.64,13.88-40.59,37.17,14.1,37.17,5.7,0,12.84-.25,21.72-.79q13.83-.84,25-.83a191.52,191.52,0,0,1,28.91,1.86v55.53a89.11,89.11,0,0,1-20.34,2,510.44,510.44,0,0,1-57.64-5.22,529.68,529.68,0,0,0-62.77-5.21,138.42,138.42,0,0,0-34.06,3.61C139.2,172,116.66,188.58,97.27,188.58" transform="translate(0.05 -0.48)"/><path id="Path_1311" data-name="Path 1311" class="cls-12" d="M356.15,166.05V110.53c38,5.94,32.5,25.31,15.52,46.84a27,27,0,0,1-15.52,8.69" transform="translate(0.05 -0.48)"/></g></g></g><g id="Group_47" data-name="Group 47"><g class="cls-6"><g id="Group_46" data-name="Group 46"><path id="Path_1313" data-name="Path 1313" class="cls-24" d="M804.28,204.38V150.25a103.9,103.9,0,0,1,39.1-7.42c1.26,0,2.54,0,3.83.06C908.05,144.8,874,204.29,809,204.3h-.45c-1.45,0-2.89,0-4.3.08" transform="translate(0.05 -0.48)"/></g></g></g><g id="Group_49" data-name="Group 49"><g class="cls-3"><g id="Group_48" data-name="Group 48"><path id="Path_1314" data-name="Path 1314" class="cls-12" d="M723.35,240.56a17.6,17.6,0,0,0-5.62-.92H652.31c-23.42-24.36,3.5-69.54,46.58-69.54a64,64,0,0,1,13.8,1.51,103.31,103.31,0,0,0,22.1,2.54c21.24,0,35.93-7.83,51.54-15.66,5.74-2.88,11.6-5.75,17.95-8.24v54.13c-27.6,1.12-47.09,12.86-64.13,24.6-5.81,4-11.32,8-16.8,11.58m-35.48,13.11a46.77,46.77,0,0,1-10.28-1.17,50,50,0,0,1-24.38-12h64.53a16.94,16.94,0,0,1,4.64.65c-11.07,7.15-22,12.48-34.51,12.48" transform="translate(0.05 -0.48)"/><path id="Path_1315" data-name="Path 1315" class="cls-25" d="M722.38,241.19a16.94,16.94,0,0,0-4.64-.65H653.21c-.31-.3-.6-.59-.89-.9h65.42a17.6,17.6,0,0,1,5.62.92l-1,.63" transform="translate(0.05 -0.48)"/><path id="Path_1317" data-name="Path 1317" class="cls-26" d="M318.94,715.64a150.55,150.55,0,0,1-18.28-3,35.65,35.65,0,0,1,9.55-1.61c5,0,7.57,1.89,8.73,4.66" transform="translate(0.05 -0.48)"/><path id="Path_1318" data-name="Path 1318" class="cls-27" d="M483.69,682.93H469l-.23,0q4.41-1.3,8.52-2.4c2.56.92,4.71,1.75,6.36,2.45" transform="translate(0.05 -0.48)"/></g></g></g></svg>