<svg id="Laag_1" data-name="Laag 1" xmlns="http://www.w3.org/2000/svg" viewBox="0 0 749.6 719.5"><defs><style>.cls-1{fill:#e0b19d;}.cls-2{fill:#ce372c;}.cls-3{fill:#333856;}.cls-4{fill:#4d4d4d;}.cls-5{fill:#efc1a8;}.cls-6{fill:#ee4a37;}.cls-7{fill:#d1d3d4;}.cls-8{fill:#2aa89b;}.cls-9{fill:#35393c;}.cls-10{fill:#26382d;}.cls-11{fill:#4e5477;}.cls-12{fill:#828282;}.cls-13{fill:#6b0144;}.cls-14{fill:#010000;}.cls-15{fill:#32bab1;}.cls-16{fill:#494242;}.cls-17{fill:#842063;}</style></defs><g id="object"><path class="cls-1" d="M656.28,162.9s-26.7,39.3-32.7,45.5c-7,7.2-54.6,54.6-63.8,58.8s-13.9-.6-19.6,2.7-12.1,15.1-7.4,20.1,18.1,8.3,26.1,5.6,8.6-13.8,11.9-15.3,55.3-32.1,66.2-38.6,51.3-57.3,51.3-57.3Z" transform="translate(-277.38 0)"/><path class="cls-2" d="M686.08,120.2c9.2-5.4,24.8,1.1,29.3,12.1,2.5,6.2-47.6,90.6-46.5,88.9L628.08,196S678.58,124.6,686.08,120.2Z" transform="translate(-277.38 0)"/><path class="cls-1" d="M673.38,80.5,655,96.2s11.2,14.3,12.4,20c.7,3.5-.2,10.1-2.2,16.9,6.2-8.3,20.2-24,40.4-30.4C691.58,90.5,673.38,80.5,673.38,80.5Z" transform="translate(-277.38 0)"/><polygon class="cls-3" points="114.5 699.4 112.7 699.2 122.7 578.7 112.7 455.4 114.5 455.2 124.5 578.7 114.5 699.4"/><polygon class="cls-3" points="166.9 699.4 156.9 575.9 166.9 455.2 168.7 455.4 158.7 575.9 168.7 699.2 166.9 699.4"/><polygon class="cls-3" points="139.3 561.1 18.6 551.1 18.8 549.3 139.3 559.3 262.6 549.3 262.7 551.1 139.3 561.1"/><polygon class="cls-3" points="18.8 605.3 18.6 603.5 142.1 593.5 262.7 603.5 262.6 605.3 142.1 595.3 18.8 605.3"/><polygon class="cls-3" points="35.8 645.1 34.7 643.7 127 565.6 207.1 471.3 208.4 472.5 128.2 566.9 35.8 645.1"/><polygon class="cls-3" points="74.3 683.3 72.9 682.2 153.1 587.8 245.5 509.5 246.7 510.9 154.4 589 74.3 683.3"/><polygon class="cls-3" points="245.5 645.1 151.1 564.8 72.9 472.5 74.3 471.3 152.4 563.6 246.7 643.7 245.5 645.1"/><polygon class="cls-3" points="207.1 683.3 129 591 34.7 510.9 35.8 509.5 130.2 589.8 208.4 682.2 207.1 683.3"/><polygon class="cls-3" points="590.1 699.5 588.4 699.3 598.4 578.8 588.4 455.5 590.1 455.4 600.1 578.8 590.1 699.5"/><polygon class="cls-3" points="642.6 699.5 632.6 576 642.6 455.4 644.3 455.5 634.3 576 644.3 699.3 642.6 699.5"/><polygon class="cls-3" points="614.9 561.2 494.3 551.2 494.4 549.4 614.9 559.4 738.3 549.4 738.4 551.2 614.9 561.2"/><polygon class="cls-3" points="494.4 605.4 494.3 603.6 617.8 593.6 738.4 603.6 738.3 605.4 617.8 595.4 494.4 605.4"/><polygon class="cls-3" points="511.5 645.2 510.4 643.8 602.6 565.7 682.8 471.4 684.1 472.6 603.9 567 511.5 645.2"/><polygon class="cls-3" points="549.9 683.4 548.6 682.3 628.8 587.9 721.2 509.6 722.3 511 630.1 589.1 549.9 683.4"/><polygon class="cls-3" points="721.2 645.2 626.8 565 548.6 472.6 549.9 471.4 628.1 563.7 722.3 643.8 721.2 645.2"/><polygon class="cls-3" points="682.8 683.4 604.6 591.1 510.4 511 511.5 509.6 605.9 589.9 684.1 682.3 682.8 683.4"/><circle class="cls-4" cx="140.7" cy="578.7" r="27.1"/><circle class="cls-3" cx="140.7" cy="578.7" r="17.1"/><path class="cls-5" d="M671.88,572.3s1.8,14.1,3.3,18.5,6.8,13.7,6.7,16.1-9.9,12.3-26.3,10.4-18.4-5.2-18.4-5.2a50,50,0,0,0,5.4-39.4Z" transform="translate(-277.38 0)"/><path class="cls-6" d="M641,600.6s10.6,9.3,20.1,9.2,18.6-12,18.6-12a56.64,56.64,0,0,1,9.5,18.4c3.1,10.7,1.8,14.8,1.8,14.8l-99.9,5.9s1.9-12.5,16.1-20.2,27-9.9,28.9-10.8C638.18,604.9,641,600.6,641,600.6Z" transform="translate(-277.38 0)"/><polygon class="cls-7" points="313.9 636.8 413.8 630.9 415.6 630.8 415.7 637.4 311.7 643 311.5 637.3 313.9 636.8"/><path class="cls-8" d="M700.68,318.7s-74.3,92.4-80.9,108.1c-7.4,17.7,23.4,152.5,23.4,152.5l30.2-2.4s-8.2-126.4-2.4-134.1,107.8-89.8,122.7-117.3S700.68,318.7,700.68,318.7Z" transform="translate(-277.38 0)"/><path class="cls-9" d="M689.38,607.9l-43.8,39.4s-7.1-4.4-6.6-4.5,43.5-44.2,43.5-44.2Z" transform="translate(-277.38 0)"/><path class="cls-10" d="M620.48,655l40.9-.6a7.55,7.55,0,1,0-.3-15.1l-40.9.6a7.51,7.51,0,0,0-7.4,7.62v.08A7.64,7.64,0,0,0,620.48,655Z" transform="translate(-277.38 0)"/><circle class="cls-4" cx="362.8" cy="647.21" r="6.8"/><path class="cls-11" d="M418.08,719.5c-77.6,0-140.7-63.1-140.7-140.7s63.1-140.7,140.7-140.7,140.7,63,140.7,140.6S495.68,719.5,418.08,719.5Zm0-267.3c-69.8,0-126.5,56.8-126.5,126.5s56.8,126.5,126.5,126.5,126.5-56.8,126.5-126.5-56.8-126.5-126.5-126.5Z" transform="translate(-277.38 0)"/><path class="cls-12" d="M418.08,706.1c-70.2,0-127.4-57.2-127.4-127.4s57.2-127.4,127.4-127.4,127.4,57.2,127.4,127.4S488.28,706.1,418.08,706.1Zm0-247.7c-66.3,0-120.3,54-120.3,120.3s54,120.3,120.3,120.3,120.3-54,120.3-120.3S484.38,458.4,418.08,458.4Z" transform="translate(-277.38 0)"/><path class="cls-11" d="M886.28,719.5c-77.6,0-140.7-63.1-140.7-140.7s63.1-140.7,140.7-140.7S1027,501.2,1027,578.8,963.88,719.5,886.28,719.5Zm0-267.3c-69.8,0-126.5,56.8-126.5,126.5s56.8,126.5,126.5,126.5,126.5-56.8,126.5-126.5-56.7-126.5-126.5-126.5Z" transform="translate(-277.38 0)"/><path class="cls-12" d="M886.28,706.1c-70.2,0-127.4-57.2-127.4-127.4s57.2-127.4,127.4-127.4,127.4,57.1,127.4,127.4A127.48,127.48,0,0,1,886.28,706.1Zm0-247.7c-66.3,0-120.3,54-120.3,120.3S820,699,886.28,699s120.3-54,120.3-120.3A120.43,120.43,0,0,0,886.28,458.4Z" transform="translate(-277.38 0)"/><path class="cls-13" d="M507,329.4a5.29,5.29,0,0,1-5.3-5.1c-.1-1.3-1.3-30.9,14.1-43.3,6.6-5.4,15.1-6.8,25-4.2A492.48,492.48,0,0,1,588,291.6a5.35,5.35,0,0,1-3.8,10c-.2-.1-19.6-7.5-46.1-14.5-6.6-1.7-11.7-1-15.6,2.1-9.3,7.5-10.5,27.5-10.1,34.5a5.42,5.42,0,0,1-5.1,5.6A.76.76,0,0,1,507,329.4Z" transform="translate(-277.38 0)"/><path class="cls-13" d="M686.48,608.2a5.47,5.47,0,0,1-3.1-1h0c-.1-.1-.3-.2-.4-.3h0l-.4-.4L482,385.6a5.22,5.22,0,0,1-.9-5.7,5.5,5.5,0,0,1,4.9-3.2l258.8-.8,13-46.4a5.35,5.35,0,1,1,10.3,2.9h0l-13.6,48.3,147.9,202.1a5.47,5.47,0,0,1,.5,5.4,5.33,5.33,0,0,1-4.4,3.1L687,608.2Zm64.3-214.5-57.1,203.2,194.4-15.5ZM498,387.3,684,592.2l57.8-205.7Z" transform="translate(-277.38 0)"/><circle class="cls-4" cx="616.3" cy="586.4" r="27.1"/><circle class="cls-3" cx="616.3" cy="586.4" r="17.1"/><path class="cls-3" d="M697,355.6s91.3,3,104.6.2c22.4-4.7,12-23,4-26.4S697,355.6,697,355.6Z" transform="translate(-277.38 0)"/><path class="cls-4" d="M685.68,559.3a42.5,42.5,0,1,0,42.5,42.5A42.5,42.5,0,0,0,685.68,559.3Zm28,39.4h-15.3a12.93,12.93,0,0,0-9.4-9.6V573.7A28.35,28.35,0,0,1,713.68,598.7Zm-30.9-25V589a13.22,13.22,0,0,0-9.9,9.7h-15.3A28.2,28.2,0,0,1,682.78,573.7Zm-25.2,31.2H673a13.12,13.12,0,0,0,9.8,9.6v15.3A28.2,28.2,0,0,1,657.58,604.9ZM689,629.8V614.4a12.83,12.83,0,0,0,9.3-9.5h15.3A28.05,28.05,0,0,1,689,629.8Z" transform="translate(-277.38 0)"/><path class="cls-14" d="M893.78,556.6H685.68a45.1,45.1,0,1,0,0,90.2c4,0,160-23.4,207.7-30.6l.8-.1c19.5-3.1,29.4-13.1,29.4-29.7A29.94,29.94,0,0,0,893.78,556.6Zm-208.1,85a39.8,39.8,0,0,1,0-79.6h208.1a24.43,24.43,0,0,1,24.4,24.4c0,14-7.9,21.8-24.8,24.5-97.6,14.7-204.1,30.5-207.7,30.7Z" transform="translate(-277.38 0)"/><path class="cls-15" d="M714.88,275.8c9.8-9.8,95.7,8.3,95.7,8.3s7.2,5.8,4.8,21.6-12.5,31.9-44.5,43.9-122.6,14.1-122.6,14.1,17.9,9.7,38.2,47c25.2,46.2,40.5,70.8,40.5,70.8l-26.3,12.4S597.58,380,583.38,361.8s2.2-26.5,21.3-37.6S705.18,285.6,714.88,275.8Z" transform="translate(-277.38 0)"/><path class="cls-13" d="M418.08,584.1a5.53,5.53,0,0,1-1.8-.3A5.4,5.4,0,0,1,413,577l88.9-254.6a5.34,5.34,0,0,1,10.1,3.5h0l-88.9,254.6A5.34,5.34,0,0,1,418.08,584.1Z" transform="translate(-277.38 0)"/><path class="cls-5" d="M614.18,33.1s-3.3,17.7,3.4,26.7c2.6,3.4-5.3,13.6-4.4,15.4s3.4,2.8,6.3,3.4c4.2.9,2.3,2.1,3.9,6.1.5,1.1,2.7,1,3.1,2.4.2.7-.9,3.7.4,4.1,5,1.9,4.2,9.3,6.9,10.9,6.8,4.1,34.4,0,41.8-18.1s5.3-39.7-8.6-47.1S627.48,19.5,614.18,33.1Z" transform="translate(-277.38 0)"/><path class="cls-16" d="M619.48,52.7s3.8-5.4,9.9-6.8l6.1-1.4-1.8,1.8C633.78,46.3,625.58,48,619.48,52.7Z" transform="translate(-277.38 0)"/><circle class="cls-9" cx="408.7" cy="602.4" r="5.8"/><path class="cls-9" d="M682.58,597.8l44.9-38.3s7,4.6,6.4,4.7-44.6,43-44.6,43Z" transform="translate(-277.38 0)"/><path class="cls-10" d="M747,543.9l-36.5,18.5a7.58,7.58,0,0,0,6.9,13.5l36.5-18.5a7.58,7.58,0,1,0-6.9-13.5Z" transform="translate(-277.38 0)"/><circle class="cls-4" cx="455.42" cy="559.51" r="6.8"/><path class="cls-5" d="M727,481.4s7.5,12,10.7,15.4,11.9,9.6,12.8,11.8-3.9,15.3-19.6,20.4-18.9,2.9-18.9,2.9a50,50,0,0,0-11.4-38.1Z" transform="translate(-277.38 0)"/><path class="cls-6" d="M710.78,519.9s13.5,4,22.1,0,12-18.7,12-18.7a58.87,58.87,0,0,1,16.3,12.7c7.3,8.4,7.8,12.7,7.8,12.7l-88.4,46.9s-3.5-12.1,6.2-25.1,20.5-20.2,21.8-21.8S710.78,519.9,710.78,519.9Z" transform="translate(-277.38 0)"/><polygon class="cls-7" points="403.2 573.5 491.6 526.6 493.2 525.8 496 531.7 403.8 580.1 401.2 575 403.2 573.5"/><path class="cls-6" d="M815.08,289.1c-.3-.9,2.7-26.2-47.7-74.1-26.2-24.9-40.6-90.4-54.5-105.5a95.72,95.72,0,0,0-7.2-6.9c-20.2,6.4-34.1,22.1-40.4,30.4a67.91,67.91,0,0,1-4.7,12c-4.9,9.2-22.7,28.8-15.9,46.8s43.6,20.7,56.6,44.7,9.5,43.8,9.5,43.8,53,37.6,78.8,33.2C815.28,309.3,815.28,290,815.08,289.1Z" transform="translate(-277.38 0)"/><path class="cls-2" d="M713.58,138s3,5.3-2.7,23-22,53.3-22.3,54.3-15.6-2.1-15.6-2.1l-3-39.5Z" transform="translate(-277.38 0)"/><path class="cls-5" d="M661.58,170s-32.6,50.1-40,54.5-54.4,44.2-63.6,48.4-13.9-.6-19.6,2.7-12.1,15.1-7.4,20.1,18.1,8.3,26.1,5.6,8.6-13.8,11.9-15.3,55.3-32.1,66.2-38.6,51.3-57.3,51.3-57.3Z" transform="translate(-277.38 0)"/><path class="cls-6" d="M684.38,126c9.2-5.4,24.8,1.1,29.3,12.1,2.5,6.2-47.6,90.6-46.5,88.9l-34.7-23.7C632.38,203.3,676.88,130.3,684.38,126Z" transform="translate(-277.38 0)"/><path class="cls-13" d="M612.38,28.7S627.18,0,661.58,0s42.1,28.4,47.1,32.9,23.1-4.1,37.6,0,22.8,20.7,29.3,35.6,23.1-18.1,50.7-11.9,45,31.7,37.3,47.1-12.4-10.7-27.8,0-10.4,30.8-37,35.9-62.2-2.4-65.5-11-17.2-16.6-26.1-10.7-40.5,6.8-43.8-20.4-4.5-31.3-11-32.4S628.08,58.4,626,48C626.08,47.9,610.08,49.7,612.38,28.7Z" transform="translate(-277.38 0)"/><path class="cls-17" d="M615.28,29.4s-2.3,11.5,6.2,14,23-4,37.5-2.3,25.7,20.7,40.7,19.3,15.7-4.8,15.7-4.8-11.8,7.5-23-.2-23.3-18.8-33.2-18.7-32.2,5-36.8,3.2C617.58,38,615.28,29.4,615.28,29.4Z" transform="translate(-277.38 0)"/><path class="cls-16" d="M618.28,58.7s1.1.9,4.1.7,11.3-.7,11.3-.7-4.9,1.4-7.7,2A8.09,8.09,0,0,1,618.28,58.7Z" transform="translate(-277.38 0)"/><circle class="cls-16" cx="348" cy="62" r="2.6"/><path class="cls-6" d="M626.28,86.7h0c10.5-1.8,13.1-6.2,13.1-6.2-4.6,4-16,4.2-16,4.2C623.78,85.8,625.58,85.8,626.28,86.7Z" transform="translate(-277.38 0)"/></g></svg>