<svg id="Laag_3" data-name="Laag 3" xmlns="http://www.w3.org/2000/svg" viewBox="0 0 275.95 163.57"><defs><style>.cls-1{fill:#fff;}.cls-2{fill:#d8d5d6;}.cls-3{fill:#212535;}.cls-4{fill:#e83c3e;}.cls-5{fill:#898685;}</style></defs><rect class="cls-1" x="0.13" width="275.82" height="163.57"/><g id="tandem"><path id="Path_631" data-name="Path 631" class="cls-2" d="M105.52,106.12h0a1.2,1.2,0,0,1-1.7,0L93.32,95.63a1.21,1.21,0,0,1,0-1.69h0a1.2,1.2,0,0,1,1.7,0l10.5,10.49a1.16,1.16,0,0,1,0,1.64A.12.12,0,0,1,105.52,106.12Z" transform="translate(0.01)"/><path id="Path_632" data-name="Path 632" class="cls-3" d="M96.9,95.75H89.54a1.91,1.91,0,0,1,0-3.81H96.9a1.91,1.91,0,1,1,0,3.81Z" transform="translate(0.01)"/><path id="Path_633" data-name="Path 633" class="cls-2" d="M165.73,106.12h0a1.19,1.19,0,0,1-1.69,0L153.52,95.63a1.19,1.19,0,0,1,0-1.69h0a1.19,1.19,0,0,1,1.69,0l10.5,10.49a1.17,1.17,0,0,1,0,1.66l0,0Z" transform="translate(0.01)"/><path id="Path_634" data-name="Path 634" class="cls-3" d="M157.11,95.75h-7.36a1.91,1.91,0,0,1,0-3.81h7.36a1.91,1.91,0,0,1,0,3.81Z" transform="translate(0.01)"/><path id="Path_635" data-name="Path 635" class="cls-4" d="M237.46,65.32a40.81,40.81,0,0,0-40.68,40.53h0a1.76,1.76,0,0,0,1.76-1.65,39.09,39.09,0,0,1,37.27-37.11,1.74,1.74,0,0,0,1.65-1.74Z" transform="translate(0.01)"/><path id="Path_636" data-name="Path 636" class="cls-2" d="M237.53,112.68a6.58,6.58,0,1,1,6.58-6.58,6.58,6.58,0,0,1-6.58,6.58Z" transform="translate(0.01)"/><path id="Path_637" data-name="Path 637" class="cls-2" d="M235.51,101.93h-.06a.39.39,0,0,1-.29-.45l7-31.46a.37.37,0,0,1,.73.16l-7,31.47A.4.4,0,0,1,235.51,101.93Z" transform="translate(0.01)"/><path id="Path_638" data-name="Path 638" class="cls-2" d="M239.32,101.83a.43.43,0,0,1-.3-.16.39.39,0,0,1,.12-.52l27.19-17.3a.38.38,0,0,1,.51.12.37.37,0,0,1-.11.51h0l-27.19,17.3a.5.5,0,0,1-.21,0Z" transform="translate(0.01)"/><path id="Path_639" data-name="Path 639" class="cls-2" d="M273.53,111.44h-.07l-31.49-7a.37.37,0,0,1-.28-.44.36.36,0,0,1,.43-.27h0l31.47,7a.38.38,0,0,1,.27.46.39.39,0,0,1-.34.28Z" transform="translate(0.01)"/><path id="Path_640" data-name="Path 640" class="cls-2" d="M259.48,135.43a.37.37,0,0,1-.3-.16l-17.3-27.19a.37.37,0,0,1,.11-.51h0a.38.38,0,0,1,.52.11l17.3,27.19a.4.4,0,0,1-.12.52Z" transform="translate(0.01)"/><path id="Path_641" data-name="Path 641" class="cls-2" d="M232.56,142.47h-.06a.39.39,0,0,1-.29-.44l7-31.49a.37.37,0,0,1,.45-.27.37.37,0,0,1,.27.43l-7,31.46a.42.42,0,0,1-.38.3Z" transform="translate(0.01)"/><path id="Path_642" data-name="Path 642" class="cls-2" d="M208.55,128.4a.4.4,0,0,1-.3-.17.36.36,0,0,1,.12-.51l27.19-17.3a.37.37,0,0,1,.39.63l-27.19,17.3A.8.8,0,0,1,208.55,128.4Z" transform="translate(0.01)"/><path id="Path_643" data-name="Path 643" class="cls-2" d="M233,108.47h-.06l-31.49-7a.38.38,0,0,1-.33-.41.37.37,0,0,1,.41-.32h.08l31.46,7a.37.37,0,0,1,.28.44A.41.41,0,0,1,233,108.47Z" transform="translate(0.01)"/><path id="Path_644" data-name="Path 644" class="cls-2" d="M232.91,104.67a.4.4,0,0,1-.3-.17L215.28,77.31a.38.38,0,0,1,.12-.52.36.36,0,0,1,.51.12l17.3,27.19a.37.37,0,0,1-.11.51h0A.48.48,0,0,1,232.91,104.67Z" transform="translate(0.01)"/><path id="Path_645" data-name="Path 645" class="cls-2" d="M239.56,101.93a.37.37,0,0,1-.36-.29l-7-31.46a.36.36,0,0,1,.28-.44.37.37,0,0,1,.44.28h0l7,31.46a.36.36,0,0,1-.28.44Z" transform="translate(0.01)"/><path id="Path_646" data-name="Path 646" class="cls-2" d="M235.74,101.83a.41.41,0,0,1-.18,0l-27.19-17.3a.37.37,0,1,1,.39-.62L236,101.16a.39.39,0,0,1,.12.51.42.42,0,0,1-.33.16Z" transform="translate(0.01)"/><path id="Path_647" data-name="Path 647" class="cls-2" d="M201.52,111.44a.34.34,0,0,1-.35-.28.37.37,0,0,1,.28-.44l31.47-7a.35.35,0,0,1,.43.26h0a.38.38,0,0,1-.29.45l-31.46,7S201.56,111.44,201.52,111.44Z" transform="translate(0.01)"/><path id="Path_648" data-name="Path 648" class="cls-2" d="M215.59,135.43a.41.41,0,0,1-.19-.05.4.4,0,0,1-.12-.51l17.3-27.19a.4.4,0,0,1,.52-.11.39.39,0,0,1,.11.51l-17.3,27.19A.34.34,0,0,1,215.59,135.43Z" transform="translate(0.01)"/><path id="Path_649" data-name="Path 649" class="cls-2" d="M242.53,142.46a.37.37,0,0,1-.36-.27l-7-31.47a.36.36,0,0,1,.28-.44h0a.36.36,0,0,1,.44.27h0l7,31.46a.37.37,0,0,1-.26.44h-.11Z" transform="translate(0.01)"/><path id="Path_650" data-name="Path 650" class="cls-2" d="M266.51,128.4a.41.41,0,0,1-.18-.05l-27.19-17.3a.37.37,0,1,1,.39-.63l27.19,17.3a.38.38,0,0,1,.12.51.49.49,0,0,1-.33.17Z" transform="translate(0.01)"/><path id="Path_651" data-name="Path 651" class="cls-2" d="M242.06,108.47a.34.34,0,0,1-.35-.28.37.37,0,0,1,.28-.44h0l31.46-7a.37.37,0,0,1,.17.72l-31.46,7A.12.12,0,0,1,242.06,108.47Z" transform="translate(0.01)"/><path id="Path_652" data-name="Path 652" class="cls-2" d="M242.16,104.67l-.18,0a.42.42,0,0,1-.12-.52l17.3-27.19a.37.37,0,1,1,.62.4l-17.3,27.19A.37.37,0,0,1,242.16,104.67Z" transform="translate(0.01)"/><path id="Path_653" data-name="Path 653" class="cls-2" d="M237.26,101.46l-.08,0a.38.38,0,0,1-.09-.51l18.46-26.45a.37.37,0,0,1,.6.42l-18.46,26.45a.34.34,0,0,1-.44.14Z" transform="translate(0.01)"/><path id="Path_654" data-name="Path 654" class="cls-2" d="M240.8,102.83a.32.32,0,0,1-.2-.27.35.35,0,0,1,.27-.42h0l31.74-5.65a.38.38,0,0,1,.42.3.34.34,0,0,1-.26.41h0L241,102.85A.5.5,0,0,1,240.8,102.83Z" transform="translate(0.01)"/><path id="Path_655" data-name="Path 655" class="cls-2" d="M268.79,124.75a.08.08,0,0,1-.07,0l-26.41-18.46a.37.37,0,0,1-.05-.52.36.36,0,0,1,.46-.09l26.42,18.46a.38.38,0,0,1,.09.51A.39.39,0,0,1,268.79,124.75Z" transform="translate(0.01)"/><path id="Path_656" data-name="Path 656" class="cls-2" d="M246.64,141.59a.34.34,0,0,1-.21-.28l-5.65-31.75a.35.35,0,0,1,.28-.41h0a.36.36,0,0,1,.42.3l5.65,31.74a.36.36,0,0,1-.28.41h0a.71.71,0,0,1-.21,0Z" transform="translate(0.01)"/><path id="Path_657" data-name="Path 657" class="cls-2" d="M219.05,137.82a.08.08,0,0,1-.06,0,.37.37,0,0,1-.1-.51l18.46-26.45a.37.37,0,1,1,.61.41l-18.47,26.45a.33.33,0,0,1-.44.14Z" transform="translate(0.01)"/><path id="Path_658" data-name="Path 658" class="cls-2" d="M202.24,115.67a.31.31,0,0,1-.21-.28.34.34,0,0,1,.27-.41h0l31.75-5.64a.38.38,0,0,1,.41.3.36.36,0,0,1-.28.42h0l-31.74,5.64a.27.27,0,0,1-.2,0Z" transform="translate(0.01)"/><path id="Path_659" data-name="Path 659" class="cls-2" d="M232.45,106.57l-.08,0L205.93,88.06a.37.37,0,0,1-.09-.52.38.38,0,0,1,.51-.09l26.46,18.46a.37.37,0,0,1,.09.51.39.39,0,0,1-.45.14Z" transform="translate(0.01)"/><path id="Path_660" data-name="Path 660" class="cls-2" d="M233.79,103a.38.38,0,0,1-.21-.28L227.94,71a.36.36,0,1,1,.72-.11h0l5.65,31.74a.35.35,0,0,1-.28.41h0A.78.78,0,0,1,233.79,103Z" transform="translate(0.01)"/><path id="Path_661" data-name="Path 661" class="cls-2" d="M241,103a.34.34,0,0,1-.21-.4l5.53-31.76a.37.37,0,0,1,.42-.3.39.39,0,0,1,.3.42l-5.53,31.76a.39.39,0,0,1-.42.3A.15.15,0,0,1,241,103Z" transform="translate(0.01)"/><path id="Path_662" data-name="Path 662" class="cls-2" d="M237.51,101.46a.48.48,0,0,1-.16-.12L218.79,75a.37.37,0,1,1,.59-.45v0L238,100.92a.38.38,0,0,1-.1.52A.37.37,0,0,1,237.51,101.46Z" transform="translate(0.01)"/><path id="Path_663" data-name="Path 663" class="cls-2" d="M202.21,97.33a.35.35,0,0,1-.21-.4.39.39,0,0,1,.42-.3l31.77,5.53a.38.38,0,0,1,.3.41.39.39,0,0,1-.42.3l-31.79-5.53-.07,0Z" transform="translate(0.01)"/><path id="Path_664" data-name="Path 664" class="cls-2" d="M206.07,124.86a.39.39,0,0,1-.17-.11.37.37,0,0,1,.1-.51l26.35-18.56a.38.38,0,0,1,.52.1.37.37,0,0,1-.1.51L206.4,124.84A.35.35,0,0,1,206.07,124.86Z" transform="translate(0.01)"/><path id="Path_665" data-name="Path 665" class="cls-2" d="M228.29,141.61a.34.34,0,0,1-.21-.4l5.5-31.77a.37.37,0,0,1,.42-.3.36.36,0,0,1,.3.42h0l-5.5,31.76a.37.37,0,0,1-.41.3S228.31,141.63,228.29,141.61Z" transform="translate(0.01)"/><path id="Path_666" data-name="Path 666" class="cls-2" d="M255.83,137.76a.48.48,0,0,1-.16-.12l-18.56-26.38a.37.37,0,0,1,.57-.47l0,0,18.55,26.36a.37.37,0,0,1-.12.51.4.4,0,0,1-.32,0Z" transform="translate(0.01)"/><path id="Path_667" data-name="Path 667" class="cls-2" d="M240.83,110a.32.32,0,0,1-.21-.39.39.39,0,0,1,.42-.3l31.77,5.5a.36.36,0,0,1-.12.72L240.92,110S240.85,110,240.83,110Z" transform="translate(0.01)"/><path id="Path_668" data-name="Path 668" class="cls-2" d="M242.36,106.53a.37.37,0,0,1-.21-.46.35.35,0,0,1,.15-.17l26.35-18.55a.38.38,0,0,1,.51.13.37.37,0,0,1-.09.47l-26.36,18.58A.47.47,0,0,1,242.36,106.53Z" transform="translate(0.01)"/><path id="Path_669" data-name="Path 669" class="cls-3" d="M237.53,144.49a38.41,38.41,0,1,1,38.41-38.41,38.41,38.41,0,0,1-38.41,38.41Zm0-73.18a34.79,34.79,0,1,0,34.79,34.79,34.79,34.79,0,0,0-34.79-34.79Z" transform="translate(0.01)"/><path id="Path_670" data-name="Path 670" class="cls-1" d="M237.53,141.59A35.5,35.5,0,1,1,273,106.09h0A35.51,35.51,0,0,1,237.53,141.59Zm0-67.65a32.16,32.16,0,1,0,32.15,32.18v0a32.17,32.17,0,0,0-32.15-32.16Z" transform="translate(0.01)"/><path id="Path_671" data-name="Path 671" class="cls-4" d="M79.79,105.73H81.5A40.76,40.76,0,0,0,0,105.87H0a1.76,1.76,0,0,0,1.76-1.65,39,39,0,0,1,78,1.53Z" transform="translate(0.01)"/><path id="Path_672" data-name="Path 672" class="cls-2" d="M40.78,112.68a6.58,6.58,0,1,1,6.6-6.58,6.58,6.58,0,0,1-6.6,6.58Z" transform="translate(0.01)"/><path id="Path_673" data-name="Path 673" class="cls-2" d="M38.73,101.93h-.06a.39.39,0,0,1-.29-.45l7-31.46a.37.37,0,0,1,.44-.28.36.36,0,0,1,.28.44h0l-7,31.47A.42.42,0,0,1,38.73,101.93Z" transform="translate(0.01)"/><path id="Path_674" data-name="Path 674" class="cls-2" d="M42.52,101.83a.43.43,0,0,1-.3-.16.37.37,0,0,1,.11-.51l27.2-17.3a.37.37,0,1,1,.39.62l-27.19,17.3A.54.54,0,0,1,42.52,101.83Z" transform="translate(0.01)"/><path id="Path_675" data-name="Path 675" class="cls-2" d="M76.75,111.44h-.07l-31.47-7a.39.39,0,0,1-.28-.45.37.37,0,0,1,.44-.27l31.47,7a.38.38,0,0,1,.28.44.38.38,0,0,1-.37.28Z" transform="translate(0.01)"/><path id="Path_676" data-name="Path 676" class="cls-2" d="M62.67,135.43a.37.37,0,0,1-.3-.16l-17.3-27.19a.37.37,0,0,1,.12-.52.36.36,0,0,1,.51.12L63,134.87a.38.38,0,0,1-.12.51A.8.8,0,0,1,62.67,135.43Z" transform="translate(0.01)"/><path id="Path_677" data-name="Path 677" class="cls-2" d="M35.76,142.47h-.07a.38.38,0,0,1-.28-.44l7-31.49a.37.37,0,0,1,.72.16l-7,31.46a.39.39,0,0,1-.4.3Z" transform="translate(0.01)"/><path id="Path_678" data-name="Path 678" class="cls-2" d="M11.77,128.4a.4.4,0,0,1-.3-.17.36.36,0,0,1,.12-.51l27.19-17.3a.38.38,0,0,1,.51.12.37.37,0,0,1-.12.51L12,128.35Z" transform="translate(0.01)"/><path id="Path_679" data-name="Path 679" class="cls-2" d="M36.2,108.47h-.07l-31.46-7a.37.37,0,1,1,.16-.72l31.46,7a.36.36,0,0,1-.09.72Z" transform="translate(0.01)"/><path id="Path_680" data-name="Path 680" class="cls-2" d="M36.11,104.67a.4.4,0,0,1-.3-.17L18.51,77.31a.38.38,0,0,1,.11-.52.36.36,0,0,1,.51.12l17.3,27.19a.37.37,0,0,1-.11.51h0A.83.83,0,0,1,36.11,104.67Z" transform="translate(0.01)"/><path id="Path_681" data-name="Path 681" class="cls-2" d="M42.75,101.93a.36.36,0,0,1-.35-.29l-7-31.46a.38.38,0,0,1,.27-.44h0a.36.36,0,0,1,.44.28l7,31.46a.38.38,0,0,1-.28.45Z" transform="translate(0.01)"/><path id="Path_682" data-name="Path 682" class="cls-2" d="M39,101.83a.37.37,0,0,1-.18,0L11.61,84.48a.38.38,0,0,1-.12-.51.37.37,0,0,1,.51-.11l27.2,17.3a.4.4,0,0,1,.12.51.48.48,0,0,1-.36.16Z" transform="translate(0.01)"/><path id="Path_683" data-name="Path 683" class="cls-2" d="M4.74,111.44a.34.34,0,0,1-.35-.28.37.37,0,0,1,.28-.44l31.46-7a.36.36,0,0,1,.44.26h0a.38.38,0,0,1-.28.45l-31.46,7S4.76,111.44,4.74,111.44Z" transform="translate(0.01)"/><path id="Path_684" data-name="Path 684" class="cls-2" d="M18.81,135.43a.58.58,0,0,1-.19,0,.42.42,0,0,1-.12-.52l17.32-27.19a.37.37,0,0,1,.51-.11.35.35,0,0,1,.11.51L19.13,135.27A.39.39,0,0,1,18.81,135.43Z" transform="translate(0.01)"/><path id="Path_685" data-name="Path 685" class="cls-2" d="M45.73,142.47a.36.36,0,0,1-.35-.28l-7-31.47a.37.37,0,0,1,.28-.44.37.37,0,0,1,.44.28l7,31.47a.35.35,0,0,1-.27.43h-.1Z" transform="translate(0.01)"/><path id="Path_686" data-name="Path 686" class="cls-2" d="M69.73,128.4a.37.37,0,0,1-.18-.05l-27.19-17.3a.37.37,0,0,1,.39-.63h0l27.19,17.3a.37.37,0,0,1-.21.68Z" transform="translate(0.01)"/><path id="Path_687" data-name="Path 687" class="cls-2" d="M45.28,108.47a.34.34,0,0,1-.35-.28.37.37,0,0,1,.28-.44h0l31.47-7a.37.37,0,0,1,.24.7l-.08,0-31.49,7s0,0-.07,0Z" transform="translate(0.01)"/><path id="Path_688" data-name="Path 688" class="cls-2" d="M45.37,104.67a.61.61,0,0,1-.18,0,.42.42,0,0,1-.12-.52l17.3-27.19a.39.39,0,0,1,.51-.11.4.4,0,0,1,.12.51L45.67,104.5a.36.36,0,0,1-.3.17Z" transform="translate(0.01)"/><path id="Path_689" data-name="Path 689" class="cls-2" d="M40.49,101.46a.1.1,0,0,1-.07,0,.38.38,0,0,1-.09-.51L58.89,74.55a.37.37,0,0,1,.51-.1h0a.36.36,0,0,1,.09.51L40.94,101.32a.35.35,0,0,1-.44.14Z" transform="translate(0.01)"/><path id="Path_690" data-name="Path 690" class="cls-2" d="M44,102.83a.31.31,0,0,1-.21-.28.36.36,0,0,1,.29-.41h0l31.77-5.5a.36.36,0,0,1,.42.3.37.37,0,0,1-.3.42l-31.77,5.5A.37.37,0,0,1,44,102.83Z" transform="translate(0.01)"/><path id="Path_691" data-name="Path 691" class="cls-2" d="M71.92,124.86a.09.09,0,0,1-.08,0L45.49,106.27a.37.37,0,0,1-.09-.52.38.38,0,0,1,.51-.09h0l26.35,18.58a.37.37,0,0,1,.1.51A.35.35,0,0,1,71.92,124.86Z" transform="translate(0.01)"/><path id="Path_692" data-name="Path 692" class="cls-2" d="M49.71,141.61a.35.35,0,0,1-.2-.28L44,109.56a.37.37,0,0,1,.73-.11h0l5.5,31.76a.36.36,0,0,1-.3.42h0A.3.3,0,0,1,49.71,141.61Z" transform="translate(0.01)"/><path id="Path_693" data-name="Path 693" class="cls-2" d="M22.15,137.76l-.07,0a.38.38,0,0,1-.09-.51l18.55-26.36a.38.38,0,0,1,.51-.09.37.37,0,0,1,.1.51L22.62,137.61a.41.41,0,0,1-.47.15Z" transform="translate(0.01)"/><path id="Path_694" data-name="Path 694" class="cls-2" d="M5.41,115.54a.34.34,0,0,1-.21-.29.37.37,0,0,1,.3-.41l31.76-5.5a.37.37,0,1,1,.13.72l-31.77,5.5a.76.76,0,0,1-.21,0Z" transform="translate(0.01)"/><path id="Path_695" data-name="Path 695" class="cls-2" d="M35.65,106.53a.14.14,0,0,1-.08,0L9.22,87.93a.37.37,0,1,1,.36-.64l.06,0L36,105.88a.37.37,0,0,1,.1.51.42.42,0,0,1-.44.14Z" transform="translate(0.01)"/><path id="Path_696" data-name="Path 696" class="cls-2" d="M37,103a.31.31,0,0,1-.21-.28L31.31,71a.36.36,0,0,1,.3-.42.36.36,0,0,1,.42.3h0l5.5,31.77a.37.37,0,0,1-.3.41.3.3,0,0,1-.21,0Z" transform="translate(0.01)"/><path id="Path_697" data-name="Path 697" class="cls-2" d="M44.21,103a.35.35,0,0,1-.21-.4l5.65-31.75a.36.36,0,1,1,.72.12h0l-5.65,31.74a.38.38,0,0,1-.41.3A.25.25,0,0,1,44.21,103Z" transform="translate(0.01)"/><path id="Path_698" data-name="Path 698" class="cls-2" d="M40.73,101.46a.48.48,0,0,1-.16-.12L22.13,74.89a.36.36,0,0,1,.12-.5.36.36,0,0,1,.48.08l18.44,26.45a.37.37,0,0,1-.09.52A.39.39,0,0,1,40.73,101.46Z" transform="translate(0.01)"/><path id="Path_699" data-name="Path 699" class="cls-2" d="M5.46,97.17a.32.32,0,0,1-.21-.39.41.41,0,0,1,.42-.3l31.74,5.65a.37.37,0,0,1,.3.41.39.39,0,0,1-.42.3L5.56,97.21A.18.18,0,0,0,5.46,97.17Z" transform="translate(0.01)"/><path id="Path_700" data-name="Path 700" class="cls-2" d="M9.2,124.73a.4.4,0,0,1-.16-.12.37.37,0,0,1,.08-.51l26.45-18.44a.37.37,0,0,1,.47.57l0,0L9.54,124.68a.39.39,0,0,1-.35,0Z" transform="translate(0.01)"/><path id="Path_701" data-name="Path 701" class="cls-2" d="M31.35,141.59a.35.35,0,0,1-.21-.4l5.64-31.75a.41.41,0,0,1,.42-.3.37.37,0,0,1,.3.42L31.84,141.3a.4.4,0,0,1-.42.3l-.07,0Z" transform="translate(0.01)"/><path id="Path_702" data-name="Path 702" class="cls-2" d="M58.94,137.82a.39.39,0,0,1-.17-.11L40.31,111.26a.37.37,0,0,1,.61-.42l18.43,26.45a.36.36,0,0,1-.09.51A.33.33,0,0,1,58.94,137.82Z" transform="translate(0.01)"/><path id="Path_703" data-name="Path 703" class="cls-2" d="M44,110a.36.36,0,0,1-.21-.4.43.43,0,0,1,.42-.3L76,115a.39.39,0,0,1,.3.42.41.41,0,0,1-.42.3l-31.76-5.64a.1.1,0,0,0-.08,0Z" transform="translate(0.01)"/><path id="Path_704" data-name="Path 704" class="cls-2" d="M45.56,106.57a.48.48,0,0,1-.16-.12.36.36,0,0,1,.09-.51L71.94,87.5a.37.37,0,0,1,.42.6h0L45.91,106.53A.47.47,0,0,1,45.56,106.57Z" transform="translate(0.01)"/><path id="Path_705" data-name="Path 705" class="cls-3" d="M40.78,144.49a38.41,38.41,0,1,1,38.41-38.41,38.41,38.41,0,0,1-38.41,38.41Zm0-73.18A34.79,34.79,0,1,0,75.57,106.1,34.79,34.79,0,0,0,40.78,71.31Z" transform="translate(0.01)"/><path id="Path_706" data-name="Path 706" class="cls-1" d="M40.78,141.59a35.5,35.5,0,1,1,35.5-35.5h0A35.5,35.5,0,0,1,40.78,141.59Zm0-67.65A32.15,32.15,0,1,0,73,106.08,32.14,32.14,0,0,0,40.78,73.94Z" transform="translate(0.01)"/><path id="Path_707" data-name="Path 707" class="cls-5" d="M237.21,106.69a.33.33,0,0,1-.14,0,.57.57,0,0,1-.43-.65s0,0,0-.06l11-43.08a.56.56,0,0,1,.69-.37.55.55,0,0,1,.38.65l-11,43.09A.56.56,0,0,1,237.21,106.69Z" transform="translate(0.01)"/><path id="Path_708" data-name="Path 708" class="cls-4" d="M237.39,104.32c-10.86-2.38-13.86-19-13.89-19.13a.08.08,0,0,0,0-.09l-9.59-42.62L212.15,34l4.16-7.16A1.81,1.81,0,0,0,213.19,25l0,0-4.5,7.73a1.74,1.74,0,0,0-.21,1.28l1.93,9.19.51,2.26a83.48,83.48,0,0,1-18,13.42c-14.31,7.87-28.28,10-41.59,6.32l-7.55-18.84a2.05,2.05,0,0,0-3.8,1.54l3.13,7.84c-3.7-.8-8.85-2.69-11.33-6.94-4.4-7.52-5.11-18.37-5.11-18.46a2.05,2.05,0,0,0-4.1.05c0,.07,0,.13,0,.19,0,.48.75,11.91,5.66,20.29,3.3,5.6,9.69,7.94,14.12,8.89a50.46,50.46,0,0,1-9.68,11.38c-10,8.69-21.89,11.68-35.28,8.94l-8.8-22.78L84.35,46.38a2.06,2.06,0,1,0-3.85,1.46h0l4.25,11L39.13,103.94a2,2,0,0,0,0,2.89,2,2,0,0,0,1.47.61h64.37a.37.37,0,0,0,.21,0h.21a.06.06,0,0,0,.07,0,.34.34,0,0,0,.14,0h.07s0,0,0,0a.18.18,0,0,0,.07,0h.07l48.42-23.15L162,103.22l1,2.53c0,.07.07.14.09.21l.09.21a2.12,2.12,0,0,0,1.44,1.23,1.47,1.47,0,0,0,.47,0,2,2,0,0,0,1.37-.55L214.9,63.24,220,85.8c.23,1.3,3.62,19.15,16.67,22a2.71,2.71,0,0,0,.4,0,1.78,1.78,0,0,0,.37-3.53Zm-191.86-.95L86.33,63,102,103.37Zm60.53-.76-7-18.06a49.22,49.22,0,0,0,7.48.61,43.44,43.44,0,0,0,28.77-10.9,54.49,54.49,0,0,0,10.33-12.07l1.9,4.78a2.25,2.25,0,0,0,.49,1.24l4.78,12Zm59.86-.67-.09-.21L153.14,69.88a52.45,52.45,0,0,0,11,1.16,54.78,54.78,0,0,0,10.22-1A68.25,68.25,0,0,0,195,62.4a87.75,87.75,0,0,0,16.95-12.26l1.9,8.52Z" transform="translate(0.01)"/><circle id="Ellipse_88" data-name="Ellipse 88" class="cls-5" cx="84.94" cy="53.63" r="0.93"/><circle id="Ellipse_89" data-name="Ellipse 89" class="cls-5" cx="212.84" cy="45.82" r="0.93"/><circle id="Ellipse_90" data-name="Ellipse 90" class="cls-5" cx="215.56" cy="59.32" r="0.93"/><path id="Path_709" data-name="Path 709" class="cls-5" d="M69.1,61.31H20.57a1.09,1.09,0,0,1-.3-.07L13.38,58a.69.69,0,0,1,.55-1.24l6.76,3.2H68.92l15.41-6.85A.69.69,0,0,1,85,54.29l-.11.05-15.49,6.9a.68.68,0,0,1-.28.07Z" transform="translate(0.01)"/><path id="Path_710" data-name="Path 710" class="cls-5" d="M40.27,107.59h0a.68.68,0,0,1-.65-.44L22,61a.68.68,0,1,1,1.26-.51v0L40.3,105.09,60.06,60.52a.69.69,0,0,1,1.26.55L40.88,107.14A.68.68,0,0,1,40.27,107.59Z" transform="translate(0.01)"/><path id="Path_711" data-name="Path 711" class="cls-3" d="M165,114.18H104.57l-64.34-2.39h0c-1.81-.32-5.25-1.83-5.18-5.29.07-4.23,3-5.5,3.14-5.5l.09,0h.09l65.86-4.13h61.15a8.69,8.69,0,1,1-.3,17.37ZM40.38,110.7l64.22,2.35h60.45a7.6,7.6,0,0,0,.25-15.19H104.23L38.51,102c-.4.19-2.34,1.3-2.39,4.48-.06,3.34,3.82,4.18,4.26,4.25Z" transform="translate(0.01)"/><path id="Path_712" data-name="Path 712" class="cls-3" d="M214.33,27.47a1.4,1.4,0,0,1-1-.37L203.88,18l-13.65-1.65a1.37,1.37,0,0,1,.35-2.71l14.12,1.71a1.44,1.44,0,0,1,.78.38l9.85,9.4a1.35,1.35,0,0,1,0,1.92h0A1.59,1.59,0,0,1,214.33,27.47Z" transform="translate(0.01)"/><path id="Path_713" data-name="Path 713" class="cls-2" d="M190.16,16.91a2,2,0,0,1-1.28-.72,1.87,1.87,0,0,1-.4-1.42,1.94,1.94,0,0,1,1.9-1.69h.24l9.84,1.18L200,18.07Z" transform="translate(0.01)"/><path id="Path_714" data-name="Path 714" class="cls-3" d="M131.06,42.7a2.3,2.3,0,0,1,2-1.61,46.69,46.69,0,0,1,11,.91c9,1.56,11.8.19,13.82,1.56s-2.56,4.29-7.32,3.67-10,5-14.19,4.4C132.67,51.09,129.92,46.47,131.06,42.7Z" transform="translate(0.01)"/><path id="Path_715" data-name="Path 715" class="cls-3" d="M71.41,42.7a2.27,2.27,0,0,1,2-1.61,46.65,46.65,0,0,1,11,.91c9,1.56,11.8.19,13.82,1.56s-2.56,4.29-7.32,3.67-10,5-14.18,4.4C73,51.09,70.27,46.47,71.41,42.7Z" transform="translate(0.01)"/><path id="Path_716" data-name="Path 716" class="cls-3" d="M40.78,112a5.92,5.92,0,1,1,5.92-5.92A5.93,5.93,0,0,1,40.78,112Z" transform="translate(0.01)"/><rect id="Rectangle_53" data-name="Rectangle 53" class="cls-3" x="163.77" y="98.37" width="2.55" height="14.23"/><rect id="Rectangle_54" data-name="Rectangle 54" class="cls-3" x="157.93" y="104.21" width="14.23" height="2.55" transform="translate(-26.24 147.6) rotate(-45)"/><rect id="Rectangle_55" data-name="Rectangle 55" class="cls-3" x="157.94" y="104.23" width="14.23" height="2.55"/><rect id="Rectangle_56" data-name="Rectangle 56" class="cls-3" x="163.78" y="98.39" width="2.55" height="14.23" transform="translate(-26.25 147.62) rotate(-45)"/><path id="Path_717" data-name="Path 717" class="cls-3" d="M165,109.19a3.69,3.69,0,1,1,2.62-1.08A3.73,3.73,0,0,1,165,109.19Z" transform="translate(0.01)"/><path id="Path_718" data-name="Path 718" class="cls-3" d="M165,114.32a8.8,8.8,0,1,1,8.8-8.8h0A8.8,8.8,0,0,1,165,114.32Zm0-14.81a6,6,0,1,0,6,6h0A6,6,0,0,0,165,99.51Z" transform="translate(0.01)"/><rect id="Rectangle_57" data-name="Rectangle 57" class="cls-3" x="103.56" y="98.37" width="2.55" height="14.23"/><rect id="Rectangle_58" data-name="Rectangle 58" class="cls-3" x="97.72" y="104.21" width="14.23" height="2.55" transform="translate(-43.87 105.02) rotate(-45)"/><rect id="Rectangle_59" data-name="Rectangle 59" class="cls-3" x="97.73" y="104.23" width="14.23" height="2.55"/><rect id="Rectangle_60" data-name="Rectangle 60" class="cls-3" x="103.58" y="98.38" width="2.55" height="14.23" transform="translate(-43.88 105.04) rotate(-45)"/><path id="Path_719" data-name="Path 719" class="cls-3" d="M104.85,109.19a3.7,3.7,0,1,1,3.69-3.7h0A3.69,3.69,0,0,1,104.85,109.19Z" transform="translate(0.01)"/><path id="Path_720" data-name="Path 720" class="cls-3" d="M104.85,114.32a8.8,8.8,0,1,1,8.8-8.8h0A8.8,8.8,0,0,1,104.85,114.32Zm0-14.81a6,6,0,1,0,6,6h0A6,6,0,0,0,104.85,99.51Z" transform="translate(0.01)"/><path id="Path_721" data-name="Path 721" class="cls-3" d="M124.26,29.22l-12-1.47a1.39,1.39,0,0,0-1.54,1.19,1.37,1.37,0,0,0,1.19,1.53l12,1.47a1.38,1.38,0,0,0,1.52-1.21.71.71,0,0,0,0-.14h0A1.33,1.33,0,0,0,124.26,29.22Z" transform="translate(0.01)"/><path id="Path_722" data-name="Path 722" class="cls-2" d="M111.88,31a2,2,0,0,1-1.28-.72,1.91,1.91,0,0,1-.4-1.42,1.94,1.94,0,0,1,1.9-1.69h.24l9.87,1.19-.47,3.81Z" transform="translate(0.01)"/><path id="Path_723" data-name="Path 723" class="cls-5" d="M250.88,63.3H225.53a.37.37,0,0,1-.39-.34l-3.72-20.74a.36.36,0,0,1,.09-.33.4.4,0,0,1,.33-.13h38.45a.38.38,0,0,1,.35.18.39.39,0,0,1,0,.39l-9.38,20.73A.42.42,0,0,1,250.88,63.3Zm-25-.83H250.6l9-19.93H222.3Z" transform="translate(0.01)"/><path id="Path_724" data-name="Path 724" class="cls-5" d="M252.88,58.52h-28.1a.42.42,0,1,1,0-.83h28.1a.42.42,0,1,1,0,.83Z" transform="translate(0.01)"/><path id="Path_725" data-name="Path 725" class="cls-5" d="M255.25,53.32H223.79a.43.43,0,0,1-.47-.37.42.42,0,0,1,.37-.46.17.17,0,0,1,.1,0h31.46a.41.41,0,0,1,.42.41h0A.46.46,0,0,1,255.25,53.32Z" transform="translate(0.01)"/><path id="Path_726" data-name="Path 726" class="cls-5" d="M257.92,47.79H222.86a.42.42,0,0,1,0-.83h35.07a.42.42,0,1,1,0,.83Z" transform="translate(0.01)"/><path id="Path_727" data-name="Path 727" class="cls-5" d="M230.43,63a.44.44,0,0,1-.42-.37l-2.39-20.45a.43.43,0,0,1,.37-.47.42.42,0,0,1,.46.37l2.4,20.46a.43.43,0,0,1-.38.46Z" transform="translate(0.01)"/><path id="Path_728" data-name="Path 728" class="cls-5" d="M235.49,63.06a.44.44,0,0,1-.42-.4l-.61-20.44a.4.4,0,0,1,.38-.42h0a.39.39,0,0,1,.42.35v.05l.63,20.46a.4.4,0,0,1-.35.42h-.05Z" transform="translate(0.01)"/><path id="Path_729" data-name="Path 729" class="cls-5" d="M240,63h0a.38.38,0,0,1-.37-.41v0l1.58-20.38a.4.4,0,0,1,.42-.38h0a.41.41,0,0,1,.37.43h0L240.4,62.63A.43.43,0,0,1,240,63Z" transform="translate(0.01)"/><path id="Path_730" data-name="Path 730" class="cls-5" d="M244.24,63h-.07a.39.39,0,0,1-.33-.44v0l3.62-20.39a.4.4,0,0,1,.46-.33.39.39,0,0,1,.33.46h0l-3.62,20.39a.38.38,0,0,1-.4.32Z" transform="translate(0.01)"/><path id="Path_731" data-name="Path 731" class="cls-5" d="M248.35,63.06h-.11a.42.42,0,0,1-.28-.51l5.76-20.4a.42.42,0,0,1,.54-.23.41.41,0,0,1,.24.46l-5.73,20.39A.42.42,0,0,1,248.35,63.06Z" transform="translate(0.01)"/><path id="Path_732" data-name="Path 732" class="cls-5" d="M222.23,46.38h-9.36a.55.55,0,0,1,0-1.1h9.36a.55.55,0,1,1,0,1.1Z" transform="translate(0.01)"/><path id="Path_733" data-name="Path 733" class="cls-5" d="M224.72,59.8h-9a.55.55,0,0,1,0-1.1h9a.55.55,0,1,1,0,1.1Z" transform="translate(0.01)"/><path id="Path_734" data-name="Path 734" class="cls-2" d="M164.13,104.52h0a1.22,1.22,0,0,0,0,1.7l10.5,10.5a1.22,1.22,0,0,0,1.7,0h0a1.22,1.22,0,0,0,0-1.7l-10.5-10.5a1.18,1.18,0,0,0-1.66,0A.08.08,0,0,1,164.13,104.52Z" transform="translate(0.01)"/><path id="Path_735" data-name="Path 735" class="cls-3" d="M180.11,114.91h-7.36a1.9,1.9,0,1,0,0,3.8h7.36a1.9,1.9,0,0,0,0-3.8Z" transform="translate(0.01)"/><path id="Path_736" data-name="Path 736" class="cls-2" d="M103.92,104.52h0a1.2,1.2,0,0,0,0,1.7l10.49,10.5a1.22,1.22,0,0,0,1.7,0h0a1.22,1.22,0,0,0,0-1.7l-10.5-10.5a1.17,1.17,0,0,0-1.65,0Z" transform="translate(0.01)"/><path id="Path_737" data-name="Path 737" class="cls-3" d="M119.89,114.91h-7.36a1.9,1.9,0,0,0,0,3.8h7.36a1.9,1.9,0,1,0,0-3.8Z" transform="translate(0.01)"/></g></svg>