<svg id="Laag_1" data-name="Laag 1" xmlns="http://www.w3.org/2000/svg" viewBox="0 0 327.74 327.74"><defs><style>.cls-1{fill:#717070;}.cls-2{fill:none;}</style></defs><g id="Layer_2" data-name="Layer 2"><path class="cls-1" d="M297.64,554.09A133.15,133.15,0,1,1,430.78,420.94,133.15,133.15,0,0,1,297.64,554.09Zm0-245.81A112.67,112.67,0,1,0,410.3,420.94,112.66,112.66,0,0,0,297.64,308.28Z" transform="translate(-133.77 -257.07)"/><path class="cls-1" d="M297.64,431.19A51.21,51.21,0,1,1,348.85,380,51.21,51.21,0,0,1,297.64,431.19Zm0-81.94A30.73,30.73,0,1,0,328.36,380,30.73,30.73,0,0,0,297.64,349.25Z" transform="translate(-133.77 -257.07)"/><path class="cls-1" d="M395.45,502.88a10.22,10.22,0,0,1-7.58-3.28,116.28,116.28,0,0,0-85.52-37.69h-9.42a115.46,115.46,0,0,0-80.4,32.37,10.24,10.24,0,0,1-14.14-14.75,135.6,135.6,0,0,1,94.54-38.1h9.42a137.17,137.17,0,0,1,100.58,44.24,10.24,10.24,0,0,1-7.48,17.21Z" transform="translate(-133.77 -257.07)"/></g><g id="frame"><rect class="cls-2" width="327.74" height="327.74"/></g></svg>